<svg width="100" height="100" viewBox="0 0 100 100" fill="none" xmlns="http://www.w3.org/2000/svg">
<g clip-path="url(#clip0_405_1545)">
<path d="M78.2369 23.6016L84.1808 17.6579C85.3583 16.4767 85.3583 14.5657 84.1808 13.3883C83.0033 12.2108 81.0922 12.2071 79.911 13.3883L73.9671 19.3319C72.7896 20.5131 72.7896 22.4241 73.9671 23.6016C75.1446 24.779 77.0557 24.779 78.2369 23.6016Z" fill="#4B4B4B"/>
<path d="M80.2536 33.0775C80.4116 33.465 80.6373 33.8035 80.9157 34.0819C81.7471 34.9133 83.0261 35.2142 84.1848 34.7478L91.9796 31.5954C93.5257 30.9709 94.2706 29.2104 93.6461 27.6643C93.0216 26.1182 91.261 25.3696 89.7149 25.9978L81.9201 29.1464C80.374 29.7709 79.6291 31.5314 80.2536 33.0775Z" fill="#4B4B4B"/>
<path d="M64.4499 17.2742C65.996 17.8986 67.7528 17.15 68.3811 15.6039L71.5298 7.80949C72.1505 6.26339 71.4094 4.50662 69.8633 3.88216C68.3171 3.25771 66.5603 4.00254 65.9321 5.54864L62.7833 13.3431C62.3168 14.5017 62.6178 15.7807 63.4492 16.6121C63.7276 16.8905 64.0624 17.1162 64.4536 17.2742H64.4499Z" fill="#4B4B4B"/>
<path d="M31.9727 27.7245C32.5483 27.7132 33.1841 27.3671 33.8763 26.675L34.8882 25.663C35.5428 25.0122 35.9002 24.4179 35.9604 23.8912C36.0206 23.3646 35.8024 22.8492 35.3021 22.3489L33.9289 20.9758L29.1362 25.7684L30.2498 26.8819C30.8178 27.4499 31.3934 27.732 31.9727 27.7245Z" fill="#4B4B4B"/>
<path d="M48.6119 55.2421L56.4067 44.7015L45.8657 52.4959L48.6119 55.2421Z" fill="#4B4B4B"/>
<path d="M27.8159 29.628L26.5481 28.3602L20.9805 33.9315L22.6132 35.5641C23.1135 36.0644 23.6214 36.2976 24.1292 36.2751C24.6408 36.2487 25.2239 35.9064 25.8785 35.2519L27.4585 33.6719C28.2899 32.8405 28.7226 32.1258 28.7564 31.5201C28.7903 30.9183 28.4818 30.2863 27.8234 29.6317L27.8159 29.628Z" fill="#4B4B4B"/>
<path d="M42.1754 39.4839C42.7547 39.4726 43.3905 39.1228 44.0789 38.4344L45.8696 36.6438C46.5242 35.9892 46.8816 35.3986 46.9418 34.8719C47.0019 34.3453 46.7838 33.8299 46.2834 33.3296L44.9103 31.9565L39.3389 37.5278L40.4524 38.6413C41.0205 39.2093 41.596 39.4914 42.1754 39.4839Z" fill="#4B4B4B"/>
<path d="M97.3813 60.1511L40.0719 2.84752C38.1194 0.891384 35.4259 -0.13935 32.6646 0.0148843L4.88264 1.57603C3.09948 1.6776 1.6737 3.09956 1.57213 4.88266L0.0146873 32.6636C-0.139552 35.4247 0.887458 38.1219 2.84367 40.0743L60.1494 97.3816C63.6404 100.873 69.3059 100.873 72.797 97.3816L97.3776 72.802C100.872 69.311 100.869 63.6458 97.3776 60.1548L97.3813 60.1511ZM11.5639 18.4966C9.64902 16.5819 9.64902 13.4784 11.5639 11.5636C13.4787 9.64886 16.5785 9.65262 18.4934 11.5636C20.4082 13.4784 20.4082 16.5781 18.4934 18.4929C16.5785 20.4076 13.4749 20.4076 11.5601 18.4929L11.5639 18.4966ZM20.0169 38.1483L15.5365 33.668L33.6653 15.5398L37.9652 19.8396C39.4323 21.3067 40.1659 22.7174 40.1546 24.0716C40.1471 25.4259 39.4323 26.814 38.0178 28.2284L37.3708 28.8754C36.4378 29.8084 35.5199 30.4253 34.6133 30.7262C33.7067 31.0272 32.7963 31.0159 31.8821 30.6849C32.7436 32.6598 32.1567 34.6611 30.1215 36.6962L28.6431 38.1746C27.2474 39.5702 25.8103 40.2737 24.3432 40.2699C22.876 40.2699 21.4314 39.5627 20.0169 38.1483ZM35.377 53.5039L32.4765 50.6036C32.6646 50.2086 32.8753 49.8625 33.101 49.5653C33.3229 49.2719 33.7744 48.7867 34.4478 48.1133L37.2956 45.2656C38.1269 44.4342 38.5671 43.6969 38.631 43.0537C38.695 42.4066 38.394 41.7558 37.7395 41.0975L36.7538 40.1119L29.3729 47.4926L26.5213 44.6411L44.6502 26.513L48.9501 30.8128C50.4172 32.2799 51.1508 33.6905 51.1395 35.0448C51.132 36.4028 50.4172 37.7871 49.0027 39.2053L47.5769 40.6311C45.711 42.4969 43.8639 43.0988 42.0318 42.4443C42.4306 43.3922 42.4494 44.3402 42.0996 45.2807C41.7459 46.2211 41.065 47.1916 40.0681 48.1923L37.2692 50.9911C36.7538 51.5064 36.3513 51.9466 36.0654 52.3002C35.7833 52.6538 35.5538 53.0525 35.3807 53.5039H35.377ZM43.7435 61.8702L46.5424 58.0896L43.0476 54.5949L39.2668 57.3937L36.6523 54.7792L57.6853 39.5477L61.8535 43.7157L46.6252 64.7442L43.751 61.8702H43.7435ZM54.4914 72.6177L64.0731 55.9378L50.9401 69.0703L48.3782 66.5085L66.507 48.3804L70.0809 51.9541L62.1545 65.7336L73.0077 54.8808L75.547 57.42L57.4182 75.5481L54.4914 72.6214V72.6177ZM82.3335 73.1631L73.1657 82.3306C71.6985 83.7977 70.2276 84.5576 68.7605 84.6103C67.2933 84.663 65.8525 83.9821 64.4342 82.5639L59.9274 78.0572L78.0562 59.9291L82.563 64.4358C83.9813 65.8502 84.6622 67.291 84.6095 68.7581C84.5568 70.2252 83.7969 71.6923 82.326 73.1631H82.3335Z" fill="#4B4B4B"/>
<path d="M78.3201 65.3688L65.3677 78.3207L66.974 79.927C67.4405 80.3935 67.9371 80.6117 68.4638 80.5853C68.9867 80.559 69.566 80.2355 70.1867 79.6148L79.6142 70.1877C80.2386 69.5632 80.5584 68.9915 80.5847 68.461C80.6111 67.9381 80.3891 67.4378 79.9264 66.9751L78.3201 65.3688Z" fill="#4B4B4B"/>
</g>
<defs>
<clipPath id="clip0_405_1545">
<rect width="100" height="100" fill="white"/>
</clipPath>
</defs>
</svg>
