<svg width="120" height="120" viewBox="0 0 120 120" fill="none" xmlns="http://www.w3.org/2000/svg">
<path d="M119.571 91.8802L108.885 78.4444V21.9401C108.885 19.2068 106.668 16.9901 103.935 16.9901H16.0655C13.3322 16.9901 11.1166 19.2068 11.1166 21.9401V78.4444L0.430547 91.8802C0.151875 92.2305 0 92.6641 0 93.1141V99.0609C0 101.243 1.76766 103.01 3.94898 103.01H116.051C118.233 103.01 120 101.243 120 99.0609V93.1141C120 92.6641 119.85 92.2305 119.571 91.8802ZM18.0998 23.9745H101.9V71.4602H18.0998V23.9745ZM71.2784 98.3133H48.7216V92.3419H71.2784V98.3133Z" fill="#40322D"/>
<path d="M47.9072 39.2416C47.8798 39.2416 47.8545 39.2501 47.8346 39.2641L34.3521 48.4671C34.3165 48.4934 34.2954 48.532 34.2954 48.5766V51.0506C34.2954 51.0949 34.3165 51.1357 34.3521 51.158L47.8346 60.3609C47.8547 60.3771 47.88 60.3853 47.9072 60.3853C47.9276 60.3853 47.9487 60.3792 47.967 60.3691C48.0094 60.3466 48.0368 60.3021 48.0368 60.2536V56.3105C48.0368 56.2702 48.0157 56.2275 47.9801 56.2031L38.6192 49.8124L47.9801 43.4238C48.0157 43.3976 48.0368 43.3589 48.0368 43.3144V39.3734C48.0368 39.3248 48.0094 39.2782 47.967 39.258C47.9487 39.2459 47.9274 39.2416 47.9072 39.2416Z" fill="#40322D"/>
<path d="M71.735 39.2641C71.7136 39.2501 71.6893 39.2416 71.6618 39.2416C71.6407 39.2416 71.6204 39.2459 71.6011 39.258C71.5596 39.2782 71.5322 39.3248 71.5322 39.3734V43.3165C71.5322 43.3591 71.5536 43.3997 71.5889 43.4238L80.9499 49.8124L71.5889 56.2031C71.5536 56.2275 71.5322 56.2699 71.5322 56.3123V60.2534C71.5322 60.3019 71.5596 60.3464 71.6011 60.3689C71.6204 60.379 71.6407 60.3851 71.6618 60.3851C71.6893 60.3851 71.7134 60.3771 71.735 60.3607L85.2162 51.1577C85.2547 51.1355 85.2748 51.0949 85.2748 51.0504V48.5763C85.2748 48.5318 85.2547 48.4931 85.2162 48.4669L71.735 39.2641Z" fill="#40322D"/>
<path d="M65.9471 37.0837H62.1783C62.1228 37.0837 62.0731 37.1182 62.056 37.1709L53.4982 61.9859C53.4851 62.0243 53.4922 62.0688 53.5156 62.1012C53.5411 62.1356 53.5805 62.1579 53.622 62.1579H57.3907C57.4465 62.1579 57.4962 62.1213 57.5133 62.0688L66.0699 37.2581C66.0842 37.2178 66.0769 37.173 66.0537 37.1386C66.0282 37.1041 65.9888 37.0837 65.9471 37.0837Z" fill="#40322D"/>
</svg>
