<svg width="50" height="60" viewBox="0 0 50 60" fill="none" xmlns="http://www.w3.org/2000/svg">
<path d="M46.2228 16.9592H43.8052V31.9248H46.2228C47.8633 31.9248 49.1922 30.595 49.1922 28.9552V19.9293C49.1922 18.2888 47.8633 16.9592 46.2228 16.9592Z" fill="#4B4B4B"/>
<path d="M47.1083 44.6385C47.109 42.8608 46.3827 41.2366 45.2166 40.0722C44.0531 38.9063 42.4289 38.1798 40.6503 38.1807C38.8718 38.1798 37.2475 38.9063 36.084 40.0722C34.9173 41.2366 34.1916 42.8608 34.1916 44.6385V46.912H32.1084V55.867C32.1084 58.1498 33.9595 59.9999 36.2422 59.9999H45.0593C47.342 59.9999 49.1922 58.1497 49.1922 55.867V46.912H47.1082V44.6385H47.1083ZM37.3271 44.6385C37.3271 44.1755 37.4198 43.7423 37.5875 43.3455C37.8384 42.7509 38.2616 42.2403 38.7923 41.8818C39.3255 41.5225 39.956 41.316 40.6504 41.3153C41.1133 41.3153 41.5467 41.408 41.9435 41.5756C42.5381 41.8266 43.0486 42.2506 43.4071 42.7813C43.7656 43.3136 43.9729 43.9442 43.9736 44.6385V46.912H37.3271V44.6385ZM40.6503 54.902C39.4711 54.902 38.5148 53.9457 38.5148 52.7665C38.5148 51.5873 39.4711 50.631 40.6503 50.631C41.8295 50.631 42.7857 51.5873 42.7857 52.7665C42.7858 53.9457 41.8296 54.902 40.6503 54.902Z" fill="#4B4B4B"/>
<path d="M44.9509 0H41.7103H5.04947C2.70654 0 0.808105 1.89937 0.808105 4.24137V51.6247C0.808105 53.9675 2.70666 55.8669 5.04947 55.8669H29.7142V44.5177H31.7701L31.8387 43.7944C31.9135 42.9987 32.092 42.2325 32.3647 41.5069C31.9174 42.1296 31.2774 42.5355 30.4826 42.5355C28.1905 42.5355 21.8183 42.5355 21.8183 42.5355C21.8183 42.5355 15.4446 42.5355 13.1525 42.5355C10.8603 42.5355 9.82146 39.2023 11.1472 36.8469C12.1456 35.0707 13.7815 33.0592 16.4461 31.9151C17.9697 32.9805 19.8207 33.6078 21.8183 33.6078C23.8135 33.6078 25.6653 32.9804 27.189 31.9151C29.8529 33.0592 31.4896 35.0707 32.4887 36.8469C33.1084 37.9482 33.2056 39.2599 32.9049 40.3479C33.3016 39.6356 33.7958 38.973 34.3928 38.3777C36.0607 36.7059 38.2819 35.7862 40.6472 35.7862C41.0058 35.7862 41.3596 35.8144 41.7103 35.8556V14.9646H46.2228C47.8633 14.9646 49.1922 13.6357 49.1922 11.9959V4.24137C49.1922 1.89937 47.2929 0 44.9509 0ZM28.9036 24.2938C28.9036 28.207 25.7315 31.3792 21.8183 31.3792C17.9035 31.3792 14.7315 28.207 14.7315 24.2938V22.5964C14.7315 18.6824 17.9035 15.5096 21.8183 15.5096C25.7315 15.5096 28.9036 18.6825 28.9036 22.5964V24.2938Z" fill="#4B4B4B"/>
</svg>
