<svg width="230" height="212" viewBox="0 0 230 212" fill="none" xmlns="http://www.w3.org/2000/svg">
<g opacity="0.2">
<path d="M227.759 43.0723C225.51 40.6353 222.042 39.7386 218.892 40.7808L59.7754 93.3291C55.17 94.8618 51.4379 98.2912 49.5448 102.759L23.6653 163.76L22.4812 78.274L172.957 27.8294L172.643 4.99603C172.62 3.37524 171.823 1.86542 170.497 0.926999C169.172 -0.0118683 167.485 -0.249056 165.949 0.267995L82.2794 28.4614C80.4596 29.0787 78.448 28.6151 77.0838 27.2544L61.2474 11.5021C59.8908 10.1571 57.8868 9.68183 56.0742 10.2874L3.47205 27.753C1.376 28.4466 -0.0300588 30.42 0.000488046 32.6306L2.40695 206.718C2.43031 208.327 3.21914 209.833 4.5376 210.772C5.85156 211.707 7.53748 211.963 9.07426 211.453L184.43 153.514C185.809 153.05 186.928 152.023 187.499 150.682L229.33 52.0989C230.625 49.0419 230.012 45.5124 227.759 43.0723Z" fill="#4B4B4B"/>
</g>
</svg>
