<svg width="38" height="38" viewBox="0 0 38 38" fill="none" xmlns="http://www.w3.org/2000/svg">
<path d="M29.0975 0L29.0498 0.000742187C29.0498 0.000742187 29.0498 0.000742187 29.0505 0.000742187C29.0505 0.000742187 29.0505 0 29.0511 0.000742187L29.0975 0Z" fill="#4B4B4B"/>
<path d="M36.1935 4.56425L36.1908 4.56151C36.1866 4.55735 36.1832 4.55327 36.1792 4.54918H36.1784C36.1737 4.54503 36.1716 4.54236 36.1641 4.5356L33.4544 1.8258C33.4537 1.82447 33.4523 1.8238 33.451 1.82239C32.2396 0.611064 30.6383 -0.00176033 29.0506 0.00098576C27.4629 -0.00176033 25.8616 0.610396 24.6489 1.8238L22.0986 4.37403L21.1306 5.34132L0 26.4727V38.0002H11.5282L32.6588 16.8703L33.6268 15.9024L36.1771 13.3515C37.3898 12.1393 38.002 10.5374 37.9999 8.95036C38.0019 7.37017 37.3946 5.77632 36.1954 4.567L36.1935 4.56425ZM10.1362 34.6408H3.36003V27.8647L23.5063 7.71766L30.2824 14.4938L10.1362 34.6408ZM33.8014 10.9756L32.2185 12.5578L25.4431 5.78166L27.0253 4.19954C27.5877 3.63778 28.313 3.36243 29.0506 3.36042C29.7882 3.36243 30.5129 3.63785 31.0759 4.19954L33.8014 6.92426C34.3631 7.48736 34.6385 8.2127 34.6399 8.95028C34.6385 9.68787 34.3631 10.4125 33.8014 10.9756Z" fill="#4B4B4B"/>
</svg>
