<svg width="467" height="221" viewBox="0 0 467 221" fill="none" xmlns="http://www.w3.org/2000/svg">
<path d="M376.935 126.831V87.7345C376.939 81.6301 374.965 75.0285 371.488 68.8283C368.022 62.6309 363.068 56.8504 357.29 52.3552C353.44 49.3601 349.23 46.9325 344.872 45.2977C340.783 43.7642 336.962 43.0669 333.547 43.0669C331.945 43.0669 330.44 43.2249 329.028 43.5149L324.518 46.6186L324.354 46.712C322.017 48.0671 320.149 49.9637 318.789 52.5001C317.442 55.0341 316.618 58.2363 316.618 62.1255V105.726L372.808 126.831H376.935ZM362.238 103.264L330.305 91.2707V82.0214L362.238 94.0173V103.264Z" fill="#4B4B4B"/>
<path d="M424.03 158.482C423.209 157.262 421.843 155.917 419.939 154.617C418.674 153.749 417.174 152.909 415.472 152.122C413.208 151.067 410.586 150.116 407.686 149.321C405.217 148.64 402.548 148.075 399.727 147.637V156.536C399.73 158.827 399.175 160.972 398.165 162.783C397.154 164.602 395.713 166.069 394.084 167.141C392.993 167.856 391.822 168.408 390.614 168.804C389.003 169.331 387.329 169.587 385.656 169.587C383.894 169.587 382.129 169.302 380.453 168.698C378.779 168.097 377.188 167.164 375.859 165.859C374.976 164.993 374.219 163.962 373.655 162.807C372.901 161.257 372.504 159.501 372.507 157.646V147.769C368.983 148.349 365.705 149.137 362.778 150.088C358.725 151.403 355.339 153.039 352.88 154.764C351.235 155.915 350.009 157.093 349.212 158.189C348.75 158.816 348.429 159.412 348.211 159.972C347.968 160.617 347.856 161.213 347.854 161.827C347.856 162.436 347.965 163.027 348.206 163.664C348.447 164.301 348.828 164.983 349.388 165.7C350.497 167.136 352.338 168.696 354.844 170.133C356.512 171.1 358.469 172.007 360.661 172.828C363.583 173.919 366.926 174.849 370.572 175.543C375.432 176.476 380.834 176.999 386.516 176.999C393.04 176.999 399.196 176.308 404.588 175.103C409.98 173.906 414.607 172.177 418.045 170.216C420.341 168.913 422.095 167.509 423.245 166.185C423.903 165.426 424.37 164.698 424.675 164.021C425.022 163.249 425.173 162.55 425.175 161.827C425.175 161.293 425.09 160.775 424.908 160.225C424.727 159.677 424.442 159.097 424.03 158.482Z" fill="#4B4B4B"/>
<path d="M380.956 162.9C381.51 163.255 382.129 163.54 382.795 163.75C383.676 164.027 384.656 164.175 385.632 164.175H385.676C386.868 164.175 388.071 163.957 389.138 163.556C390.267 163.131 391.234 162.525 392.011 161.745C392.56 161.198 392.988 160.594 393.325 159.903C393.802 158.897 394.04 157.796 394.045 156.537V130.563C394.045 129.677 393.522 128.863 392.693 128.462C392.341 128.29 391.952 128.205 391.568 128.205C391.056 128.205 390.548 128.353 390.117 128.648L379.914 135.667C379.689 135.737 379.472 135.838 379.269 135.968C378.593 136.408 378.189 137.136 378.189 137.913V157.654C378.194 158.859 378.448 159.89 378.966 160.823C379.435 161.654 380.08 162.33 380.956 162.9Z" fill="#4B4B4B"/>
<path d="M438.733 34.2343C437.837 31.1534 436.515 28.0445 434.821 25.0286C431.448 18.9943 426.608 13.3459 420.985 8.97756C417.239 6.06017 413.155 3.71043 408.953 2.13472C405.015 0.653033 401.372 0 398.164 0C394.584 0.00518555 391.563 0.800648 389.101 2.18934L338.091 37.2813C341.052 37.6751 344.107 38.447 347.224 39.6183C354.808 42.471 361.723 47.2459 367.451 53.0779C373.177 58.9154 377.722 65.8177 380.473 73.0464C382.064 77.228 383.054 81.5265 383.287 85.7859H383.344V87.7343V126.676L440.096 87.6357V43.2786C440.096 40.3671 439.63 37.3173 438.733 34.2343Z" fill="#4B4B4B"/>
<g clip-path="url(#clip0_405_1504)">
<path d="M151.616 162.545L153.553 165.225L164.565 180.469L159.246 196.63L174.14 193.728L182.709 205.588L220.611 162.621L151.616 162.545ZM158.23 165.929L210.176 165.987L167.424 178.66L158.23 165.929ZM164.257 192.212L167.008 183.851L171.962 190.71L164.257 192.212ZM182.971 200.184L168.921 180.733L211.182 168.205L182.971 200.184Z" fill="#4B4B4B"/>
</g>
<path d="M1 215.246C48.6184 215.779 75.1626 216.229 139.089 200.701" stroke="#677E78" stroke-width="2" stroke-linecap="round" stroke-dasharray="2 2"/>
<path d="M1 215.246C48.6184 215.779 75.1626 216.229 139.089 200.701" stroke="#4B4B4B" stroke-width="2" stroke-linecap="round" stroke-dasharray="2 2"/>
<defs>
<clipPath id="clip0_405_1504">
<rect width="65.5606" height="65.5606" fill="white" transform="translate(160.352 136) rotate(18.2169)"/>
</clipPath>
</defs>
</svg>
