<svg width="45" height="36" viewBox="0 0 45 36" fill="none" xmlns="http://www.w3.org/2000/svg">
<path d="M44.8839 5.0285C44.681 4.00668 44.228 3.07161 43.5952 2.29914C43.4618 2.13082 43.3224 1.98009 43.1713 1.82936C42.0503 0.702775 40.4769 0 38.758 0H6.24209C4.52321 0 2.95542 0.702775 1.8291 1.82936C1.67836 1.98009 1.53897 2.13082 1.4052 2.29914C0.772121 3.07152 0.319044 4.00668 0.121817 5.0285C0.0407813 5.42286 0 5.83041 0 6.24244V29.0794C0 29.9555 0.185801 30.7976 0.517149 31.5582C0.824504 32.2841 1.27767 32.941 1.82901 33.4918C1.96875 33.6312 2.10753 33.7594 2.25897 33.8868C3.3388 34.7811 4.73266 35.3212 6.24209 35.3212H38.758C40.268 35.3212 41.6679 34.7811 42.7415 33.8812C42.8925 33.7594 43.0319 33.6312 43.1713 33.4918C43.7224 32.941 44.1755 32.2841 44.4892 31.5582V31.5525C44.8204 30.792 45 29.9555 45 29.0795V6.24244C45.0001 5.83041 44.9599 5.42286 44.8839 5.0285ZM4.08771 4.08771C4.64538 3.53066 5.3943 3.19342 6.24209 3.19342H38.758C39.6058 3.19342 40.3613 3.53066 40.9124 4.08771C41.011 4.18694 41.1039 4.29751 41.1859 4.40737L24.1433 19.2605C23.6732 19.6724 23.0926 19.8759 22.5 19.8759C21.9135 19.8759 21.3332 19.6724 20.8569 19.2605L3.82079 4.40104C3.8962 4.29118 3.9891 4.18694 4.08771 4.08771ZM3.19342 29.0794V7.70565L15.5266 18.4648L3.19966 29.2125C3.19342 29.1717 3.19342 29.1259 3.19342 29.0794ZM38.758 32.1272H6.24209C5.69005 32.1272 5.17352 31.9821 4.73266 31.7271L17.7386 20.3928L18.9528 21.449C19.9689 22.332 21.2404 22.7792 22.5 22.7792C23.7662 22.7792 25.0376 22.332 26.0536 21.449L27.2672 20.3928L40.268 31.7271C39.8266 31.9821 39.31 32.1272 38.758 32.1272ZM41.8067 29.0794C41.8067 29.1259 41.8067 29.1717 41.8007 29.2125L29.4738 18.471L41.8067 7.71136V29.0794Z" fill="white"/>
</svg>
