<svg width="112" height="126" viewBox="0 0 112 126" fill="none" xmlns="http://www.w3.org/2000/svg">
<path d="M40.4167 108.408C41.1945 108.693 42.0562 108.294 42.3412 107.516C42.6262 106.738 42.2267 105.877 41.4488 105.592L40.4167 108.408ZM40.9328 48L41.6397 49.323L40.9328 48ZM40.9328 1.5H39.4328V4.5H40.9328V1.5ZM41.4488 105.592C36.0897 103.628 30.2158 100.75 25.2349 97.1303C20.2341 93.4962 16.2658 89.2109 14.5008 84.4761C12.772 79.8385 13.0873 74.5909 17.0028 68.7405C20.9682 62.8155 28.6373 56.2708 41.6397 49.323L40.2258 46.677C27.0282 53.7292 18.8682 60.5595 14.5096 67.072C10.1011 73.6591 9.59763 79.9115 11.6897 85.5239C13.7456 91.0391 18.2376 95.7538 23.4712 99.5572C28.7247 103.375 34.8591 106.372 40.4167 108.408L41.4488 105.592ZM41.6397 49.323C58.0443 40.5571 69.1994 33.304 75.9578 27.3267C79.3334 24.3412 81.6911 21.6059 83.0369 19.0879C84.3937 16.5494 84.7825 14.1036 83.9675 11.8624C83.1669 9.66061 81.319 7.97983 78.9068 6.68755C76.4856 5.39047 73.3363 4.39667 69.6399 3.63986C62.2413 2.12505 52.3409 1.5 40.9328 1.5V4.5C52.2746 4.5 61.9368 5.12495 69.0382 6.57889C72.5918 7.30646 75.4269 8.22672 77.4901 9.33199C79.5622 10.442 80.6988 11.6519 81.1481 12.8876C81.5831 14.0839 81.4875 15.6224 80.3911 17.6738C79.2838 19.7456 77.2196 22.2057 73.9703 25.0795C67.4786 30.821 56.5712 37.9429 40.2258 46.677L41.6397 49.323Z" fill="#40322D"/>
<line x1="4.93577" y1="56.7584" x2="83.9358" y2="35.7584" stroke="#40322D" stroke-width="0.5"/>
<rect x="38.5" y="104.5" width="5.5" height="5.5" rx="2.75" fill="#F8F6F0" stroke="#4B4B4B"/>
<rect x="34" y="0.5" width="5.5" height="5.5" rx="2.75" stroke="#40322D"/>
<rect x="41.5" y="43.5" width="5.5" height="5.5" rx="2.75" fill="#F8F6F0" stroke="#40322D"/>
<rect x="87.0796" y="33.1658" width="4" height="4" transform="rotate(78.1067 87.0796 33.1658)" stroke="#40322D"/>
<rect x="4.50636" y="54.5923" width="4" height="4" transform="rotate(78.1067 4.50636 54.5923)" stroke="#40322D"/>
<rect x="2" y="3" width="24" height="24" fill="#F8F6F0" stroke="#40322D" stroke-width="4"/>
<path d="M15.9 16.632L14.492 12.784C14.4227 12.6133 14.3507 12.4107 14.276 12.176C14.2013 11.9413 14.1267 11.688 14.052 11.416C13.9827 11.688 13.9107 11.944 13.836 12.184C13.7613 12.4187 13.6893 12.624 13.62 12.8L12.22 16.632H15.9ZM19.7 21H18.036C17.8493 21 17.6973 20.9547 17.58 20.864C17.4627 20.768 17.3747 20.6507 17.316 20.512L16.452 18.152H11.66L10.796 20.512C10.7533 20.6347 10.6707 20.7467 10.548 20.848C10.4253 20.9493 10.2733 21 10.092 21H8.412L12.964 9.432H15.156L19.7 21Z" fill="#40322D"/>
<rect x="91.0796" y="47.931" width="22.4417" height="11.9925" rx="2" transform="rotate(48.6943 91.0796 47.931)" fill="#40322D"/>
<path d="M80.2801 58.458C81.0823 58.0948 82.0277 58.299 82.6084 58.961L93.5201 71.3999C94.2485 72.2302 94.1658 73.4939 93.3355 74.2223L61.5006 102.149C61.2369 102.38 60.9169 102.538 60.5728 102.606L43.8154 105.948C42.3135 106.247 41.046 104.816 41.5244 103.362L51.8196 72.0534C51.9945 71.5214 52.3845 71.0871 52.8946 70.8561L80.2801 58.458Z" fill="#40322D"/>
<path d="M94.3156 74.4581C94.7802 73.71 94.7008 72.7461 94.1201 72.0841L83.2084 59.6452C82.48 58.8148 81.2164 58.7322 80.386 59.4606L48.5512 87.3869C48.2874 87.6183 48.0892 87.915 47.9763 88.2472L42.4809 104.427C41.9884 105.877 43.2418 107.32 44.7466 107.035L77.1291 100.905C77.6793 100.801 78.1607 100.471 78.4561 99.9954L94.3156 74.4581Z" fill="#40322D"/>
<path d="M41.7526 110.58C39.3641 110.964 37.3798 108.747 38.0261 106.415V106.415C38.7273 103.886 41.9483 103.132 43.6987 105.088V105.088C45.4492 107.044 44.3442 110.162 41.7526 110.58V110.58Z" fill="#40322D"/>
<rect x="43.5977" y="102.352" width="4.20782" height="4.20782" transform="rotate(48.1751 43.5977 102.352)" fill="#40322D"/>
<rect x="60.522" y="89.0917" width="1.40261" height="23.8443" transform="rotate(48.1751 60.522 89.0917)" fill="#F8F6F0"/>
<circle cx="64.3415" cy="86.6149" r="4.90912" transform="rotate(48.1751 64.3415 86.6149)" fill="#F8F6F0"/>
</svg>
