<svg width="166" height="184" viewBox="0 0 166 184" fill="none" xmlns="http://www.w3.org/2000/svg">
<path fill-rule="evenodd" clip-rule="evenodd" d="M58.1305 1.79492H60.3532C77.2579 1.79492 91.9284 2.72288 102.892 4.97178C108.369 6.09535 113.036 7.57076 116.623 9.49642C120.198 11.415 122.936 13.9103 124.123 17.1791C125.33 20.5064 124.754 24.1375 122.744 27.9062C120.749 31.6445 117.256 35.7052 112.254 40.1376C102.239 49.0116 85.7093 59.7796 61.4007 72.7935C42.1337 83.1083 30.7694 92.8247 24.8935 101.621C19.0915 110.307 18.6243 118.097 21.186 124.982C23.8014 132.012 29.6817 138.374 37.0919 143.769C44.4727 149.143 53.1767 153.415 61.1179 156.331C62.2705 156.754 62.8625 158.033 62.4402 159.188C62.0179 160.343 60.7411 160.936 59.5885 160.513C51.3532 157.489 42.2632 153.04 34.4785 147.372C26.7233 141.725 20.0669 134.726 17.0206 126.538C13.9205 118.206 14.6665 108.923 21.1991 99.1439C27.6576 89.4754 39.7493 79.335 59.3056 68.8653C83.5264 55.8984 99.6891 45.3252 109.309 36.8014C114.123 32.5348 117.182 28.8826 118.823 25.8068C120.448 22.7613 120.589 20.4771 119.945 18.7011C119.279 16.8665 117.595 15.0704 114.524 13.4224C111.467 11.7815 107.266 10.4153 102 9.33511C91.4772 7.17656 77.1597 6.24876 60.3532 6.24876H58.1305V1.79492Z" fill="#40322D"/>
<path fill-rule="evenodd" clip-rule="evenodd" d="M124.588 53.3948L7.4161 84.5418L7.22559 83.8251L124.398 52.6781L124.588 53.3948Z" fill="#40322D"/>
<path d="M56.5415 159.303C56.5415 156.577 58.7515 154.367 61.4776 154.367C64.2038 154.367 66.4138 156.577 66.4138 159.303C66.4138 162.029 64.2038 164.239 61.4776 164.239C58.7515 164.239 56.5415 162.029 56.5415 159.303Z" fill="#F8F6F0"/>
<path fill-rule="evenodd" clip-rule="evenodd" d="M58.0603 159.303C58.0603 161.19 59.5903 162.72 61.4776 162.72C63.365 162.72 64.895 161.19 64.895 159.303C64.895 157.416 63.365 155.886 61.4776 155.886C59.5903 155.886 58.0603 157.416 58.0603 159.303ZM61.4776 154.367C58.7515 154.367 56.5415 156.577 56.5415 159.303C56.5415 162.029 58.7515 164.239 61.4776 164.239C64.2038 164.239 66.4138 162.029 66.4138 159.303C66.4138 156.577 64.2038 154.367 61.4776 154.367Z" fill="#4B4B4B"/>
<path fill-rule="evenodd" clip-rule="evenodd" d="M50.8806 4.93615C50.8806 6.82349 52.4106 8.35348 54.298 8.35348C56.1853 8.35348 57.7153 6.82349 57.7153 4.93615C57.7153 3.04881 56.1853 1.51881 54.298 1.51881C52.4106 1.51881 50.8806 3.04881 50.8806 4.93615ZM54.298 0C51.5718 0 49.3618 2.20999 49.3618 4.93615C49.3618 7.6623 51.5718 9.87229 54.298 9.87229C57.0241 9.87229 59.2341 7.6623 59.2341 4.93615C59.2341 2.20999 57.0241 0 54.298 0Z" fill="#40322D"/>
<path d="M61.0288 68.6573C61.0288 65.9312 63.0379 63.7212 65.5162 63.7212C67.9945 63.7212 70.0036 65.9312 70.0036 68.6573C70.0036 71.3835 67.9945 73.5935 65.5162 73.5935C63.0379 73.5935 61.0288 71.3835 61.0288 68.6573Z" fill="#F8F6F0"/>
<path fill-rule="evenodd" clip-rule="evenodd" d="M62.4095 68.6573C62.4095 70.5447 63.8004 72.0747 65.5162 72.0747C67.232 72.0747 68.6229 70.5447 68.6229 68.6573C68.6229 66.77 67.232 65.24 65.5162 65.24C63.8004 65.24 62.4095 66.77 62.4095 68.6573ZM65.5162 63.7212C63.0379 63.7212 61.0288 65.9312 61.0288 68.6573C61.0288 71.3835 63.0379 73.5935 65.5162 73.5935C67.9945 73.5935 70.0036 71.3835 70.0036 68.6573C70.0036 65.9312 67.9945 63.7212 65.5162 63.7212Z" fill="#40322D"/>
<path fill-rule="evenodd" clip-rule="evenodd" d="M129.5 54.4237L128.583 50.0696L124.229 50.9867L125.146 55.3407L129.5 54.4237ZM129.729 48.3126L122.472 49.841L124.001 57.0977L131.257 55.5694L129.729 48.3126Z" fill="#40322D"/>
<path fill-rule="evenodd" clip-rule="evenodd" d="M7.02817 86.2034L6.11116 81.8493L1.75711 82.7663L2.67412 87.1204L7.02817 86.2034ZM7.25684 80.0923L8.45828e-05 81.6206L1.52844 88.8774L8.78519 87.349L7.25684 80.0923Z" fill="#40322D"/>
<path d="M0 1.79492H41.2841V43.079H0V1.79492Z" fill="#E2DBD3"/>
<path fill-rule="evenodd" clip-rule="evenodd" d="M35.3864 7.69265H5.89773V37.1813H35.3864V7.69265ZM0 1.79492V43.079H41.2841V1.79492H0Z" fill="#40322D"/>
<path d="M23.8766 24.9731L21.7497 19.3009C21.6449 19.0493 21.5361 18.7505 21.4234 18.4046C21.3106 18.0587 21.1978 17.6853 21.085 17.2843C20.9802 17.6853 20.8715 18.0626 20.7587 18.4164C20.6459 18.7623 20.5371 19.065 20.4324 19.3244L18.3175 24.9731H23.8766ZM29.6171 31.4119H27.1034C26.8214 31.4119 26.5918 31.3451 26.4145 31.2114C26.2373 31.0699 26.1043 30.8969 26.0157 30.6925L24.7105 27.2137H17.4715L16.1663 30.6925C16.1019 30.8733 15.977 31.0384 15.7917 31.1878C15.6064 31.3372 15.3768 31.4119 15.1028 31.4119H12.5649L19.4414 14.3597H22.7527L29.6171 31.4119Z" fill="#40322D"/>
<path d="M132.861 73.0489C134.091 71.9675 135.966 72.0885 137.047 73.3192L155.102 93.8664C156.183 95.097 156.062 96.9713 154.831 98.0527L145.926 105.878C144.696 106.959 142.821 106.838 141.74 105.607L123.685 85.06C122.604 83.8293 122.725 81.955 123.956 80.8736L132.861 73.0489Z" fill="#40322D"/>
<path d="M119.072 86.7043C120.262 86.1656 121.664 86.4685 122.526 87.4504L138.71 105.9C139.79 107.131 139.668 109.005 138.436 110.086L91.2189 151.506C90.8277 151.849 90.3531 152.083 89.8427 152.185L64.9884 157.141C62.7607 157.585 60.8808 155.463 61.5904 153.305L76.86 106.869C77.1195 106.08 77.6979 105.436 78.4545 105.093L119.072 86.7043Z" fill="#40322D"/>
<path d="M139.89 110.436C140.579 109.326 140.462 107.896 139.6 106.914L123.416 88.4653C122.336 87.2337 120.462 87.1111 119.23 88.1915L72.0129 129.611C71.6217 129.955 71.3276 130.395 71.1603 130.887L63.0095 154.885C62.279 157.035 64.1381 159.176 66.37 158.753L114.399 149.662C115.215 149.507 115.929 149.018 116.368 148.312L139.89 110.436Z" fill="#40322D"/>
<path d="M61.9279 164.01C58.3854 164.581 55.4422 161.292 56.4008 157.834C57.4409 154.082 62.2182 152.965 64.8144 155.866C67.4107 158.767 65.7717 163.392 61.9279 164.01Z" fill="#40322D"/>
<path d="M64.6646 151.808L68.8264 156.459L64.1757 160.62L60.0139 155.97L64.6646 151.808Z" fill="#40322D"/>
<path d="M89.7661 132.14L91.1534 133.69L64.7994 157.274L63.4122 155.723L89.7661 132.14Z" fill="#E2DBD3"/>
<path d="M100.287 133.892C97.29 136.573 92.6869 136.318 90.0053 133.321C87.3237 130.325 87.5791 125.722 90.5756 123.04C93.5722 120.359 98.1753 120.614 100.857 123.611C103.539 126.607 103.283 131.21 100.287 133.892Z" fill="#E2DBD3"/>
</svg>
