<svg width="17" height="65" viewBox="0 0 17 65" fill="none" xmlns="http://www.w3.org/2000/svg">
<path d="M8.5 16.224C9.428 16.224 10.196 16.992 10.196 17.92C10.196 18.864 9.428 19.632 8.5 19.632C7.556 19.632 6.788 18.864 6.788 17.92C6.788 16.992 7.556 16.224 8.5 16.224Z" fill="#40322D"/>
<path d="M8.5 31.224C9.428 31.224 10.196 31.992 10.196 32.92C10.196 33.864 9.428 34.632 8.5 34.632C7.556 34.632 6.788 33.864 6.788 32.92C6.788 31.992 7.556 31.224 8.5 31.224Z" fill="#40322D"/>
<path d="M8.5 46.224C9.428 46.224 10.196 46.992 10.196 47.92C10.196 48.864 9.428 49.632 8.5 49.632C7.556 49.632 6.788 48.864 6.788 47.92C6.788 46.992 7.556 46.224 8.5 46.224Z" fill="#40322D"/>
</svg>
