<svg width="334" height="235" viewBox="0 0 334 235" fill="none" xmlns="http://www.w3.org/2000/svg">
<path d="M250.183 153.753L243.915 146.022C222.885 122.355 192.695 105.046 182.635 99.6342L177.225 108.224C173.229 114.656 165.248 117.76 157.92 115.762C157.802 115.719 157.609 115.644 157.491 115.601C148.76 112.702 143.628 103.715 145.664 94.8022C147.506 86.7166 150.56 79.1464 154.706 72.1561L145.546 70.8568C139.246 69.9548 132.668 71.1682 127.108 74.2285L121.976 77.0096C115.441 80.6175 107.728 81.0148 100.828 78.1907L89.7829 73.5949L47.4546 139.923L63.0746 150.435L71.3774 142.113C74.5486 138.935 78.7803 137.163 83.2799 137.163C87.7795 137.163 92.0113 138.935 95.1824 142.113C98 144.905 99.607 148.545 99.9606 152.475C105.521 151.058 111.67 152.475 116.009 156.835C119.18 160.013 120.905 164.255 120.905 168.764C120.905 170.182 120.712 171.546 120.359 172.888C124.269 173.285 127.879 174.885 130.654 177.677H130.697C135.004 182.036 136.418 188.189 135.047 193.762C138.925 194.116 142.567 195.727 145.342 198.508V198.551C148.513 201.73 150.27 205.971 150.27 210.481C150.27 214.4 148.942 218.094 146.553 221.079L155.209 231.71C159.794 236.144 167.583 236.101 172.083 231.549C174.354 229.272 175.607 226.255 175.607 223.034C175.607 219.812 174.472 217.106 172.436 214.905L168.869 211.329C167.187 209.643 167.187 206.895 168.869 205.209C170.551 203.523 173.25 203.523 174.943 205.209L178.586 208.86L181.489 211.802C186.181 216.473 193.82 216.473 198.523 211.802C198.598 211.684 198.716 211.608 198.834 211.49C203.183 206.819 203.141 199.442 198.598 194.847L191.27 187.513C189.588 185.827 189.588 183.121 191.27 181.424C192.952 179.739 195.695 179.739 197.377 181.381L207.951 191.98C212.536 196.575 220.4 196.575 224.942 191.98C227.213 189.703 228.467 186.686 228.467 183.465C228.467 180.243 227.331 177.462 225.221 175.229L214.175 164.201C213.35 163.342 212.922 162.236 212.922 161.141C212.922 160.045 213.35 158.907 214.175 158.08C215.857 156.394 218.6 156.394 220.282 158.08L233.791 171.621C236.341 174.176 239.898 175.54 243.465 175.465C246.754 175.422 249.69 174.09 251.8 171.814C253.793 169.581 254.929 166.714 254.929 163.685C254.929 162.161 254.618 160.668 254.072 159.251C252.818 157.372 251.522 155.525 250.161 153.721L250.183 153.753Z" fill="#40322D"/>
<path d="M199.808 71.2135L184.292 65.9731C176.518 63.3852 168.133 66.3919 163.779 72.9209L163.082 74.0054C158.664 80.8243 155.469 88.4163 153.614 96.5453C152.584 101.055 155.34 105.77 159.865 107.284C163.533 108.282 167.446 106.779 169.494 103.482L177.033 91.4982C177.848 90.2096 179.242 89.4794 180.678 89.4794C181.322 89.4794 181.965 89.619 182.576 89.9197C184.871 91.0472 237.467 117.206 261.723 155.542L286.932 141.163L243.751 73.4256C229.157 76.7652 214.07 76.0457 199.798 71.2135H199.808Z" fill="#40322D"/>
<path d="M138.882 204.276C137.354 202.744 135.307 201.892 133.121 201.892C130.935 201.892 128.887 202.733 127.349 204.276L116.049 215.607C112.876 218.799 112.876 223.992 116.049 227.184C119.105 230.248 124.516 230.248 127.582 227.184L138.882 215.852C140.41 214.32 141.259 212.266 141.259 210.064C141.259 207.861 140.41 205.819 138.882 204.276Z" fill="#40322D"/>
<path d="M124.513 183.328C122.971 181.783 120.906 180.924 118.691 180.924C116.475 180.924 114.42 181.772 112.879 183.328L98.4095 197.824C96.8684 199.37 96.0122 201.441 96.0122 203.662C96.0122 205.883 96.8684 207.943 98.4095 209.499C101.503 212.6 106.961 212.6 110.043 209.499L124.513 195.002C127.713 191.783 127.713 186.547 124.513 183.339V183.328Z" fill="#40322D"/>
<path d="M111.463 169.097C111.463 166.944 110.628 164.927 109.126 163.411C107.561 161.844 105.507 161.06 103.452 161.06C101.397 161.06 99.3419 161.844 97.7773 163.411L80.6915 180.531C79.1894 182.036 78.355 184.053 78.355 186.216C78.355 188.38 79.1894 190.387 80.6915 191.902C83.706 194.923 89.0153 194.923 92.0403 191.902L109.126 174.783C110.628 173.278 111.463 171.26 111.463 169.097Z" fill="#40322D"/>
<path d="M89.187 148.007C87.6458 146.466 85.5803 145.61 83.3756 145.61C81.1709 145.61 79.1053 146.455 77.5535 148.007L63.0946 162.464C61.5428 164.005 60.6973 166.07 60.6973 168.285C60.6973 170.5 61.5535 172.555 63.0946 174.106C66.2946 177.306 71.5174 177.317 74.7388 174.106L89.1977 159.649C92.3977 156.439 92.3977 151.217 89.1977 148.017L89.187 148.007Z" fill="#40322D"/>
<path d="M82.6562 54.6552L62.5837 41.9297C59.1537 39.7338 54.5374 40.7514 52.3694 44.1577L1.16871 123.756C-1.0424 127.162 -0.0177386 131.747 3.41218 133.932L23.474 146.658C25.1673 147.718 27.1412 148.072 29.0718 147.632C31.0025 147.204 32.6636 146.069 33.7206 144.419L84.932 64.8313C87.1 61.3821 86.1185 56.8404 82.6454 54.6552H82.6562ZM31.0241 127.505C28.6836 131.147 23.8083 132.218 20.1411 129.894C16.4739 127.57 15.3953 122.728 17.7359 119.086C20.0764 115.444 24.9516 114.373 28.6188 116.697C32.286 119.022 33.3646 123.863 31.0133 127.505H31.0241Z" fill="#40322D"/>
<path d="M332.125 123.772L280.919 44.161C279.852 42.5218 278.202 41.3434 276.271 40.947C274.341 40.5184 272.367 40.872 270.674 41.9219L250.615 54.6494C247.185 56.8456 246.161 61.3881 248.372 64.8271L299.577 144.428C301.788 147.834 306.36 148.852 309.79 146.656L329.849 133.928C333.322 131.732 334.303 127.158 332.135 123.751L332.125 123.772ZM313.133 129.911C309.466 132.236 304.592 131.175 302.251 127.522C299.911 123.869 300.979 119.037 304.656 116.712C308.323 114.387 313.198 115.448 315.538 119.101C317.878 122.744 316.81 127.586 313.144 129.911H313.133Z" fill="#40322D"/>
<path d="M163.285 1.83276V23.2132" stroke="#EB7F4C" stroke-width="2.04" stroke-linecap="round" stroke-linejoin="round"/>
<path d="M196.483 13.2698L186.253 22.4192" stroke="#EB7F4C" stroke-width="2.04" stroke-linecap="round" stroke-linejoin="round"/>
<path d="M212.971 39.511L186.253 41.3536" stroke="#EB7F4C" stroke-width="2.04" stroke-linecap="round" stroke-linejoin="round"/>
<path d="M130.084 13.2698L140.314 22.4192" stroke="#EB7F4C" stroke-width="2.04" stroke-linecap="round" stroke-linejoin="round"/>
<path d="M114.773 39.4792L140.315 41.5442" stroke="#EB7F4C" stroke-width="2.04" stroke-linecap="round" stroke-linejoin="round"/>
</svg>
