<svg width="150" height="114" viewBox="0 0 150 114" fill="none" xmlns="http://www.w3.org/2000/svg">
<g clip-path="url(#clip0_405_415)">
<path d="M29.29 56.7483C34.194 57.2823 38.6057 53.7377 39.1397 48.8299C39.6736 43.9221 36.1291 39.5142 31.2213 38.9802C26.3135 38.4463 21.9055 41.9908 21.3716 46.8986C20.8376 51.8064 24.3822 56.2144 29.29 56.7521V56.7483Z" fill="#40322D"/>
<path d="M29.7064 92.489H16.831C13.8015 92.489 11.2226 90.3267 10.6924 87.3426L6.28828 62.4438C5.98912 60.7548 4.37969 59.6225 2.69452 59.9331C1.00557 60.2284 -0.119139 61.8379 0.180026 63.5268L4.58797 88.4256C5.64072 94.3748 10.7871 98.6919 16.831 98.6919H27.5214V109.973C27.5214 111.685 28.9074 113.075 30.6228 113.075C32.3383 113.075 33.7243 111.685 33.7243 109.973V96.5069C33.7243 94.2915 31.9218 92.4928 29.7102 92.4928L29.7064 92.489Z" fill="#40322D"/>
<path d="M39.8516 79.4545H31.7211L33.838 69.7828L39.5713 72.5472C40.1318 72.8161 40.7453 72.9562 41.3663 72.9562C41.4307 72.9562 41.4913 72.9562 41.5519 72.9524L50.2087 72.5661C52.4884 72.4639 54.2569 70.5326 54.1547 68.2491C54.0524 65.9694 52.0984 64.2047 49.8414 64.3031L42.226 64.644C42.226 64.644 33.5615 60.1224 32.4936 59.8725C31.2894 59.5885 26.374 58.5206 26.374 58.5206C24.6434 58.1457 22.8674 58.4675 21.3791 59.4332C19.8909 60.3989 18.876 61.8871 18.5124 63.6215L14.9035 80.9617C14.5097 82.8665 14.9831 84.8281 16.2138 86.3391C17.4445 87.85 19.2622 88.7172 21.2125 88.7172H35.561C36.485 88.7172 37.2348 89.467 37.2348 90.391V108.261C37.2348 110.821 39.3063 112.897 41.87 112.897C44.4337 112.897 46.5014 110.821 46.5014 108.261V86.0967C46.5014 82.4234 43.5249 79.4469 39.8554 79.4469L39.8516 79.4545Z" fill="#40322D"/>
<path d="M103.547 56.7483C108.455 56.2144 111.999 51.8026 111.465 46.8948C110.931 41.987 106.523 38.4425 101.616 38.9764C96.7078 39.5104 93.1633 43.9221 93.6973 48.8261C94.2312 53.734 98.6392 57.2785 103.547 56.7445V56.7483Z" fill="#40322D"/>
<path d="M130.142 59.9293C128.457 59.6188 126.848 60.751 126.548 62.44L122.141 87.3388C121.614 90.3229 119.031 92.4852 116.006 92.4852H103.13C100.915 92.4852 99.1162 94.284 99.1162 96.4993V109.965C99.1162 111.677 100.502 113.067 102.218 113.067C103.933 113.067 105.319 111.677 105.319 109.965V98.6843H116.01C122.05 98.6843 127.2 94.3673 128.253 88.4181L132.66 63.5193C132.96 61.8303 131.835 60.2247 130.146 59.9255L130.142 59.9293Z" fill="#40322D"/>
<path d="M116.627 86.3429C117.858 84.8319 118.331 82.8703 117.937 80.9655L114.325 63.6253C113.965 61.8871 112.946 60.4026 111.458 59.437C109.97 58.4713 108.194 58.1494 106.463 58.5243C106.463 58.5243 101.548 59.596 100.343 59.8763C99.2756 60.1262 90.6112 64.6477 90.6112 64.6477L82.9957 64.3069C80.7387 64.2085 78.7847 65.9732 78.6825 68.2529C78.5802 70.5326 80.3449 72.4639 82.6284 72.5699L91.2852 72.9562C91.3496 72.9562 91.4102 72.96 91.4708 72.96C92.0918 72.96 92.7053 72.8199 93.2658 72.551L98.9991 69.7866L101.116 79.4583H92.9855C89.3123 79.4583 86.3358 82.4348 86.3358 86.1081V108.273C86.3358 110.833 88.411 112.908 90.9709 112.908C93.5309 112.908 95.6061 110.833 95.6061 108.273V90.4024C95.6061 89.4784 96.3559 88.7286 97.2799 88.7286H111.628C113.575 88.7286 115.4 87.8614 116.627 86.3504V86.3429Z" fill="#40322D"/>
<path d="M80.5343 76.0577H52.2992C50.5838 76.0577 49.1978 77.4475 49.1978 79.1591C49.1978 80.8708 50.5838 82.2606 52.2992 82.2606H63.3153V109.969C63.3153 111.681 64.7013 113.071 66.4167 113.071C68.1322 113.071 69.5182 111.681 69.5182 109.969V82.2606H80.5343C82.246 82.2606 83.6357 80.8708 83.6357 79.1591C83.6357 77.4475 82.246 76.0577 80.5343 76.0577Z" fill="#40322D"/>
<path d="M52.6931 49.1897C52.216 50.6135 51.2617 52.4464 49.3531 54.6693C48.1413 56.0742 49.5651 58.157 51.3033 57.5132C54.9084 56.1765 59.0362 54.2906 62.8571 52.4275C64.0197 52.5638 65.2012 52.6509 66.4168 52.6509C78.5084 52.6509 88.3126 45.6489 88.3126 37.0186C88.3126 28.3883 78.5121 21.3825 66.4168 21.3825C54.3215 21.3825 44.521 28.3807 44.521 37.0148C44.521 41.9378 47.7133 46.323 52.6931 49.1859V49.1897ZM77.2511 33.6104C79.1294 33.6104 80.6593 35.1365 80.6593 37.0148C80.6593 38.8931 79.1294 40.4192 77.2511 40.4192C75.3728 40.4192 73.8467 38.8931 73.8467 37.0148C73.8467 35.1365 75.3766 33.6104 77.2511 33.6104ZM66.4168 33.6104C68.2951 33.6104 69.825 35.1365 69.825 37.0148C69.825 38.8931 68.2989 40.4192 66.4168 40.4192C64.5347 40.4192 63.0124 38.8931 63.0124 37.0148C63.0124 35.1365 64.5423 33.6104 66.4168 33.6104ZM55.5825 33.6104C57.4608 33.6104 58.9869 35.1365 58.9869 37.0148C58.9869 38.8931 57.4608 40.4192 55.5825 40.4192C53.7042 40.4192 52.1781 38.8931 52.1781 37.0148C52.1781 35.1365 53.7042 33.6104 55.5825 33.6104Z" fill="#40322D"/>
</g>
<rect x="125.93" y="6.33881" width="2.04983" height="4.69722" transform="rotate(-4.32191 125.93 6.33881)" fill="#40322D"/>
<rect width="2.04983" height="4.69722" transform="matrix(-0.07536 -0.997156 -0.997156 0.07536 143.126 21.1187)" fill="#40322D"/>
<rect x="137.059" y="9.13684" width="2.04983" height="4.69722" transform="rotate(40.6781 137.059 9.13684)" fill="#40322D"/>
<rect x="116.007" y="12.1238" width="2.04983" height="4.69722" transform="rotate(-49.3219 116.007 12.1238)" fill="#40322D"/>
<path d="M118.36 32.2797C119.011 32.8397 119.993 32.7655 120.553 32.1139L118.194 30.0864C117.634 30.738 117.708 31.7197 118.36 32.2797Z" fill="#40322D"/>
<path d="M123.255 30.8917L119.21 27.4149C118.859 27.113 118.329 27.153 118.027 27.5042C117.725 27.856 117.765 28.3857 118.116 28.6876L122.161 32.1644C122.512 32.4663 123.043 32.4268 123.345 32.075C123.647 31.7237 123.606 31.1936 123.255 30.8917Z" fill="#40322D"/>
<path d="M132.685 15.6857C129.778 13.1877 125.398 13.5182 122.899 16.4252C121.835 17.6636 121.284 19.1697 121.228 20.6844C121.151 22.7232 121.246 23.643 120.034 25.0536C119.478 25.7006 119.519 26.2473 119.989 26.6514L123.752 29.8853C124.223 30.2899 124.769 30.2487 125.325 29.6017C126.538 28.1911 127.461 28.146 129.465 27.764C130.954 27.4803 132.36 26.7097 133.424 25.4713C135.923 22.5643 135.591 18.1837 132.685 15.6857Z" fill="#40322D"/>
<rect x="135.235" y="28.3171" width="2.04983" height="4.69722" transform="rotate(-49.3219 135.235 28.3171)" fill="#40322D"/>
<defs>
<clipPath id="clip0_405_415">
<rect width="132.572" height="91.6882" fill="white" transform="translate(0.130859 21.3825)"/>
</clipPath>
</defs>
</svg>
