<svg width="165" height="166" viewBox="0 0 165 166" fill="none" xmlns="http://www.w3.org/2000/svg">
<path d="M161.412 109.072C157.343 99.4976 142.68 100.862 137.008 102.645C134.485 103.434 132.845 104.804 131.004 106.707C128.938 108.84 114.144 124.103 114.144 124.103L95.881 131.037C91.4421 132.72 89.2132 137.682 90.8974 142.119C92.1996 145.548 95.4677 147.663 98.9362 147.663C99.9505 147.663 100.983 147.482 101.985 147.1L122.045 139.485C123.222 139.034 124.292 138.333 125.169 137.426L126.628 135.918C126.822 146.124 128.262 163.583 128.387 164.459C128.6 165.967 129.282 167 131.16 167H162.126C163.76 167 164.818 165.742 164.831 164.109C164.987 145.386 165.714 119.203 161.412 109.084V109.072Z" fill="#47665E"/>
<path d="M143.532 96.9883C153.906 96.9883 162.314 88.5842 162.314 78.2089C162.314 67.8335 153.906 59.4357 143.532 59.4357C133.158 59.4357 124.749 67.8461 124.749 78.2089C124.749 88.5717 133.158 96.9883 143.532 96.9883Z" fill="#47665E"/>
<path d="M79.8846 113.759C77.7309 109.529 72.547 107.852 68.3209 110.011L52.2495 118.208C52.2495 118.208 43.3592 112.051 40.4855 109.954C38.6824 108.64 33.3921 104.416 28.227 102.645C22.5985 100.718 7.89197 99.4977 3.82247 109.072C-0.478679 119.197 0.24757 145.379 0.40409 164.103C0.416611 165.742 1.47468 166.994 3.10874 166.994H34.0745C35.9528 166.994 36.6352 165.961 36.848 164.453C36.9858 163.483 38.7263 142.294 38.6261 132.977C38.6136 131.988 38.6261 130.887 38.6449 129.741L46.8152 135.273C48.2614 136.256 49.9456 136.75 51.636 136.75C52.9695 136.75 54.3093 136.437 55.5427 135.811L76.1281 125.311C80.3604 123.152 82.0383 117.977 79.8783 113.753L79.8846 113.759Z" fill="#47665E"/>
<path d="M21.7035 96.9883C32.0776 96.9883 40.4858 88.5842 40.4858 78.2089C40.4858 67.8335 32.0776 59.4357 21.7035 59.4357C11.3294 59.4357 2.92114 67.8461 2.92114 78.2089C2.92114 88.5717 11.3294 96.9883 21.7035 96.9883Z" fill="#47665E"/>
<path d="M83.2526 0.494181C67.6007 2.99727 55.0416 15.6692 52.5623 31.3198C51.1098 40.4748 53.0569 49.0604 57.2454 56.1817L49.8952 72.2141C48.5491 75.1427 51.5731 78.1652 54.5094 76.826L70.5432 69.4732C77.6805 73.6721 86.3079 75.6183 95.4799 74.1477C111.144 71.6383 123.81 59.0415 126.27 43.3784C130.258 17.9971 108.646 -3.56709 83.2526 0.494181ZM106.724 41.1569L90.8031 57.0703C90.0518 57.8213 88.831 57.8213 88.0797 57.0703L72.434 41.4323C69.2097 38.2095 68.0139 33.2096 70.0925 29.1483C73.5797 22.3462 82.1194 21.4013 87.0216 26.2948L89.4383 28.7166L91.5794 26.5764C94.8037 23.3537 99.8061 22.1585 103.863 24.236C110.669 27.7216 111.62 36.2509 106.718 41.1569H106.724Z" fill="#47665E"/>
</svg>
