<svg width="110" height="110" viewBox="0 0 110 110" fill="none" xmlns="http://www.w3.org/2000/svg">
<g clip-path="url(#clip0_405_100)">
<path d="M32.9335 35.3274L33.1054 35.4269L45.4946 35.5395L45.671 35.4434C49.794 33.174 52.3833 28.8462 52.4272 24.1439C52.4663 19.6855 50.9739 15.886 49.53 12.213C48.5421 9.70191 47.5246 7.10918 46.9918 4.30676C46.5512 1.99225 46.6388 0.992578 46.6378 0.99043L46.7583 0L45.7717 0.153828C41.1986 0.873984 36.4039 3.84699 32.6196 8.31596C28.6433 13.0075 26.4285 18.546 26.3799 23.9115C26.3374 28.6116 28.8496 32.9845 32.9335 35.3274ZM30.1038 20.0941C30.1749 19.9201 30.2377 19.734 30.3028 19.5317C30.9993 17.2764 33.348 16.419 33.8206 19.6894C34.2956 22.9655 36.9666 22.2677 37.5954 19.4726C38.3783 15.9582 40.5091 16.8584 40.8716 18.2454C41.2377 19.6311 40.8396 22.1409 42.7229 22.2845C43.8564 22.3708 44.1997 20.8583 44.8915 18.659C45.2872 17.3961 47.4144 16.2486 48.6629 19.7663C48.9899 21.1711 49.1901 22.6018 49.177 24.1145C49.1486 27.3967 47.4084 30.519 44.6346 32.2814L34.0219 32.1866C31.2788 30.372 29.5981 27.2224 29.6275 23.9392C29.6406 22.6774 29.8007 21.3888 30.1038 20.0941Z" fill="#40322D"/>
<path d="M42.1257 39.1248L36.4083 39.0726C34.6506 39.0584 32.9602 39.7654 31.7367 41.0304C30.5168 42.2965 29.8676 44.0069 29.9423 45.7658L30.2882 53.8828H47.9804L48.4685 45.9304C48.5762 44.1727 47.9591 42.4529 46.7605 41.1666C45.5606 39.878 43.8846 39.1413 42.1257 39.1248Z" fill="#40322D"/>
<path d="M32.4713 104.068C32.6135 107.362 35.3104 109.971 38.6081 109.999L38.6519 110C41.9506 110.029 44.694 107.47 44.8966 104.177L47.8103 56.7119H30.4131L32.4713 104.068Z" fill="#40322D"/>
<path d="M91.6966 36.6171C86.9292 29.5578 80.1743 23.9424 72.229 20.5833C66.9535 18.3507 61.1555 17.114 55.0911 17.1022C55.5283 18.7273 55.8682 20.4246 56.0007 22.2439C63.727 22.4381 70.8834 24.8639 76.8743 28.9148C83.1211 33.1362 88.0814 39.1153 91.0534 46.1379C93.0304 50.8082 94.1342 55.9498 94.1342 61.3594C94.1222 70.2866 91.1255 78.4012 86.0797 84.9501C81.047 91.5 73.9509 96.4605 65.8127 98.9834C65.4371 99.0924 64.9395 99.1777 64.3936 99.1777C63.7388 99.1777 63.0349 99.0556 62.405 98.8378C61.7749 98.6068 61.229 98.2798 60.8167 97.8796C60.5372 97.6011 60.3062 97.298 60.1249 96.9214C59.8821 96.424 59.7244 95.8057 59.7128 94.9328C59.7128 94.4105 59.785 93.804 59.9425 93.0886C60.1367 92.1907 60.428 91.1971 60.6828 90.0812C60.9256 88.9771 61.1437 87.7394 61.1437 86.382C61.1437 82.3301 59.907 78.5338 57.7964 75.4046C56.0007 72.7491 53.5633 70.553 50.7003 69.0499L50.3486 74.8954C52.3265 76.4115 53.903 78.4248 54.8732 80.7417C55.6136 82.4757 56.0141 84.3685 56.0141 86.382C56.0141 87.1814 55.88 88.0307 55.6742 88.9522C55.4681 89.8749 55.1766 90.8686 54.9338 91.9609C54.7042 93.0041 54.5821 93.9862 54.5821 94.9326C54.5821 96.6915 54.9942 98.2917 55.7466 99.6136C56.4867 100.948 57.542 101.979 58.6947 102.707C59.4587 103.192 60.283 103.555 61.0955 103.81C62.1994 104.15 63.3153 104.308 64.3943 104.308C65.401 104.308 66.396 104.175 67.3295 103.884C76.4876 101.046 84.4553 95.4787 90.1562 88.0795C95.845 80.6932 99.2645 71.451 99.2645 61.3594C99.264 52.2023 96.4747 43.6754 91.6966 36.6171Z" fill="#40322D"/>
<path d="M26.0554 73.5614C25.4121 73.816 24.6602 73.9617 23.8726 73.9617C22.8895 73.9617 21.846 73.7307 20.8639 73.2215C19.8821 72.7121 18.9475 71.9363 18.1231 70.7472C17.577 69.9596 17.0915 69.0014 16.7041 67.8004C16.1949 66.2108 15.8666 64.2222 15.8666 61.7846C15.8666 61.6507 15.8666 61.5297 15.8785 61.3961C15.927 57.3334 16.5821 53.4153 17.7463 49.74C18.9105 46.0541 20.5842 42.6085 22.695 39.4921C23.8593 37.7569 25.1573 36.1318 26.5646 34.6156C25.424 33.2454 24.5025 31.6806 23.8724 30.0188C23.8593 30.0306 23.8356 30.0556 23.8238 30.0674C15.8548 38.0731 10.9061 49.1335 10.7488 61.3237V61.3355C10.7368 61.4812 10.7368 61.6269 10.7368 61.7846C10.7368 65.0347 11.2213 67.824 12.0942 70.1776C12.9802 72.5181 14.2534 74.4227 15.7813 75.8534C16.8012 76.7998 17.9287 77.5401 19.0929 78.0731C20.6577 78.7647 22.2946 79.0917 23.8724 79.0917C25.2061 79.0917 26.516 78.8621 27.717 78.4132L27.4742 72.6887C27.0976 73.0402 26.6131 73.3434 26.0554 73.5614Z" fill="#40322D"/>
<path d="M66.0806 75.9017C66.0806 77.7578 66.6503 79.4918 67.6203 80.9239C68.5904 82.3548 69.9488 83.4941 71.5621 84.1741C72.6423 84.6347 73.8304 84.8895 75.0681 84.8895C76.9113 84.8895 78.6582 84.3197 80.089 83.3497C81.5199 82.3784 82.6487 81.0079 83.3392 79.3946C83.7882 78.3275 84.0426 77.1396 84.0426 75.9017C84.0426 74.0459 83.4728 72.3117 82.5146 70.8808C81.5446 69.4487 80.1741 68.3094 78.5608 67.6294C77.4806 67.1816 76.2927 66.9271 75.0679 66.9271C73.2119 66.9271 71.4779 67.4968 70.0459 68.455C68.6151 69.425 67.4745 70.7955 66.7958 72.4088C66.3349 73.4879 66.0806 74.6653 66.0806 75.9017ZM71.344 73.3908C71.8285 72.6754 72.5085 72.1059 73.321 71.7658C73.8551 71.5359 74.4367 71.4138 75.0681 71.4138C76.0016 71.4138 76.8509 71.6936 77.5779 72.1778C78.2934 72.6634 78.8642 73.3552 79.203 74.1559C79.434 74.6889 79.5547 75.2834 79.5547 75.9017C79.5547 76.8363 79.2765 77.6974 78.7909 78.4128C78.3065 79.1282 77.6147 79.6978 76.8139 80.0379C76.2809 80.2689 75.6864 80.3896 75.0681 80.3896C74.1217 80.3896 73.2725 80.1101 72.557 79.6256C71.8416 79.1401 71.2589 78.4493 70.932 77.6486C70.701 77.1143 70.58 76.5329 70.58 75.9015C70.58 74.9684 70.8585 74.1192 71.344 73.3908Z" fill="#40322D"/>
<path d="M65.7988 37.2023C65.7988 34.3692 63.5009 32.0712 60.6677 32.0712C57.8344 32.0712 55.5366 34.3692 55.5366 37.2023C55.5366 40.0357 57.8344 42.3335 60.6677 42.3335C63.5009 42.3335 65.7988 40.0357 65.7988 37.2023Z" fill="#40322D"/>
<path d="M73.2816 40.2226C70.7577 40.2226 68.7119 42.2681 68.7119 44.7921C68.7119 47.315 70.7574 49.3619 73.2816 49.3619C75.8056 49.3619 77.8514 47.315 77.8514 44.7921C77.8512 42.2684 75.8056 40.2226 73.2816 40.2226Z" fill="#40322D"/>
<path d="M79.4825 60.4461C81.4569 60.4461 83.0571 58.847 83.0571 56.8726C83.0571 54.8982 81.4569 53.2991 79.4825 53.2991C77.5092 53.2991 75.9077 54.8982 75.9077 56.8726C75.9077 58.847 77.5092 60.4461 79.4825 60.4461Z" fill="#40322D"/>
</g>
<defs>
<clipPath id="clip0_405_100">
<rect width="110" height="110" fill="white"/>
</clipPath>
</defs>
</svg>
