<svg width="50" height="50" viewBox="0 0 50 50" fill="none" xmlns="http://www.w3.org/2000/svg">
<circle cx="25" cy="25" r="25" fill="#E2DBD3"/>
<g clip-path="url(#clip0_501_1218)">
<path d="M18.7876 10.1052C17.1916 10.1805 16.1017 10.4352 15.1489 10.8096C14.1628 11.1939 13.327 11.7096 12.4954 12.5442C11.6638 13.3788 11.1517 14.2152 10.7701 15.2028C10.4008 16.1577 10.1506 17.2485 10.0801 18.8454C10.0096 20.4423 9.99402 20.9556 10.0018 25.029C10.0096 29.1024 10.0276 29.6129 10.105 31.2131C10.1812 32.8088 10.435 33.8985 10.8094 34.8516C11.1943 35.8377 11.7094 36.6732 12.5443 37.5051C13.3792 38.337 14.215 38.8479 15.205 39.2301C16.159 39.5988 17.2501 39.8502 18.8467 39.9201C20.4433 39.99 20.9572 40.0062 25.0294 39.9984C29.1016 39.9906 29.6143 39.9725 31.2142 39.8966C32.8141 39.8207 33.898 39.5652 34.8514 39.1926C35.8375 38.8068 36.6736 38.2925 37.5049 37.4573C38.3362 36.6221 38.848 35.7852 39.2293 34.797C39.5989 33.843 39.85 32.7519 39.9193 31.1565C39.9892 29.5554 40.0057 29.0442 39.9979 24.9714C39.9901 20.8986 39.9718 20.388 39.8959 18.7884C39.82 17.1888 39.5659 16.1025 39.1918 15.1488C38.8063 14.1627 38.2918 13.3278 37.4572 12.4953C36.6226 11.6628 35.785 11.1513 34.7971 10.7709C33.8425 10.4016 32.752 10.1499 31.1554 10.0809C29.5588 10.0119 29.0449 9.99415 24.9712 10.002C20.8975 10.0098 20.3875 10.0272 18.7876 10.1052ZM18.9628 37.2216C17.5003 37.158 16.7062 36.915 16.177 36.7116C15.4762 36.4416 14.977 36.1152 14.4496 35.5929C13.9222 35.0706 13.5982 34.5695 13.3246 33.8702C13.1191 33.341 12.8716 32.5479 12.8032 31.0854C12.7288 29.5047 12.7132 29.0301 12.7045 25.0254C12.6958 21.0207 12.7111 20.5467 12.7804 18.9654C12.8428 17.5041 13.0873 16.7091 13.2904 16.1802C13.5604 15.4785 13.8856 14.9802 14.4091 14.4531C14.9326 13.926 15.4321 13.6014 16.132 13.3278C16.6606 13.1214 17.4538 12.876 18.9157 12.8064C20.4976 12.7314 20.9716 12.7164 24.9757 12.7077C28.9798 12.699 29.455 12.714 31.0375 12.7836C32.4988 12.8472 33.2941 13.0893 33.8224 13.2936C34.5235 13.5636 35.0224 13.8879 35.5495 14.4123C36.0766 14.9367 36.4015 15.4344 36.6751 16.1358C36.8818 16.6629 37.1272 17.4558 37.1962 18.9186C37.2715 20.5005 37.2886 20.9748 37.2958 24.9786C37.303 28.9824 37.2889 29.4579 37.2196 31.0386C37.1557 32.5011 36.9133 33.2954 36.7096 33.8252C36.4396 34.5257 36.1141 35.0252 35.5903 35.552C35.0665 36.0788 34.5676 36.4034 33.8674 36.677C33.3394 36.8831 32.5453 37.1292 31.0846 37.1988C29.5027 37.2732 29.0287 37.2887 25.0231 37.2974C21.0175 37.3061 20.545 37.29 18.9631 37.2216M31.1911 16.9833C31.1917 17.3393 31.2979 17.6871 31.4962 17.9828C31.6945 18.2785 31.976 18.5088 32.3052 18.6444C32.6344 18.7801 32.9964 18.8151 33.3454 18.745C33.6945 18.6749 34.015 18.5029 34.2662 18.2507C34.5175 17.9985 34.6884 17.6774 34.7572 17.3281C34.826 16.9788 34.7897 16.6169 34.6528 16.2882C34.5159 15.9596 34.2846 15.6789 33.9882 15.4816C33.6918 15.2844 33.3436 15.1795 32.9875 15.1803C32.5102 15.1812 32.0529 15.3717 31.716 15.7098C31.3791 16.0479 31.1903 16.506 31.1911 16.9833ZM17.2981 25.0152C17.3065 29.2692 20.7613 32.7098 25.0144 32.7017C29.2675 32.6936 32.7106 29.2392 32.7025 24.9852C32.6944 20.7312 29.2387 17.2896 24.985 17.298C20.7313 17.3064 17.29 20.7618 17.2981 25.0152ZM19.9999 25.0098C19.998 24.0208 20.2893 23.0535 20.8371 22.2302C21.3849 21.4068 22.1645 20.7644 23.0774 20.3842C23.9903 20.0039 24.9955 19.9029 25.9658 20.0939C26.9361 20.2849 27.828 20.7594 28.5286 21.4573C29.2293 22.1552 29.7072 23.0451 29.9021 24.0147C30.097 24.9842 29.9999 25.9898 29.6233 26.9042C29.2467 27.8186 28.6073 28.6007 27.7862 29.1518C26.965 29.7028 25.9988 29.998 25.0099 29.9999C24.3533 30.0013 23.7028 29.8733 23.0956 29.6233C22.4884 29.3732 21.9365 29.006 21.4712 28.5426C21.006 28.0792 20.6366 27.5287 20.3842 26.9225C20.1317 26.3164 20.0011 25.6664 19.9999 25.0098Z" fill="#8D8A8A"/>
</g>
<defs>
<clipPath id="clip0_501_1218">
<rect width="30" height="30" fill="white" transform="translate(10 10)"/>
</clipPath>
</defs>
</svg>
