<svg width="50" height="50" viewBox="0 0 50 50" fill="none" xmlns="http://www.w3.org/2000/svg">
<circle cx="25" cy="25" r="25" fill="#F8F6F0"/>
<g clip-path="url(#clip0_501_1221)">
<path d="M18.7876 10.1054C17.1916 10.1807 16.1017 10.4354 15.1489 10.8098C14.1628 11.1941 13.327 11.7098 12.4954 12.5444C11.6638 13.379 11.1517 14.2154 10.7701 15.203C10.4008 16.1579 10.1506 17.2487 10.0801 18.8456C10.0096 20.4425 9.99402 20.9558 10.0018 25.0292C10.0096 29.1026 10.0276 29.6132 10.105 31.2134C10.1812 32.8091 10.435 33.8987 10.8094 34.8518C11.1943 35.8379 11.7094 36.6734 12.5443 37.5053C13.3792 38.3372 14.215 38.8481 15.205 39.2303C16.159 39.599 17.2501 39.8504 18.8467 39.9203C20.4433 39.9902 20.9572 40.0064 25.0294 39.9986C29.1016 39.9908 29.6143 39.9728 31.2142 39.8969C32.8141 39.821 33.898 39.5654 34.8514 39.1928C35.8375 38.807 36.6736 38.2928 37.5049 37.4576C38.3362 36.6224 38.848 35.7854 39.2293 34.7972C39.5989 33.8432 39.85 32.7521 39.9193 31.1567C39.9892 29.5556 40.0057 29.0444 39.9979 24.9716C39.9901 20.8988 39.9718 20.3882 39.8959 18.7886C39.82 17.189 39.5659 16.1027 39.1918 15.149C38.8063 14.1629 38.2918 13.328 37.4572 12.4955C36.6226 11.663 35.785 11.1515 34.7971 10.7711C33.8425 10.4018 32.752 10.1501 31.1554 10.0811C29.5588 10.0121 29.0449 9.99439 24.9712 10.0022C20.8975 10.01 20.3875 10.0274 18.7876 10.1054ZM18.9628 37.2218C17.5003 37.1582 16.7062 36.9152 16.177 36.7118C15.4762 36.4418 14.977 36.1154 14.4496 35.5931C13.9222 35.0708 13.5982 34.5698 13.3246 33.8705C13.1191 33.3413 12.8716 32.5481 12.8032 31.0856C12.7288 29.5049 12.7132 29.0303 12.7045 25.0256C12.6958 21.0209 12.7111 20.5469 12.7804 18.9656C12.8428 17.5043 13.0873 16.7093 13.2904 16.1804C13.5604 15.4787 13.8856 14.9804 14.4091 14.4533C14.9326 13.9262 15.4321 13.6016 16.132 13.328C16.6606 13.1216 17.4538 12.8762 18.9157 12.8066C20.4976 12.7316 20.9716 12.7166 24.9757 12.7079C28.9798 12.6992 29.455 12.7142 31.0375 12.7838C32.4988 12.8474 33.2941 13.0895 33.8224 13.2938C34.5235 13.5638 35.0224 13.8881 35.5495 14.4125C36.0766 14.9369 36.4015 15.4346 36.6751 16.136C36.8818 16.6631 37.1272 17.456 37.1962 18.9188C37.2715 20.5007 37.2886 20.975 37.2958 24.9788C37.303 28.9826 37.2889 29.4581 37.2196 31.0388C37.1557 32.5013 36.9133 33.2957 36.7096 33.8255C36.4396 34.526 36.1141 35.0255 35.5903 35.5523C35.0665 36.0791 34.5676 36.4037 33.8674 36.6773C33.3394 36.8834 32.5453 37.1294 31.0846 37.199C29.5027 37.2734 29.0287 37.289 25.0231 37.2977C21.0175 37.3064 20.545 37.2902 18.9631 37.2218M31.1911 16.9835C31.1917 17.3395 31.2979 17.6874 31.4962 17.9831C31.6945 18.2788 31.976 18.509 32.3052 18.6447C32.6344 18.7803 32.9964 18.8154 33.3454 18.7453C33.6945 18.6752 34.015 18.5032 34.2662 18.2509C34.5175 17.9987 34.6884 17.6777 34.7572 17.3283C34.826 16.979 34.7897 16.6171 34.6528 16.2885C34.5159 15.9598 34.2846 15.6791 33.9882 15.4819C33.6918 15.2847 33.3436 15.1798 32.9875 15.1805C32.5102 15.1814 32.0529 15.3719 31.716 15.71C31.3791 16.0481 31.1903 16.5062 31.1911 16.9835ZM17.2981 25.0154C17.3065 29.2694 20.7613 32.7101 25.0144 32.702C29.2675 32.6939 32.7106 29.2394 32.7025 24.9854C32.6944 20.7314 29.2387 17.2898 24.985 17.2982C20.7313 17.3066 17.29 20.762 17.2981 25.0154ZM19.9999 25.01C19.998 24.0211 20.2893 23.0538 20.8371 22.2304C21.3849 21.4071 22.1645 20.7647 23.0774 20.3844C23.9903 20.0042 24.9955 19.9031 25.9658 20.0942C26.9361 20.2852 27.828 20.7596 28.5286 21.4575C29.2293 22.1554 29.7072 23.0454 29.9021 24.0149C30.097 24.9845 29.9999 25.99 29.6233 26.9044C29.2467 27.8188 28.6073 28.601 27.7862 29.152C26.965 29.7031 25.9988 29.9982 25.0099 30.0002C24.3533 30.0016 23.7028 29.8736 23.0956 29.6235C22.4884 29.3735 21.9365 29.0063 21.4712 28.5429C21.006 28.0795 20.6366 27.529 20.3842 26.9228C20.1317 26.3166 20.0011 25.6666 19.9999 25.01Z" fill="#8D8A8A"/>
</g>
<defs>
<clipPath id="clip0_501_1221">
<rect width="30" height="30" fill="white" transform="translate(10 10)"/>
</clipPath>
</defs>
</svg>
