<svg width="198" height="51" viewBox="0 0 198 51" fill="none" xmlns="http://www.w3.org/2000/svg">
<path d="M75 47.5312V3.46875H122V47.5312H75ZM113.555 43.8594H118.695V40.9219H113.555V43.8594ZM104.742 43.8594H109.883V40.9219H104.742V43.8594ZM95.9297 43.8594H101.07V40.9219H95.9297V43.8594ZM87.1172 43.8594H92.2578V40.9219H87.1172V43.8594ZM78.3047 43.8594H83.4453V40.9219H78.3047V43.8594ZM83.4453 7.14062H78.3047V10.0781H83.4453V7.14062ZM92.2578 7.14062H87.1172V10.0781H92.2578V7.14062ZM101.07 7.14062H95.9297V10.0781H101.07V7.14062ZM109.883 7.14062H104.742V10.0781H109.883V7.14062ZM118.695 7.14062H113.555V10.0781H118.695V7.14062ZM118.758 13.0156H78.3678V37.9844H118.758V13.0156Z" fill="#40322D"/>
<g clip-path="url(#clip0_405_255)">
<path d="M22.4422 36.7966L16.762 32.795L16.6519 32.7841C14.026 32.5164 11.452 33.6872 9.93408 35.8417C8.49434 37.8854 7.97109 40.1135 7.46514 42.2686C7.12061 43.7397 6.76387 45.2608 6.11699 46.723C5.58154 47.9322 5.22285 48.3639 5.22158 48.3658L4.85205 48.7841L5.35479 49.0262C7.69443 50.1533 10.8538 50.3097 14.0233 49.4553C17.3524 48.5586 20.1404 46.7102 21.8722 44.2521C23.39 42.0976 23.6264 39.2796 22.4896 36.8971L22.4422 36.7966ZM20.3831 43.2031C19.9758 43.7807 19.4897 44.3245 18.9383 44.8247C18.8512 44.883 18.7615 44.9476 18.6674 45.0207C17.6267 45.8392 16.2701 45.487 17.095 43.8269C17.9199 42.1656 16.4661 41.634 15.2851 42.7248C13.8031 44.0941 13.1075 43.0008 13.3816 42.245C13.6551 41.4893 14.6396 40.4588 13.8158 39.7928C13.3201 39.3912 12.6803 39.9778 11.6594 40.7733C11.0746 41.2286 9.72842 41.0807 10.274 39.0595C10.5692 38.3082 10.935 37.5839 11.423 36.8909C12.4823 35.3858 14.2789 34.502 16.1208 34.5724L20.9851 37.9989C21.6724 39.71 21.4431 41.698 20.3831 43.2031Z" fill="#40322D"/>
<path d="M18.7031 27.0539C18.0939 27.8296 17.8301 28.821 17.9722 29.7971C18.1158 30.7731 18.6531 31.6473 19.4594 32.2154L22.0795 34.0611C22.8859 34.6292 23.8908 34.8412 24.8579 34.6478C25.8249 34.4531 26.6698 33.8702 27.1955 33.0364L29.5742 29.2538L21.4641 23.5403L18.7031 27.0539Z" fill="#40322D"/>
<path d="M43.6739 0.647951L43.654 0.634474C42.1419 -0.430662 40.061 -0.125096 38.9185 1.32871L22.4453 22.2915L30.4197 27.909L44.6141 5.34053C45.5991 3.7752 45.1854 1.71299 43.6739 0.647951Z" fill="#40322D"/>
</g>
<path d="M181.027 0H163.973C161.056 0 158.682 2.37349 158.682 5.29135V45.7087C158.682 48.6262 161.056 51 163.973 51H181.027C183.945 51 186.318 48.6261 186.318 45.709V5.29135C186.318 2.37349 183.945 0 181.027 0ZM172.5 47.8745C171.318 47.8745 170.356 46.9124 170.356 45.7303C170.356 44.5478 171.318 43.5861 172.5 43.5861C173.682 43.5861 174.644 44.5478 174.644 45.7303C174.644 46.9124 173.682 47.8745 172.5 47.8745ZM183.186 6.70082V40.5835H161.815V6.70082H183.186Z" fill="#40322D"/>
<defs>
<clipPath id="clip0_405_255">
<rect width="50" height="50" fill="white"/>
</clipPath>
</defs>
</svg>
