<svg width="51" height="198" viewBox="0 0 51 198" fill="none" xmlns="http://www.w3.org/2000/svg">
<g clip-path="url(#clip0_405_255)">
<path d="M22.4422 36.7966L16.762 32.795L16.6519 32.7841C14.026 32.5164 11.452 33.6872 9.93408 35.8417C8.49434 37.8854 7.97109 40.1135 7.46514 42.2686C7.12061 43.7397 6.76387 45.2608 6.11699 46.723C5.58154 47.9322 5.22285 48.3639 5.22158 48.3658L4.85205 48.7841L5.35479 49.0262C7.69443 50.1533 10.8538 50.3097 14.0233 49.4553C17.3524 48.5586 20.1404 46.7102 21.8722 44.2521C23.39 42.0976 23.6264 39.2796 22.4896 36.8971L22.4422 36.7966ZM20.3831 43.2031C19.9758 43.7807 19.4897 44.3245 18.9383 44.8247C18.8512 44.883 18.7615 44.9476 18.6674 45.0207C17.6267 45.8392 16.2701 45.487 17.095 43.8269C17.9199 42.1656 16.4661 41.634 15.2851 42.7248C13.8031 44.0941 13.1075 43.0008 13.3816 42.245C13.6551 41.4893 14.6396 40.4588 13.8158 39.7928C13.3201 39.3912 12.6803 39.9778 11.6594 40.7733C11.0746 41.2286 9.72842 41.0807 10.274 39.0595C10.5692 38.3082 10.935 37.5839 11.423 36.8909C12.4823 35.3858 14.2789 34.502 16.1208 34.5724L20.9851 37.9989C21.6724 39.71 21.4431 41.698 20.3831 43.2031Z" fill="#40322D"/>
<path d="M18.7031 27.0539C18.0939 27.8296 17.8301 28.821 17.9722 29.7971C18.1158 30.7731 18.6531 31.6473 19.4594 32.2154L22.0795 34.0611C22.8859 34.6292 23.8908 34.8412 24.8579 34.6478C25.8249 34.4531 26.6698 33.8702 27.1955 33.0364L29.5742 29.2538L21.4641 23.5403L18.7031 27.0539Z" fill="#40322D"/>
<path d="M43.6739 0.647951L43.654 0.634474C42.1419 -0.430662 40.061 -0.125096 38.9185 1.32871L22.4453 22.2915L30.4197 27.909L44.6141 5.34053C45.5991 3.7752 45.1854 1.71299 43.6739 0.647951Z" fill="#40322D"/>
</g>
<path d="M0 120.531V76.4688H47V120.531H0ZM38.5547 116.859H43.6953V113.922H38.5547V116.859ZM29.7422 116.859H34.8828V113.922H29.7422V116.859ZM20.9297 116.859H26.0703V113.922H20.9297V116.859ZM12.1172 116.859H17.2578V113.922H12.1172V116.859ZM3.30469 116.859H8.44531V113.922H3.30469V116.859ZM8.44531 80.1406H3.30469V83.0781H8.44531V80.1406ZM17.2578 80.1406H12.1172V83.0781H17.2578V80.1406ZM26.0703 80.1406H20.9297V83.0781H26.0703V80.1406ZM34.8828 80.1406H29.7422V83.0781H34.8828V80.1406ZM43.6953 80.1406H38.5547V83.0781H43.6953V80.1406ZM43.7585 86.0156H3.36784V110.984H43.7585V86.0156Z" fill="#40322D"/>
<path d="M34.0269 147H16.9734C14.0558 147 11.6821 149.373 11.6821 152.291V192.709C11.6821 195.626 14.0558 198 16.9734 198H34.0269C36.9447 198 39.3182 195.626 39.3182 192.709V152.291C39.3182 149.373 36.9447 147 34.0269 147ZM25.5001 194.874C24.3179 194.874 23.356 193.912 23.356 192.73C23.356 191.548 24.3178 190.586 25.5001 190.586C26.6824 190.586 27.6443 191.548 27.6443 192.73C27.6443 193.912 26.6824 194.874 25.5001 194.874ZM36.1857 153.701V187.584H14.8145V153.701H36.1857Z" fill="#40322D"/>
<defs>
<clipPath id="clip0_405_255">
<rect width="50" height="50" fill="white"/>
</clipPath>
</defs>
</svg>
