<svg width="109" height="65" viewBox="0 0 109 65" fill="none" xmlns="http://www.w3.org/2000/svg">
<path d="M4.928 19.08C4.30933 19.08 3.61067 19.0267 2.832 18.92C2.40533 18.8667 2.112 18.7547 1.952 18.584C1.792 18.4133 1.72267 18.136 1.744 17.752C1.81867 16.696 1.99467 15.3947 2.272 13.848C2.54933 12.2907 2.88533 10.792 3.28 9.352C3.35467 9.08533 3.504 8.89867 3.728 8.792C3.952 8.68533 4.24533 8.632 4.608 8.632C5.25867 8.632 5.584 8.81333 5.584 9.176C5.584 9.32533 5.552 9.496 5.488 9.688C5.21067 10.5413 4.93333 11.688 4.656 13.128C4.37867 14.5573 4.18133 15.9227 4.064 17.224C4.384 17.256 4.74667 17.272 5.152 17.272C7.01867 17.272 8.41067 16.7067 9.328 15.576C10.256 14.4453 10.72 12.936 10.72 11.048C10.72 9.77867 10.3573 8.79733 9.632 8.104C8.90667 7.41067 7.88267 7.064 6.56 7.064C5.70667 7.064 4.85867 7.19733 4.016 7.464C3.184 7.73067 2.432 8.08267 1.76 8.52C1.62133 8.616 1.472 8.664 1.312 8.664C1.13067 8.664 0.986667 8.58933 0.88 8.44C0.773333 8.28 0.72 8.088 0.72 7.864C0.72 7.608 0.762667 7.4 0.848 7.24C0.933333 7.06933 1.07733 6.91467 1.28 6.776C2.016 6.27467 2.88 5.896 3.872 5.64C4.864 5.37333 5.81867 5.24 6.736 5.24C8.03733 5.24 9.16267 5.46933 10.112 5.928C11.0613 6.376 11.792 7.03733 12.304 7.912C12.816 8.78667 13.072 9.84267 13.072 11.08C13.072 12.6907 12.752 14.0987 12.112 15.304C11.472 16.4987 10.5387 17.4267 9.312 18.088C8.08533 18.7493 6.624 19.08 4.928 19.08ZM21.279 15.432C21.4177 15.432 21.5243 15.496 21.599 15.624C21.6843 15.752 21.727 15.928 21.727 16.152C21.727 16.5787 21.6257 16.9093 21.423 17.144C21.0283 17.624 20.4683 18.0667 19.743 18.472C19.0283 18.8773 18.2603 19.08 17.439 19.08C16.319 19.08 15.4497 18.776 14.831 18.168C14.2123 17.56 13.903 16.728 13.903 15.672C13.903 14.936 14.0577 14.2533 14.367 13.624C14.6763 12.984 15.103 12.4773 15.647 12.104C16.2017 11.7307 16.8257 11.544 17.519 11.544C18.1377 11.544 18.6337 11.7307 19.007 12.104C19.3803 12.4667 19.567 12.9627 19.567 13.592C19.567 14.328 19.3003 14.9627 18.767 15.496C18.2443 16.0187 17.3537 16.4347 16.095 16.744C16.3617 17.2347 16.8683 17.48 17.615 17.48C18.095 17.48 18.639 17.3147 19.247 16.984C19.8657 16.6427 20.399 16.2 20.847 15.656C20.975 15.5067 21.119 15.432 21.279 15.432ZM17.247 13.112C16.8523 13.112 16.5163 13.3413 16.239 13.8C15.9723 14.2587 15.839 14.8133 15.839 15.464V15.496C16.4683 15.3467 16.9643 15.1227 17.327 14.824C17.6897 14.5253 17.871 14.1787 17.871 13.784C17.871 13.5813 17.8123 13.4213 17.695 13.304C17.5883 13.176 17.439 13.112 17.247 13.112ZM23.4003 19.432C22.8456 19.432 22.4189 19.304 22.1203 19.048C21.8323 18.792 21.6883 18.504 21.6883 18.184C21.6883 17.9067 21.7896 17.6667 21.9923 17.464C22.1949 17.2613 22.4936 17.16 22.8883 17.16C23.0269 17.16 23.1869 17.176 23.3683 17.208C23.5603 17.2293 23.7043 17.2453 23.8003 17.256C23.7896 16.9787 23.7256 16.7173 23.6083 16.472C23.5016 16.2267 23.3629 15.992 23.1923 15.768C23.0216 15.5333 22.8616 15.3307 22.7123 15.16C22.3816 15.7893 22.0509 16.312 21.7203 16.728C21.4003 17.144 21.0483 17.5387 20.6643 17.912C20.4723 18.104 20.2696 18.2 20.0563 18.2C19.8856 18.2 19.7469 18.1413 19.6402 18.024C19.5336 17.896 19.4802 17.7413 19.4802 17.56C19.4802 17.3467 19.5549 17.1493 19.7043 16.968L19.9123 16.712C20.4989 15.9867 20.9416 15.3893 21.2403 14.92C21.4216 14.6107 21.6349 14.2 21.8803 13.688C22.1256 13.1653 22.3656 12.6267 22.6003 12.072C22.8029 11.6027 23.2243 11.368 23.8643 11.368C24.1629 11.368 24.3709 11.3947 24.4883 11.448C24.6056 11.5013 24.6643 11.5867 24.6643 11.704C24.6643 11.768 24.6429 11.8693 24.6003 12.008C24.5576 12.1467 24.4989 12.2853 24.4243 12.424C24.2323 12.808 24.1363 13.1333 24.1363 13.4C24.1363 13.56 24.1896 13.736 24.2963 13.928C24.4136 14.12 24.5896 14.36 24.8243 14.648C25.1656 15.096 25.4216 15.48 25.5923 15.8C25.7736 16.1093 25.8643 16.4507 25.8643 16.824C25.8643 16.9307 25.8536 17.08 25.8323 17.272C26.3549 17.0693 26.9683 16.5307 27.6723 15.656C27.8003 15.5067 27.9443 15.432 28.1042 15.432C28.2429 15.432 28.3496 15.496 28.4243 15.624C28.5096 15.752 28.5523 15.928 28.5523 16.152C28.5523 16.5573 28.4509 16.888 28.2483 17.144C27.7149 17.8053 27.2029 18.2587 26.7123 18.504C26.2323 18.7387 25.6349 18.8667 24.9203 18.888C24.4936 19.2507 23.9869 19.432 23.4003 19.432ZM29.3484 10.488C28.9004 10.488 28.5644 10.3867 28.3404 10.184C28.1164 9.97067 28.0044 9.67733 28.0044 9.304C28.0044 8.93067 28.1484 8.62133 28.4364 8.376C28.735 8.12 29.103 7.992 29.5404 7.992C29.935 7.992 30.255 8.088 30.5004 8.28C30.7457 8.472 30.8684 8.744 30.8684 9.096C30.8684 9.52267 30.7297 9.864 30.4524 10.12C30.175 10.3653 29.807 10.488 29.3484 10.488ZM29.2204 19.08C28.527 19.08 28.0204 18.8347 27.7004 18.344C27.391 17.8533 27.2364 17.2027 27.2364 16.392C27.2364 15.912 27.295 15.2987 27.4124 14.552C27.5404 13.7947 27.7004 13.0907 27.8924 12.44C27.9884 12.0987 28.1164 11.864 28.2764 11.736C28.4364 11.608 28.6924 11.544 29.0444 11.544C29.5884 11.544 29.8604 11.7253 29.8604 12.088C29.8604 12.3547 29.759 12.9733 29.5564 13.944C29.3004 15.1173 29.1724 15.912 29.1724 16.328C29.1724 16.648 29.215 16.8933 29.3004 17.064C29.3857 17.2347 29.5297 17.32 29.7324 17.32C29.9244 17.32 30.1644 17.1867 30.4524 16.92C30.7404 16.6533 31.1244 16.232 31.6044 15.656C31.7324 15.5067 31.8764 15.432 32.0364 15.432C32.175 15.432 32.2817 15.496 32.3564 15.624C32.4417 15.752 32.4844 15.928 32.4844 16.152C32.4844 16.5787 32.383 16.9093 32.1804 17.144C31.1244 18.4347 30.1377 19.08 29.2204 19.08ZM39.3819 15.464C39.5205 15.464 39.6272 15.5333 39.7019 15.672C39.7872 15.8 39.8299 15.9653 39.8299 16.168C39.8299 16.4133 39.7925 16.6053 39.7179 16.744C39.6432 16.8827 39.5259 17.0053 39.3659 17.112C38.4485 17.7307 37.7765 18.1893 37.3499 18.488L36.3259 19.176C35.9205 21.384 35.3872 23.1173 34.7259 24.376C34.0752 25.6453 33.2432 26.28 32.2299 26.28C31.6859 26.28 31.2432 26.1093 30.9019 25.768C30.5605 25.4373 30.3899 25 30.3899 24.456C30.3899 23.6987 30.6885 22.8827 31.2859 22.008C31.8832 21.144 33.0032 20.0773 34.6459 18.808L34.7419 18.184C34.5605 18.472 34.3205 18.696 34.0219 18.856C33.7339 19.0053 33.4459 19.08 33.1579 19.08C32.4965 19.08 31.9685 18.84 31.5739 18.36C31.1792 17.88 30.9819 17.2507 30.9819 16.472C30.9819 15.6187 31.1792 14.8133 31.5739 14.056C31.9685 13.288 32.4912 12.6747 33.1419 12.216C33.8032 11.7467 34.5019 11.512 35.2379 11.512C35.4725 11.512 35.6272 11.56 35.7019 11.656C35.7872 11.7413 35.8565 11.9013 35.9099 12.136C36.1125 12.0933 36.3472 12.072 36.6139 12.072C36.8805 12.072 37.0672 12.1147 37.1739 12.2C37.2912 12.2747 37.3499 12.4293 37.3499 12.664C37.3499 12.792 37.3445 12.8933 37.3339 12.968C37.2912 13.2987 37.1579 14.136 36.9339 15.48C36.8912 15.736 36.8432 16.0187 36.7899 16.328C36.7472 16.6267 36.6992 16.9467 36.6459 17.288C37.4672 16.648 38.2565 16.0827 39.0139 15.592C39.1525 15.5067 39.2752 15.464 39.3819 15.464ZM33.7339 17.464C33.9792 17.464 34.2139 17.3147 34.4379 17.016C34.6619 16.7173 34.8219 16.2907 34.9179 15.736L35.4299 13C34.9925 13.0107 34.5872 13.1813 34.2139 13.512C33.8405 13.832 33.5419 14.2587 33.3179 14.792C33.0939 15.3253 32.9819 15.8907 32.9819 16.488C32.9819 16.8187 33.0459 17.064 33.1739 17.224C33.3125 17.384 33.4992 17.464 33.7339 17.464ZM32.4059 24.728C32.6725 24.728 32.9712 24.408 33.3019 23.768C33.6432 23.128 33.9685 22.1093 34.2779 20.712C33.4565 21.416 32.8645 22.0507 32.5019 22.616C32.1392 23.1813 31.9579 23.6773 31.9579 24.104C31.9579 24.2853 31.9899 24.4347 32.0539 24.552C32.1285 24.6693 32.2459 24.728 32.4059 24.728ZM39.8103 19.08C39.4049 19.08 39.1169 18.8667 38.9463 18.44C38.7863 18.0133 38.7063 17.3307 38.7063 16.392C38.7063 15.0053 38.9036 13.688 39.2983 12.44C39.3943 12.1307 39.5489 11.9067 39.7623 11.768C39.9863 11.6187 40.2956 11.544 40.6903 11.544C40.9036 11.544 41.0529 11.5707 41.1383 11.624C41.2236 11.6773 41.2663 11.7787 41.2663 11.928C41.2663 12.0987 41.1863 12.4827 41.0263 13.08C40.9196 13.5067 40.8343 13.88 40.7703 14.2C40.7063 14.52 40.6529 14.9147 40.6103 15.384C40.9623 14.4667 41.3569 13.72 41.7943 13.144C42.2316 12.568 42.6583 12.1573 43.0743 11.912C43.5009 11.6667 43.8903 11.544 44.2423 11.544C44.5836 11.544 44.8396 11.6347 45.0103 11.816C45.1916 11.9867 45.2823 12.2427 45.2823 12.584C45.2823 12.8613 45.2236 13.384 45.1063 14.152C44.9996 14.8027 44.9143 15.4213 44.8503 16.008C44.7863 16.584 44.7543 17.2293 44.7543 17.944C44.7543 18.3493 44.6689 18.6427 44.4983 18.824C44.3383 18.9947 44.0716 19.08 43.6983 19.08C43.3463 19.08 43.0903 18.9893 42.9303 18.808C42.7703 18.6267 42.6903 18.3547 42.6903 17.992C42.6903 17.5653 42.7649 16.8613 42.9143 15.88C43.0423 15.0267 43.1063 14.4827 43.1063 14.248C43.1063 14.0773 43.0476 13.992 42.9303 13.992C42.7916 13.992 42.5943 14.1733 42.3383 14.536C42.0929 14.888 41.8369 15.3573 41.5703 15.944C41.3143 16.5307 41.1063 17.1493 40.9463 17.8C40.8289 18.3013 40.6903 18.6427 40.5303 18.824C40.3809 18.9947 40.1409 19.08 39.8103 19.08ZM57.1386 19.08C55.8693 19.08 54.7653 18.8507 53.8266 18.392C52.888 17.9227 52.168 17.2613 51.6666 16.408C51.1653 15.5547 50.9146 14.5627 50.9146 13.432C50.9146 11.864 51.208 10.472 51.7946 9.256C52.392 8.04 53.1973 7.10133 54.2106 6.44C55.224 5.768 56.3493 5.432 57.5866 5.432C58.7386 5.432 59.6133 5.73067 60.2106 6.328C60.808 6.91467 61.1066 7.69333 61.1066 8.664C61.1066 9.31467 60.9893 9.83733 60.7546 10.232C60.5306 10.6267 60.2053 10.824 59.7786 10.824C59.48 10.824 59.2453 10.7547 59.0746 10.616C58.904 10.4773 58.8186 10.2747 58.8186 10.008C58.8186 9.912 58.84 9.736 58.8826 9.48C58.9466 9.16 58.9786 8.904 58.9786 8.712C58.9786 7.74133 58.4613 7.256 57.4266 7.256C56.7226 7.256 56.0506 7.48533 55.4106 7.944C54.7706 8.40267 54.2533 9.08 53.8586 9.976C53.464 10.8613 53.2666 11.9173 53.2666 13.144C53.2666 14.424 53.624 15.416 54.3386 16.12C55.0533 16.8133 56.1093 17.16 57.5066 17.16C58.2 17.16 58.8986 17.0747 59.6026 16.904C60.3173 16.7227 61.1066 16.4507 61.9706 16.088C62.1306 16.024 62.264 15.992 62.3706 15.992C62.5413 15.992 62.6693 16.056 62.7546 16.184C62.84 16.312 62.8826 16.4773 62.8826 16.68C62.8826 17.3307 62.5306 17.8107 61.8266 18.12C61.0693 18.4507 60.28 18.696 59.4586 18.856C58.648 19.0053 57.8746 19.08 57.1386 19.08ZM69.6311 14.088C69.7698 14.088 69.8765 14.1573 69.9511 14.296C70.0258 14.4347 70.0631 14.6107 70.0631 14.824C70.0631 15.336 69.9085 15.64 69.5991 15.736C68.9591 15.96 68.2551 16.088 67.4871 16.12C67.2845 17.016 66.8845 17.736 66.2871 18.28C65.6898 18.8133 65.0125 19.08 64.2551 19.08C63.6151 19.08 63.0658 18.9253 62.6071 18.616C62.1591 18.3067 61.8178 17.896 61.5831 17.384C61.3485 16.872 61.2311 16.3173 61.2311 15.72C61.2311 14.9093 61.3858 14.1893 61.6951 13.56C62.0045 12.92 62.4311 12.424 62.9751 12.072C63.5191 11.7093 64.1218 11.528 64.7831 11.528C65.5938 11.528 66.2445 11.8107 66.7351 12.376C67.2365 12.9307 67.5298 13.6187 67.6151 14.44C68.1165 14.408 68.7138 14.3013 69.4071 14.12C69.4925 14.0987 69.5671 14.088 69.6311 14.088ZM64.3831 17.384C64.7245 17.384 65.0178 17.2453 65.2631 16.968C65.5191 16.6907 65.6898 16.2907 65.7751 15.768C65.4445 15.544 65.1885 15.2507 65.0071 14.888C64.8365 14.5253 64.7511 14.1413 64.7511 13.736C64.7511 13.5653 64.7671 13.3947 64.7991 13.224H64.7191C64.2925 13.224 63.9351 13.432 63.6471 13.848C63.3698 14.2533 63.2311 14.8293 63.2311 15.576C63.2311 16.1627 63.3431 16.6107 63.5671 16.92C63.8018 17.2293 64.0738 17.384 64.3831 17.384ZM69.8259 19.08C69.4205 19.08 69.1325 18.8667 68.9619 18.44C68.8019 18.0133 68.7219 17.3307 68.7219 16.392C68.7219 15.0053 68.9192 13.688 69.3139 12.44C69.4099 12.1307 69.5645 11.9067 69.7779 11.768C70.0019 11.6187 70.3112 11.544 70.7059 11.544C70.9192 11.544 71.0685 11.5707 71.1539 11.624C71.2392 11.6773 71.2819 11.7787 71.2819 11.928C71.2819 12.0987 71.2019 12.4827 71.0419 13.08C70.9352 13.5067 70.8499 13.88 70.7859 14.2C70.7219 14.52 70.6685 14.9147 70.6259 15.384C70.9779 14.4667 71.3725 13.72 71.8099 13.144C72.2472 12.568 72.6739 12.1573 73.0899 11.912C73.5165 11.6667 73.9059 11.544 74.2579 11.544C74.9512 11.544 75.2979 11.8907 75.2979 12.584C75.2979 13 75.1805 13.752 74.9459 14.84C74.7432 15.768 74.6419 16.3813 74.6419 16.68C74.6419 17.1067 74.7965 17.32 75.1059 17.32C75.3192 17.32 75.5699 17.192 75.8579 16.936C76.1565 16.6693 76.5512 16.2427 77.0419 15.656C77.1699 15.5067 77.3139 15.432 77.4739 15.432C77.6125 15.432 77.7192 15.496 77.7939 15.624C77.8792 15.752 77.9219 15.928 77.9219 16.152C77.9219 16.5787 77.8205 16.9093 77.6179 17.144C77.1592 17.7093 76.6632 18.1733 76.1299 18.536C75.6072 18.8987 75.0099 19.08 74.3379 19.08C73.7939 19.08 73.3832 18.9253 73.1059 18.616C72.8285 18.296 72.6899 17.8373 72.6899 17.24C72.6899 16.9413 72.7645 16.408 72.9139 15.64C73.0525 14.968 73.1219 14.504 73.1219 14.248C73.1219 14.0773 73.0632 13.992 72.9459 13.992C72.8072 13.992 72.6099 14.1733 72.3539 14.536C72.1085 14.888 71.8525 15.3573 71.5859 15.944C71.3299 16.5307 71.1219 17.1493 70.9619 17.8C70.8445 18.3013 70.7059 18.6427 70.5459 18.824C70.3965 18.9947 70.1565 19.08 69.8259 19.08ZM77.7634 19.08C77.358 19.08 77.07 18.8667 76.8994 18.44C76.7394 18.0133 76.6594 17.3307 76.6594 16.392C76.6594 15.0053 76.8567 13.688 77.2514 12.44C77.3474 12.1307 77.502 11.9067 77.7154 11.768C77.9394 11.6187 78.2487 11.544 78.6434 11.544C78.8567 11.544 79.006 11.5707 79.0914 11.624C79.1767 11.6773 79.2194 11.7787 79.2194 11.928C79.2194 12.0987 79.1394 12.4827 78.9794 13.08C78.8727 13.5067 78.7874 13.88 78.7234 14.2C78.6594 14.52 78.606 14.9147 78.5634 15.384C78.9154 14.4667 79.31 13.72 79.7474 13.144C80.1847 12.568 80.6114 12.1573 81.0274 11.912C81.454 11.6667 81.8434 11.544 82.1954 11.544C82.8887 11.544 83.2354 11.8907 83.2354 12.584C83.2354 13 83.118 13.752 82.8834 14.84C82.6807 15.768 82.5794 16.3813 82.5794 16.68C82.5794 17.1067 82.734 17.32 83.0434 17.32C83.2567 17.32 83.5074 17.192 83.7954 16.936C84.094 16.6693 84.4887 16.2427 84.9794 15.656C85.1074 15.5067 85.2514 15.432 85.4114 15.432C85.55 15.432 85.6567 15.496 85.7314 15.624C85.8167 15.752 85.8594 15.928 85.8594 16.152C85.8594 16.5787 85.758 16.9093 85.5554 17.144C85.0967 17.7093 84.6007 18.1733 84.0674 18.536C83.5447 18.8987 82.9474 19.08 82.2754 19.08C81.7314 19.08 81.3207 18.9253 81.0434 18.616C80.766 18.296 80.6274 17.8373 80.6274 17.24C80.6274 16.9413 80.702 16.408 80.8514 15.64C80.99 14.968 81.0594 14.504 81.0594 14.248C81.0594 14.0773 81.0007 13.992 80.8834 13.992C80.7447 13.992 80.5474 14.1733 80.2914 14.536C80.046 14.888 79.79 15.3573 79.5234 15.944C79.2674 16.5307 79.0594 17.1493 78.8994 17.8C78.782 18.3013 78.6434 18.6427 78.4834 18.824C78.334 18.9947 78.094 19.08 77.7634 19.08ZM91.7009 15.432C91.8395 15.432 91.9462 15.496 92.0209 15.624C92.1062 15.752 92.1489 15.928 92.1489 16.152C92.1489 16.5787 92.0475 16.9093 91.8449 17.144C91.4502 17.624 90.8902 18.0667 90.1649 18.472C89.4502 18.8773 88.6822 19.08 87.8609 19.08C86.7409 19.08 85.8715 18.776 85.2529 18.168C84.6342 17.56 84.3249 16.728 84.3249 15.672C84.3249 14.936 84.4795 14.2533 84.7889 13.624C85.0982 12.984 85.5249 12.4773 86.0689 12.104C86.6235 11.7307 87.2475 11.544 87.9409 11.544C88.5595 11.544 89.0555 11.7307 89.4289 12.104C89.8022 12.4667 89.9889 12.9627 89.9889 13.592C89.9889 14.328 89.7222 14.9627 89.1889 15.496C88.6662 16.0187 87.7755 16.4347 86.5169 16.744C86.7835 17.2347 87.2902 17.48 88.0369 17.48C88.5169 17.48 89.0609 17.3147 89.6689 16.984C90.2875 16.6427 90.8209 16.2 91.2689 15.656C91.3969 15.5067 91.5409 15.432 91.7009 15.432ZM87.6689 13.112C87.2742 13.112 86.9382 13.3413 86.6609 13.8C86.3942 14.2587 86.2609 14.8133 86.2609 15.464V15.496C86.8902 15.3467 87.3862 15.1227 87.7489 14.824C88.1115 14.5253 88.2929 14.1787 88.2929 13.784C88.2929 13.5813 88.2342 13.4213 88.1169 13.304C88.0102 13.176 87.8609 13.112 87.6689 13.112ZM93.9021 19.08C92.8568 19.08 92.0408 18.7867 91.4541 18.2C90.8781 17.6027 90.5901 16.8187 90.5901 15.848C90.5901 14.984 90.7608 14.2267 91.1021 13.576C91.4435 12.9253 91.8861 12.424 92.4301 12.072C92.9741 11.72 93.5448 11.544 94.1421 11.544C94.7288 11.544 95.1821 11.72 95.5021 12.072C95.8328 12.4133 95.9981 12.856 95.9981 13.4C95.9981 13.848 95.8968 14.2267 95.6941 14.536C95.5021 14.8453 95.2461 15 94.9261 15C94.7235 15 94.5581 14.952 94.4301 14.856C94.3128 14.76 94.2541 14.6267 94.2541 14.456C94.2541 14.3813 94.2648 14.296 94.2861 14.2C94.3075 14.104 94.3235 14.0347 94.3341 13.992C94.3875 13.832 94.4141 13.6827 94.4141 13.544C94.4141 13.4053 94.3768 13.2987 94.3021 13.224C94.2381 13.1493 94.1421 13.112 94.0141 13.112C93.7688 13.112 93.5395 13.224 93.3261 13.448C93.1128 13.6613 92.9421 13.9547 92.8141 14.328C92.6861 14.7013 92.6221 15.112 92.6221 15.56C92.6221 16.7973 93.1608 17.416 94.2381 17.416C94.6755 17.416 95.1448 17.272 95.6461 16.984C96.1581 16.6853 96.6595 16.2427 97.1501 15.656C97.2781 15.5067 97.4221 15.432 97.5821 15.432C97.7208 15.432 97.8275 15.496 97.9021 15.624C97.9875 15.752 98.0301 15.928 98.0301 16.152C98.0301 16.5573 97.9288 16.888 97.7261 17.144C97.2248 17.7627 96.6221 18.2427 95.9181 18.584C95.2248 18.9147 94.5528 19.08 93.9021 19.08ZM103.951 15.432C104.09 15.432 104.196 15.496 104.271 15.624C104.356 15.752 104.399 15.928 104.399 16.152C104.399 16.5787 104.298 16.9093 104.095 17.144C103.636 17.7093 103.135 18.1733 102.591 18.536C102.047 18.8987 101.423 19.08 100.719 19.08C98.5429 19.08 97.4549 17.5493 97.4549 14.488C97.4549 14.0187 97.4709 13.544 97.5029 13.064H96.8789C96.5589 13.064 96.3402 13.0053 96.2229 12.888C96.1162 12.7707 96.0629 12.584 96.0629 12.328C96.0629 11.7307 96.3029 11.432 96.7829 11.432H97.6949C97.8762 10.2587 98.1535 9.18667 98.5269 8.216C98.9002 7.24533 99.3482 6.472 99.8709 5.896C100.404 5.32 100.975 5.032 101.583 5.032C102.031 5.032 102.383 5.22933 102.639 5.624C102.895 6.01867 103.023 6.51467 103.023 7.112C103.023 8.76533 102.33 10.2053 100.943 11.432H102.735C102.906 11.432 103.028 11.4693 103.103 11.544C103.178 11.6187 103.215 11.7573 103.215 11.96C103.215 12.696 102.612 13.064 101.407 13.064H99.4549C99.4335 13.5973 99.4229 14.0133 99.4229 14.312C99.4229 15.4213 99.5509 16.2 99.8069 16.648C100.074 17.096 100.49 17.32 101.055 17.32C101.514 17.32 101.919 17.1813 102.271 16.904C102.623 16.6267 103.039 16.2107 103.519 15.656C103.647 15.5067 103.791 15.432 103.951 15.432ZM101.151 6.568C100.991 6.568 100.81 6.77067 100.607 7.176C100.415 7.57067 100.228 8.12533 100.047 8.84C99.8762 9.544 99.7322 10.328 99.6149 11.192C100.244 10.648 100.714 10.04 101.023 9.368C101.343 8.68533 101.503 8.06667 101.503 7.512C101.503 6.88267 101.386 6.568 101.151 6.568ZM106.072 19.432C105.517 19.432 105.091 19.304 104.792 19.048C104.504 18.792 104.36 18.504 104.36 18.184C104.36 17.9067 104.461 17.6667 104.664 17.464C104.867 17.2613 105.165 17.16 105.56 17.16C105.699 17.16 105.859 17.176 106.04 17.208C106.232 17.2293 106.376 17.2453 106.472 17.256C106.461 16.9787 106.397 16.7173 106.28 16.472C106.173 16.2267 106.035 15.992 105.864 15.768C105.693 15.5333 105.533 15.3307 105.384 15.16C105.053 15.7893 104.723 16.312 104.392 16.728C104.072 17.144 103.72 17.5387 103.336 17.912C103.144 18.104 102.941 18.2 102.728 18.2C102.557 18.2 102.419 18.1413 102.312 18.024C102.205 17.896 102.152 17.7413 102.152 17.56C102.152 17.3467 102.227 17.1493 102.376 16.968L102.584 16.712C103.171 15.9867 103.613 15.3893 103.912 14.92C104.104 14.6107 104.296 14.2427 104.488 13.816C104.691 13.3893 104.952 12.808 105.272 12.072C105.475 11.6027 105.896 11.368 106.536 11.368C106.835 11.368 107.043 11.3947 107.16 11.448C107.277 11.5013 107.336 11.5867 107.336 11.704C107.336 11.768 107.315 11.8693 107.272 12.008C107.229 12.1467 107.171 12.2853 107.096 12.424C106.904 12.808 106.808 13.1333 106.808 13.4C106.808 13.56 106.861 13.736 106.968 13.928C107.085 14.12 107.261 14.36 107.496 14.648C107.837 15.096 108.093 15.48 108.264 15.8C108.445 16.1093 108.536 16.4507 108.536 16.824C108.536 17.272 108.429 17.6987 108.216 18.104C108.013 18.4987 107.725 18.8187 107.352 19.064C106.979 19.3093 106.552 19.432 106.072 19.432Z" fill="#40322D"/>
<path d="M68.5062 51.1958L67.4413 49.8823C63.8683 45.8614 58.739 42.9205 57.0298 42.001L56.1106 43.4605C55.4317 44.5533 54.0756 45.0806 52.8306 44.7412C52.8106 44.7339 52.7778 44.7212 52.7578 44.7139C51.2743 44.2213 50.4024 42.6943 50.7483 41.1801C51.0614 39.8063 51.5801 38.5201 52.2845 37.3325L50.7283 37.1117C49.658 36.9585 48.5404 37.1646 47.5957 37.6846L46.7238 38.1571C45.6135 38.7701 44.3029 38.8376 43.1307 38.3578L41.2541 37.5769L34.0625 48.846L36.7164 50.6321L38.127 49.2182C38.6658 48.6782 39.3848 48.3772 40.1493 48.3772C40.9137 48.3772 41.6327 48.6782 42.1715 49.2182C42.6502 49.6926 42.9232 50.311 42.9833 50.9787C43.928 50.7379 44.9728 50.9787 45.71 51.7194C46.2487 52.2594 46.5418 52.9801 46.5418 53.7463C46.5418 53.9871 46.509 54.2188 46.449 54.4469C47.1133 54.5144 47.7267 54.7862 48.1982 55.2605H48.2055C48.9372 56.0012 49.1774 57.0466 48.9445 57.9934C49.6034 58.0536 50.2222 58.3273 50.6937 58.7998V58.8071C51.2325 59.3471 51.531 60.0677 51.531 60.834C51.531 61.4999 51.3053 62.1274 50.8994 62.6346L52.3701 64.4407C53.1491 65.1942 54.4724 65.1869 55.2369 64.4134C55.6228 64.0266 55.8357 63.514 55.8357 62.9667C55.8357 62.4193 55.6428 61.9596 55.297 61.5856L54.6908 60.9781C54.4051 60.6917 54.4051 60.2246 54.6908 59.9382C54.9766 59.6518 55.4353 59.6518 55.7229 59.9382L56.3418 60.5585L56.835 61.0584C57.6323 61.852 58.9301 61.852 59.7291 61.0584C59.7419 61.0383 59.7619 61.0255 59.7819 61.0055C60.5209 60.2119 60.5137 58.9585 59.7419 58.1777L58.4969 56.9316C58.2111 56.6452 58.2111 56.1855 58.4969 55.8972C58.7826 55.6108 59.2486 55.6108 59.5344 55.8899L61.3309 57.6906C62.11 58.4714 63.446 58.4714 64.2178 57.6906C64.6036 57.3038 64.8166 56.7912 64.8166 56.2439C64.8166 55.6966 64.6237 55.224 64.2651 54.8446L62.3885 52.9709C62.2483 52.825 62.1755 52.6371 62.1755 52.451C62.1755 52.2649 62.2483 52.0715 62.3885 51.9311C62.6742 51.6446 63.1402 51.6446 63.426 51.9311L65.7212 54.2316C66.1545 54.6658 66.7588 54.8975 67.3649 54.8847C67.9237 54.8774 68.4224 54.6512 68.781 54.2644C69.1196 53.885 69.3125 53.3978 69.3125 52.8834C69.3125 52.6243 69.2597 52.3707 69.1669 52.1299C68.9539 51.8106 68.7337 51.4969 68.5025 51.1904L68.5062 51.1958Z" fill="#40322D"/>
<path d="M59.9481 37.1725L57.3119 36.2822C55.991 35.8425 54.5663 36.3534 53.8267 37.4626L53.7083 37.6469C52.9577 38.8054 52.4148 40.0953 52.0996 41.4764C51.9247 42.2427 52.3929 43.0436 53.1617 43.3009C53.7848 43.4706 54.4497 43.2151 54.7977 42.655L56.0785 40.6189C56.2169 40.4 56.4538 40.2759 56.6979 40.2759C56.8072 40.2759 56.9165 40.2997 57.0204 40.3507C57.4102 40.5423 66.3463 44.9867 70.4673 51.5L74.7505 49.0571L67.4139 37.5484C64.9344 38.1158 62.3711 37.9935 59.9462 37.1725H59.9481Z" fill="#40322D"/>
<path d="M49.5962 59.7797C49.3366 59.5194 48.9887 59.3748 48.6173 59.3748C48.246 59.3748 47.898 59.5176 47.6366 59.7797L45.7168 61.7049C45.1777 62.2473 45.1777 63.1295 45.7168 63.6718C46.2359 64.1924 47.1553 64.1924 47.6763 63.6718L49.5962 61.7465C49.8558 61.4862 50 61.1373 50 60.7631C50 60.3889 49.8558 60.0418 49.5962 59.7797Z" fill="#40322D"/>
<path d="M47.1547 56.2211C46.8929 55.9586 46.542 55.8127 46.1656 55.8127C45.7892 55.8127 45.44 55.9568 45.1782 56.2211L42.7198 58.6841C42.458 58.9466 42.3125 59.2985 42.3125 59.6758C42.3125 60.0532 42.458 60.4032 42.7198 60.6676C43.2453 61.1945 44.1727 61.1945 44.6963 60.6676L47.1547 58.2046C47.6984 57.6577 47.6984 56.768 47.1547 56.2229V56.2211Z" fill="#40322D"/>
<path d="M44.9375 53.803C44.9375 53.4372 44.7957 53.0945 44.5405 52.837C44.2747 52.5707 43.9256 52.4375 43.5764 52.4375C43.2273 52.4375 42.8782 52.5707 42.6124 52.837L39.7095 55.7456C39.4543 56.0013 39.3125 56.3441 39.3125 56.7116C39.3125 57.0792 39.4543 57.4201 39.7095 57.6776C40.2216 58.1908 41.1237 58.1908 41.6376 57.6776L44.5405 54.769C44.7957 54.5133 44.9375 54.1706 44.9375 53.803Z" fill="#40322D"/>
<path d="M41.1529 50.22C40.8911 49.9582 40.5401 49.8127 40.1656 49.8127C39.791 49.8127 39.44 49.9564 39.1764 50.22L36.7198 52.6763C36.4561 52.9381 36.3125 53.289 36.3125 53.6653C36.3125 54.0417 36.458 54.3907 36.7198 54.6544C37.2635 55.198 38.1508 55.1998 38.6982 54.6544L41.1547 52.1981C41.6984 51.6527 41.6984 50.7654 41.1547 50.2218L41.1529 50.22Z" fill="#40322D"/>
<path d="M40.0434 34.3593L36.633 32.1972C36.0503 31.8241 35.2659 31.997 34.8976 32.5757L26.1986 46.0996C25.8229 46.6783 25.997 47.4572 26.5797 47.8285L29.9882 49.9906C30.276 50.1707 30.6113 50.2308 30.9393 50.1562C31.2674 50.0834 31.5496 49.8905 31.7291 49.6102L40.43 36.0882C40.7984 35.5022 40.6316 34.7305 40.0415 34.3593H40.0434ZM31.271 46.7365C30.8734 47.3553 30.0451 47.5373 29.422 47.1424C28.7989 46.7475 28.6157 45.9249 29.0133 45.3061C29.411 44.6873 30.2393 44.5053 30.8624 44.9002C31.4854 45.2952 31.6687 46.1178 31.2692 46.7365H31.271Z" fill="#40322D"/>
<path d="M82.4282 46.1023L73.7284 32.5763C73.547 32.2978 73.2667 32.0976 72.9387 32.0302C72.6107 31.9574 72.2754 32.0175 71.9877 32.1959L68.5797 34.3583C67.997 34.7314 67.8229 35.5032 68.1985 36.0875L76.8983 49.6117C77.2739 50.1905 78.0508 50.3634 78.6335 49.9903L82.0416 47.8279C82.6316 47.4547 82.7983 46.6775 82.43 46.0987L82.4282 46.1023ZM79.2015 47.1453C78.5785 47.5403 77.7503 47.3601 77.3527 46.7394C76.9551 46.1187 77.1365 45.2978 77.7613 44.9028C78.3843 44.5078 79.2125 44.688 79.6101 45.3087C80.0077 45.9276 79.8263 46.7503 79.2034 47.1453H79.2015Z" fill="#40322D"/>
</svg>
