<svg width="438" height="108" viewBox="0 0 438 108" fill="none" xmlns="http://www.w3.org/2000/svg">
<path d="M202.375 43.7454C205.989 43.7454 209.311 42.4851 211.94 40.387L217.253 45.6976C218.001 44.83 218.813 44.0184 219.68 43.2705L214.372 37.9636C216.482 35.3307 217.754 31.9985 217.754 28.3708C217.754 19.8963 210.856 13 202.375 13C193.894 13 187 19.8963 187 28.3708C187 36.8454 193.898 43.7417 202.375 43.7417V43.7454ZM202.375 18.8716C205.14 18.8716 207.38 21.1118 207.38 23.8755C207.38 26.6393 205.14 28.8795 202.375 28.8795C199.61 28.8795 197.37 26.6393 197.37 23.8755C197.37 21.1118 199.61 18.8716 202.375 18.8716ZM194.078 35.7384C194.078 33.2252 195.712 31.1047 197.961 30.3193C199.218 31.1832 200.74 31.7031 202.375 31.7031C204.01 31.7031 205.532 31.1832 206.789 30.3193C209.038 31.1047 210.654 33.2252 210.654 35.7384V36.9538C208.506 39.0257 205.588 40.3085 202.371 40.3085C199.154 40.3085 196.225 39.022 194.074 36.9389V35.7384H194.078Z" fill="#40322D"/>
<path d="M266.621 77.2546C263 77.2546 259.674 78.5187 257.044 80.6205L251.717 75.2949C250.969 76.1626 250.157 76.9741 249.29 77.7221L254.617 83.0476C252.514 85.6768 251.246 89.0052 251.246 92.6254C251.246 101.1 258.144 107.996 266.621 107.996C275.098 107.996 281.996 101.1 281.996 92.6254C281.996 84.1509 275.098 77.2546 266.621 77.2546ZM266.621 83.1299C269.386 83.1299 271.626 85.3701 271.626 88.1339C271.626 90.8976 269.386 93.1378 266.621 93.1378C263.857 93.1378 261.616 90.8976 261.616 88.1339C261.616 85.3701 263.857 83.1299 266.621 83.1299ZM274.903 101.212C272.756 103.284 269.838 104.567 266.621 104.567C263.404 104.567 260.475 103.28 258.324 101.197V99.993C258.324 97.4798 259.959 95.3593 262.203 94.5739C263.46 95.4378 264.986 95.9576 266.617 95.9576C268.248 95.9576 269.775 95.4378 271.032 94.5739C273.28 95.3593 274.896 97.4798 274.896 99.993V101.208L274.903 101.212Z" fill="#40322D"/>
<path d="M225.026 30.8055C226.399 30.8055 227.514 29.691 227.514 28.3185C227.514 26.946 226.399 25.8315 225.026 25.8315C223.653 25.8315 222.538 26.946 222.538 28.3185C222.538 29.691 223.653 30.8055 225.026 30.8055Z" fill="#40322D"/>
<path d="M243.944 30.8055C245.317 30.8055 246.432 29.691 246.432 28.3185C246.432 26.946 245.317 25.8315 243.944 25.8315C242.571 25.8315 241.456 26.946 241.456 28.3185C241.456 29.691 242.571 30.8055 243.944 30.8055Z" fill="#40322D"/>
<path d="M234.487 30.8055C235.86 30.8055 236.975 29.691 236.975 28.3185C236.975 26.946 235.86 25.8315 234.487 25.8315C233.114 25.8315 231.999 26.946 231.999 28.3185C231.999 29.691 233.114 30.8055 234.487 30.8055Z" fill="#40322D"/>
<path d="M225.026 90.0861C223.653 90.0861 222.538 91.2005 222.538 92.5731C222.538 93.9456 223.653 95.0601 225.026 95.0601C226.399 95.0601 227.514 93.9456 227.514 92.5731C227.514 91.2005 226.399 90.0861 225.026 90.0861Z" fill="#40322D"/>
<path d="M243.944 90.0861C242.571 90.0861 241.456 91.2005 241.456 92.5731C241.456 93.9456 242.571 95.0601 243.944 95.0601C245.317 95.0601 246.432 93.9456 246.432 92.5731C246.432 91.2005 245.317 90.0861 243.944 90.0861Z" fill="#40322D"/>
<path d="M234.487 90.0861C233.114 90.0861 231.999 91.2005 231.999 92.5731C231.999 93.9456 233.114 95.0601 234.487 95.0601C235.86 95.0601 236.975 93.9456 236.975 92.5731C236.975 91.2005 235.86 90.0861 234.487 90.0861Z" fill="#40322D"/>
<path d="M266.621 48.5025C265.248 48.5025 264.133 49.617 264.133 50.9895C264.133 52.3621 265.248 53.4765 266.621 53.4765C267.994 53.4765 269.109 52.3621 269.109 50.9895C269.109 49.617 267.994 48.5025 266.621 48.5025Z" fill="#40322D"/>
<path d="M266.621 67.415C265.248 67.415 264.133 68.5295 264.133 69.902C264.133 71.2745 265.248 72.389 266.621 72.389C267.994 72.389 269.109 71.2745 269.109 69.902C269.109 68.5295 267.994 67.415 266.621 67.415Z" fill="#40322D"/>
<path d="M266.621 57.9606C265.248 57.9606 264.133 59.0751 264.133 60.4476C264.133 61.8202 265.248 62.9347 266.621 62.9347C267.994 62.9347 269.109 61.8202 269.109 60.4476C269.109 59.0751 267.994 57.9606 266.621 57.9606Z" fill="#40322D"/>
<path d="M202.349 53.4765C203.723 53.4765 204.837 52.3631 204.837 50.9895C204.837 49.616 203.723 48.5025 202.349 48.5025C200.975 48.5025 199.861 49.616 199.861 50.9895C199.861 52.3631 200.975 53.4765 202.349 53.4765Z" fill="#40322D"/>
<path d="M202.349 72.389C203.723 72.389 204.837 71.2756 204.837 69.902C204.837 68.5285 203.723 67.415 202.349 67.415C200.975 67.415 199.861 68.5285 199.861 69.902C199.861 71.2756 200.975 72.389 202.349 72.389Z" fill="#40322D"/>
<path d="M202.349 62.9309C203.723 62.9309 204.837 61.8174 204.837 60.4439C204.837 59.0704 203.723 57.9569 202.349 57.9569C200.975 57.9569 199.861 59.0704 199.861 60.4439C199.861 61.8174 200.975 62.9309 202.349 62.9309Z" fill="#40322D"/>
<path d="M251.717 45.6976L257.041 40.3758C259.671 42.4776 263 43.7454 266.621 43.7454C275.098 43.7454 281.996 36.8491 281.996 28.3746C281.996 19.9001 275.102 13 266.621 13C258.141 13 251.246 19.8963 251.246 28.3708C251.246 31.991 252.51 35.3158 254.613 37.9449L249.29 43.2667C250.157 44.0147 250.969 44.8262 251.717 45.6939V45.6976ZM266.621 18.8716C269.386 18.8716 271.626 21.1118 271.626 23.8755C271.626 26.6393 269.386 28.8795 266.621 28.8795C263.857 28.8795 261.616 26.6393 261.616 23.8755C261.616 21.1118 263.857 18.8716 266.621 18.8716ZM258.328 35.7384C258.328 33.2252 259.962 31.1047 262.207 30.3193C263.464 31.1832 264.99 31.7031 266.621 31.7031C268.252 31.7031 269.778 31.1832 271.035 30.3193C273.284 31.1047 274.9 33.2252 274.9 35.7384V36.9538C272.752 39.0257 269.835 40.3085 266.617 40.3085C263.4 40.3085 260.471 39.022 258.32 36.9389V35.7346L258.328 35.7384Z" fill="#40322D"/>
<path d="M217.253 75.2986L211.94 80.6092C209.314 78.5149 205.992 77.2546 202.379 77.2546C193.902 77.2546 187.004 84.1509 187.004 92.6254C187.004 101.1 193.902 107.996 202.379 107.996C210.856 107.996 217.754 101.1 217.754 92.6254C217.754 88.9978 216.482 85.6655 214.372 83.0327L219.68 77.7258C218.813 76.9778 218.001 76.1663 217.253 75.2986ZM202.375 83.1299C205.14 83.1299 207.38 85.3701 207.38 88.1338C207.38 90.8976 205.14 93.1378 202.375 93.1378C199.61 93.1378 197.37 90.8976 197.37 88.1338C197.37 85.3701 199.61 83.1299 202.375 83.1299ZM210.657 101.212C208.51 103.284 205.592 104.567 202.375 104.567C199.158 104.567 196.229 103.28 194.078 101.197V99.9967C194.078 97.4835 195.712 95.363 197.961 94.5776C199.218 95.4415 200.74 95.9614 202.375 95.9614C204.01 95.9614 205.532 95.4415 206.789 94.5776C209.038 95.363 210.654 97.4835 210.654 99.9967V101.212H210.657Z" fill="#40322D"/>
<path d="M239.227 51.457C238.295 45.8023 236.38 41.4117 234.666 41.0191L234.457 41.0041L234.247 41.0228C232.56 41.4304 230.664 45.821 229.74 51.457L229.571 52.4892H239.399L239.23 51.457H239.227Z" fill="#40322D"/>
<path d="M242.642 51.73L242.754 52.4892H252.335L251.616 51.1765C249.443 47.2011 245.923 44.082 241.703 42.3953L239.762 41.6174L240.551 43.5547C241.471 45.8098 242.174 48.5624 242.642 51.73Z" fill="#40322D"/>
<path d="M243.095 65.1561H253.438L253.584 64.4456C253.853 63.1478 253.988 61.8202 253.988 60.4925C253.988 59.1649 253.853 57.8372 253.584 56.5395L253.438 55.8289H243.095L243.151 56.7676C243.226 58.0055 243.267 59.2509 243.267 60.4888C243.267 61.7267 243.226 62.9683 243.151 64.2099L243.095 65.1487V65.1561Z" fill="#40322D"/>
<path d="M239.919 60.4963C239.919 59.1424 239.874 57.8784 239.799 56.6704L239.747 55.8364H229.216L229.167 56.6704C229.092 57.8784 229.048 59.1424 229.048 60.4963C229.048 61.8501 229.096 63.1179 229.167 64.3221L229.216 65.1561H239.747L239.799 64.3221C239.874 63.1142 239.919 61.8501 239.919 60.4963Z" fill="#40322D"/>
<path d="M225.875 55.8327H215.532L215.386 56.5432C215.116 57.841 214.982 59.1686 214.982 60.4963C214.982 61.8239 215.116 63.1516 215.386 64.4493L215.532 65.1599H225.875L225.819 64.2212C225.748 62.9833 225.703 61.7379 225.703 60.5C225.703 59.2621 225.744 58.0205 225.819 56.7788L225.875 55.8401V55.8327Z" fill="#40322D"/>
<path d="M226.328 69.2588L226.216 68.4996H216.635L217.354 69.8123C219.527 73.7877 223.047 76.9068 227.267 78.5935L229.212 79.3714L228.419 77.4341C227.499 75.179 226.796 72.4264 226.328 69.2588Z" fill="#40322D"/>
<path d="M252.331 68.4996H242.75L242.638 69.2588C242.171 72.4264 241.467 75.179 240.547 77.4341L239.758 79.3714L241.699 78.5935C245.919 76.9068 249.439 73.7877 251.613 69.8123L252.331 68.4996Z" fill="#40322D"/>
<path d="M216.639 52.4892H226.219L226.332 51.73C226.799 48.5586 227.503 45.8098 228.423 43.5547L229.212 41.6174L227.271 42.3953C223.051 44.082 219.531 47.2011 217.357 51.1765L216.639 52.4892Z" fill="#40322D"/>
<path d="M229.743 69.5318C230.675 75.1827 232.59 79.5733 234.3 79.9697L234.431 79.9996L234.719 79.9697C236.406 79.5621 238.303 75.1715 239.23 69.5318L239.399 68.4996H229.571L229.74 69.5318H229.743Z" fill="#40322D"/>
<path d="M29.2899 50.7483C34.1939 51.2823 38.6056 47.7377 39.1396 42.8299C39.6735 37.9221 36.129 33.5141 31.2212 32.9802C26.3134 32.4462 21.9054 35.9908 21.3715 40.8986C20.8375 45.8064 24.3821 50.2143 29.2899 50.7521V50.7483Z" fill="#40322D"/>
<path d="M29.7064 86.489H16.831C13.8015 86.489 11.2226 84.3267 10.6924 81.3426L6.28828 56.4438C5.98912 54.7548 4.37969 53.6225 2.69452 53.9331C1.00557 54.2285 -0.119139 55.8379 0.180026 57.5268L4.58797 82.4257C5.64072 88.3749 10.7871 92.6919 16.831 92.6919H27.5214V103.973C27.5214 105.685 28.9074 107.075 30.6228 107.075C32.3383 107.075 33.7243 105.685 33.7243 103.973V90.5069C33.7243 88.2916 31.9218 86.4928 29.7102 86.4928L29.7064 86.489Z" fill="#40322D"/>
<path d="M39.8515 73.4545H31.7211L33.8379 63.7828L39.5713 66.5472C40.1317 66.8161 40.7452 66.9562 41.3663 66.9562C41.4306 66.9562 41.4912 66.9562 41.5518 66.9524L50.2087 66.5661C52.4884 66.4639 54.2568 64.5326 54.1546 62.2491C54.0524 59.9694 52.0983 58.2047 49.8413 58.3031L42.2259 58.644C42.2259 58.644 33.5615 54.1224 32.4936 53.8725C31.2893 53.5885 26.374 52.5206 26.374 52.5206C24.6433 52.1457 22.8673 52.4675 21.379 53.4332C19.8908 54.3989 18.8759 55.8871 18.5124 57.6215L14.9035 74.9617C14.5096 76.8665 14.983 78.8281 16.2137 80.3391C17.4445 81.85 19.2622 82.7172 21.2124 82.7172H35.561C36.485 82.7172 37.2348 83.467 37.2348 84.391V102.261C37.2348 104.821 39.3062 106.897 41.8699 106.897C44.4336 106.897 46.5013 104.821 46.5013 102.261V80.0967C46.5013 76.4234 43.5248 73.4469 39.8553 73.4469L39.8515 73.4545Z" fill="#40322D"/>
<path d="M103.547 50.7483C108.455 50.2143 111.999 45.8026 111.465 40.8948C110.931 35.987 106.524 32.4425 101.616 32.9764C96.7079 33.5104 93.1634 37.9221 93.6973 42.8261C94.2313 47.7339 98.6392 51.2785 103.547 50.7445V50.7483Z" fill="#40322D"/>
<path d="M130.142 53.9293C128.457 53.6188 126.848 54.751 126.549 56.44L122.141 81.3388C121.614 84.3229 119.032 86.4852 116.006 86.4852H103.13C100.915 86.4852 99.1164 88.284 99.1164 90.4993V103.965C99.1164 105.677 100.502 107.067 102.218 107.067C103.933 107.067 105.319 105.677 105.319 103.965V92.6843H116.01C122.05 92.6843 127.2 88.3673 128.253 82.4181L132.661 57.5193C132.96 55.8303 131.835 54.2247 130.146 53.9255L130.142 53.9293Z" fill="#40322D"/>
<path d="M116.627 80.3429C117.858 78.8319 118.331 76.8703 117.937 74.9655L114.325 57.6253C113.965 55.8871 112.946 54.4027 111.458 53.437C109.97 52.4713 108.194 52.1495 106.463 52.5244C106.463 52.5244 101.548 53.596 100.343 53.8763C99.2754 54.1262 90.611 58.6478 90.611 58.6478L82.9956 58.3069C80.7386 58.2085 78.7845 59.9732 78.6823 62.2529C78.5801 64.5326 80.3447 66.4639 82.6282 66.5699L91.2851 66.9562C91.3495 66.9562 91.41 66.96 91.4706 66.96C92.0917 66.96 92.7052 66.8199 93.2656 66.551L98.999 63.7866L101.116 73.4583H92.9854C89.3121 73.4583 86.3356 76.4348 86.3356 80.1081V102.273C86.3356 104.833 88.4108 106.908 90.9708 106.908C93.5307 106.908 95.6059 104.833 95.6059 102.273V84.4024C95.6059 83.4784 96.3557 82.7286 97.2797 82.7286H111.628C113.575 82.7286 115.4 81.8614 116.627 80.3504V80.3429Z" fill="#40322D"/>
<path d="M80.5341 70.0577H52.299C50.5836 70.0577 49.1976 71.4475 49.1976 73.1591C49.1976 74.8708 50.5836 76.2606 52.299 76.2606H63.3151V103.969C63.3151 105.681 64.7011 107.071 66.4165 107.071C68.132 107.071 69.518 105.681 69.518 103.969V76.2606H80.5341C82.2458 76.2606 83.6356 74.8708 83.6356 73.1591C83.6356 71.4475 82.2458 70.0577 80.5341 70.0577Z" fill="#40322D"/>
<path d="M52.6929 43.1897C52.2157 44.6135 51.2614 46.4464 49.3528 48.6693C48.141 50.0742 49.5649 52.157 51.3031 51.5132C54.9082 50.1765 59.0359 48.2906 62.8569 46.4275C64.0195 46.5638 65.201 46.6509 66.4165 46.6509C78.5081 46.6509 88.3124 39.6489 88.3124 31.0186C88.3124 22.3883 78.5119 15.3825 66.4165 15.3825C54.3212 15.3825 44.5207 22.3807 44.5207 31.0148C44.5207 35.9378 47.7131 40.323 52.6929 43.1859V43.1897ZM77.2509 27.6104C79.1292 27.6104 80.6591 29.1365 80.6591 31.0148C80.6591 32.8931 79.1292 34.4192 77.2509 34.4192C75.3726 34.4192 73.8464 32.8931 73.8464 31.0148C73.8464 29.1365 75.3763 27.6104 77.2509 27.6104ZM66.4165 27.6104C68.2948 27.6104 69.8248 29.1365 69.8248 31.0148C69.8248 32.8931 68.2986 34.4192 66.4165 34.4192C64.5345 34.4192 63.0121 32.8931 63.0121 31.0148C63.0121 29.1365 64.542 27.6104 66.4165 27.6104ZM55.5823 27.6104C57.4606 27.6104 58.9867 29.1365 58.9867 31.0148C58.9867 32.8931 57.4606 34.4192 55.5823 34.4192C53.704 34.4192 52.1778 32.8931 52.1778 31.0148C52.1778 29.1365 53.704 27.6104 55.5823 27.6104Z" fill="#40322D"/>
<path d="M125.93 0.338801L127.974 0.184326L128.328 4.86819L126.284 5.02267L125.93 0.338801Z" fill="#40322D"/>
<path d="M143.126 15.1187L142.972 13.0747L138.288 13.4287L138.442 15.4727L143.126 15.1187Z" fill="#40322D"/>
<path d="M137.058 3.13685L138.613 4.47294L135.551 8.03524L133.996 6.69915L137.058 3.13685Z" fill="#40322D"/>
<path d="M116.007 6.12388L117.343 4.56932L120.906 7.63101L119.57 9.18557L116.007 6.12388Z" fill="#40322D"/>
<path d="M118.359 26.2797C119.011 26.8397 119.993 26.7655 120.553 26.114L118.194 24.0864C117.634 24.738 117.708 25.7197 118.359 26.2797Z" fill="#40322D"/>
<path d="M123.255 24.8917L119.21 21.4149C118.858 21.113 118.329 21.153 118.027 21.5043C117.725 21.8561 117.765 22.3858 118.116 22.6876L122.161 26.1645C122.512 26.4663 123.043 26.4268 123.345 26.075C123.647 25.7238 123.606 25.1936 123.255 24.8917Z" fill="#40322D"/>
<path d="M132.685 9.68568C129.778 7.18768 125.398 7.51824 122.899 10.4252C121.835 11.6636 121.284 13.1697 121.228 14.6844C121.151 16.7232 121.246 17.643 120.033 19.0536C119.477 19.7005 119.519 20.2472 119.989 20.6514L123.752 23.8853C124.222 24.2899 124.769 24.2486 125.325 23.6017C126.538 22.1911 127.461 22.146 129.465 21.7639C130.954 21.4803 132.36 20.7097 133.424 19.4713C135.923 16.5643 135.591 12.1837 132.685 9.68568Z" fill="#40322D"/>
<path d="M135.235 22.3171L136.571 20.7625L140.133 23.8242L138.797 25.3788L135.235 22.3171Z" fill="#40322D"/>
<path d="M436.01 74.7431C433.737 69.4111 425.547 70.1708 422.379 71.164C420.97 71.6031 420.054 72.3663 419.026 73.4258C417.872 74.6141 409.609 83.114 409.609 83.114L399.408 86.9753C396.929 87.9128 395.684 90.6764 396.625 93.1472C397.352 95.057 399.177 96.2349 401.115 96.2349C401.681 96.2349 402.258 96.1339 402.818 95.9213L414.022 91.6801C414.679 91.4291 415.277 91.0388 415.767 90.5335L416.581 89.6936C416.69 95.3776 417.494 105.101 417.564 105.589C417.683 106.428 418.064 107.003 419.113 107.003H436.409C437.322 107.003 437.913 106.303 437.919 105.393C438.007 94.9664 438.413 80.3853 436.01 74.7501V74.7431Z" fill="#40322D"/>
<path d="M426.023 68.0136C431.817 68.0136 436.514 63.3333 436.514 57.5552C436.514 51.7771 431.817 47.1003 426.023 47.1003C420.229 47.1003 415.532 51.7841 415.532 57.5552C415.532 63.3263 420.229 68.0136 426.023 68.0136Z" fill="#40322D"/>
<path d="M390.474 77.3533C389.271 74.9975 386.375 74.0635 384.015 75.2658L375.038 79.8312C375.038 79.8312 370.073 76.4019 368.468 75.2345C367.46 74.5026 364.506 72.1503 361.621 71.164C358.477 70.0907 350.263 69.4111 347.99 74.7431C345.587 80.3818 345.993 94.9629 346.08 105.39C346.087 106.303 346.678 107 347.591 107H364.887C365.936 107 366.317 106.425 366.436 105.585C366.513 105.045 367.485 93.2448 367.429 88.0557C367.422 87.5051 367.429 86.8917 367.439 86.254L372.003 89.3347C372.811 89.8818 373.751 90.1571 374.696 90.1571C375.44 90.1571 376.189 89.9829 376.878 89.6344L388.375 83.7866C390.739 82.5843 391.676 79.7022 390.47 77.3499L390.474 77.3533Z" fill="#40322D"/>
<path d="M357.977 68.0136C363.771 68.0136 368.468 63.3333 368.468 57.5552C368.468 51.7771 363.771 47.1003 357.977 47.1003C352.182 47.1003 347.486 51.7841 347.486 57.5552C347.486 63.3263 352.182 68.0136 357.977 68.0136Z" fill="#40322D"/>
<path d="M392.355 14.2753C383.613 15.6693 376.598 22.7264 375.213 31.4423C374.402 36.5408 375.489 41.3222 377.829 45.2881L373.723 54.2166C372.972 55.8476 374.661 57.5308 376.301 56.785L385.256 52.6902C389.243 55.0286 394.061 56.1124 399.184 55.2935C407.934 53.896 415.008 46.8807 416.382 38.1578C418.61 24.0228 406.538 12.0136 392.355 14.2753ZM405.465 36.9207L396.572 45.783C396.153 46.2012 395.471 46.2012 395.051 45.783L386.312 37.074C384.511 35.2793 383.843 32.4948 385.004 30.233C386.952 26.4448 391.722 25.9186 394.46 28.6439L395.81 29.9925L397.006 28.8007C398.807 27.0059 401.601 26.3403 403.867 27.4973C407.668 29.4384 408.199 34.1885 405.461 36.9207H405.465Z" fill="#40322D"/>
</svg>
