<svg width="807" height="400" viewBox="0 0 807 400" fill="none" xmlns="http://www.w3.org/2000/svg">
<path d="M0 9.99999C0 4.47714 4.47715 0 10 0H796.045C801.568 0 806.045 4.47715 806.045 10V390C806.045 395.523 801.568 400 796.045 400H9.99998C4.47714 400 0 395.523 0 390V9.99999Z" fill="#E2DBD3"/>
<path d="M86 165C86 159.477 90.4772 155 96 155H704C709.523 155 714 159.477 714 165V345C714 350.523 709.523 355 704 355H96C90.4771 355 86 350.523 86 345V165Z" fill="#F8F6F0"/>
<g clip-path="url(#clip0_1142_351)">
<path d="M367.375 237.745C370.989 237.745 374.311 236.485 376.941 234.387L382.253 239.698C383.001 238.83 383.813 238.018 384.68 237.27L379.372 231.964C381.482 229.331 382.754 225.999 382.754 222.371C382.754 213.896 375.856 207 367.375 207C358.894 207 352 213.896 352 222.371C352 230.845 358.898 237.742 367.375 237.742V237.745ZM367.375 212.872C370.14 212.872 372.38 215.112 372.38 217.876C372.38 220.639 370.14 222.879 367.375 222.879C364.611 222.879 362.37 220.639 362.37 217.876C362.37 215.112 364.611 212.872 367.375 212.872ZM359.078 229.738C359.078 227.225 360.713 225.105 362.961 224.319C364.218 225.183 365.74 225.703 367.375 225.703C369.01 225.703 370.532 225.183 371.789 224.319C374.038 225.105 375.654 227.225 375.654 229.738V230.954C373.506 233.026 370.589 234.308 367.371 234.308C364.154 234.308 361.225 233.022 359.074 230.939V229.738H359.078Z" fill="#40322D"/>
<path d="M431.621 271.255C428 271.255 424.674 272.519 422.044 274.62L416.717 269.295C415.969 270.163 415.157 270.974 414.29 271.722L419.617 277.048C417.514 279.677 416.246 283.005 416.246 286.625C416.246 295.1 423.144 301.996 431.621 301.996C440.098 301.996 446.996 295.1 446.996 286.625C446.996 278.151 440.098 271.255 431.621 271.255ZM431.621 277.13C434.386 277.13 436.626 279.37 436.626 282.134C436.626 284.898 434.386 287.138 431.621 287.138C428.857 287.138 426.616 284.898 426.616 282.134C426.616 279.37 428.857 277.13 431.621 277.13ZM439.903 295.212C437.756 297.284 434.838 298.567 431.621 298.567C428.404 298.567 425.475 297.28 423.324 295.197V293.993C423.324 291.48 424.959 289.359 427.203 288.574C428.46 289.438 429.986 289.958 431.617 289.958C433.248 289.958 434.775 289.438 436.032 288.574C438.28 289.359 439.896 291.48 439.896 293.993V295.208L439.903 295.212Z" fill="#40322D"/>
<path d="M390.026 224.805C391.399 224.805 392.514 223.691 392.514 222.318C392.514 220.946 391.399 219.831 390.026 219.831C388.653 219.831 387.539 220.946 387.539 222.318C387.539 223.691 388.653 224.805 390.026 224.805Z" fill="#40322D"/>
<path d="M408.944 224.805C410.317 224.805 411.432 223.691 411.432 222.318C411.432 220.946 410.317 219.831 408.944 219.831C407.571 219.831 406.456 220.946 406.456 222.318C406.456 223.691 407.571 224.805 408.944 224.805Z" fill="#40322D"/>
<path d="M399.487 224.805C400.86 224.805 401.975 223.691 401.975 222.318C401.975 220.946 400.86 219.831 399.487 219.831C398.114 219.831 396.999 220.946 396.999 222.318C396.999 223.691 398.114 224.805 399.487 224.805Z" fill="#40322D"/>
<path d="M390.026 284.086C388.653 284.086 387.539 285.201 387.539 286.573C387.539 287.946 388.653 289.06 390.026 289.06C391.399 289.06 392.514 287.946 392.514 286.573C392.514 285.201 391.399 284.086 390.026 284.086Z" fill="#40322D"/>
<path d="M408.944 284.086C407.571 284.086 406.456 285.201 406.456 286.573C406.456 287.946 407.571 289.06 408.944 289.06C410.317 289.06 411.432 287.946 411.432 286.573C411.432 285.201 410.317 284.086 408.944 284.086Z" fill="#40322D"/>
<path d="M399.487 284.086C398.114 284.086 396.999 285.201 396.999 286.573C396.999 287.946 398.114 289.06 399.487 289.06C400.86 289.06 401.975 287.946 401.975 286.573C401.975 285.201 400.86 284.086 399.487 284.086Z" fill="#40322D"/>
<path d="M431.621 242.503C430.248 242.503 429.134 243.617 429.134 244.99C429.134 246.362 430.248 247.477 431.621 247.477C432.994 247.477 434.109 246.362 434.109 244.99C434.109 243.617 432.994 242.503 431.621 242.503Z" fill="#40322D"/>
<path d="M431.621 261.415C430.248 261.415 429.134 262.529 429.134 263.902C429.134 265.275 430.248 266.389 431.621 266.389C432.994 266.389 434.109 265.275 434.109 263.902C434.109 262.529 432.994 261.415 431.621 261.415Z" fill="#40322D"/>
<path d="M431.621 251.961C430.248 251.961 429.134 253.075 429.134 254.448C429.134 255.82 430.248 256.935 431.621 256.935C432.994 256.935 434.109 255.82 434.109 254.448C434.109 253.075 432.994 251.961 431.621 251.961Z" fill="#40322D"/>
<path d="M367.349 247.477C368.723 247.477 369.837 246.363 369.837 244.99C369.837 243.616 368.723 242.503 367.349 242.503C365.975 242.503 364.861 243.616 364.861 244.99C364.861 246.363 365.975 247.477 367.349 247.477Z" fill="#40322D"/>
<path d="M367.349 266.389C368.723 266.389 369.837 265.276 369.837 263.902C369.837 262.528 368.723 261.415 367.349 261.415C365.975 261.415 364.861 262.528 364.861 263.902C364.861 265.276 365.975 266.389 367.349 266.389Z" fill="#40322D"/>
<path d="M367.349 256.931C368.723 256.931 369.837 255.817 369.837 254.444C369.837 253.07 368.723 251.957 367.349 251.957C365.975 251.957 364.861 253.07 364.861 254.444C364.861 255.817 365.975 256.931 367.349 256.931Z" fill="#40322D"/>
<path d="M416.717 239.698L422.041 234.376C424.671 236.478 428 237.745 431.621 237.745C440.098 237.745 446.996 230.849 446.996 222.375C446.996 213.9 440.102 207 431.621 207C423.141 207 416.246 213.896 416.246 222.371C416.246 225.991 417.51 229.316 419.613 231.945L414.29 237.267C415.157 238.015 415.969 238.826 416.717 239.694V239.698ZM431.621 212.872C434.386 212.872 436.626 215.112 436.626 217.876C436.626 220.639 434.386 222.879 431.621 222.879C428.857 222.879 426.616 220.639 426.616 217.876C426.616 215.112 428.857 212.872 431.621 212.872ZM423.328 229.738C423.328 227.225 424.962 225.105 427.207 224.319C428.464 225.183 429.99 225.703 431.621 225.703C433.252 225.703 434.778 225.183 436.035 224.319C438.284 225.105 439.9 227.225 439.9 229.738V230.954C437.752 233.026 434.835 234.308 431.617 234.308C428.4 234.308 425.471 233.022 423.32 230.939V229.735L423.328 229.738Z" fill="#40322D"/>
<path d="M382.253 269.299L376.941 274.609C374.315 272.515 370.993 271.255 367.379 271.255C358.902 271.255 352.004 278.151 352.004 286.625C352.004 295.1 358.902 301.996 367.379 301.996C375.856 301.996 382.754 295.1 382.754 286.625C382.754 282.998 381.482 279.666 379.372 277.033L384.681 271.726C383.813 270.978 383.001 270.166 382.253 269.299ZM367.375 277.13C370.14 277.13 372.381 279.37 372.381 282.134C372.381 284.898 370.14 287.138 367.375 287.138C364.611 287.138 362.37 284.898 362.37 282.134C362.37 279.37 364.611 277.13 367.375 277.13ZM375.658 295.212C373.51 297.284 370.592 298.567 367.375 298.567C364.158 298.567 361.229 297.28 359.078 295.197V293.997C359.078 291.484 360.713 289.363 362.961 288.578C364.218 289.442 365.74 289.961 367.375 289.961C369.01 289.961 370.533 289.442 371.789 288.578C374.038 289.363 375.654 291.484 375.654 293.997V295.212H375.658Z" fill="#40322D"/>
<path d="M404.227 245.457C403.295 239.802 401.38 235.412 399.666 235.019L399.457 235.004L399.247 235.023C397.56 235.43 395.664 239.821 394.74 245.457L394.571 246.489H404.399L404.23 245.457H404.227Z" fill="#40322D"/>
<path d="M407.642 245.73L407.754 246.489H417.335L416.616 245.177C414.443 241.201 410.923 238.082 406.703 236.395L404.761 235.617L405.551 237.555C406.471 239.81 407.174 242.562 407.642 245.73Z" fill="#40322D"/>
<path d="M408.095 259.156H418.438L418.584 258.446C418.854 257.148 418.988 255.82 418.988 254.493C418.988 253.165 418.854 251.837 418.584 250.539L418.438 249.829H408.095L408.151 250.768C408.226 252.006 408.267 253.251 408.267 254.489C408.267 255.727 408.226 256.968 408.151 258.21L408.095 259.149V259.156Z" fill="#40322D"/>
<path d="M404.919 254.496C404.919 253.142 404.874 251.878 404.799 250.67L404.747 249.836H394.216L394.167 250.67C394.092 251.878 394.048 253.142 394.048 254.496C394.048 255.85 394.096 257.118 394.167 258.322L394.216 259.156H404.747L404.799 258.322C404.874 257.114 404.919 255.85 404.919 254.496Z" fill="#40322D"/>
<path d="M390.875 249.833H380.532L380.386 250.543C380.117 251.841 379.982 253.169 379.982 254.496C379.982 255.824 380.117 257.152 380.386 258.449L380.532 259.16H390.875L390.819 258.221C390.748 256.983 390.703 255.738 390.703 254.5C390.703 253.262 390.744 252.02 390.819 250.779L390.875 249.84V249.833Z" fill="#40322D"/>
<path d="M391.328 263.259L391.216 262.5H381.635L382.354 263.812C384.527 267.788 388.047 270.907 392.267 272.593L394.212 273.371L393.419 271.434C392.499 269.179 391.796 266.426 391.328 263.259Z" fill="#40322D"/>
<path d="M417.331 262.5H407.751L407.638 263.259C407.171 266.426 406.467 269.179 405.547 271.434L404.758 273.371L406.699 272.593C410.919 270.907 414.439 267.788 416.613 263.812L417.331 262.5Z" fill="#40322D"/>
<path d="M381.639 246.489H391.22L391.332 245.73C391.799 242.559 392.503 239.81 393.423 237.555L394.212 235.617L392.271 236.395C388.051 238.082 384.531 241.201 382.357 245.177L381.639 246.489Z" fill="#40322D"/>
<path d="M394.743 263.532C395.675 269.183 397.59 273.573 399.3 273.97L399.431 274L399.719 273.97C401.406 273.562 403.303 269.171 404.23 263.532L404.399 262.5H394.571L394.74 263.532H394.743Z" fill="#40322D"/>
</g>
<g clip-path="url(#clip1_1142_351)">
<path d="M194.29 244.748C199.194 245.282 203.606 241.738 204.14 236.83C204.674 231.922 201.129 227.514 196.221 226.98C191.313 226.446 186.906 229.991 186.372 234.899C185.838 239.806 189.382 244.214 194.29 244.752V244.748Z" fill="#40322D"/>
<path d="M194.706 280.489H181.831C178.801 280.489 176.223 278.327 175.692 275.343L171.288 250.444C170.989 248.755 169.38 247.623 167.695 247.933C166.006 248.228 164.881 249.838 165.18 251.527L169.588 276.426C170.641 282.375 175.787 286.692 181.831 286.692H192.521V297.973C192.521 299.685 193.907 301.075 195.623 301.075C197.338 301.075 198.724 299.685 198.724 297.973V284.507C198.724 282.292 196.922 280.493 194.71 280.493L194.706 280.489Z" fill="#40322D"/>
<path d="M204.852 267.455H196.721L198.838 257.783L204.571 260.547C205.132 260.816 205.745 260.956 206.366 260.956C206.431 260.956 206.491 260.956 206.552 260.952L215.209 260.566C217.488 260.464 219.257 258.533 219.155 256.249C219.052 253.969 217.098 252.205 214.841 252.303L207.226 252.644C207.226 252.644 198.562 248.122 197.494 247.872C196.289 247.588 191.374 246.521 191.374 246.521C189.643 246.146 187.867 246.468 186.379 247.433C184.891 248.399 183.876 249.887 183.512 251.622L179.904 268.962C179.51 270.866 179.983 272.828 181.214 274.339C182.445 275.85 184.262 276.717 186.212 276.717H200.561C201.485 276.717 202.235 277.467 202.235 278.391V296.261C202.235 298.821 204.306 300.897 206.87 300.897C209.434 300.897 211.501 298.821 211.501 296.261V274.097C211.501 270.423 208.525 267.447 204.855 267.447L204.852 267.455Z" fill="#40322D"/>
<path d="M268.547 244.748C273.455 244.214 276.999 239.803 276.465 234.895C275.931 229.987 271.523 226.442 266.616 226.976C261.708 227.51 258.163 231.922 258.697 236.826C259.231 241.734 263.639 245.278 268.547 244.745V244.748Z" fill="#40322D"/>
<path d="M295.142 247.929C293.457 247.619 291.848 248.751 291.548 250.44L287.141 275.339C286.614 278.323 284.031 280.485 281.006 280.485H268.13C265.915 280.485 264.116 282.284 264.116 284.499V297.965C264.116 299.677 265.502 301.067 267.218 301.067C268.933 301.067 270.319 299.677 270.319 297.965V286.684H281.01C287.05 286.684 292.2 282.367 293.253 276.418L297.66 251.519C297.96 249.83 296.835 248.225 295.146 247.925L295.142 247.929Z" fill="#40322D"/>
<path d="M281.627 274.343C282.858 272.832 283.331 270.87 282.937 268.965L279.325 251.625C278.965 249.887 277.946 248.403 276.458 247.437C274.97 246.471 273.194 246.149 271.463 246.524C271.463 246.524 266.548 247.596 265.343 247.876C264.276 248.126 255.611 252.648 255.611 252.648L247.996 252.307C245.739 252.208 243.785 253.973 243.682 256.253C243.58 258.533 245.345 260.464 247.628 260.57L256.285 260.956C256.35 260.956 256.41 260.96 256.471 260.96C257.092 260.96 257.705 260.82 258.266 260.551L263.999 257.787L266.116 267.458H257.986C254.312 267.458 251.336 270.435 251.336 274.108V296.273C251.336 298.833 253.411 300.908 255.971 300.908C258.531 300.908 260.606 298.833 260.606 296.273V278.402C260.606 277.478 261.356 276.729 262.28 276.729H276.628C278.575 276.729 280.4 275.861 281.627 274.35V274.343Z" fill="#40322D"/>
<path d="M245.534 264.058H217.299C215.584 264.058 214.198 265.447 214.198 267.159C214.198 268.871 215.584 270.261 217.299 270.261H228.315V297.969C228.315 299.681 229.701 301.071 231.417 301.071C233.132 301.071 234.518 299.681 234.518 297.969V270.261H245.534C247.246 270.261 248.636 268.871 248.636 267.159C248.636 265.447 247.246 264.058 245.534 264.058Z" fill="#40322D"/>
<path d="M217.693 237.19C217.216 238.614 216.262 240.446 214.353 242.669C213.141 244.074 214.565 246.157 216.303 245.513C219.908 244.176 224.036 242.291 227.857 240.427C229.02 240.564 230.201 240.651 231.417 240.651C243.508 240.651 253.313 233.649 253.313 225.019C253.313 216.388 243.512 209.383 231.417 209.383C219.321 209.383 209.521 216.381 209.521 225.015C209.521 229.938 212.713 234.323 217.693 237.186V237.19ZM242.251 221.61C244.129 221.61 245.659 223.137 245.659 225.015C245.659 226.893 244.129 228.419 242.251 228.419C240.373 228.419 238.847 226.893 238.847 225.015C238.847 223.137 240.377 221.61 242.251 221.61ZM231.417 221.61C233.295 221.61 234.825 223.137 234.825 225.015C234.825 226.893 233.299 228.419 231.417 228.419C229.535 228.419 228.012 226.893 228.012 225.015C228.012 223.137 229.542 221.61 231.417 221.61ZM220.583 221.61C222.461 221.61 223.987 223.137 223.987 225.015C223.987 226.893 222.461 228.419 220.583 228.419C218.704 228.419 217.178 226.893 217.178 225.015C217.178 223.137 218.704 221.61 220.583 221.61Z" fill="#40322D"/>
</g>
<path d="M290.93 194.339L292.974 194.184L293.328 198.868L291.284 199.023L290.93 194.339Z" fill="#40322D"/>
<path d="M308.126 209.119L307.972 207.075L303.288 207.429L303.443 209.473L308.126 209.119Z" fill="#40322D"/>
<path d="M302.059 197.137L303.613 198.473L300.551 202.035L298.997 200.699L302.059 197.137Z" fill="#40322D"/>
<path d="M281.007 200.124L282.343 198.569L285.906 201.631L284.57 203.186L281.007 200.124Z" fill="#40322D"/>
<path d="M283.36 220.28C284.011 220.84 284.993 220.766 285.553 220.114L283.194 218.086C282.634 218.738 282.708 219.72 283.36 220.28Z" fill="#40322D"/>
<path d="M288.255 218.892L284.21 215.415C283.859 215.113 283.329 215.153 283.027 215.504C282.725 215.856 282.765 216.386 283.116 216.688L287.161 220.164C287.512 220.466 288.043 220.427 288.345 220.075C288.647 219.724 288.606 219.194 288.255 218.892Z" fill="#40322D"/>
<path d="M297.685 203.686C294.778 201.188 290.398 201.518 287.899 204.425C286.835 205.664 286.284 207.17 286.228 208.684C286.151 210.723 286.246 211.643 285.034 213.054C284.478 213.701 284.519 214.247 284.989 214.651L288.752 217.885C289.223 218.29 289.769 218.249 290.325 217.602C291.538 216.191 292.461 216.146 294.465 215.764C295.954 215.48 297.36 214.71 298.424 213.471C300.923 210.564 300.591 206.184 297.685 203.686Z" fill="#40322D"/>
<path d="M300.235 216.317L301.571 214.763L305.133 217.824L303.797 219.379L300.235 216.317Z" fill="#40322D"/>
<g clip-path="url(#clip2_1142_351)">
<path d="M601.01 268.743C598.737 263.411 590.548 264.171 587.379 265.164C585.97 265.603 585.054 266.366 584.026 267.426C582.872 268.614 574.609 277.114 574.609 277.114L564.408 280.975C561.929 281.913 560.684 284.676 561.625 287.147C562.352 289.057 564.177 290.235 566.115 290.235C566.681 290.235 567.258 290.134 567.818 289.921L579.022 285.68C579.679 285.429 580.277 285.039 580.767 284.534L581.581 283.694C581.69 289.378 582.494 299.101 582.564 299.589C582.683 300.428 583.064 301.004 584.113 301.004H601.409C602.322 301.004 602.913 300.303 602.92 299.393C603.007 288.966 603.413 274.385 601.01 268.75V268.743Z" fill="#40322D"/>
<path d="M591.023 262.014C596.818 262.014 601.514 257.333 601.514 251.555C601.514 245.777 596.818 241.1 591.023 241.1C585.229 241.1 580.532 245.784 580.532 251.555C580.532 257.326 585.229 262.014 591.023 262.014Z" fill="#40322D"/>
<path d="M555.474 271.353C554.271 268.997 551.375 268.064 549.015 269.266L540.038 273.831C540.038 273.831 535.073 270.402 533.468 269.234C532.461 268.503 529.506 266.15 526.621 265.164C523.477 264.091 515.263 263.411 512.99 268.743C510.587 274.382 510.993 288.963 511.08 299.39C511.087 300.303 511.678 301 512.591 301H529.887C530.936 301 531.317 300.425 531.436 299.585C531.513 299.045 532.485 287.245 532.429 282.056C532.422 281.505 532.429 280.892 532.44 280.254L537.003 283.335C537.811 283.882 538.751 284.157 539.696 284.157C540.44 284.157 541.189 283.983 541.878 283.634L553.375 277.787C555.739 276.584 556.677 273.702 555.47 271.35L555.474 271.353Z" fill="#40322D"/>
<path d="M522.977 262.014C528.771 262.014 533.467 257.333 533.467 251.555C533.467 245.777 528.771 241.1 522.977 241.1C517.182 241.1 512.486 245.784 512.486 251.555C512.486 257.326 517.182 262.014 522.977 262.014Z" fill="#40322D"/>
<path d="M557.355 208.275C548.613 209.669 541.598 216.726 540.213 225.442C539.402 230.541 540.489 235.322 542.829 239.288L538.723 248.217C537.972 249.848 539.661 251.531 541.301 250.785L550.256 246.69C554.243 249.029 559.061 250.112 564.184 249.293C572.934 247.896 580.008 240.881 581.382 232.158C583.61 218.023 571.538 206.014 557.355 208.275ZM570.465 230.921L561.572 239.783C561.152 240.201 560.471 240.201 560.051 239.783L551.312 231.074C549.511 229.279 548.843 226.495 550.004 224.233C551.952 220.445 556.722 219.919 559.46 222.644L560.81 223.993L562.006 222.801C563.807 221.006 566.601 220.34 568.867 221.497C572.668 223.438 573.199 228.188 570.461 230.921H570.465Z" fill="#40322D"/>
</g>
<path d="M456.203 66.072C458.363 66.072 460.091 67.8 460.091 69.936C460.091 72.096 458.363 73.824 456.203 73.824C454.067 73.824 452.315 72.096 452.315 69.936C452.315 67.8 454.067 66.072 456.203 66.072ZM456.203 72.096C457.403 72.096 458.363 71.136 458.363 69.936C458.363 68.76 457.403 67.8 456.203 67.8C455.027 67.8 454.043 68.76 454.043 69.936C454.043 71.136 455.027 72.096 456.203 72.096Z" fill="#40322D"/>
<path d="M439.235 52.752C439.043 53.64 438.731 55.056 438.059 56.784C437.555 57.96 436.859 59.328 436.187 60.288C436.835 60 438.107 59.832 438.923 59.832C440.915 59.832 442.427 61.008 442.427 63.24C442.427 64.536 442.499 67.152 442.523 68.664H439.643C439.739 67.536 439.787 65.496 439.763 64.2C439.763 62.664 438.803 62.16 437.795 62.16C436.475 62.16 434.963 62.952 434.051 63.816C433.331 64.536 432.659 65.4 431.843 66.456L429.275 64.536C432.347 61.704 434.195 59.112 435.203 56.472C435.683 55.176 435.995 53.712 436.067 52.488L439.235 52.752ZM430.187 54.984C431.411 55.152 433.187 55.248 434.411 55.248C437.579 55.248 441.923 55.08 445.403 54.456L445.379 57.24C441.995 57.72 437.171 57.936 434.243 57.936C433.259 57.936 431.507 57.888 430.187 57.768V54.984ZM449.195 61.8C448.451 62.016 447.155 62.496 446.339 62.808C444.779 63.408 442.619 64.272 440.363 65.424C438.179 66.552 437.003 67.584 437.003 68.904C437.003 70.224 438.155 70.584 440.483 70.584C442.523 70.584 445.211 70.32 447.323 69.888L447.227 72.984C445.619 73.2 442.691 73.416 440.411 73.416C436.667 73.416 433.859 72.48 433.859 69.384C433.859 66.048 437.291 64.08 440.171 62.64C442.379 61.488 443.891 60.912 445.331 60.24C446.267 59.832 447.107 59.448 448.019 58.992L449.195 61.8Z" fill="#40322D"/>
<path d="M421.787 51.792C422.387 52.704 423.179 54.072 423.611 54.96L421.619 55.8C421.139 54.792 420.419 53.568 419.795 52.608L421.787 51.792ZM425.123 51.168C425.747 52.056 426.587 53.496 427.043 54.36L425.051 55.2C424.547 54.216 423.803 52.872 423.131 51.984L425.123 51.168ZM424.259 56.304C424.043 56.76 423.851 57.456 423.731 57.96C423.179 60.312 422.123 64.056 420.131 66.72C417.947 69.6 414.755 71.976 410.483 73.344L407.867 70.464C412.619 69.36 415.331 67.272 417.251 64.848C418.859 62.856 419.771 60.12 420.083 58.056C418.643 58.056 410.699 58.056 408.899 58.056C407.819 58.056 406.667 58.128 406.043 58.176V54.768C406.763 54.864 408.107 54.984 408.899 54.984C410.699 54.984 418.667 54.984 420.011 54.984C420.491 54.984 421.259 54.96 421.883 54.792L424.259 56.304Z" fill="#40322D"/>
<path d="M382.115 65.184C385.259 64.488 388.811 62.88 390.707 61.728C393.059 60.312 395.459 58.176 396.707 56.616L399.083 58.944C397.643 60.504 394.739 62.76 392.123 64.296C389.963 65.568 386.267 67.176 383.531 67.992L382.115 65.184ZM390.443 63.624L393.707 63V71.52C393.707 72.384 393.731 73.656 393.875 74.136H390.299C390.371 73.656 390.443 72.384 390.443 71.52V63.624Z" fill="#40322D"/>
<path d="M361.825 53.616C362.593 53.712 363.577 53.784 364.393 53.784C365.905 53.784 372.625 53.784 374.041 53.784C374.833 53.784 375.793 53.712 376.609 53.616V56.712C375.793 56.664 374.857 56.616 374.041 56.616C372.625 56.616 365.905 56.616 364.393 56.616C363.577 56.616 362.545 56.664 361.825 56.712V53.616ZM359.017 59.736C359.737 59.832 360.577 59.88 361.321 59.88C362.833 59.88 375.625 59.88 377.041 59.88C377.545 59.88 378.601 59.856 379.249 59.736V62.856C378.625 62.832 377.713 62.808 377.041 62.808C375.625 62.808 362.833 62.808 361.321 62.808C360.625 62.808 359.689 62.832 359.017 62.88V59.736ZM371.305 61.416C371.305 64.56 370.753 66.96 369.721 68.952C368.905 70.632 367.033 72.48 364.921 73.584L362.089 71.544C363.793 70.872 365.497 69.504 366.433 68.088C367.633 66.264 367.969 64.008 367.969 61.44L371.305 61.416Z" fill="#40322D"/>
<path d="M334.957 62.688C339.253 61.584 342.757 60.024 345.445 58.368C347.893 56.856 350.629 54.456 352.189 52.56L354.781 55.008C352.597 57.216 349.669 59.472 346.837 61.176C344.125 62.784 340.237 64.584 336.445 65.712L334.957 62.688ZM344.941 59.928L348.349 59.112V69.936C348.349 70.992 348.397 72.48 348.565 73.08H344.749C344.845 72.504 344.941 70.992 344.941 69.936V59.928Z" fill="#40322D"/>
<path d="M312.781 55.248C313.405 55.344 314.413 55.416 315.061 55.416H328.141C328.861 55.416 329.701 55.344 330.373 55.248V58.56C329.677 58.488 328.837 58.44 328.141 58.44H315.061C314.413 58.44 313.405 58.488 312.781 58.56V55.248ZM319.717 70.032V57.096H323.053V70.032H319.717ZM311.245 68.064C312.013 68.184 312.877 68.256 313.597 68.256H329.437C330.277 68.256 331.045 68.136 331.669 68.064V71.52C330.997 71.448 329.989 71.424 329.437 71.424H313.597C312.901 71.424 312.037 71.448 311.245 71.52V68.064Z" fill="#40322D"/>
<path d="M304.717 53.376C304.669 54.048 304.645 54.816 304.645 55.8C304.645 57.024 304.645 59.352 304.645 60.528C304.645 65.712 303.637 67.92 301.837 69.888C300.253 71.64 297.781 72.792 296.029 73.368L293.509 70.704C295.909 70.152 297.829 69.24 299.293 67.68C300.925 65.88 301.261 64.08 301.261 60.336C301.261 59.136 301.261 56.832 301.261 55.8C301.261 54.816 301.189 54.048 301.093 53.376H304.717ZM293.605 53.592C293.557 54.144 293.509 54.672 293.509 55.416C293.509 56.472 293.509 62.184 293.509 63.528C293.509 64.128 293.557 65.064 293.605 65.616H290.101C290.149 65.184 290.221 64.248 290.221 63.504C290.221 62.136 290.221 56.472 290.221 55.416C290.221 54.984 290.197 54.144 290.125 53.592H293.605Z" fill="#40322D"/>
<path d="M283.045 57.096C282.781 57.552 282.445 58.2 282.253 58.8C281.605 60.96 280.237 64.152 278.053 66.816C275.773 69.6 272.893 71.808 268.381 73.584L265.549 71.064C270.445 69.576 273.109 67.488 275.221 65.112C276.853 63.24 278.245 60.36 278.629 58.584H270.541L271.645 55.848C272.701 55.848 277.741 55.848 278.485 55.848C279.229 55.848 280.045 55.752 280.573 55.56L283.045 57.096ZM275.221 53.28C274.645 54.12 274.021 55.224 273.757 55.728C272.125 58.632 269.269 62.016 265.813 64.368L263.125 62.376C267.325 59.808 269.437 56.712 270.613 54.648C270.973 54.072 271.477 52.968 271.693 52.128L275.221 53.28Z" fill="#40322D"/>
<path d="M242.749 53.736C243.421 53.808 244.237 53.856 244.909 53.856C246.205 53.856 251.317 53.736 252.685 53.616C253.693 53.544 254.245 53.448 254.533 53.352L256.069 55.512C255.517 55.872 254.941 56.208 254.413 56.616C253.117 57.528 250.597 59.64 249.061 60.84C249.877 60.624 250.597 60.576 251.341 60.576C255.421 60.576 258.517 63.12 258.517 66.6C258.517 70.392 255.637 73.392 249.829 73.392C246.493 73.392 243.973 71.88 243.973 69.456C243.973 67.512 245.749 65.736 248.293 65.736C251.581 65.736 253.405 67.944 253.477 70.584L250.669 70.944C250.621 69.216 249.709 68.016 248.293 68.016C247.405 68.016 246.805 68.568 246.805 69.192C246.805 70.08 247.789 70.68 249.253 70.68C253.309 70.68 255.373 69.144 255.373 66.576C255.373 64.392 253.213 62.928 250.405 62.928C246.709 62.928 244.333 64.896 241.765 67.8L239.581 65.544C241.285 64.2 244.189 61.752 245.581 60.576C246.925 59.472 249.445 57.456 250.621 56.4C249.397 56.448 246.085 56.568 244.789 56.664C244.141 56.712 243.397 56.76 242.845 56.856L242.749 53.736Z" fill="#B96842"/>
<path d="M224.365 53.232C224.221 53.856 224.077 54.624 223.957 55.224C223.717 56.304 223.429 57.792 223.165 59.016C222.373 62.4 220.453 69.24 217.933 73.296L214.789 72.048C217.645 68.208 219.445 61.872 220.117 58.848C220.573 56.688 220.837 54.648 220.813 52.848L224.365 53.232ZM232.645 55.632C234.109 57.72 236.125 62.184 236.869 64.464L233.821 65.88C233.197 63.216 231.493 58.992 229.765 56.856L232.645 55.632ZM214.645 58.152C215.509 58.2 216.325 58.176 217.213 58.152C219.133 58.104 223.693 57.576 225.469 57.576C228.013 57.576 229.813 58.704 229.813 62.184C229.813 65.016 229.453 68.904 228.445 70.968C227.653 72.648 226.309 73.176 224.509 73.176C223.573 73.176 222.445 73.032 221.629 72.84L221.101 69.672C222.037 69.936 223.405 70.176 224.029 70.176C224.845 70.176 225.469 69.936 225.829 69.144C226.501 67.8 226.813 64.872 226.813 62.52C226.813 60.6 225.997 60.312 224.485 60.312C223.069 60.312 218.917 60.84 217.597 61.008C216.901 61.104 215.653 61.272 214.933 61.392L214.645 58.152ZM232.213 52.32C232.813 53.184 233.653 54.72 234.109 55.608L232.189 56.424C231.685 55.44 230.941 54.024 230.293 53.088L232.213 52.32ZM235.045 51.216C235.669 52.128 236.557 53.664 236.989 54.504L235.069 55.32C234.589 54.312 233.797 52.92 233.149 52.008L235.045 51.216Z" fill="#B96842"/>
<path d="M191.437 56.28C192.469 56.4 193.765 56.448 194.629 56.448C197.605 56.448 200.845 55.944 203.173 55.2L203.245 57.984C201.181 58.56 197.725 59.184 194.653 59.16C193.693 59.16 192.685 59.136 191.653 59.088L191.437 56.28ZM200.773 52.68C200.461 53.952 199.885 56.304 199.237 58.344C198.133 61.8 195.973 66.264 193.933 69.096L191.029 67.608C193.189 64.968 195.349 60.768 196.285 58.176C196.861 56.448 197.389 54.216 197.461 52.368L200.773 52.68ZM206.413 60.168C206.341 61.176 206.365 62.184 206.389 63.24C206.437 64.656 206.653 68.232 206.653 69.576C206.653 71.808 205.453 73.56 202.021 73.56C199.045 73.56 196.693 72.216 196.693 69.576C196.693 67.248 198.661 65.424 201.997 65.424C206.197 65.424 209.509 67.536 211.501 69.336L209.917 71.928C208.189 70.32 205.453 67.848 201.829 67.848C200.437 67.848 199.525 68.448 199.525 69.288C199.525 70.176 200.293 70.8 201.613 70.8C203.245 70.8 203.773 69.888 203.773 68.544C203.773 67.104 203.509 62.688 203.389 60.168H206.413ZM210.541 61.44C209.149 60.312 206.413 58.752 204.757 58.008L206.317 55.656C208.045 56.4 210.997 58.008 212.245 58.896L210.541 61.44Z" fill="#B96842"/>
<path d="M166.741 58.848C167.629 58.704 168.829 58.392 169.717 58.128C171.541 57.552 176.437 55.848 179.965 55.848C184.285 55.848 187.717 58.344 187.717 62.784C187.717 68.208 182.533 71.688 174.085 72.12L172.669 68.928C179.173 68.784 184.285 66.912 184.285 62.712C184.285 60.456 182.725 58.752 179.845 58.752C176.293 58.752 170.629 61.128 168.109 62.232L166.741 58.848Z" fill="#B96842"/>
<path d="M162.422 58.008C161.678 58.44 160.91 58.872 160.022 59.304C158.534 60.048 155.534 61.464 153.326 62.88C151.334 64.176 149.99 65.568 149.99 67.224C149.99 68.952 151.67 69.888 155.006 69.888C157.454 69.888 160.694 69.504 162.83 69L162.806 72.456C160.742 72.792 158.222 73.056 155.102 73.056C150.302 73.056 146.678 71.712 146.678 67.584C146.678 64.536 148.91 62.4 151.766 60.528C154.046 59.016 157.07 57.528 158.534 56.688C159.446 56.16 160.118 55.752 160.742 55.248L162.422 58.008ZM150.35 52.872C151.502 56.064 153.014 58.944 154.142 60.96L151.406 62.544C150.086 60.36 148.646 57.216 147.326 54.12L150.35 52.872Z" fill="#40322D"/>
<path d="M121.406 42.3H126.338C126.014 48.348 125.546 65.916 110.822 74.952C110.066 73.836 108.662 72.504 107.186 71.496C121.658 63.468 121.154 47.016 121.406 42.3ZM126.194 43.236C126.302 46.368 127.058 64.332 141.818 71.244C140.45 72.288 139.154 73.728 138.506 74.916C122.99 67.212 122.306 47.376 122.018 43.668L126.194 43.236Z" fill="#47665E"/>
<path d="M674.632 118.072C676.792 118.072 678.52 119.8 678.52 121.936C678.52 124.096 676.792 125.824 674.632 125.824C672.496 125.824 670.744 124.096 670.744 121.936C670.744 119.8 672.496 118.072 674.632 118.072ZM674.632 124.096C675.832 124.096 676.792 123.136 676.792 121.936C676.792 120.76 675.832 119.8 674.632 119.8C673.456 119.8 672.472 120.76 672.472 121.936C672.472 123.136 673.456 124.096 674.632 124.096Z" fill="#40322D"/>
<path d="M657.664 104.752C657.472 105.64 657.16 107.056 656.488 108.784C655.984 109.96 655.288 111.328 654.616 112.288C655.264 112 656.536 111.832 657.352 111.832C659.344 111.832 660.856 113.008 660.856 115.24C660.856 116.536 660.928 119.152 660.952 120.664H658.072C658.168 119.536 658.216 117.496 658.192 116.2C658.192 114.664 657.232 114.16 656.224 114.16C654.904 114.16 653.392 114.952 652.48 115.816C651.76 116.536 651.088 117.4 650.272 118.456L647.704 116.536C650.776 113.704 652.624 111.112 653.632 108.472C654.112 107.176 654.424 105.712 654.496 104.488L657.664 104.752ZM648.616 106.984C649.84 107.152 651.616 107.248 652.84 107.248C656.008 107.248 660.352 107.08 663.832 106.456L663.808 109.24C660.424 109.72 655.6 109.936 652.672 109.936C651.688 109.936 649.936 109.888 648.616 109.768V106.984ZM667.624 113.8C666.88 114.016 665.584 114.496 664.768 114.808C663.208 115.408 661.048 116.272 658.792 117.424C656.608 118.552 655.432 119.584 655.432 120.904C655.432 122.224 656.584 122.584 658.912 122.584C660.952 122.584 663.64 122.32 665.752 121.888L665.656 124.984C664.048 125.2 661.12 125.416 658.84 125.416C655.096 125.416 652.288 124.48 652.288 121.384C652.288 118.048 655.72 116.08 658.6 114.64C660.808 113.488 662.32 112.912 663.76 112.24C664.696 111.832 665.536 111.448 666.448 110.992L667.624 113.8Z" fill="#40322D"/>
<path d="M627.784 105.76C629.44 106.888 632.56 109.384 633.976 110.848L631.528 113.344C630.28 112 627.256 109.384 625.504 108.184L627.784 105.76ZM624.76 121.744C628.528 121.216 631.624 119.992 633.952 118.624C638.056 116.176 641.176 112.528 642.712 109.288L644.56 112.648C642.76 115.912 639.568 119.224 635.704 121.552C633.256 123.016 630.16 124.336 626.8 124.912L624.76 121.744Z" fill="#40322D"/>
<path d="M599.488 114.688C603.784 113.584 607.288 112.024 609.976 110.368C612.424 108.856 615.16 106.456 616.72 104.56L619.312 107.008C617.128 109.216 614.2 111.472 611.368 113.176C608.656 114.784 604.768 116.584 600.976 117.712L599.488 114.688ZM609.472 111.928L612.88 111.112V121.936C612.88 122.992 612.928 124.48 613.096 125.08H609.28C609.376 124.504 609.472 122.992 609.472 121.936V111.928Z" fill="#40322D"/>
<path d="M593.608 105.352C594.064 106.288 594.592 107.68 594.856 108.616L593.2 109.168C592.864 108.136 592.456 106.84 591.976 105.856L593.608 105.352ZM596.08 104.584C596.536 105.52 597.088 106.936 597.376 107.848L595.744 108.376C595.384 107.32 594.928 106.048 594.448 105.088L596.08 104.584ZM591.544 113.776C591.544 119.704 590.104 123.352 584.32 125.896L581.728 123.472C586.384 121.864 588.4 119.776 588.4 113.896V107.512C588.4 106.528 588.352 105.736 588.28 105.28H591.688C591.64 105.76 591.544 106.528 591.544 107.512V113.776ZM582.856 105.496C582.808 105.928 582.712 106.696 582.712 107.656V116.248C582.712 117.304 582.784 118.288 582.832 118.744H579.472C579.52 118.288 579.592 117.328 579.592 116.248V107.656C579.592 106.96 579.544 106.216 579.448 105.496H582.856ZM574.96 109.816C575.392 109.888 576.376 110.032 577.576 110.032H593.296C594.568 110.032 595.288 109.984 595.96 109.864V113.056C595.432 112.984 594.568 112.984 593.32 112.984H577.576C576.352 112.984 575.512 113.032 574.96 113.08V109.816Z" fill="#40322D"/>
<path d="M554.488 105.904C555.256 106 556.264 106.072 557.056 106.072C558.568 106.072 563.512 106.072 564.928 106.072C565.744 106.072 566.68 106 567.496 105.904V109C566.68 108.952 565.744 108.904 564.928 108.904C563.512 108.904 558.568 108.904 557.08 108.904C556.24 108.904 555.232 108.952 554.488 109V105.904ZM551.728 112.024C552.424 112.12 553.264 112.192 554.008 112.192C555.52 112.192 568.312 112.192 569.728 112.192C570.232 112.192 571.288 112.144 571.936 112.024V115.168C571.336 115.12 570.4 115.096 569.728 115.096C568.312 115.096 555.52 115.096 554.008 115.096C553.312 115.096 552.376 115.12 551.728 115.168V112.024ZM563.992 113.704C563.992 116.848 563.44 119.248 562.432 121.264C561.592 122.92 559.744 124.792 557.608 125.872L554.776 123.832C556.48 123.16 558.184 121.792 559.144 120.376C560.344 118.576 560.656 116.296 560.656 113.728L563.992 113.704ZM568.936 104.248C569.536 105.112 570.4 106.648 570.832 107.536L568.912 108.352C568.432 107.368 567.688 105.952 567.04 105.016L568.936 104.248ZM571.768 103.168C572.392 104.056 573.28 105.592 573.712 106.432L571.816 107.248C571.312 106.24 570.544 104.848 569.872 103.936L571.768 103.168Z" fill="#40322D"/>
<path d="M531.28 105.736C531.952 105.808 532.768 105.856 533.44 105.856C534.736 105.856 539.848 105.736 541.216 105.616C542.224 105.544 542.776 105.448 543.064 105.352L544.6 107.512C544.048 107.872 543.472 108.208 542.944 108.616C541.648 109.528 539.128 111.64 537.592 112.84C538.408 112.624 539.128 112.576 539.872 112.576C543.952 112.576 547.048 115.12 547.048 118.6C547.048 122.392 544.168 125.392 538.36 125.392C535.024 125.392 532.504 123.88 532.504 121.456C532.504 119.512 534.28 117.736 536.824 117.736C540.112 117.736 541.936 119.944 542.008 122.584L539.2 122.944C539.152 121.216 538.24 120.016 536.824 120.016C535.936 120.016 535.336 120.568 535.336 121.192C535.336 122.08 536.32 122.68 537.784 122.68C541.84 122.68 543.904 121.144 543.904 118.576C543.904 116.392 541.744 114.928 538.936 114.928C535.24 114.928 532.864 116.896 530.296 119.8L528.112 117.544C529.816 116.2 532.72 113.752 534.112 112.576C535.456 111.472 537.976 109.456 539.152 108.4C537.928 108.448 534.616 108.568 533.32 108.664C532.672 108.712 531.928 108.76 531.376 108.856L531.28 105.736Z" fill="#B96842"/>
<path d="M525.4 122.752C524.272 123.784 522.832 124.552 520.864 124.552C519.064 124.552 517.864 123.256 517.864 120.928C517.864 118.312 518.728 114.808 518.728 112.6C518.728 111.424 518.128 110.848 517.096 110.848C514.864 110.848 511.288 114.376 509.368 116.824L509.344 113.128C510.808 111.592 514.816 107.992 517.984 107.992C520.576 107.992 521.752 109.528 521.752 111.544C521.752 114.016 520.96 117.544 520.96 120.04C520.96 120.664 521.296 121.096 521.896 121.096C522.784 121.096 523.912 120.472 524.992 119.392L525.4 122.752ZM508.816 111.328C507.736 111.448 505.456 111.736 503.872 111.976L503.56 108.88C504.232 108.904 504.784 108.904 505.648 108.856C507.16 108.784 510.232 108.328 511.312 107.968L512.272 109.216C511.864 109.768 511.12 110.944 510.712 111.568L509.32 116.08C508.264 117.616 506.128 120.832 504.856 122.584L502.984 119.944C504.496 118.072 507.376 114.28 508.576 112.384L508.624 111.76L508.816 111.328ZM508.528 106.696C508.528 106.024 508.552 105.304 508.408 104.56L511.912 104.656C511.504 106.576 510.712 112.864 510.712 117.16C510.712 119.104 510.712 121.144 510.856 123.376C510.88 123.808 510.976 124.696 511.024 125.224H507.736C507.784 124.672 507.808 123.832 507.808 123.448C507.832 121.12 507.856 119.512 507.928 116.512C508 114.376 508.528 107.656 508.528 106.696Z" fill="#B96842"/>
<path d="M485.992 104.68C488.272 105.4 493.504 106.336 495.616 106.552L494.896 109.504C492.448 109.168 487.12 108.064 485.248 107.584L485.992 104.68ZM486.16 109.504C485.824 110.848 485.416 113.752 485.248 115.144C487.408 113.56 489.808 112.84 492.328 112.84C496.528 112.84 498.976 115.432 498.976 118.336C498.976 122.728 495.496 126.088 485.536 125.224L484.6 122.08C491.824 123.088 495.616 121.336 495.616 118.264C495.616 116.704 494.152 115.576 492.04 115.576C489.328 115.576 486.904 116.584 485.392 118.408C484.96 118.912 484.696 119.296 484.504 119.776L481.72 119.104C482.2 116.752 482.776 112.048 482.92 109.072L486.16 109.504Z" fill="#B96842"/>
<path d="M461.488 104.56C464.176 105.064 468.784 105.568 471.256 105.712L470.872 108.544C468.352 108.328 463.888 107.8 461.008 107.344L461.488 104.56ZM472.12 112.168C471.472 112.6 470.968 113.032 470.536 113.392C469.456 114.328 467.2 116.416 466.624 117.016C466.84 117.016 467.272 117.088 467.56 117.208C468.232 117.4 468.664 117.928 469 118.84C469.216 119.464 469.48 120.376 469.672 121.024C469.912 121.768 470.44 122.128 471.376 122.128C473.2 122.128 474.856 121.96 476.08 121.72L475.864 124.864C474.88 125.032 472.408 125.2 471.16 125.2C468.904 125.2 467.656 124.696 467.08 123.16C466.816 122.44 466.552 121.312 466.36 120.712C466.096 119.848 465.592 119.536 465.088 119.536C464.608 119.536 464.104 119.92 463.528 120.52C462.688 121.36 460.888 123.328 459.232 125.416L456.4 123.448C456.832 123.064 457.408 122.56 458.056 121.936C459.304 120.688 464.2 115.816 466.384 113.512C464.704 113.56 461.848 113.8 460.48 113.92C459.64 113.992 458.896 114.112 458.392 114.208L458.128 110.896C458.68 110.944 459.544 110.968 460.408 110.968C461.56 110.944 466.984 110.704 469 110.464C469.432 110.416 470.104 110.272 470.344 110.176L472.12 112.168Z" fill="#B96842"/>
<path d="M439.48 105.256H452.08V108.016H439.48V105.256ZM437.728 112.36H453.352V115.144H437.728V112.36ZM442.36 114.04L445.504 114.856C444.52 118 443.2 121.552 442.096 123.832L439.552 123.064C440.632 120.664 441.784 116.896 442.36 114.04ZM437.536 122.416C440.944 122.224 446.248 121.816 451.12 121.408V124.096C446.512 124.576 441.568 125.032 438.04 125.32L437.536 122.416ZM447.088 118.24L449.656 117.16C451.312 119.56 453.04 122.728 453.64 124.936L450.808 126.16C450.328 124.024 448.72 120.76 447.088 118.24ZM436.096 103.672L438.784 104.536C437.152 108.616 434.512 112.912 431.776 115.624C431.536 114.952 430.768 113.368 430.288 112.672C432.568 110.512 434.8 107.104 436.096 103.672ZM433.792 110.32L436.504 107.584L436.528 107.608V126.088H433.792V110.32Z" fill="#B96842"/>
<path d="M416.728 107.224C419.68 107.632 424.48 107.512 427.048 107.2V110.296C424.12 110.584 419.752 110.584 416.752 110.296L416.728 107.224ZM418.648 117.472C418.456 118.288 418.36 118.864 418.36 119.488C418.36 120.568 419.296 121.216 421.744 121.216C423.88 121.216 425.656 121.024 427.744 120.568L427.816 123.808C426.256 124.12 424.312 124.288 421.6 124.288C417.472 124.288 415.48 122.8 415.48 120.352C415.48 119.392 415.624 118.456 415.912 117.232L418.648 117.472ZM413.032 105.616C412.864 106.12 412.552 107.344 412.456 107.776C412.12 109.36 411.28 114.16 411.28 116.56C411.28 117.04 411.304 117.64 411.376 118.12C411.736 117.304 412.12 116.488 412.48 115.672L413.968 116.848C413.272 118.864 412.48 121.456 412.24 122.728C412.168 123.088 412.096 123.616 412.096 123.856C412.12 124.12 412.12 124.528 412.144 124.864L409.384 125.032C408.904 123.4 408.448 120.472 408.448 117.208C408.448 113.584 409.168 109.552 409.432 107.68C409.528 107.032 409.648 106.12 409.672 105.352L413.032 105.616Z" fill="#40322D"/>
<path d="M390.664 104.728C390.328 105.904 389.824 108.376 389.68 109.72C390.832 107.872 392.944 105.832 395.632 105.832C398.968 105.832 401.56 109.12 401.56 114.4C401.56 121.192 397.408 124.408 391.048 125.584L389.224 122.8C394.576 121.984 398.32 120.208 398.32 114.4C398.32 110.704 397.072 108.64 395.08 108.64C392.248 108.64 389.752 112.912 389.656 116.056C389.608 116.728 389.632 117.496 389.752 118.6L386.8 118.816C386.656 117.88 386.512 116.416 386.512 114.808C386.512 112.552 386.824 109.6 387.184 107.104C387.28 106.216 387.352 105.256 387.376 104.608L390.664 104.728Z" fill="#40322D"/>
<path d="M364.576 112.984V121.816H361.84V115.648H358.768V112.984H364.576ZM364.576 120.688C365.536 122.296 367.192 122.968 369.664 123.064C372.52 123.208 378.232 123.136 381.544 122.872C381.232 123.52 380.8 124.84 380.656 125.68C377.68 125.824 372.568 125.872 369.616 125.728C366.736 125.608 364.816 124.912 363.376 123.064C362.272 124 361.144 124.936 359.776 125.944L358.456 123.088C359.584 122.44 360.928 121.576 362.08 120.688H364.576ZM359.104 105.976L361.096 104.128C362.584 105.136 364.456 106.696 365.32 107.848L363.16 109.912C362.392 108.76 360.592 107.08 359.104 105.976ZM368.824 108.28L370.648 106.744C372.784 107.488 375.808 108.784 377.44 109.72L375.472 111.424C374.008 110.512 371.032 109.144 368.824 108.28ZM366.64 109.648H378.856V111.736H369.352V122.08H366.64V109.648ZM377.512 109.648H380.248V119.584C380.248 120.76 380.056 121.36 379.264 121.744C378.52 122.152 377.464 122.152 376.024 122.152C375.928 121.456 375.616 120.52 375.304 119.896C376.072 119.92 376.912 119.92 377.152 119.92C377.44 119.92 377.512 119.824 377.512 119.56V109.648ZM366.856 104.416H378.304V106.6H366.856V104.416ZM368.152 113.032H378.448V115.024H368.152V113.032ZM368.152 116.392H378.448V118.48H368.152V116.392ZM372.112 110.632H374.68V121.984H372.112V110.632ZM377.272 104.416H377.92L378.496 104.272L380.2 105.664C378.496 107.248 376.12 108.952 373.912 110.008C373.576 109.528 372.88 108.784 372.472 108.4C374.272 107.536 376.36 106.024 377.272 104.92V104.416Z" fill="#40322D"/>
<path d="M345.352 104.848C345.184 105.52 344.968 106.6 344.848 107.128C344.512 108.76 343.912 111.688 343.264 114.136C342.4 117.496 340.792 122.392 339.472 125.248L336.136 124.12C337.552 121.696 339.376 116.68 340.288 113.32C340.888 111.064 341.44 108.424 341.608 107.008C341.728 106.12 341.752 105.136 341.68 104.56L345.352 104.848ZM339.232 108.448C342.16 108.448 345.544 107.992 348.664 107.248V110.248C345.688 110.944 341.92 111.352 339.208 111.352C338.032 111.352 337.144 111.304 336.304 111.256L336.208 108.256C337.456 108.4 338.248 108.448 339.232 108.448ZM346.768 112.12C348.112 111.976 349.84 111.88 351.4 111.88C352.768 111.88 354.208 111.952 355.6 112.096L355.552 114.976C354.328 114.832 352.864 114.664 351.424 114.664C349.768 114.664 348.28 114.736 346.768 114.928V112.12ZM348.064 118.144C347.896 118.84 347.752 119.608 347.752 120.136C347.752 121.192 348.448 121.984 351.04 121.984C352.648 121.984 354.304 121.816 356.008 121.504L355.888 124.552C354.544 124.744 352.936 124.888 351.016 124.888C346.96 124.888 344.8 123.52 344.8 121.096C344.8 119.968 345.016 118.816 345.208 117.88L348.064 118.144Z" fill="#40322D"/>
<path d="M313.408 113.848C314.128 113.728 315.232 113.44 315.952 113.2C317.608 112.72 321.664 111.328 324.568 111.328C328.384 111.328 330.928 113.584 330.928 117.232C330.928 121.552 327.088 124.528 319.48 124.984L318.208 122.032C323.68 121.888 327.736 120.424 327.736 117.16C327.736 115.384 326.392 114.112 324.28 114.112C321.496 114.112 316.72 116.104 314.656 116.968L313.408 113.848Z" fill="#40322D"/>
<path d="M292.768 118.384H295.672V122.296C295.672 123.016 295.888 123.088 297.064 123.088C297.592 123.088 299.8 123.088 300.496 123.088C301.504 123.088 301.672 122.752 301.816 120.352C302.416 120.784 303.64 121.24 304.432 121.408C304.096 124.84 303.28 125.704 300.736 125.704C300.064 125.704 297.352 125.704 296.728 125.704C293.536 125.704 292.768 124.888 292.768 122.32V118.384ZM295.144 117.64L297.04 115.864C298.744 116.704 300.856 118.048 301.888 119.128L299.824 121.096C298.888 120.04 296.848 118.576 295.144 117.64ZM303.496 118.672L306.064 117.616C307.384 119.392 308.752 121.744 309.232 123.448L306.424 124.624C306.016 123.016 304.768 120.544 303.496 118.672ZM289.384 117.76L291.976 118.696C291.424 120.76 290.584 123.184 289.432 124.792L286.864 123.352C287.968 121.912 288.88 119.728 289.384 117.76ZM291.976 111.496V113.56H303.688V111.496H291.976ZM291.976 107.128V109.168H303.688V107.128H291.976ZM289.264 104.632H306.544V116.056H289.264V104.632ZM296.488 105.736H299.296V115.024H296.488V105.736Z" fill="#40322D"/>
<path d="M262.888 116.872C263.608 116.296 264.184 115.744 264.904 115C266.032 113.848 267.856 111.376 269.368 109.648C271.048 107.728 272.584 107.56 274.336 109.264C275.992 110.848 277.888 113.32 279.304 114.88C280.84 116.56 282.904 118.696 285.184 120.736L282.688 123.616C280.984 121.984 278.944 119.68 277.408 117.88C275.92 116.128 274.12 113.824 273.016 112.552C272.152 111.64 271.696 111.76 271 112.624C270.04 113.848 268.36 116.224 267.328 117.592C266.776 118.36 266.224 119.224 265.792 119.848L262.888 116.872Z" fill="#40322D"/>
<path d="M256.768 103.576L258.856 105.952C253.912 107.224 247 107.824 241.12 108.016C241.048 107.296 240.688 106.12 240.424 105.496C246.208 105.256 252.832 104.632 256.768 103.576ZM240.64 110.392H259.624V113.152H240.64V110.392ZM238.984 115.984H261.04V118.792H238.984V115.984ZM248.536 106.96H251.536V122.728C251.536 124.432 251.104 125.2 249.952 125.632C248.8 126.088 247.048 126.16 244.6 126.136C244.408 125.32 243.856 124.024 243.424 123.28C245.2 123.352 247.216 123.328 247.768 123.328C248.32 123.328 248.536 123.16 248.536 122.68V106.96Z" fill="#40322D"/>
<path d="M226.504 110.608H235.096V113.2H226.504V110.608ZM226.528 116.272H235.12V118.888H226.528V116.272ZM226.504 121.96H235.12V124.552H226.504V121.96ZM225.136 104.92H236.464V125.824H233.56V107.632H227.896V125.968H225.136V104.92ZM215.056 108.568H224.296V111.304H215.056V108.568ZM218.536 103.624H221.296V126.16H218.536V103.624ZM218.368 110.416L220.096 111.016C219.304 114.928 217.72 119.536 215.824 122.032C215.56 121.216 214.888 120.04 214.456 119.32C216.184 117.232 217.72 113.488 218.368 110.416ZM221.08 112.528C221.776 113.2 224.128 116.104 224.656 116.752L223.024 119.08C222.328 117.664 220.624 115.048 219.76 113.848L221.08 112.528Z" fill="#40322D"/>
<path d="M196.216 106.864C196.048 107.704 195.928 109.12 195.928 109.792C195.928 111.352 195.928 113.128 196.072 114.88C196.408 118.336 197.128 120.712 198.64 120.712C199.792 120.712 200.728 117.88 201.184 115.984L203.608 118.888C202 123.088 200.512 124.528 198.592 124.528C195.928 124.528 193.648 122.176 192.976 115.744C192.736 113.536 192.712 110.704 192.712 109.24C192.712 108.592 192.688 107.56 192.52 106.816L196.216 106.864ZM208.216 107.392C210.496 110.152 212.344 116.152 212.608 119.824L209.44 121.072C209.08 117.184 207.784 111.376 205.168 108.4L208.216 107.392Z" fill="#40322D"/>
<path d="M177.352 104.848C177.184 105.52 176.968 106.6 176.848 107.128C176.512 108.76 175.912 111.688 175.264 114.136C174.4 117.496 172.792 122.392 171.472 125.248L168.136 124.12C169.552 121.696 171.376 116.68 172.288 113.32C172.888 111.064 173.44 108.424 173.608 107.008C173.728 106.12 173.752 105.136 173.68 104.56L177.352 104.848ZM171.232 108.448C174.16 108.448 177.544 107.992 180.664 107.248V110.248C177.688 110.944 173.92 111.352 171.208 111.352C170.032 111.352 169.144 111.304 168.304 111.256L168.208 108.256C169.456 108.4 170.248 108.448 171.232 108.448ZM178.768 112.12C180.112 111.976 181.84 111.88 183.4 111.88C184.768 111.88 186.208 111.952 187.6 112.096L187.552 114.976C186.328 114.832 184.864 114.664 183.424 114.664C181.768 114.664 180.28 114.736 178.768 114.928V112.12ZM180.064 118.144C179.896 118.84 179.752 119.608 179.752 120.136C179.752 121.192 180.448 121.984 183.04 121.984C184.648 121.984 186.304 121.816 188.008 121.504L187.888 124.552C186.544 124.744 184.936 124.888 183.016 124.888C178.96 124.888 176.8 123.52 176.8 121.096C176.8 119.968 177.016 118.816 177.208 117.88L180.064 118.144Z" fill="#40322D"/>
<path d="M149.488 104.56C152.176 105.064 156.784 105.568 159.256 105.712L158.872 108.544C156.352 108.328 151.888 107.8 149.008 107.344L149.488 104.56ZM160.12 112.168C159.472 112.6 158.968 113.032 158.536 113.392C157.456 114.328 155.2 116.416 154.624 117.016C154.84 117.016 155.272 117.088 155.56 117.208C156.232 117.4 156.664 117.928 157 118.84C157.216 119.464 157.48 120.376 157.672 121.024C157.912 121.768 158.44 122.128 159.376 122.128C161.2 122.128 162.856 121.96 164.08 121.72L163.864 124.864C162.88 125.032 160.408 125.2 159.16 125.2C156.904 125.2 155.656 124.696 155.08 123.16C154.816 122.44 154.552 121.312 154.36 120.712C154.096 119.848 153.592 119.536 153.088 119.536C152.608 119.536 152.104 119.92 151.528 120.52C150.688 121.36 148.888 123.328 147.232 125.416L144.4 123.448C144.832 123.064 145.408 122.56 146.056 121.936C147.304 120.688 152.2 115.816 154.384 113.512C152.704 113.56 149.848 113.8 148.48 113.92C147.64 113.992 146.896 114.112 146.392 114.208L146.128 110.896C146.68 110.944 147.544 110.968 148.408 110.968C149.56 110.944 154.984 110.704 157 110.464C157.432 110.416 158.104 110.272 158.344 110.176L160.12 112.168Z" fill="#40322D"/>
<path d="M120.22 95.884H139.12V100.024H120.22V95.884ZM117.592 106.54H141.028V110.716H117.592V106.54ZM124.54 109.06L129.256 110.284C127.78 115 125.8 120.328 124.144 123.748L120.328 122.596C121.948 118.996 123.676 113.344 124.54 109.06ZM117.304 121.624C122.416 121.336 130.372 120.724 137.68 120.112V124.144C130.768 124.864 123.352 125.548 118.06 125.98L117.304 121.624ZM131.632 115.36L135.484 113.74C137.968 117.34 140.56 122.092 141.46 125.404L137.212 127.24C136.492 124.036 134.08 119.14 131.632 115.36ZM115.144 93.508L119.176 94.804C116.728 100.924 112.768 107.368 108.664 111.436C108.304 110.428 107.152 108.052 106.432 107.008C109.852 103.768 113.2 98.656 115.144 93.508ZM111.688 103.48L115.756 99.376L115.792 99.412V127.132H111.688V103.48Z" fill="#47665E"/>
<defs>
<clipPath id="clip0_1142_351">
<rect width="95" height="95" fill="white" transform="translate(352 207)"/>
</clipPath>
<clipPath id="clip1_1142_351">
<rect width="132.572" height="91.6882" fill="white" transform="translate(165.131 209.383)"/>
</clipPath>
<clipPath id="clip2_1142_351">
<rect width="92" height="93" fill="white" transform="translate(511 208)"/>
</clipPath>
</defs>
</svg>
