<svg width="800" height="400" viewBox="0 0 800 400" fill="none" xmlns="http://www.w3.org/2000/svg">
<g clip-path="url(#clip0_405_1535)">
<rect width="800" height="400" rx="10" fill="#E2DBD3"/>
<rect x="90" y="133" width="300" height="174" rx="10" fill="#F8F6F0"/>
<path d="M437.786 134.704C438.17 135.264 438.746 136.208 439.066 136.816L438.17 137.216C437.85 136.56 437.306 135.648 436.906 135.072L437.786 134.704ZM439.85 134.304C440.234 134.848 440.826 135.792 441.162 136.416L440.266 136.8C439.914 136.144 439.402 135.216 438.97 134.672L439.85 134.304ZM439.226 137.584C439.13 137.808 439.05 138.08 438.986 138.384C438.65 140.064 437.866 142.656 436.602 144.288C435.146 146.176 433.242 147.648 430.314 148.576L429.226 147.376C432.314 146.592 434.122 145.232 435.45 143.52C436.586 142.08 437.338 139.84 437.546 138.304C436.634 138.304 430.282 138.304 429.37 138.304C428.73 138.304 428.186 138.336 427.77 138.368V136.944C428.218 136.992 428.842 137.056 429.37 137.056C430.282 137.056 436.666 137.056 437.402 137.056C437.642 137.056 437.962 137.04 438.25 136.96L439.226 137.584ZM446.108 136.096C446.524 136.144 447.02 136.176 447.532 136.176C448.396 136.176 452.892 136.176 453.836 136.176C454.332 136.176 454.892 136.144 455.276 136.096V137.424C454.908 137.392 454.348 137.376 453.804 137.376C452.908 137.376 448.412 137.376 447.532 137.376C447.052 137.376 446.54 137.392 446.108 137.424V136.096ZM456.46 140.304C456.38 140.464 456.268 140.656 456.236 140.784C455.82 142.352 455.1 144.016 453.9 145.328C452.236 147.168 450.22 148.096 448.188 148.672L447.196 147.536C449.452 147.072 451.452 146.032 452.828 144.592C453.788 143.584 454.428 142.224 454.716 141.056C453.932 141.056 447.196 141.056 446.236 141.056C445.852 141.056 445.244 141.072 444.668 141.12V139.776C445.244 139.824 445.788 139.872 446.236 139.872C447.02 139.872 453.836 139.872 454.652 139.872C455.02 139.872 455.372 139.824 455.548 139.744L456.46 140.304ZM462.75 136.288C463.87 137.04 465.934 138.704 466.814 139.584L465.822 140.608C465.006 139.776 463.022 138.048 461.822 137.264L462.75 136.288ZM461.374 147.008C464.158 146.592 466.238 145.616 467.758 144.672C470.238 143.12 472.174 140.752 473.102 138.768L473.87 140.144C472.782 142.128 470.926 144.304 468.51 145.824C466.894 146.832 464.878 147.824 462.206 148.32L461.374 147.008ZM486.32 136.496C486.72 137.072 487.408 138.144 487.776 138.912L486.864 139.328C486.464 138.48 485.952 137.6 485.424 136.88L486.32 136.496ZM488.24 135.696C488.672 136.256 489.376 137.312 489.744 138.064L488.848 138.512C488.432 137.664 487.904 136.816 487.376 136.112L488.24 135.696ZM480.704 146.8C480.704 145.92 480.704 138.848 480.704 137.504C480.704 137.04 480.656 136.336 480.576 135.84H482.144C482.096 136.32 482.032 137.024 482.032 137.504C482.032 140 482.048 146.048 482.048 146.8C482.048 147.312 482.08 148.176 482.144 148.704H480.592C480.672 148.192 480.704 147.408 480.704 146.8ZM481.744 140.032C483.872 140.64 487.088 141.872 488.864 142.752L488.304 144.096C486.48 143.12 483.488 141.984 481.744 141.44V140.032ZM499.809 137.2C501.553 137.504 504.801 137.44 506.385 137.2V138.496C504.673 138.688 501.569 138.688 499.825 138.496L499.809 137.2ZM500.433 143.728C500.289 144.304 500.209 144.752 500.209 145.184C500.209 145.92 500.721 146.64 502.913 146.64C504.337 146.64 505.585 146.512 506.865 146.208L506.897 147.552C505.905 147.76 504.561 147.888 502.897 147.888C500.225 147.888 499.025 146.992 499.025 145.488C499.025 144.96 499.105 144.384 499.281 143.616L500.433 143.728ZM496.769 135.968C496.673 136.24 496.545 136.752 496.481 137.04C496.177 138.528 495.681 141.376 495.681 143.184C495.681 143.952 495.729 144.624 495.825 145.408C496.097 144.688 496.465 143.728 496.737 143.072L497.409 143.6C497.009 144.736 496.417 146.416 496.273 147.184C496.225 147.408 496.193 147.712 496.193 147.904C496.209 148.064 496.225 148.288 496.241 148.464L495.105 148.544C494.785 147.408 494.513 145.568 494.513 143.392C494.513 141.04 495.041 138.304 495.233 136.976C495.281 136.608 495.329 136.208 495.345 135.856L496.769 135.968ZM513.299 142.272H521.139V143.168H513.299V142.272ZM513.043 144.432H521.395V145.36H513.043V144.432ZM516.531 142.704H517.635V144.288C517.635 145.696 517.171 147.424 513.603 148.544C513.443 148.304 513.123 147.936 512.899 147.744C516.195 146.832 516.531 145.312 516.531 144.272V142.704ZM517.619 144.816C518.195 146.24 519.507 147.232 521.395 147.616C521.155 147.824 520.867 148.224 520.723 148.496C518.723 147.968 517.347 146.768 516.691 145.024L517.619 144.816ZM514.307 140.96L515.251 140.656C515.635 141.152 516.003 141.824 516.131 142.272L515.139 142.608C515.011 142.128 514.675 141.456 514.307 140.96ZM518.979 140.624L520.067 140.976C519.683 141.6 519.283 142.24 518.947 142.688L518.147 142.368C518.435 141.872 518.803 141.12 518.979 140.624ZM511.267 137.408H515.763V138.224H511.267V137.408ZM518.611 137.408H523.155V138.224H518.611V137.408ZM522.707 135.248H523.891V147.856C523.891 148.512 523.747 148.864 523.315 149.072C522.915 149.264 522.227 149.28 521.203 149.28C521.171 148.976 521.011 148.448 520.851 148.128C521.555 148.16 522.227 148.16 522.435 148.144C522.627 148.144 522.707 148.064 522.707 147.84V135.248ZM511.363 135.248H516.499V140.448H511.363V139.552H515.363V136.144H511.363V135.248ZM523.283 135.248V136.144H519.059V139.568H523.283V140.464H517.907V135.248H523.283ZM510.643 135.248H511.827V149.296H510.643V135.248ZM534.389 146.864C537.093 146.464 539.525 145.216 539.509 142.464C539.509 141.232 538.533 139.6 536.405 139.6C534.357 139.6 532.517 140.736 530.965 142.352V140.928C532.885 139.12 534.917 138.448 536.597 138.448C538.821 138.448 540.789 140 540.789 142.48C540.805 145.712 538.453 147.392 534.965 148.064L534.389 146.864ZM530.773 139.152C530.261 139.216 528.517 139.44 527.333 139.616L527.189 138.288C527.541 138.304 527.845 138.304 528.245 138.272C529.093 138.224 531.077 137.984 531.829 137.744L532.293 138.288C532.021 138.704 531.589 139.392 531.317 139.84L530.837 142.032C530.101 143.168 528.613 145.328 527.605 146.72L526.805 145.632C527.797 144.384 529.957 141.44 530.581 140.384L530.645 139.568L530.773 139.152ZM530.613 136.496C530.613 136.128 530.629 135.712 530.549 135.312L532.069 135.36C531.845 136.4 531.349 140.976 531.349 143.792C531.349 145.248 531.349 146.224 531.413 147.648C531.429 147.92 531.477 148.32 531.493 148.624H530.117C530.133 148.4 530.165 147.936 530.165 147.68C530.165 146.128 530.181 145.328 530.197 143.568C530.229 142.16 530.613 137.088 530.613 136.496ZM546.455 136.224C546.807 136.256 547.255 136.272 547.575 136.272C548.423 136.272 552.215 136.16 553.063 136.08C553.543 136.032 553.767 136 553.943 135.936L554.679 136.88C554.391 137.072 554.071 137.28 553.767 137.52C552.983 138.128 550.807 140 549.559 141.024C550.295 140.784 551.063 140.704 551.783 140.704C554.439 140.704 556.343 142.288 556.343 144.448C556.343 147.024 554.215 148.704 550.823 148.704C548.647 148.704 547.319 147.76 547.319 146.416C547.319 145.328 548.311 144.336 549.783 144.336C551.911 144.336 552.983 145.84 553.095 147.456L551.943 147.648C551.847 146.288 551.063 145.312 549.783 145.312C549.047 145.312 548.487 145.76 548.487 146.32C548.487 147.104 549.367 147.568 550.631 147.568C553.351 147.568 555.063 146.448 555.063 144.448C555.063 142.864 553.559 141.696 551.463 141.696C548.807 141.696 547.367 142.816 545.351 144.88L544.423 143.952C545.751 142.864 547.815 141.136 548.727 140.352C549.623 139.616 551.639 137.936 552.439 137.216C551.591 137.264 548.391 137.392 547.559 137.44C547.191 137.472 546.839 137.488 546.487 137.536L546.455 136.224ZM566.889 135.344C566.825 135.536 566.761 135.824 566.713 136.048C566.441 137.392 566.169 139.92 566.169 142.112C566.169 144.192 566.617 146.112 567.113 147.616L565.945 147.968C565.481 146.544 565.049 144.272 565.049 142.24C565.049 140.048 565.369 137.456 565.513 136.08C565.545 135.792 565.561 135.504 565.561 135.296L566.889 135.344ZM564.313 137.312C567.129 137.312 569.913 137.088 572.121 136.592L572.137 137.776C569.833 138.176 566.681 138.416 564.297 138.416C563.609 138.416 562.361 138.352 561.705 138.32L561.673 137.12C562.233 137.216 563.625 137.312 564.313 137.312ZM570.985 139.2C570.889 139.408 570.745 139.84 570.649 140.096C569.705 143.056 568.105 145.28 566.425 146.576C565.401 147.36 564.121 147.952 562.985 147.952C561.929 147.952 561.097 147.312 561.097 145.952C561.097 143.76 563.129 141.504 565.497 140.592C566.569 140.176 567.865 139.936 568.905 139.936C571.929 139.936 573.833 141.696 573.833 143.936C573.833 146.224 572.313 148.224 568.601 148.816L567.913 147.744C570.793 147.424 572.585 145.936 572.585 143.872C572.585 142.32 571.273 140.96 568.889 140.96C567.545 140.96 566.361 141.344 565.545 141.712C563.737 142.512 562.297 144.272 562.297 145.744C562.297 146.4 562.617 146.72 563.209 146.72C564.009 146.72 565.049 146.272 566.073 145.376C567.497 144.128 568.809 142.4 569.545 139.808C569.609 139.568 569.689 139.136 569.705 138.88L570.985 139.2ZM581.403 135.456C582.779 135.904 586.187 136.56 587.611 136.704L587.307 137.92C585.771 137.712 582.315 137.008 581.083 136.688L581.403 135.456ZM581.051 138.384C580.843 139.472 580.555 141.84 580.395 142.88C581.931 141.536 583.691 140.912 585.611 140.912C588.059 140.912 589.691 142.384 589.691 144.272C589.691 147.12 587.147 149.056 581.211 148.56L580.827 147.264C585.883 147.872 588.347 146.416 588.347 144.224C588.347 142.96 587.147 142.048 585.515 142.048C583.419 142.048 581.691 142.832 580.571 144.192C580.331 144.464 580.187 144.72 580.091 144.976L578.891 144.688C579.211 143.232 579.611 139.872 579.707 138.208L581.051 138.384ZM596.669 136.624C596.605 136.848 596.525 137.12 596.461 137.376C596.253 138.416 595.933 140.848 596.029 142.096C597.085 139.344 599.725 137.504 602.509 137.504C605.501 137.504 607.261 139.376 607.261 141.76C607.261 144.368 605.645 146.4 602.349 146.4C600.509 146.4 598.813 145.376 597.933 143.584L598.701 142.688C599.437 144.256 600.589 145.184 602.365 145.184C604.589 145.184 606.045 143.904 606.045 141.792C606.045 140.048 604.909 138.576 602.477 138.576C599.117 138.576 596.941 141.344 596.397 143.632C596.333 143.92 596.269 144.272 596.285 144.624C596.317 144.96 596.413 145.712 596.509 146.128L595.389 146.304C595.101 145.28 594.861 143.664 594.861 142.144C594.861 140.352 595.197 138.144 595.277 137.248C595.309 136.976 595.325 136.72 595.309 136.528L596.669 136.624ZM602.189 135.312C602.429 136.448 602.749 138.816 602.749 141.168C602.749 144.496 602.077 147.344 599.517 149.024L598.349 148.32C600.845 146.96 601.549 144.304 601.549 141.184C601.549 139.12 601.309 137.184 601.133 136.336C601.053 136 600.957 135.584 600.861 135.36L602.189 135.312ZM613.279 136.224C613.631 136.256 614.079 136.272 614.399 136.272C615.247 136.272 619.039 136.16 619.887 136.08C620.367 136.032 620.591 136 620.767 135.936L621.503 136.88C621.215 137.072 620.895 137.28 620.591 137.52C619.807 138.128 617.631 140 616.383 141.024C617.119 140.784 617.887 140.704 618.607 140.704C621.263 140.704 623.167 142.288 623.167 144.448C623.167 147.024 621.039 148.704 617.647 148.704C615.471 148.704 614.143 147.76 614.143 146.416C614.143 145.328 615.135 144.336 616.607 144.336C618.735 144.336 619.807 145.84 619.919 147.456L618.767 147.648C618.671 146.288 617.887 145.312 616.607 145.312C615.871 145.312 615.311 145.76 615.311 146.32C615.311 147.104 616.191 147.568 617.455 147.568C620.175 147.568 621.887 146.448 621.887 144.448C621.887 142.864 620.383 141.696 618.287 141.696C615.631 141.696 614.191 142.816 612.175 144.88L611.247 143.952C612.575 142.864 614.639 141.136 615.551 140.352C616.447 139.616 618.463 137.936 619.263 137.216C618.415 137.264 615.215 137.392 614.383 137.44C614.015 137.472 613.663 137.488 613.311 137.536L613.279 136.224ZM629.424 136.32C629.872 136.368 630.352 136.4 630.864 136.4C631.792 136.4 635.52 136.4 636.416 136.4C636.864 136.4 637.44 136.368 637.904 136.32V137.648C637.424 137.616 636.864 137.584 636.416 137.584C635.52 137.584 631.792 137.584 630.896 137.584C630.352 137.584 629.84 137.616 629.424 137.648V136.32ZM627.52 140.336C627.952 140.384 628.416 140.416 628.912 140.416C629.84 140.416 638.528 140.416 639.376 140.416C639.712 140.416 640.24 140.384 640.64 140.336V141.664C640.288 141.632 639.776 141.616 639.376 141.616C638.528 141.616 629.84 141.616 628.912 141.616C628.432 141.616 627.952 141.632 627.52 141.664V140.336ZM635.056 140.976C635.056 142.992 634.8 144.656 634.096 146C633.504 147.072 632.304 148.224 630.944 148.912L629.76 148.048C630.992 147.52 632.144 146.608 632.784 145.584C633.584 144.32 633.696 142.752 633.712 140.992L635.056 140.976ZM638.736 135.008C639.136 135.584 639.712 136.56 640.032 137.2L639.168 137.584C638.864 136.944 638.32 135.984 637.888 135.376L638.736 135.008ZM640.48 134.368C640.912 134.96 641.52 135.952 641.824 136.544L640.976 136.928C640.624 136.24 640.096 135.328 639.648 134.736L640.48 134.368ZM655.618 135.808C655.922 136.384 656.338 137.376 656.562 138.016L655.762 138.288C655.538 137.616 655.17 136.656 654.85 136.048L655.618 135.808ZM657.218 135.312C657.522 135.904 657.938 136.88 658.178 137.52L657.378 137.792C657.122 137.072 656.77 136.16 656.434 135.552L657.218 135.312ZM654.098 140.944C654.098 145.2 653.186 147.392 649.538 149.024L648.45 148.016C651.362 146.896 652.818 145.52 652.818 141.04V137.152C652.818 136.528 652.77 136 652.738 135.84H654.178C654.162 136 654.098 136.528 654.098 137.152V140.944ZM648.338 135.952C648.322 136.096 648.258 136.544 648.258 137.104V142.976C648.258 143.552 648.306 144.256 648.322 144.416H646.914C646.93 144.256 646.978 143.584 646.978 142.976V137.104C646.978 136.768 646.962 136.304 646.914 135.952H648.338ZM643.65 139.056C643.794 139.072 644.578 139.152 645.266 139.152H655.858C656.562 139.152 657.106 139.104 657.33 139.072V140.432C657.154 140.4 656.562 140.384 655.858 140.384H645.266C644.562 140.384 643.842 140.416 643.65 140.432V139.056ZM660.964 142.224C663.732 141.488 666.164 140.352 667.94 139.248C669.62 138.192 671.22 136.816 672.324 135.472L673.396 136.48C672.02 137.904 670.34 139.248 668.468 140.416C666.708 141.504 664.164 142.672 661.588 143.472L660.964 142.224ZM667.684 139.904L669.06 139.488V146.8C669.06 147.392 669.092 148.192 669.172 148.496H667.588C667.636 148.192 667.684 147.392 667.684 146.8V139.904ZM679.926 136.288C681.046 137.04 683.11 138.704 683.99 139.584L682.998 140.608C682.182 139.776 680.198 138.048 678.998 137.264L679.926 136.288ZM678.55 147.008C681.334 146.592 683.414 145.616 684.934 144.672C687.414 143.12 689.35 140.752 690.278 138.768L691.046 140.144C689.958 142.128 688.102 144.304 685.686 145.824C684.07 146.832 682.054 147.824 679.382 148.32L678.55 147.008ZM699.368 138.544C700.28 138.64 701.144 138.688 702.088 138.688C704.008 138.688 705.976 138.544 707.592 138.208V139.44C705.896 139.728 703.944 139.856 702.072 139.856C701.144 139.856 700.312 139.824 699.384 139.76L699.368 138.544ZM704.968 135.68C704.92 136 704.888 136.336 704.872 136.64C704.84 137.232 704.824 138.368 704.824 139.312C704.824 141.776 705.064 144.272 705.064 145.92C705.064 147.232 704.456 148.512 702.296 148.512C700.152 148.512 698.984 147.648 698.984 146.208C698.984 144.864 700.168 143.808 702.28 143.808C704.968 143.808 706.84 145.168 708.184 146.384L707.496 147.44C705.816 145.872 704.2 144.784 702.168 144.784C700.968 144.784 700.136 145.312 700.136 146.08C700.136 146.912 700.92 147.344 702.088 147.344C703.432 147.344 703.816 146.672 703.816 145.6C703.816 144.448 703.608 141.456 703.608 139.344C703.608 138.24 703.592 137.232 703.592 136.672C703.592 136.384 703.576 135.968 703.528 135.68H704.968ZM697.08 135.792C696.984 136.048 696.856 136.576 696.792 136.864C696.472 138.352 695.992 141.52 695.992 143.312C695.992 144.096 696.04 144.768 696.152 145.552C696.408 144.816 696.808 143.84 697.08 143.184L697.736 143.696C697.336 144.816 696.744 146.448 696.584 147.232C696.536 147.456 696.504 147.776 696.52 147.952C696.536 148.112 696.552 148.352 696.568 148.512L695.432 148.608C695.128 147.456 694.824 145.696 694.824 143.536C694.824 141.184 695.368 138.128 695.56 136.816C695.624 136.432 695.656 136.016 695.672 135.664L697.08 135.792ZM416.328 163.56H417.544V176.936C417.544 177.688 417.336 177.976 416.84 178.152C416.328 178.312 415.496 178.328 414.152 178.328C414.088 178.04 413.896 177.592 413.736 177.32C414.696 177.352 415.656 177.336 415.944 177.336C416.232 177.32 416.328 177.224 416.328 176.936V163.56ZM410.072 164.84H423.96V165.832H410.072V164.84ZM412.888 167.624V168.776H421.144V167.624H412.888ZM411.752 166.792H422.36V169.624H411.752V166.792ZM411.288 170.744H422.6V176.568H421.4V171.64H411.288V170.744ZM409.768 172.744H424.264V173.704H409.768V172.744ZM411.128 174.92H422.024V175.848H411.128V174.92ZM426.901 173.448H440.917V174.456H426.901V173.448ZM426.965 166.424H440.853V167.448H426.965V166.424ZM427.605 169.16H440.277V170.152H427.605V169.16ZM428.421 171.32H439.493V172.248H428.421V171.32ZM433.269 169.624H434.453V178.296H433.269V169.624ZM431.797 163.56H432.933V166.904H431.797V163.56ZM434.821 163.56H435.973V166.856H434.821V163.56ZM432.885 173.848L433.845 174.296C432.357 175.96 429.653 177.352 427.269 178.024C427.093 177.72 426.741 177.256 426.485 177C428.853 176.472 431.525 175.24 432.885 173.848ZM434.837 173.816C436.197 175.256 438.885 176.488 441.317 177C441.045 177.256 440.677 177.736 440.501 178.072C438.069 177.4 435.397 175.944 433.893 174.216L434.837 173.816ZM438.533 163.752L439.765 164.088C439.301 164.968 438.725 165.912 438.277 166.536L437.301 166.216C437.733 165.544 438.261 164.488 438.533 163.752ZM436.389 167.144L437.637 167.448C437.237 168.168 436.821 168.904 436.469 169.416L435.461 169.112C435.781 168.552 436.197 167.72 436.389 167.144ZM428.261 164.088L429.285 163.72C429.829 164.44 430.421 165.448 430.645 166.104L429.573 166.504C429.349 165.864 428.773 164.84 428.261 164.088ZM430.341 167.56L431.477 167.336C431.845 167.864 432.213 168.584 432.357 169.064L431.173 169.32C431.045 168.84 430.693 168.088 430.341 167.56ZM451.795 166.088C451.587 167.752 451.267 169.624 450.771 171.336C449.795 174.616 448.515 176.312 447.043 176.312C445.603 176.312 444.179 174.68 444.179 172.024C444.179 168.552 447.267 165.528 451.187 165.528C454.931 165.528 457.315 168.168 457.315 171.416C457.315 174.76 455.107 177 451.299 177.496L450.563 176.312C451.075 176.264 451.555 176.2 451.939 176.12C453.987 175.656 456.003 174.12 456.003 171.352C456.003 168.792 454.227 166.68 451.155 166.68C447.635 166.68 445.443 169.576 445.443 171.928C445.443 173.944 446.355 174.84 447.075 174.84C447.827 174.84 448.691 173.752 449.507 171.048C449.971 169.528 450.307 167.72 450.467 166.056L451.795 166.088ZM466.848 164.056H468.176C468.048 166.568 467.808 174.552 461.184 178.152C460.976 177.848 460.576 177.48 460.208 177.208C466.736 173.88 466.736 166.184 466.848 164.056ZM468.128 164.376C468.176 165.624 468.64 174.12 475.232 177.144C474.88 177.416 474.512 177.816 474.32 178.152C467.536 174.904 467.088 165.96 466.976 164.488L468.128 164.376ZM482.126 173.368H486.974V174.296H482.126V173.368ZM482.078 170.952H487.534V176.792H482.078V175.864H486.398V171.896H482.078V170.952ZM481.55 170.952H482.654V177.608H481.55V170.952ZM478.606 166.52H483.054V167.4H478.606V166.52ZM485.982 166.52H490.51V167.4H485.982V166.52ZM490.014 164.248H491.214V176.696C491.214 177.464 491.038 177.864 490.526 178.072C490.014 178.264 489.15 178.28 487.806 178.28C487.758 177.944 487.566 177.384 487.39 177.048C488.366 177.096 489.342 177.08 489.63 177.064C489.918 177.064 490.014 176.968 490.014 176.696V164.248ZM478.702 164.248H483.822V169.752H478.702V168.824H482.686V165.176H478.702V164.248ZM490.606 164.248V165.176H486.414V168.856H490.606V169.768H485.262V164.248H490.606ZM478.014 164.248H479.198V178.296H478.014V164.248ZM496.203 163.56H497.419V178.264H496.203V163.56ZM494.731 166.6L495.643 166.744C495.563 168.04 495.275 169.896 494.843 171.048L493.899 170.728C494.331 169.656 494.619 167.896 494.731 166.6ZM497.531 166.504L498.363 166.136C498.859 167 499.355 168.136 499.531 168.824L498.635 169.272C498.459 168.568 497.979 167.4 497.531 166.504ZM500.795 164.312L501.963 164.504C501.547 166.84 500.843 169.112 499.947 170.616C499.707 170.44 499.163 170.184 498.859 170.056C499.803 168.648 500.443 166.472 500.795 164.312ZM500.811 166.952H508.251V168.104H500.443L500.811 166.952ZM503.403 163.624H504.603V177.224H503.403V163.624ZM499.995 171.432H507.899V172.568H499.995V171.432ZM498.795 176.568H508.635V177.72H498.795V176.568ZM517.72 164.36C517.576 164.984 517.4 165.864 516.984 166.936C516.584 167.912 515.992 168.984 515.352 169.816C515.976 169.448 516.888 169.224 517.592 169.224C518.824 169.224 519.784 169.96 519.784 171.256C519.784 172.088 519.816 173.928 519.832 174.92H518.6C518.664 174.072 518.68 172.424 518.664 171.592C518.648 170.664 518.008 170.232 517.176 170.232C516.152 170.232 515.144 170.744 514.408 171.4C513.944 171.848 513.496 172.424 512.968 173.08L511.864 172.264C514.168 170.056 515.24 168.2 515.784 166.84C516.136 165.96 516.36 165 516.408 164.248L517.72 164.36ZM512.232 166.088C513.096 166.2 514.2 166.248 514.936 166.248C517.096 166.248 519.864 166.12 522.12 165.72V166.904C519.88 167.24 516.904 167.384 514.872 167.384C514.184 167.384 513.128 167.352 512.232 167.288V166.088ZM524.456 169.944C524.056 170.072 523.48 170.296 523.048 170.456C521.912 170.904 520.392 171.512 518.84 172.312C517.256 173.144 516.136 174.008 516.136 175.112C516.136 176.36 517.368 176.552 519.016 176.552C520.264 176.552 521.992 176.408 523.4 176.152L523.352 177.448C522.136 177.592 520.36 177.72 518.968 177.72C516.696 177.72 514.856 177.224 514.856 175.288C514.856 173.336 516.84 172.136 518.744 171.16C520.264 170.376 521.56 169.88 522.616 169.384C523.096 169.16 523.496 168.984 523.944 168.76L524.456 169.944ZM528.838 164.904H541.686V165.944H528.838V164.904ZM529.574 167.256H541.062V168.264H529.574V167.256ZM528.246 169.704H542.23V170.76H528.246V169.704ZM534.598 163.56H535.814V170.52H534.598V163.56ZM534.55 170.056L535.59 170.552C533.926 172.376 530.966 174.056 528.486 174.872C528.294 174.568 527.958 174.12 527.702 173.88C530.166 173.176 533.062 171.64 534.55 170.056ZM536.294 170.216C537.254 173.64 539.334 176.168 542.726 177.176C542.454 177.416 542.118 177.912 541.942 178.232C538.406 177.016 536.31 174.312 535.206 170.44L536.294 170.216ZM540.854 171.288L541.814 172.04C540.678 172.952 539.158 173.928 538.006 174.568L537.27 173.912C538.39 173.24 539.942 172.136 540.854 171.288ZM529.478 177.176C531.318 176.776 534.198 176.056 536.934 175.384L537.046 176.456C534.518 177.112 531.782 177.8 529.862 178.28L529.478 177.176ZM531.734 173.032L532.598 172.168L532.934 172.264V177.096H531.734V173.032ZM554.179 164.328C554.147 164.52 554.099 165.144 554.099 165.336C554.051 166.376 554.083 169.464 554.099 170.744L552.883 170.12C552.883 169.416 552.867 166.232 552.819 165.352C552.787 164.92 552.739 164.472 552.707 164.328H554.179ZM545.667 166.568C547.843 166.536 551.843 166.392 554.307 166.392C556.259 166.392 558.243 166.392 558.995 166.408L558.979 167.592C558.083 167.544 556.643 167.512 554.291 167.512C551.539 167.512 548.115 167.624 545.699 167.8L545.667 166.568ZM554.067 171.208C554.067 173.352 553.075 174.424 551.619 174.424C550.275 174.424 548.979 173.48 548.979 171.736C548.979 170.152 550.291 168.968 551.811 168.968C553.667 168.968 554.611 170.344 554.611 172.184C554.611 174.36 553.555 176.76 549.843 177.864L548.771 176.824C551.683 176.136 553.379 174.712 553.379 172.072C553.379 170.632 552.675 170.024 551.811 170.024C550.963 170.024 550.179 170.68 550.179 171.72C550.179 172.728 550.931 173.304 551.811 173.304C552.803 173.304 553.443 172.472 553.187 170.76L554.067 171.208ZM574.048 167.464C573.696 167.672 573.296 167.896 572.816 168.136C571.744 168.696 569.52 169.752 567.952 170.776C566.464 171.752 565.568 172.808 565.568 174.008C565.568 175.336 566.848 176.168 569.376 176.168C571.104 176.168 573.248 175.944 574.496 175.624L574.48 177.064C573.28 177.272 571.424 177.448 569.424 177.448C566.416 177.448 564.24 176.552 564.24 174.152C564.24 172.424 565.408 171.064 567.296 169.816C568.928 168.728 571.168 167.656 572.208 167.064C572.672 166.792 573.024 166.584 573.36 166.312L574.048 167.464ZM565.952 164.552C566.688 166.6 567.68 168.6 568.416 169.896L567.328 170.552C566.512 169.24 565.552 167.08 564.688 165.096L565.952 164.552ZM578.958 168.312H592.734V169.352H578.958V168.312ZM580.19 165.464H589.278V166.472H580.19V165.464ZM584.27 163.56H585.454V168.824H584.27V163.56ZM590.27 170.376L591.054 171.192C589.038 171.736 585.918 172.104 583.31 172.296C583.278 172.056 583.134 171.672 583.022 171.464C585.55 171.24 588.59 170.84 590.27 170.376ZM591.118 164.312L592.094 164.856C588.862 168.776 583.998 171.752 579.07 173.64C578.91 173.4 578.542 172.92 578.302 172.696C583.294 170.968 588.11 167.992 591.118 164.312ZM582.846 170.408L584.03 170.552C583.694 172.104 583.214 174.072 582.846 175.272L581.646 175.112C582.046 173.896 582.542 171.896 582.846 170.408ZM589.822 173.48H591.038C591.038 173.48 591.006 173.832 590.974 174.024C590.59 176.392 590.238 177.448 589.71 177.912C589.374 178.216 589.038 178.296 588.478 178.312C587.982 178.344 587.038 178.328 586.046 178.264C586.014 177.944 585.87 177.48 585.662 177.16C586.67 177.256 587.71 177.272 588.094 177.272C588.43 177.272 588.622 177.256 588.782 177.128C589.182 176.808 589.518 175.832 589.806 173.64L589.822 173.48ZM582.67 173.48H590.142V174.488H582.414L582.67 173.48ZM599.819 164.392C601.547 164.776 604.603 165.144 606.139 165.224L605.963 166.408C604.363 166.264 601.563 165.912 599.611 165.56L599.819 164.392ZM606.459 168.968C606.155 169.176 605.755 169.512 605.563 169.672C604.955 170.232 603.163 171.912 602.555 172.536C602.731 172.52 603.019 172.52 603.195 172.568C603.803 172.632 604.171 173.048 604.395 173.704C604.555 174.168 604.779 174.984 604.939 175.496C605.131 176.104 605.499 176.376 606.331 176.376C607.371 176.376 608.587 176.232 609.355 176.04L609.259 177.384C608.587 177.512 607.115 177.624 606.267 177.624C604.971 177.624 604.187 177.32 603.835 176.264C603.675 175.784 603.451 174.84 603.291 174.392C603.115 173.832 602.763 173.528 602.315 173.528C601.883 173.528 601.499 173.752 601.131 174.12C600.539 174.68 598.795 176.52 597.883 177.672L596.667 176.824C596.875 176.664 597.163 176.408 597.467 176.104C598.123 175.464 602.475 171.096 604.043 169.528C602.779 169.592 600.091 169.832 599.115 169.912C598.587 169.944 598.171 170.008 597.835 170.056L597.723 168.664C598.091 168.696 598.555 168.696 599.067 168.696C599.995 168.664 603.707 168.424 604.923 168.264C605.195 168.232 605.531 168.152 605.691 168.088L606.459 168.968ZM612.268 166.376C612.876 166.36 613.388 166.328 613.708 166.296C614.748 166.184 617.756 165.896 620.716 165.64C622.46 165.496 623.948 165.4 625.02 165.368L625.036 166.648C624.108 166.632 622.716 166.664 621.9 166.888C619.612 167.624 618.22 170.072 618.22 171.96C618.22 175.08 621.148 176.072 623.74 176.184L623.292 177.496C620.316 177.384 616.956 175.816 616.956 172.232C616.956 169.736 618.476 167.704 619.948 166.84C618.22 167.016 614.156 167.416 612.412 167.784L612.268 166.376ZM636.172 164.312C636.14 164.584 636.108 164.904 636.092 165.384C636.06 166.024 636.06 168.168 636.06 169.512C636.06 171.624 636.3 174.424 636.3 175.496C636.3 176.616 635.564 177.752 633.484 177.752C631.18 177.752 629.916 176.936 629.916 175.384C629.916 173.928 631.308 172.952 633.612 172.952C636.988 172.952 639.628 174.776 640.86 175.784L640.124 176.92C638.684 175.592 636.316 173.992 633.468 173.992C631.932 173.992 631.116 174.584 631.116 175.32C631.116 176.072 631.74 176.616 633.324 176.616C634.252 176.616 635.036 176.344 635.036 175.224C635.036 173.992 634.876 170.92 634.876 169.512C634.876 168.072 634.876 166.392 634.876 165.272C634.876 165 634.86 164.52 634.812 164.312H636.172ZM630.06 166.04C631.084 166.232 633.084 166.392 634.14 166.392C636.172 166.392 638.316 166.248 640.396 165.912V167.08C638.588 167.288 636.3 167.496 634.156 167.496C633.052 167.496 631.084 167.352 630.076 167.224L630.06 166.04ZM629.98 169.448C631.116 169.624 632.94 169.736 633.996 169.736C636.316 169.736 638.444 169.576 640.524 169.272V170.472C638.348 170.744 636.396 170.856 633.996 170.856C632.892 170.856 631.132 170.776 629.996 170.648L629.98 169.448ZM653.946 164.328C653.914 164.52 653.866 165.144 653.866 165.336C653.818 166.376 653.85 169.464 653.866 170.744L652.65 170.12C652.65 169.416 652.634 166.232 652.586 165.352C652.554 164.92 652.506 164.472 652.474 164.328H653.946ZM645.434 166.568C647.61 166.536 651.61 166.392 654.074 166.392C656.026 166.392 658.01 166.392 658.762 166.408L658.746 167.592C657.85 167.544 656.41 167.512 654.058 167.512C651.306 167.512 647.882 167.624 645.466 167.8L645.434 166.568ZM653.834 171.208C653.834 173.352 652.842 174.424 651.386 174.424C650.042 174.424 648.746 173.48 648.746 171.736C648.746 170.152 650.058 168.968 651.578 168.968C653.434 168.968 654.378 170.344 654.378 172.184C654.378 174.36 653.322 176.76 649.61 177.864L648.538 176.824C651.45 176.136 653.146 174.712 653.146 172.072C653.146 170.632 652.442 170.024 651.578 170.024C650.73 170.024 649.946 170.68 649.946 171.72C649.946 172.728 650.698 173.304 651.578 173.304C652.57 173.304 653.21 172.472 652.954 170.76L653.834 171.208ZM662.317 173.112C663.661 173.112 664.749 174.2 664.749 175.544C664.749 176.888 663.661 177.976 662.317 177.976C660.973 177.976 659.869 176.888 659.869 175.544C659.869 174.2 660.973 173.112 662.317 173.112ZM662.317 177.16C663.213 177.16 663.933 176.44 663.933 175.544C663.933 174.648 663.213 173.928 662.317 173.928C661.421 173.928 660.685 174.648 660.685 175.544C660.685 176.44 661.421 177.16 662.317 177.16ZM683.435 163.56H684.651V176.936C684.651 177.688 684.443 177.976 683.947 178.152C683.435 178.312 682.603 178.328 681.259 178.328C681.195 178.04 681.003 177.592 680.843 177.32C681.803 177.352 682.763 177.336 683.051 177.336C683.339 177.32 683.435 177.224 683.435 176.936V163.56ZM677.179 164.84H691.067V165.832H677.179V164.84ZM679.995 167.624V168.776H688.251V167.624H679.995ZM678.859 166.792H689.467V169.624H678.859V166.792ZM678.395 170.744H689.707V176.568H688.507V171.64H678.395V170.744ZM676.875 172.744H691.371V173.704H676.875V172.744ZM678.235 174.92H689.131V175.848H678.235V174.92ZM694.008 173.448H708.024V174.456H694.008V173.448ZM694.072 166.424H707.96V167.448H694.072V166.424ZM694.712 169.16H707.384V170.152H694.712V169.16ZM695.528 171.32H706.6V172.248H695.528V171.32ZM700.376 169.624H701.56V178.296H700.376V169.624ZM698.904 163.56H700.04V166.904H698.904V163.56ZM701.928 163.56H703.08V166.856H701.928V163.56ZM699.992 173.848L700.952 174.296C699.464 175.96 696.76 177.352 694.376 178.024C694.2 177.72 693.848 177.256 693.592 177C695.96 176.472 698.632 175.24 699.992 173.848ZM701.944 173.816C703.304 175.256 705.992 176.488 708.424 177C708.152 177.256 707.784 177.736 707.608 178.072C705.176 177.4 702.504 175.944 701 174.216L701.944 173.816ZM705.64 163.752L706.872 164.088C706.408 164.968 705.832 165.912 705.384 166.536L704.408 166.216C704.84 165.544 705.368 164.488 705.64 163.752ZM703.496 167.144L704.744 167.448C704.344 168.168 703.928 168.904 703.576 169.416L702.568 169.112C702.888 168.552 703.304 167.72 703.496 167.144ZM695.368 164.088L696.392 163.72C696.936 164.44 697.528 165.448 697.752 166.104L696.68 166.504C696.456 165.864 695.88 164.84 695.368 164.088ZM697.448 167.56L698.584 167.336C698.952 167.864 699.32 168.584 699.464 169.064L698.28 169.32C698.152 168.84 697.8 168.088 697.448 167.56ZM418.008 195.088C417.8 196.752 417.48 198.624 416.984 200.336C416.008 203.616 414.728 205.312 413.256 205.312C411.816 205.312 410.392 203.68 410.392 201.024C410.392 197.552 413.48 194.528 417.4 194.528C421.144 194.528 423.528 197.168 423.528 200.416C423.528 203.76 421.32 206 417.512 206.496L416.776 205.312C417.288 205.264 417.768 205.2 418.152 205.12C420.2 204.656 422.216 203.12 422.216 200.352C422.216 197.792 420.44 195.68 417.368 195.68C413.848 195.68 411.656 198.576 411.656 200.928C411.656 202.944 412.568 203.84 413.288 203.84C414.04 203.84 414.904 202.752 415.72 200.048C416.184 198.528 416.52 196.72 416.68 195.056L418.008 195.088ZM428.426 198.56H432.41V199.68H428.426V198.56ZM431.93 198.56H433.098C433.098 198.56 433.098 198.912 433.098 199.072C433.018 202.688 432.922 204.032 432.586 204.48C432.33 204.768 432.074 204.88 431.626 204.928C431.21 204.976 430.49 204.96 429.706 204.928C429.674 204.576 429.546 204.112 429.37 203.808C430.09 203.872 430.794 203.872 431.066 203.872C431.29 203.872 431.45 203.856 431.562 203.712C431.802 203.424 431.882 202.224 431.93 198.768V198.56ZM436.442 193.376L437.162 192.624C438.154 193.136 439.418 193.904 440.042 194.464L439.29 195.28C438.682 194.72 437.45 193.904 436.442 193.376ZM438.73 197.712L439.93 198C438.57 202.176 436.186 205.264 432.906 207.2C432.73 206.96 432.282 206.464 432.026 206.224C435.274 204.496 437.53 201.568 438.73 197.712ZM428.522 195.28H440.906V196.464H428.522V195.28ZM427.754 195.28H429.002V199.792C429.002 202.064 428.746 205.296 427.29 207.392C427.082 207.152 426.57 206.736 426.282 206.592C427.61 204.624 427.754 201.872 427.754 199.776V195.28ZM434.394 192.592H435.642C435.61 199.952 437.178 205.952 439.258 205.952C439.706 205.952 439.914 205.12 440.01 202.992C440.282 203.264 440.73 203.536 441.05 203.648C440.826 206.384 440.378 207.168 439.162 207.168C435.898 207.168 434.458 200.256 434.394 192.592ZM443.244 200.24H457.564V201.312H443.244V200.24ZM446.732 195.568H455.5V196.544H446.732V195.568ZM446.732 197.888H455.5V198.864H446.732V197.888ZM444.012 206.064C445.852 205.808 448.764 205.312 451.5 204.864L451.548 205.92C448.988 206.384 446.236 206.848 444.316 207.184L444.012 206.064ZM450.476 200.528C451.596 203.536 454.124 205.552 457.82 206.272C457.564 206.512 457.228 206.992 457.068 207.328C453.196 206.432 450.684 204.24 449.388 200.816L450.476 200.528ZM455.884 201.456L456.844 202.112C455.644 203.008 454.044 203.936 452.796 204.528L451.98 203.888C453.196 203.28 454.892 202.24 455.884 201.456ZM446.076 193.2H456.012V194.224H447.292V200.688H446.076V193.2ZM446.06 200.576H447.292V206.08L446.06 206.224V200.576ZM466.398 195.2C468.142 195.504 471.39 195.44 472.974 195.2V196.496C471.262 196.688 468.158 196.688 466.414 196.496L466.398 195.2ZM467.022 201.728C466.878 202.304 466.798 202.752 466.798 203.184C466.798 203.92 467.31 204.64 469.502 204.64C470.926 204.64 472.174 204.512 473.454 204.208L473.486 205.552C472.494 205.76 471.15 205.888 469.486 205.888C466.814 205.888 465.614 204.992 465.614 203.488C465.614 202.96 465.694 202.384 465.87 201.616L467.022 201.728ZM463.358 193.968C463.262 194.24 463.134 194.752 463.07 195.04C462.766 196.528 462.27 199.376 462.27 201.184C462.27 201.952 462.318 202.624 462.414 203.408C462.686 202.688 463.054 201.728 463.326 201.072L463.998 201.6C463.598 202.736 463.006 204.416 462.862 205.184C462.814 205.408 462.782 205.712 462.782 205.904C462.798 206.064 462.814 206.288 462.83 206.464L461.694 206.544C461.374 205.408 461.102 203.568 461.102 201.392C461.102 199.04 461.63 196.304 461.822 194.976C461.87 194.608 461.918 194.208 461.934 193.856L463.358 193.968ZM480.176 192.416L481.504 192.704C480.64 195.776 479.264 198.624 477.616 200.464C477.376 200.256 476.784 199.856 476.448 199.68C478.144 198 479.424 195.28 480.176 192.416ZM489.456 195.328H489.68L489.92 195.264L490.864 195.6C490.288 197.392 489.488 199.376 488.672 200.656L487.584 200.176C488.288 199.04 489.04 197.136 489.456 195.6V195.328ZM480.048 195.328H489.904V196.496H479.44L480.048 195.328ZM483.808 196.368H484.48V198.56C484.48 200.16 485.488 204.384 491.072 206.128C490.816 206.416 490.416 206.96 490.224 207.264C485.728 205.696 484.128 202.24 483.808 200.704C483.472 202.224 481.888 205.584 477.36 207.28C477.216 207.008 476.784 206.48 476.528 206.224C482.064 204.416 483.104 200.24 483.104 198.576V196.368H483.808ZM499.521 193.52C499.457 193.824 499.393 194.16 499.329 194.48C499.233 195.056 499.009 196.368 498.801 197.36C498.257 199.6 497.105 203.584 495.297 206.512L494.001 205.984C495.825 203.552 497.105 199.28 497.537 197.312C497.825 196.048 498.049 194.608 498.049 193.376L499.521 193.52ZM505.041 195.232C506.033 196.528 507.425 199.472 507.953 200.96L506.721 201.552C506.241 199.904 504.993 197.072 503.873 195.76L505.041 195.232ZM493.761 197.04C494.273 197.056 494.689 197.056 495.201 197.04C496.385 197.008 499.633 196.64 500.721 196.64C502.145 196.64 503.313 197.184 503.313 199.36C503.313 201.264 503.057 203.808 502.401 205.136C501.889 206.208 501.089 206.464 500.065 206.464C499.441 206.464 498.689 206.352 498.177 206.24L497.969 204.896C498.641 205.104 499.473 205.232 499.921 205.232C500.513 205.232 500.993 205.104 501.329 204.4C501.841 203.328 502.081 201.232 502.081 199.504C502.081 198.048 501.409 197.776 500.385 197.776C499.313 197.776 496.321 198.128 495.345 198.224C494.977 198.272 494.305 198.352 493.905 198.416L493.761 197.04ZM521.059 193.664C521.027 193.936 520.995 194.48 520.995 194.832C520.979 195.824 520.979 196.944 520.947 197.76C520.915 198.992 520.867 200.72 520.707 201.552C520.563 202.272 520.195 202.48 519.475 202.48C518.883 202.48 517.779 202.336 517.363 202.256L517.379 201.136C517.939 201.264 518.611 201.344 518.979 201.344C519.379 201.344 519.539 201.28 519.603 200.912C519.699 200.304 519.763 198.912 519.779 197.776C519.795 196.88 519.795 195.76 519.795 194.88C519.795 194.512 519.747 193.952 519.699 193.664H521.059ZM514.739 194.176C514.691 194.544 514.675 194.976 514.675 195.472C514.659 197.2 514.611 201.6 514.643 202.704C514.707 204.432 514.723 205.04 517.491 205.04C519.235 205.04 521.219 204.864 522.259 204.672L522.211 206.016C521.139 206.128 519.187 206.288 517.555 206.288C513.859 206.288 513.507 205.424 513.443 202.88C513.411 201.536 513.427 196.256 513.427 195.52C513.427 195.04 513.411 194.656 513.331 194.176H514.739ZM509.955 198C510.451 198 511.043 197.968 511.619 197.904C513.347 197.76 519.443 197.12 522.723 196.944C523.139 196.928 523.603 196.896 523.971 196.864V198.128C523.731 198.112 523.123 198.128 522.723 198.128C520.163 198.176 513.731 198.848 511.699 199.088C511.219 199.152 510.531 199.248 510.083 199.312L509.955 198ZM527.477 195.92C528.069 195.984 528.757 196.016 529.445 196.016C531.173 196.016 533.189 195.808 535.029 195.2L535.061 196.384C533.493 196.816 531.397 197.168 529.445 197.152C528.853 197.152 528.165 197.136 527.573 197.12L527.477 195.92ZM533.157 193.312C532.949 194.096 532.613 195.6 532.229 196.736C531.461 199.04 529.989 201.952 528.661 203.744L527.429 203.104C528.853 201.44 530.341 198.592 530.997 196.704C531.349 195.696 531.701 194.288 531.749 193.168L533.157 193.312ZM536.933 198.256C536.885 198.912 536.885 199.392 536.901 199.968C536.933 201.008 537.077 203.44 537.077 204.496C537.077 205.776 536.261 206.816 534.277 206.816C532.517 206.816 531.093 206.112 531.093 204.512C531.093 203.04 532.485 202.112 534.277 202.112C536.965 202.112 539.029 203.456 540.341 204.592L539.669 205.68C538.437 204.56 536.597 203.136 534.245 203.136C533.061 203.136 532.261 203.68 532.261 204.416C532.261 205.152 532.885 205.664 534.133 205.664C535.461 205.664 535.909 204.96 535.909 204.096C535.909 202.88 535.733 200.016 535.669 198.256H536.933ZM540.133 198.672C539.269 197.936 537.525 196.96 536.469 196.464L537.109 195.504C538.277 196 540.085 197.04 540.853 197.616L540.133 198.672ZM546.215 194.848C546.135 195.216 546.087 195.984 546.071 196.4C546.055 197.392 546.071 198.864 546.183 200.176C546.455 202.848 547.223 204.624 548.375 204.624C549.191 204.624 549.943 202.976 550.359 201.376L551.367 202.512C550.391 205.216 549.431 206.144 548.343 206.144C546.823 206.144 545.383 204.64 544.935 200.496C544.791 199.12 544.759 197.168 544.759 196.24C544.759 195.872 544.759 195.184 544.663 194.816L546.215 194.848ZM554.535 195.28C555.975 197.136 557.127 200.544 557.367 203.248L556.071 203.76C555.799 200.88 554.823 197.584 553.303 195.712L554.535 195.28ZM566.521 193.056H567.849C567.721 195.568 567.481 203.552 560.857 207.152C560.649 206.848 560.249 206.48 559.881 206.208C566.409 202.88 566.409 195.184 566.521 193.056ZM567.801 193.376C567.849 194.624 568.313 203.12 574.905 206.144C574.553 206.416 574.185 206.816 573.993 207.152C567.209 203.904 566.761 194.96 566.649 193.488L567.801 193.376ZM589.067 196.464C588.715 196.672 588.315 196.896 587.835 197.136C586.763 197.696 584.539 198.752 582.971 199.776C581.483 200.752 580.587 201.808 580.587 203.008C580.587 204.336 581.867 205.168 584.395 205.168C586.123 205.168 588.267 204.944 589.515 204.624L589.499 206.064C588.299 206.272 586.443 206.448 584.443 206.448C581.435 206.448 579.259 205.552 579.259 203.152C579.259 201.424 580.427 200.064 582.315 198.816C583.947 197.728 586.187 196.656 587.227 196.064C587.691 195.792 588.043 195.584 588.379 195.312L589.067 196.464ZM580.971 193.552C581.707 195.6 582.699 197.6 583.435 198.896L582.347 199.552C581.531 198.24 580.571 196.08 579.707 194.096L580.971 193.552ZM599.933 193.056H601.261C601.133 195.568 600.893 203.552 594.269 207.152C594.061 206.848 593.661 206.48 593.293 206.208C599.821 202.88 599.821 195.184 599.933 193.056ZM601.213 193.376C601.261 194.624 601.725 203.12 608.317 206.144C607.965 206.416 607.597 206.816 607.405 207.152C600.621 203.904 600.173 194.96 600.061 193.488L601.213 193.376ZM618.479 195.088C618.271 196.752 617.951 198.624 617.455 200.336C616.479 203.616 615.199 205.312 613.727 205.312C612.287 205.312 610.863 203.68 610.863 201.024C610.863 197.552 613.951 194.528 617.871 194.528C621.615 194.528 623.999 197.168 623.999 200.416C623.999 203.76 621.791 206 617.983 206.496L617.247 205.312C617.759 205.264 618.239 205.2 618.623 205.12C620.671 204.656 622.687 203.12 622.687 200.352C622.687 197.792 620.911 195.68 617.839 195.68C614.319 195.68 612.127 198.576 612.127 200.928C612.127 202.944 613.039 203.84 613.759 203.84C614.511 203.84 615.375 202.752 616.191 200.048C616.655 198.528 616.991 196.72 617.151 195.056L618.479 195.088ZM627.328 197.648C627.92 197.552 628.496 197.376 629.104 197.2C630.448 196.768 633.6 195.616 635.936 195.616C638.576 195.616 640.688 197.152 640.688 199.824C640.688 203.664 636.88 205.504 631.952 205.792L631.376 204.464C635.552 204.352 639.296 203.072 639.296 199.808C639.296 198.128 638.064 196.8 635.904 196.8C633.264 196.8 629.2 198.56 627.92 199.072L627.328 197.648ZM644.418 195.92C645.01 195.984 645.698 196.016 646.386 196.016C648.114 196.016 650.13 195.808 651.97 195.2L652.002 196.384C650.434 196.816 648.338 197.168 646.386 197.152C645.794 197.152 645.106 197.136 644.514 197.12L644.418 195.92ZM650.098 193.312C649.89 194.096 649.554 195.6 649.17 196.736C648.402 199.04 646.93 201.952 645.602 203.744L644.37 203.104C645.794 201.44 647.282 198.592 647.938 196.704C648.29 195.696 648.642 194.288 648.69 193.168L650.098 193.312ZM653.874 198.256C653.826 198.912 653.826 199.392 653.842 199.968C653.874 201.008 654.018 203.44 654.018 204.496C654.018 205.776 653.202 206.816 651.218 206.816C649.458 206.816 648.034 206.112 648.034 204.512C648.034 203.04 649.426 202.112 651.218 202.112C653.906 202.112 655.97 203.456 657.282 204.592L656.61 205.68C655.378 204.56 653.538 203.136 651.186 203.136C650.002 203.136 649.202 203.68 649.202 204.416C649.202 205.152 649.826 205.664 651.074 205.664C652.402 205.664 652.85 204.96 652.85 204.096C652.85 202.88 652.674 200.016 652.61 198.256H653.874ZM657.074 198.672C656.21 197.936 654.466 196.96 653.41 196.464L654.05 195.504C655.218 196 657.026 197.04 657.794 197.616L657.074 198.672ZM666.372 193.584C666.308 193.872 666.244 194.224 666.18 194.528C666.068 195.104 665.86 196.416 665.636 197.408C665.092 199.664 663.956 203.648 662.148 206.56L660.836 206.048C662.66 203.6 663.94 199.328 664.372 197.376C664.676 196.096 664.884 194.656 664.884 193.424L666.372 193.584ZM671.876 195.424C672.868 196.72 674.26 199.632 674.804 201.104L673.556 201.696C673.092 200.064 671.828 197.28 670.708 195.952L671.876 195.424ZM660.612 197.088C661.108 197.12 661.524 197.104 662.036 197.088C663.236 197.056 666.484 196.704 667.572 196.704C668.996 196.704 670.164 197.248 670.164 199.408C670.164 201.312 669.908 203.856 669.236 205.184C668.74 206.256 667.94 206.528 666.9 206.528C666.292 206.528 665.524 206.416 665.028 206.288L664.804 204.96C665.476 205.168 666.324 205.28 666.772 205.28C667.364 205.28 667.844 205.152 668.164 204.464C668.676 203.376 668.932 201.296 668.932 199.568C668.932 198.096 668.26 197.824 667.236 197.824C666.164 197.824 663.156 198.192 662.18 198.288C661.812 198.336 661.156 198.416 660.74 198.48L660.612 197.088ZM672.052 193.104C672.452 193.68 673.028 194.656 673.364 195.312L672.5 195.696C672.18 195.04 671.636 194.08 671.188 193.472L672.052 193.104ZM673.812 192.464C674.244 193.056 674.852 194.064 675.172 194.656L674.292 195.04C673.956 194.336 673.428 193.424 672.964 192.832L673.812 192.464ZM681.702 193.376C681.366 194.56 681.062 196.72 680.966 197.84C681.622 196.192 683.286 194.192 685.318 194.192C687.43 194.192 688.966 196.336 688.966 199.696C688.966 204.128 686.166 206.096 682.214 206.816L681.446 205.664C684.934 205.136 687.638 203.728 687.638 199.712C687.638 197.184 686.79 195.36 685.11 195.36C683.11 195.36 681.254 198.272 681.062 200.368C680.982 200.976 680.982 201.536 681.094 202.336L679.846 202.432C679.766 201.824 679.686 200.928 679.686 199.888C679.686 198.368 679.99 196.016 680.182 194.704C680.246 194.224 680.278 193.776 680.31 193.328L681.702 193.376ZM700.36 193.36C700.216 193.984 700.04 194.864 699.624 195.936C699.224 196.912 698.632 197.984 697.992 198.816C698.616 198.448 699.528 198.224 700.232 198.224C701.464 198.224 702.424 198.96 702.424 200.256C702.424 201.088 702.456 202.928 702.472 203.92H701.24C701.304 203.072 701.32 201.424 701.304 200.592C701.288 199.664 700.648 199.232 699.816 199.232C698.792 199.232 697.784 199.744 697.048 200.4C696.584 200.848 696.136 201.424 695.608 202.08L694.504 201.264C696.808 199.056 697.88 197.2 698.424 195.84C698.776 194.96 699 194 699.048 193.248L700.36 193.36ZM694.872 195.088C695.736 195.2 696.84 195.248 697.576 195.248C699.736 195.248 702.504 195.12 704.76 194.72V195.904C702.52 196.24 699.544 196.384 697.512 196.384C696.824 196.384 695.768 196.352 694.872 196.288V195.088ZM707.096 198.944C706.696 199.072 706.12 199.296 705.688 199.456C704.552 199.904 703.032 200.512 701.48 201.312C699.896 202.144 698.776 203.008 698.776 204.112C698.776 205.36 700.008 205.552 701.656 205.552C702.904 205.552 704.632 205.408 706.04 205.152L705.992 206.448C704.776 206.592 703 206.72 701.608 206.72C699.336 206.72 697.496 206.224 697.496 204.288C697.496 202.336 699.48 201.136 701.384 200.16C702.904 199.376 704.2 198.88 705.256 198.384C705.736 198.16 706.136 197.984 706.584 197.76L707.096 198.944ZM410.056 225.832H415.704V226.728H410.056V225.832ZM412.328 226.104H413.432V229.32H412.328V226.104ZM409.752 229.256C411.24 229.048 413.512 228.696 415.704 228.344L415.768 229.288C413.672 229.64 411.512 229.992 409.928 230.248L409.752 229.256ZM416.632 225.736H417.736V227.368C417.736 228.696 417.224 230.136 414.888 231.064C414.744 230.824 414.328 230.392 414.104 230.232C416.248 229.448 416.632 228.376 416.632 227.336V225.736ZM421.128 225.736H422.28V228.968C422.28 229.272 422.28 229.448 422.344 229.512C422.392 229.56 422.488 229.576 422.6 229.576C422.696 229.576 422.888 229.576 423.032 229.576C423.16 229.576 423.288 229.56 423.352 229.512C423.416 229.48 423.48 229.368 423.512 229.192C423.544 228.984 423.56 228.536 423.576 227.928C423.784 228.12 424.136 228.296 424.408 228.376C424.392 228.968 424.344 229.64 424.248 229.88C424.168 230.136 424.008 230.312 423.8 230.408C423.624 230.488 423.32 230.52 423.064 230.52C422.888 230.52 422.488 230.52 422.328 230.52C422.008 230.52 421.656 230.456 421.432 230.264C421.208 230.056 421.128 229.8 421.128 228.92V225.736ZM409.864 231.416H424.168V232.408H409.864V231.416ZM416.392 230.184H417.56V236.264H416.392V230.184ZM415.944 231.928L416.872 232.36C415.384 233.944 412.664 235.272 410.296 235.88C410.12 235.576 409.784 235.144 409.528 234.904C411.896 234.408 414.584 233.256 415.944 231.928ZM417.992 231.992C419.4 233.272 422.104 234.344 424.472 234.824C424.216 235.048 423.88 235.528 423.704 235.832C421.336 235.256 418.616 233.944 417.112 232.392L417.992 231.992ZM411.608 222.808H416.776V223.784H411.608V222.808ZM417.848 222.808H424.312V223.784H417.848V222.808ZM411.912 221.496L413.048 221.784C412.456 223.176 411.512 224.552 410.584 225.448C410.36 225.256 409.88 224.936 409.608 224.776C410.552 223.96 411.416 222.728 411.912 221.496ZM418.216 221.496L419.352 221.768C418.776 223.192 417.752 224.536 416.728 225.384C416.488 225.208 415.976 224.92 415.688 224.776C416.744 223.992 417.704 222.776 418.216 221.496ZM412.504 223.576L413.448 223.32C413.816 223.864 414.2 224.616 414.376 225.096L413.368 225.384C413.224 224.904 412.856 224.136 412.504 223.576ZM419.288 223.56L420.28 223.256C420.76 223.8 421.304 224.552 421.544 225.064L420.52 225.416C420.296 224.904 419.784 224.12 419.288 223.56ZM417.944 227.896L418.632 227.256C419.416 227.72 420.392 228.424 420.856 228.904L420.152 229.64C419.672 229.128 418.728 228.392 417.944 227.896ZM417.064 225.736H421.736V226.6H417.064V225.736ZM436.97 223.208C436.618 223.464 436.122 223.896 435.866 224.12C434.762 225.08 432.458 226.888 431.274 227.88C430.314 228.712 430.298 228.952 431.338 229.816C432.794 231.016 435.626 233.288 437.322 235L436.186 236.04C435.85 235.656 435.466 235.272 435.082 234.872C433.946 233.72 431.53 231.64 430.026 230.408C428.522 229.144 428.698 228.456 430.138 227.24C431.354 226.232 433.786 224.312 434.858 223.224C435.178 222.904 435.594 222.44 435.77 222.152L436.97 223.208ZM449.932 226.744H456.508V227.944H449.932V226.744ZM443.228 234.328H457.596V235.528H443.228V234.328ZM449.244 221.8H450.508V234.968H449.244V221.8ZM460.366 224.472C460.974 224.456 461.486 224.424 461.806 224.392C462.83 224.28 465.854 223.992 468.798 223.736C470.558 223.592 472.046 223.496 473.118 223.464L473.134 224.744C472.206 224.728 470.814 224.76 469.998 224.984C467.71 225.72 466.318 228.168 466.318 230.056C466.318 233.176 469.246 234.184 471.838 234.28L471.374 235.592C468.414 235.48 465.054 233.912 465.054 230.328C465.054 227.848 466.574 225.8 468.03 224.936C466.318 225.112 462.238 225.512 460.51 225.88L460.366 224.472ZM470.814 226.696C471.182 227.224 471.79 228.216 472.142 228.936L471.31 229.304C470.942 228.536 470.494 227.72 470.014 227.048L470.814 226.696ZM472.558 226.024C472.958 226.552 473.582 227.528 473.95 228.232L473.134 228.632C472.75 227.864 472.27 227.064 471.774 226.392L472.558 226.024ZM485.68 223.992H490.864V225.128H485.68V223.992ZM485.664 231.256H491.136V232.392H485.664V231.256ZM485.6 227.608H490.544V228.696H485.6V227.608ZM477.04 223.992H481.76V225.128H477.04V223.992ZM477.232 227.608H481.712V228.696H477.232V227.608ZM485.056 221.656H486.24V236.28H485.056V221.656ZM476.448 231.608C478.224 231.336 481.008 230.888 483.648 230.424L483.712 231.496C481.216 231.96 478.592 232.44 476.704 232.776L476.448 231.608ZM481.216 221.656H482.4V229.128C482.4 231.192 481.76 234.648 477.904 236.456C477.712 236.184 477.328 235.8 477.04 235.56C480.704 234.008 481.216 230.792 481.216 229.128V221.656ZM500.113 229.352H501.329V236.296H500.113V229.352ZM497.537 227.16V228.712H503.585V227.16H497.537ZM496.369 226.248H504.817V229.64H496.369V226.248ZM494.945 230.968H505.665V232.056H496.145V235.56H494.945V230.968ZM505.073 230.968H506.289V234.312C506.289 234.936 506.161 235.272 505.665 235.448C505.153 235.64 504.337 235.64 503.089 235.64C503.025 235.32 502.849 234.872 502.673 234.552C503.633 234.584 504.497 234.584 504.753 234.568C504.993 234.552 505.073 234.488 505.073 234.312V230.968ZM500.001 221.56H501.233V224.472H500.001V221.56ZM493.889 224.04H507.265V227.496H506.065V225.112H495.057V227.496H493.889V224.04ZM495.217 222.152L496.289 221.72C496.817 222.296 497.377 223.064 497.649 223.592L496.497 224.12C496.257 223.576 495.713 222.744 495.217 222.152ZM504.721 221.688L505.969 222.12C505.441 222.824 504.833 223.56 504.353 224.056L503.377 223.656C503.825 223.128 504.417 222.264 504.721 221.688ZM516.515 224.2C518.259 224.504 521.507 224.44 523.091 224.2V225.496C521.379 225.688 518.275 225.688 516.531 225.496L516.515 224.2ZM517.139 230.728C516.995 231.304 516.915 231.752 516.915 232.184C516.915 232.92 517.427 233.64 519.619 233.64C521.043 233.64 522.291 233.512 523.571 233.208L523.603 234.552C522.611 234.76 521.267 234.888 519.603 234.888C516.931 234.888 515.731 233.992 515.731 232.488C515.731 231.96 515.811 231.384 515.987 230.616L517.139 230.728ZM513.475 222.968C513.379 223.24 513.251 223.752 513.187 224.04C512.883 225.528 512.387 228.376 512.387 230.184C512.387 230.952 512.435 231.624 512.531 232.408C512.803 231.688 513.171 230.728 513.443 230.072L514.115 230.6C513.715 231.736 513.123 233.416 512.979 234.184C512.931 234.408 512.899 234.712 512.899 234.904C512.915 235.064 512.931 235.288 512.947 235.464L511.811 235.544C511.491 234.408 511.219 232.568 511.219 230.392C511.219 228.04 511.747 225.304 511.939 223.976C511.987 223.608 512.035 223.208 512.051 222.856L513.475 222.968ZM526.773 234.792H541.125V235.784H526.773V234.792ZM526.853 224.408H541.029V225.4H526.853V224.408ZM527.957 232.456H540.101V233.416H527.957V232.456ZM533.269 222.792H534.469V235.272H533.269V222.792ZM538.837 221.656L539.477 222.584C536.613 223.112 532.053 223.384 528.309 223.464C528.309 223.176 528.165 222.76 528.053 222.504C531.781 222.408 536.309 222.12 538.837 221.656ZM529.637 229.24V230.472H538.293V229.24H529.637ZM529.637 227.224V228.44H538.293V227.224H529.637ZM528.469 226.36H539.509V231.336H528.469V226.36ZM543.367 230.312H557.927V231.32H543.367V230.312ZM543.751 222.264H557.527V223.32H543.751V222.264ZM548.919 228.632L550.087 228.952C549.047 230.616 547.575 232.712 546.551 234.024L545.415 233.64C546.439 232.344 547.927 230.2 548.919 228.632ZM553.719 230.664L554.871 231C553.463 234.52 550.055 235.832 544.055 236.28C543.975 235.928 543.783 235.496 543.591 235.224C549.303 234.92 552.439 233.784 553.719 230.664ZM546.279 233.48L546.887 232.6C550.839 233.304 554.951 234.376 557.431 235.352L556.711 236.328C554.263 235.32 550.343 234.232 546.279 233.48ZM548.119 222.664H549.255V228.248H548.119V222.664ZM551.847 222.664H552.983V228.248H551.847V222.664ZM545.671 225.672V227.848H555.655V225.672H545.671ZM544.551 224.696H556.855V228.84H544.551V224.696ZM560.889 224.92C561.481 224.984 562.169 225.016 562.857 225.016C564.585 225.016 566.601 224.808 568.441 224.2L568.473 225.384C566.905 225.816 564.809 226.168 562.857 226.152C562.265 226.152 561.577 226.136 560.985 226.12L560.889 224.92ZM566.569 222.312C566.361 223.096 566.025 224.6 565.641 225.736C564.873 228.04 563.401 230.952 562.073 232.744L560.841 232.104C562.265 230.44 563.753 227.592 564.409 225.704C564.761 224.696 565.113 223.288 565.161 222.168L566.569 222.312ZM570.345 227.256C570.297 227.912 570.297 228.392 570.313 228.968C570.345 230.008 570.489 232.44 570.489 233.496C570.489 234.776 569.673 235.816 567.689 235.816C565.929 235.816 564.505 235.112 564.505 233.512C564.505 232.04 565.897 231.112 567.689 231.112C570.377 231.112 572.441 232.456 573.753 233.592L573.081 234.68C571.849 233.56 570.009 232.136 567.657 232.136C566.473 232.136 565.673 232.68 565.673 233.416C565.673 234.152 566.297 234.664 567.545 234.664C568.873 234.664 569.321 233.96 569.321 233.096C569.321 231.88 569.145 229.016 569.081 227.256H570.345ZM573.545 227.672C572.681 226.936 570.937 225.96 569.881 225.464L570.521 224.504C571.689 225 573.497 226.04 574.265 226.616L573.545 227.672ZM583.131 222.424C583.035 222.776 582.923 223.384 582.859 223.688C582.619 224.84 582.283 226.648 581.835 228.248C581.259 230.52 580.187 233.832 579.339 235.576L577.947 235.112C578.907 233.448 580.027 230.2 580.635 227.944C581.019 226.472 581.435 224.456 581.547 223.624C581.611 223.176 581.643 222.632 581.611 222.296L583.131 222.424ZM579.595 225.096C581.355 225.096 583.707 224.808 585.691 224.312V225.56C583.707 226.008 581.291 226.28 579.563 226.28C578.859 226.28 578.299 226.264 577.707 226.216L577.675 224.968C578.427 225.064 579.003 225.096 579.595 225.096ZM584.651 227.288C585.483 227.208 586.555 227.16 587.579 227.16C588.507 227.16 589.483 227.192 590.347 227.288L590.315 228.504C589.483 228.408 588.555 228.312 587.611 228.312C586.619 228.312 585.627 228.376 584.651 228.488V227.288ZM584.971 231.176C584.843 231.704 584.747 232.2 584.747 232.616C584.747 233.368 585.179 234.104 587.451 234.104C588.507 234.104 589.595 233.992 590.587 233.8L590.539 235.08C589.675 235.208 588.603 235.304 587.435 235.304C584.923 235.304 583.547 234.536 583.547 232.952C583.547 232.344 583.643 231.736 583.787 231.064L584.971 231.176ZM603.469 222.616C603.357 223.016 603.261 223.576 603.181 223.88C602.605 226.52 601.485 229.864 600.205 231.624C598.989 233.32 597.821 234.52 596.365 234.52C595.149 234.52 594.125 233.512 594.125 231.64C594.125 229.624 595.357 227.496 597.053 226.36C598.637 225.288 600.205 224.872 601.853 224.872C604.989 224.872 607.261 226.984 607.261 230.104C607.261 233.304 604.973 235.24 601.533 235.72L600.797 234.584C604.141 234.28 605.981 232.536 605.981 230.056C605.981 227.704 604.285 225.976 601.709 225.976C600.157 225.976 598.765 226.504 597.517 227.432C596.157 228.408 595.293 230.12 595.293 231.56C595.293 232.616 595.757 233.256 596.477 233.256C597.517 233.256 598.637 231.896 599.453 230.6C600.509 228.968 601.581 226.04 601.981 223.704C602.045 223.384 602.093 222.856 602.077 222.488L603.469 222.616ZM596.909 223.352C596.989 223.784 597.117 224.312 597.245 224.76C597.661 226.328 598.557 228.792 599.229 229.912C599.773 230.84 600.525 231.896 601.293 232.632L600.285 233.448C599.645 232.744 599.053 231.96 598.445 230.92C597.661 229.672 596.733 227.224 596.125 225.224C595.965 224.712 595.789 224.184 595.581 223.768L596.909 223.352ZM613.839 235.896C612.799 234.632 611.423 233.272 610.287 232.344L611.327 231.432C612.479 232.36 613.919 233.8 614.927 234.968L613.839 235.896ZM631.088 225.448H632.336V234.056C632.336 234.808 632.528 234.952 633.424 234.952C633.872 234.952 635.952 234.952 636.528 234.952C637.456 234.952 637.6 234.424 637.728 231.88C638.032 232.104 638.544 232.328 638.896 232.408C638.704 235.288 638.336 236.152 636.592 236.152C636.176 236.152 633.728 236.152 633.328 236.152C631.584 236.152 631.088 235.704 631.088 234.024V225.448ZM631.12 222.456L631.904 221.608C633.28 222.504 635.024 223.816 635.952 224.568L635.152 225.544C634.224 224.728 632.464 223.384 631.12 222.456ZM628.528 226.408L629.648 226.696C629.296 228.472 628.704 230.776 627.808 232.184L626.672 231.72C627.584 230.328 628.208 228.152 628.528 226.408ZM637.984 227.448L639.056 226.952C640.176 228.552 641.248 230.648 641.696 232.056L640.544 232.632C640.144 231.208 639.056 229.048 637.984 227.448ZM638.832 222.52L640.016 223.016C637.392 228.008 633.168 232.616 627.472 235.336C627.296 235.064 626.944 234.632 626.688 234.392C632.208 231.88 636.512 227.256 638.832 222.52ZM643.602 230.312H658.162V231.32H643.602V230.312ZM643.986 222.264H657.762V223.32H643.986V222.264ZM649.154 228.632L650.322 228.952C649.282 230.616 647.81 232.712 646.786 234.024L645.65 233.64C646.674 232.344 648.162 230.2 649.154 228.632ZM653.954 230.664L655.106 231C653.698 234.52 650.29 235.832 644.29 236.28C644.21 235.928 644.018 235.496 643.826 235.224C649.538 234.92 652.674 233.784 653.954 230.664ZM646.514 233.48L647.122 232.6C651.074 233.304 655.186 234.376 657.666 235.352L656.946 236.328C654.498 235.32 650.578 234.232 646.514 233.48ZM648.354 222.664H649.49V228.248H648.354V222.664ZM652.082 222.664H653.218V228.248H652.082V222.664ZM645.906 225.672V227.848H655.89V225.672H645.906ZM644.786 224.696H657.09V228.84H644.786V224.696ZM661.124 224.92C661.716 224.984 662.404 225.016 663.092 225.016C664.82 225.016 666.836 224.808 668.676 224.2L668.708 225.384C667.14 225.816 665.044 226.168 663.092 226.152C662.5 226.152 661.812 226.136 661.22 226.12L661.124 224.92ZM666.804 222.312C666.596 223.096 666.26 224.6 665.876 225.736C665.108 228.04 663.636 230.952 662.308 232.744L661.076 232.104C662.5 230.44 663.988 227.592 664.644 225.704C664.996 224.696 665.348 223.288 665.396 222.168L666.804 222.312ZM670.58 227.256C670.532 227.912 670.532 228.392 670.548 228.968C670.58 230.008 670.724 232.44 670.724 233.496C670.724 234.776 669.908 235.816 667.924 235.816C666.164 235.816 664.74 235.112 664.74 233.512C664.74 232.04 666.132 231.112 667.924 231.112C670.612 231.112 672.676 232.456 673.988 233.592L673.316 234.68C672.084 233.56 670.244 232.136 667.892 232.136C666.708 232.136 665.908 232.68 665.908 233.416C665.908 234.152 666.532 234.664 667.78 234.664C669.108 234.664 669.556 233.96 669.556 233.096C669.556 231.88 669.38 229.016 669.316 227.256H670.58ZM673.78 227.672C672.916 226.936 671.172 225.96 670.116 225.464L670.756 224.504C671.924 225 673.732 226.04 674.5 226.616L673.78 227.672ZM680.038 223.784C681.19 223.912 682.662 223.976 684.278 223.976C685.814 223.976 687.43 223.88 688.582 223.752V225.064C687.494 225.144 685.75 225.256 684.278 225.256C682.678 225.256 681.302 225.192 680.038 225.08V223.784ZM680.678 230.232C680.486 230.856 680.358 231.448 680.358 232.04C680.358 233.272 681.606 234.104 684.166 234.104C686.358 234.104 688.422 233.864 689.638 233.48L689.654 234.856C688.502 235.16 686.47 235.4 684.198 235.4C680.95 235.4 679.062 234.344 679.062 232.328C679.062 231.496 679.238 230.744 679.382 230.104L680.678 230.232ZM699.592 222.648C699.496 223 699.368 223.608 699.304 223.912C699.08 225.064 698.744 226.888 698.296 228.472C697.72 230.744 696.648 234.056 695.8 235.8L694.392 235.336C695.368 233.688 696.488 230.424 697.08 228.168C697.48 226.696 697.896 224.696 698.008 223.848C698.072 223.4 698.104 222.856 698.072 222.52L699.592 222.648ZM696.056 225.32C697.816 225.32 700.168 225.048 702.152 224.536V225.8C700.168 226.248 697.752 226.504 696.024 226.504C695.32 226.504 694.76 226.488 694.168 226.44L694.136 225.208C694.888 225.304 695.464 225.32 696.056 225.32ZM701.112 227.528C701.944 227.448 703 227.384 704.04 227.384C704.968 227.384 705.944 227.416 706.808 227.512L706.776 228.728C705.944 228.632 705.016 228.552 704.072 228.552C703.064 228.552 702.088 228.6 701.112 228.712V227.528ZM701.432 231.416C701.304 231.928 701.208 232.44 701.208 232.856C701.208 233.608 701.64 234.344 703.912 234.344C704.952 234.344 706.056 234.216 707.048 234.024L707 235.32C706.136 235.432 705.064 235.544 703.896 235.544C701.384 235.544 700.008 234.76 700.008 233.176C700.008 232.568 700.104 231.976 700.248 231.288L701.432 231.416ZM705.064 223.144C705.48 223.704 706.056 224.696 706.392 225.336L705.528 225.72C705.208 225.08 704.648 224.104 704.216 223.496L705.064 223.144ZM706.84 222.488C707.272 223.08 707.88 224.072 708.184 224.68L707.32 225.064C706.984 224.36 706.44 223.464 705.992 222.856L706.84 222.488ZM417.448 262.864C420.152 262.464 422.584 261.216 422.568 258.464C422.568 257.232 421.592 255.6 419.464 255.6C417.416 255.6 415.576 256.736 414.024 258.352V256.928C415.944 255.12 417.976 254.448 419.656 254.448C421.88 254.448 423.848 256 423.848 258.48C423.864 261.712 421.512 263.392 418.024 264.064L417.448 262.864ZM413.832 255.152C413.32 255.216 411.576 255.44 410.392 255.616L410.248 254.288C410.6 254.304 410.904 254.304 411.304 254.272C412.152 254.224 414.136 253.984 414.888 253.744L415.352 254.288C415.08 254.704 414.648 255.392 414.376 255.84L413.896 258.032C413.16 259.168 411.672 261.328 410.664 262.72L409.864 261.632C410.856 260.384 413.016 257.44 413.64 256.384L413.704 255.568L413.832 255.152ZM413.672 252.496C413.672 252.128 413.688 251.712 413.608 251.312L415.128 251.36C414.904 252.4 414.408 256.976 414.408 259.792C414.408 261.248 414.408 262.224 414.472 263.648C414.488 263.92 414.536 264.32 414.552 264.624H413.176C413.192 264.4 413.224 263.936 413.224 263.68C413.224 262.128 413.24 261.328 413.256 259.568C413.288 258.16 413.672 253.088 413.672 252.496ZM430.408 251.376C430.072 252.56 429.768 254.72 429.672 255.84C430.328 254.192 431.992 252.192 434.024 252.192C436.136 252.192 437.672 254.336 437.672 257.696C437.672 262.128 434.872 264.096 430.92 264.816L430.152 263.664C433.64 263.136 436.344 261.728 436.344 257.712C436.344 255.184 435.496 253.36 433.816 253.36C431.816 253.36 429.96 256.272 429.768 258.368C429.688 258.976 429.688 259.536 429.8 260.336L428.552 260.432C428.472 259.824 428.392 258.928 428.392 257.888C428.392 256.368 428.696 254.016 428.888 252.704C428.952 252.224 428.984 251.776 429.016 251.328L430.408 251.376ZM448.36 251.36C448.216 251.984 448.04 252.864 447.624 253.936C447.224 254.912 446.632 255.984 445.992 256.816C446.616 256.448 447.528 256.224 448.232 256.224C449.464 256.224 450.424 256.96 450.424 258.256C450.424 259.088 450.456 260.928 450.472 261.92H449.24C449.304 261.072 449.32 259.424 449.304 258.592C449.288 257.664 448.648 257.232 447.816 257.232C446.792 257.232 445.784 257.744 445.048 258.4C444.584 258.848 444.136 259.424 443.608 260.08L442.504 259.264C444.808 257.056 445.88 255.2 446.424 253.84C446.776 252.96 447 252 447.048 251.248L448.36 251.36ZM442.872 253.088C443.736 253.2 444.84 253.248 445.576 253.248C447.736 253.248 450.504 253.12 452.76 252.72V253.904C450.52 254.24 447.544 254.384 445.512 254.384C444.824 254.384 443.768 254.352 442.872 254.288V253.088ZM455.096 256.944C454.696 257.072 454.12 257.296 453.688 257.456C452.552 257.904 451.032 258.512 449.48 259.312C447.896 260.144 446.776 261.008 446.776 262.112C446.776 263.36 448.008 263.552 449.656 263.552C450.904 263.552 452.632 263.408 454.04 263.152L453.992 264.448C452.776 264.592 451 264.72 449.608 264.72C447.336 264.72 445.496 264.224 445.496 262.288C445.496 260.336 447.48 259.136 449.384 258.16C450.904 257.376 452.2 256.88 453.256 256.384C453.736 256.16 454.136 255.984 454.584 255.76L455.096 256.944ZM464.072 251.424C463.976 251.856 463.928 252.192 463.864 252.544C463.656 254.336 462.936 259.264 462.936 260.992C462.936 262.544 463.816 263.488 465.64 263.488C468.072 263.488 469.624 262.432 469.624 260.768C469.624 259.696 469.048 258.512 467.864 257.52L469.272 257.216C470.376 258.432 470.92 259.552 470.92 260.912C470.92 263.296 468.792 264.752 465.624 264.752C463.464 264.752 461.704 263.792 461.704 261.184C461.704 259.472 462.456 254.688 462.632 252.48C462.68 251.92 462.68 251.632 462.648 251.344L464.072 251.424ZM458.952 253.552C460.296 253.984 462.216 254.192 463.64 254.192C464.856 254.192 465.96 254.128 466.904 253.984L466.872 255.2C465.848 255.296 464.904 255.344 463.608 255.344C462.2 255.344 460.28 255.104 458.872 254.72L458.952 253.552ZM458.552 257.536C460.104 258.08 461.976 258.224 463.448 258.224C464.552 258.224 465.656 258.192 466.776 258.032L466.76 259.248C465.688 259.36 464.696 259.392 463.624 259.392C461.88 259.392 459.944 259.2 458.488 258.752L458.552 257.536ZM479.768 251.472C479.64 251.904 479.56 252.4 479.464 252.816C479.24 254.096 478.6 257.184 478.056 258.672C479.448 257.696 480.888 257.296 482.552 257.296C485.096 257.296 486.584 258.592 486.584 260.464C486.584 263.808 483.176 265.04 478.312 264.528L477.976 263.248C481.688 263.76 485.272 263.136 485.272 260.496C485.272 259.312 484.296 258.384 482.424 258.384C480.52 258.384 478.744 259.04 477.688 260.304C477.496 260.544 477.352 260.768 477.192 261.04L476.008 260.624C477.224 258.24 478.072 254.272 478.264 252.736C478.328 252.224 478.36 251.84 478.328 251.408L479.768 251.472ZM474.792 253.52C475.64 253.664 476.856 253.776 477.816 253.776C479.864 253.776 483.016 253.536 485.528 252.976L485.56 254.208C483.288 254.608 480.024 254.928 477.832 254.928C476.744 254.928 475.72 254.848 474.808 254.768L474.792 253.52ZM490.152 255.648C490.744 255.552 491.32 255.376 491.928 255.2C493.272 254.768 496.424 253.616 498.76 253.616C501.4 253.616 503.512 255.152 503.512 257.824C503.512 261.664 499.704 263.504 494.776 263.792L494.2 262.464C498.376 262.352 502.12 261.072 502.12 257.808C502.12 256.128 500.888 254.8 498.728 254.8C496.088 254.8 492.024 256.56 490.744 257.072L490.152 255.648ZM506.152 255.648C506.744 255.552 507.32 255.376 507.928 255.2C509.272 254.768 512.424 253.616 514.76 253.616C517.4 253.616 519.512 255.152 519.512 257.824C519.512 261.664 515.704 263.504 510.776 263.792L510.2 262.464C514.376 262.352 518.12 261.072 518.12 257.808C518.12 256.128 516.888 254.8 514.728 254.8C512.088 254.8 508.024 256.56 506.744 257.072L506.152 255.648ZM531.816 252.032H532.936V260.896H531.816V252.032ZM534.664 250.736H535.832V263.616C535.832 264.416 535.64 264.768 535.144 264.992C534.664 265.2 533.784 265.232 532.6 265.232C532.536 264.88 532.36 264.336 532.2 263.952C533.144 263.984 534.04 263.984 534.328 263.984C534.584 263.968 534.664 263.904 534.664 263.632V250.736ZM525.624 250.624H526.76V265.28H525.624V250.624ZM528.984 258.384H530.088V262.784C530.088 263.328 530.008 263.632 529.608 263.824C529.224 264.016 528.616 264.032 527.72 264.016C527.688 263.712 527.544 263.28 527.384 262.976C528.072 262.992 528.584 262.992 528.776 262.976C528.936 262.976 528.984 262.928 528.984 262.768V258.384ZM522.44 258.384H529.432V259.472H523.528V263.968H522.44V258.384ZM521.704 255.664H530.664V256.768H521.704V255.664ZM523.256 252.88H530.024V253.984H523.032L523.256 252.88ZM523.272 250.944L524.392 251.168C524.008 252.832 523.384 254.528 522.712 255.616C522.472 255.488 521.944 255.28 521.656 255.184C522.376 254.096 522.936 252.496 523.272 250.944ZM544.792 253.248H552.376V254.4H544.232L544.792 253.248ZM546.792 256.72H552.008V257.824H546.792V256.72ZM546.776 260.24H552.232V261.376H546.776V260.24ZM546.184 253.616H547.416V265.28H546.184V253.616ZM545.4 250.752L546.568 251.056C545.656 253.6 544.264 256.112 542.792 257.76C542.616 257.552 542.136 257.12 541.864 256.928C543.32 255.44 544.616 253.104 545.4 250.752ZM541.56 250.624L542.712 250.992C541.656 253.696 540.008 256.432 538.264 258.224C538.152 257.936 537.784 257.296 537.56 257.008C539.16 255.456 540.648 253.056 541.56 250.624ZM539.848 254.752L541.032 253.552L541.064 253.568V265.264H539.848V254.752ZM558.44 251.536C558.36 252.064 558.312 252.624 558.28 253.152C558.216 254.96 558.088 258.752 558.088 261.136C558.088 262.896 559.192 263.504 560.712 263.504C563.64 263.504 565.304 261.872 566.456 260.208L567.352 261.296C566.264 262.816 564.184 264.816 560.68 264.816C558.376 264.816 556.792 263.872 556.792 261.248C556.792 258.88 556.952 254.832 556.952 253.152C556.952 252.56 556.904 252 556.808 251.536H558.44ZM569.86 253.376C570.468 253.36 570.98 253.328 571.3 253.296C572.34 253.184 575.348 252.896 578.308 252.64C580.052 252.496 581.54 252.4 582.612 252.368L582.628 253.648C581.7 253.632 580.308 253.664 579.492 253.888C577.204 254.624 575.812 257.072 575.812 258.96C575.812 262.08 578.74 263.072 581.332 263.184L580.884 264.496C577.908 264.384 574.548 262.816 574.548 259.232C574.548 256.736 576.068 254.704 577.54 253.84C575.812 254.016 571.748 254.416 570.004 254.784L569.86 253.376ZM590.591 251.232C590.543 251.52 590.511 251.952 590.495 252.336C590.447 253.28 590.367 255.728 590.367 257.392C590.367 259.056 590.447 261.552 590.447 262.56C590.447 264.032 589.903 264.512 589.023 264.512C587.775 264.512 585.695 263.296 585.695 261.856C585.695 260.448 587.599 258.96 589.583 258.208C591.007 257.648 592.607 257.36 593.871 257.36C596.223 257.36 597.903 258.624 597.903 260.544C597.903 262.48 596.687 263.712 594.479 264.224C593.775 264.384 593.055 264.416 592.495 264.448L592.047 263.168C592.655 263.168 593.327 263.184 593.935 263.056C595.327 262.784 596.607 262.032 596.607 260.544C596.607 259.184 595.375 258.464 593.871 258.464C592.431 258.464 591.119 258.768 589.759 259.312C588.191 259.92 586.959 260.992 586.959 261.808C586.959 262.528 588.079 263.168 588.703 263.168C589.071 263.168 589.279 262.912 589.279 262.384C589.279 261.456 589.199 259.232 589.199 257.456C589.199 255.616 589.263 253.008 589.263 252.352C589.263 252.048 589.231 251.488 589.183 251.232H590.591ZM595.567 253.008C596.703 253.6 598.447 254.688 599.215 255.328L598.575 256.352C597.791 255.616 595.999 254.512 594.975 253.968L595.567 253.008ZM585.967 254.096C586.847 254.208 587.423 254.224 587.999 254.224C589.583 254.224 592.127 253.888 593.711 253.408L593.743 254.656C592.095 255.056 589.471 255.408 588.031 255.408C587.135 255.408 586.527 255.376 585.999 255.328L585.967 254.096ZM605.439 251.376C605.103 252.56 604.799 254.72 604.703 255.84C605.359 254.192 607.023 252.192 609.055 252.192C611.167 252.192 612.703 254.336 612.703 257.696C612.703 262.128 609.903 264.096 605.951 264.816L605.183 263.664C608.671 263.136 611.375 261.728 611.375 257.712C611.375 255.184 610.527 253.36 608.847 253.36C606.847 253.36 604.991 256.272 604.799 258.368C604.719 258.976 604.719 259.536 604.831 260.336L603.583 260.432C603.503 259.824 603.423 258.928 603.423 257.888C603.423 256.368 603.727 254.016 603.919 252.704C603.983 252.224 604.015 251.776 604.047 251.328L605.439 251.376ZM625.183 251.312C625.151 251.584 625.119 251.904 625.103 252.384C625.071 253.024 625.071 255.168 625.071 256.512C625.071 258.624 625.311 261.424 625.311 262.496C625.311 263.616 624.575 264.752 622.495 264.752C620.191 264.752 618.927 263.936 618.927 262.384C618.927 260.928 620.319 259.952 622.623 259.952C625.999 259.952 628.639 261.776 629.871 262.784L629.135 263.92C627.695 262.592 625.327 260.992 622.479 260.992C620.943 260.992 620.127 261.584 620.127 262.32C620.127 263.072 620.751 263.616 622.335 263.616C623.263 263.616 624.047 263.344 624.047 262.224C624.047 260.992 623.887 257.92 623.887 256.512C623.887 255.072 623.887 253.392 623.887 252.272C623.887 252 623.871 251.52 623.823 251.312H625.183ZM619.071 253.04C620.095 253.232 622.095 253.392 623.151 253.392C625.183 253.392 627.327 253.248 629.407 252.912V254.08C627.599 254.288 625.311 254.496 623.167 254.496C622.063 254.496 620.095 254.352 619.087 254.224L619.071 253.04ZM618.991 256.448C620.127 256.624 621.951 256.736 623.007 256.736C625.327 256.736 627.455 256.576 629.535 256.272V257.472C627.359 257.744 625.407 257.856 623.007 257.856C621.903 257.856 620.143 257.776 619.007 257.648L618.991 256.448ZM642.063 251.328C642.031 251.52 641.983 252.144 641.983 252.336C641.935 253.376 641.967 256.464 641.983 257.744L640.767 257.12C640.767 256.416 640.751 253.232 640.703 252.352C640.671 251.92 640.623 251.472 640.591 251.328H642.063ZM633.551 253.568C635.727 253.536 639.727 253.392 642.191 253.392C644.143 253.392 646.127 253.392 646.879 253.408L646.863 254.592C645.967 254.544 644.527 254.512 642.175 254.512C639.423 254.512 635.999 254.624 633.583 254.8L633.551 253.568ZM641.951 258.208C641.951 260.352 640.959 261.424 639.503 261.424C638.159 261.424 636.863 260.48 636.863 258.736C636.863 257.152 638.175 255.968 639.695 255.968C641.551 255.968 642.495 257.344 642.495 259.184C642.495 261.36 641.439 263.76 637.727 264.864L636.655 263.824C639.567 263.136 641.263 261.712 641.263 259.072C641.263 257.632 640.559 257.024 639.695 257.024C638.847 257.024 638.063 257.68 638.063 258.72C638.063 259.728 638.815 260.304 639.695 260.304C640.687 260.304 641.327 259.472 641.071 257.76L641.951 258.208ZM649.542 260.112C650.886 260.112 651.974 261.2 651.974 262.544C651.974 263.888 650.886 264.976 649.542 264.976C648.198 264.976 647.094 263.888 647.094 262.544C647.094 261.2 648.198 260.112 649.542 260.112ZM649.542 264.16C650.438 264.16 651.158 263.44 651.158 262.544C651.158 261.648 650.438 260.928 649.542 260.928C648.646 260.928 647.91 261.648 647.91 262.544C647.91 263.44 648.646 264.16 649.542 264.16Z" fill="#40322D"/>
<path d="M534.582 106.768C535.024 106.768 535.406 106.717 535.726 106.616C536.046 106.515 536.307 106.373 536.51 106.192C536.718 106.005 536.87 105.787 536.966 105.536C537.062 105.28 537.11 105 537.11 104.696C537.11 104.104 536.899 103.637 536.478 103.296C536.056 102.949 535.424 102.776 534.582 102.776H532.102V106.768H534.582ZM532.102 97.76V101.672H534.15C534.587 101.672 534.966 101.624 535.286 101.528C535.611 101.432 535.878 101.299 536.086 101.128C536.299 100.957 536.456 100.752 536.558 100.512C536.659 100.267 536.71 100 536.71 99.712C536.71 99.0347 536.507 98.5413 536.102 98.232C535.696 97.9173 535.067 97.76 534.214 97.76H532.102ZM534.214 96.536C534.918 96.536 535.523 96.6053 536.03 96.744C536.542 96.8827 536.96 97.08 537.286 97.336C537.616 97.592 537.859 97.9067 538.014 98.28C538.168 98.648 538.246 99.064 538.246 99.528C538.246 99.8107 538.2 100.083 538.11 100.344C538.024 100.6 537.894 100.84 537.718 101.064C537.542 101.288 537.318 101.491 537.046 101.672C536.779 101.848 536.464 101.992 536.102 102.104C536.944 102.264 537.576 102.565 537.998 103.008C538.424 103.445 538.638 104.021 538.638 104.736C538.638 105.221 538.547 105.664 538.366 106.064C538.19 106.464 537.928 106.808 537.582 107.096C537.24 107.384 536.819 107.608 536.318 107.768C535.816 107.923 535.246 108 534.606 108H530.558V96.536H534.214ZM541.746 101.52C542.002 100.965 542.316 100.533 542.69 100.224C543.063 99.9093 543.519 99.752 544.058 99.752C544.228 99.752 544.391 99.7707 544.546 99.808C544.706 99.8453 544.847 99.904 544.97 99.984L544.866 101.048C544.834 101.181 544.754 101.248 544.626 101.248C544.551 101.248 544.442 101.232 544.298 101.2C544.154 101.168 543.991 101.152 543.81 101.152C543.554 101.152 543.324 101.189 543.122 101.264C542.924 101.339 542.746 101.451 542.586 101.6C542.431 101.744 542.29 101.925 542.162 102.144C542.039 102.357 541.927 102.603 541.826 102.88V108H540.394V99.896H541.21C541.364 99.896 541.471 99.9253 541.53 99.984C541.588 100.043 541.628 100.144 541.65 100.288L541.746 101.52ZM550.489 104.352C549.833 104.373 549.273 104.427 548.809 104.512C548.35 104.592 547.974 104.699 547.681 104.832C547.393 104.965 547.182 105.123 547.049 105.304C546.921 105.485 546.857 105.688 546.857 105.912C546.857 106.125 546.891 106.309 546.961 106.464C547.03 106.619 547.123 106.747 547.241 106.848C547.363 106.944 547.505 107.016 547.665 107.064C547.83 107.107 548.006 107.128 548.193 107.128C548.443 107.128 548.673 107.104 548.881 107.056C549.089 107.003 549.283 106.928 549.465 106.832C549.651 106.736 549.827 106.621 549.993 106.488C550.163 106.355 550.329 106.203 550.489 106.032V104.352ZM545.889 101.04C546.337 100.608 546.819 100.285 547.337 100.072C547.854 99.8587 548.427 99.752 549.057 99.752C549.51 99.752 549.913 99.8267 550.265 99.976C550.617 100.125 550.913 100.333 551.153 100.6C551.393 100.867 551.574 101.189 551.697 101.568C551.819 101.947 551.881 102.363 551.881 102.816V108H551.249C551.11 108 551.003 107.979 550.929 107.936C550.854 107.888 550.795 107.797 550.753 107.664L550.593 106.896C550.379 107.093 550.171 107.269 549.969 107.424C549.766 107.573 549.553 107.701 549.329 107.808C549.105 107.909 548.865 107.987 548.609 108.04C548.358 108.099 548.078 108.128 547.769 108.128C547.454 108.128 547.158 108.085 546.881 108C546.603 107.909 546.361 107.776 546.153 107.6C545.95 107.424 545.787 107.203 545.665 106.936C545.547 106.664 545.489 106.344 545.489 105.976C545.489 105.656 545.577 105.349 545.753 105.056C545.929 104.757 546.214 104.493 546.609 104.264C547.003 104.035 547.518 103.848 548.153 103.704C548.787 103.555 549.566 103.469 550.489 103.448V102.816C550.489 102.187 550.353 101.712 550.081 101.392C549.809 101.067 549.411 100.904 548.889 100.904C548.537 100.904 548.241 100.949 548.001 101.04C547.766 101.125 547.561 101.224 547.385 101.336C547.214 101.443 547.065 101.541 546.937 101.632C546.814 101.717 546.691 101.76 546.569 101.76C546.473 101.76 546.39 101.736 546.321 101.688C546.251 101.635 546.193 101.571 546.145 101.496L545.889 101.04ZM555.394 101.072C555.57 100.875 555.757 100.696 555.954 100.536C556.151 100.376 556.359 100.24 556.578 100.128C556.802 100.011 557.037 99.9227 557.282 99.864C557.533 99.8 557.802 99.768 558.09 99.768C558.533 99.768 558.922 99.8427 559.258 99.992C559.599 100.136 559.882 100.344 560.106 100.616C560.335 100.883 560.509 101.205 560.626 101.584C560.743 101.963 560.802 102.381 560.802 102.84V108H559.37V102.84C559.37 102.227 559.229 101.752 558.946 101.416C558.669 101.075 558.245 100.904 557.674 100.904C557.253 100.904 556.858 101.005 556.49 101.208C556.127 101.411 555.791 101.685 555.482 102.032V108H554.05V99.896H554.906C555.109 99.896 555.234 99.9947 555.282 100.192L555.394 101.072ZM568.252 101.824C567.985 101.467 567.697 101.219 567.388 101.08C567.078 100.936 566.732 100.864 566.348 100.864C565.596 100.864 565.017 101.133 564.612 101.672C564.206 102.211 564.004 102.979 564.004 103.976C564.004 104.504 564.049 104.957 564.14 105.336C564.23 105.709 564.364 106.019 564.54 106.264C564.716 106.504 564.932 106.68 565.188 106.792C565.444 106.904 565.734 106.96 566.06 106.96C566.529 106.96 566.937 106.853 567.284 106.64C567.636 106.427 567.958 106.125 568.252 105.736V101.824ZM569.676 96.216V108H568.828C568.625 108 568.497 107.901 568.444 107.704L568.316 106.72C567.969 107.136 567.574 107.472 567.132 107.728C566.689 107.984 566.177 108.112 565.596 108.112C565.132 108.112 564.71 108.024 564.332 107.848C563.953 107.667 563.63 107.403 563.364 107.056C563.097 106.709 562.892 106.277 562.748 105.76C562.604 105.243 562.532 104.648 562.532 103.976C562.532 103.379 562.612 102.824 562.772 102.312C562.932 101.795 563.161 101.347 563.46 100.968C563.758 100.589 564.124 100.293 564.556 100.08C564.993 99.8613 565.484 99.752 566.028 99.752C566.524 99.752 566.948 99.8373 567.3 100.008C567.657 100.173 567.974 100.405 568.252 100.704V96.216H569.676ZM573.429 99.896V108H572.005V99.896H573.429ZM573.733 97.352C573.733 97.4907 573.704 97.6213 573.645 97.744C573.592 97.8613 573.517 97.968 573.421 98.064C573.33 98.1547 573.221 98.2267 573.093 98.28C572.97 98.3333 572.84 98.36 572.701 98.36C572.562 98.36 572.432 98.3333 572.309 98.28C572.192 98.2267 572.088 98.1547 571.997 98.064C571.906 97.968 571.834 97.8613 571.781 97.744C571.728 97.6213 571.701 97.4907 571.701 97.352C571.701 97.2133 571.728 97.0827 571.781 96.96C571.834 96.832 571.906 96.7227 571.997 96.632C572.088 96.536 572.192 96.4613 572.309 96.408C572.432 96.3547 572.562 96.328 572.701 96.328C572.84 96.328 572.97 96.3547 573.093 96.408C573.221 96.4613 573.33 96.536 573.421 96.632C573.517 96.7227 573.592 96.832 573.645 96.96C573.704 97.0827 573.733 97.2133 573.733 97.352ZM577.113 101.072C577.289 100.875 577.475 100.696 577.673 100.536C577.87 100.376 578.078 100.24 578.297 100.128C578.521 100.011 578.755 99.9227 579.001 99.864C579.251 99.8 579.521 99.768 579.809 99.768C580.251 99.768 580.641 99.8427 580.977 99.992C581.318 100.136 581.601 100.344 581.825 100.616C582.054 100.883 582.227 101.205 582.345 101.584C582.462 101.963 582.521 102.381 582.521 102.84V108H581.089V102.84C581.089 102.227 580.947 101.752 580.665 101.416C580.387 101.075 579.963 100.904 579.393 100.904C578.971 100.904 578.577 101.005 578.209 101.208C577.846 101.411 577.51 101.685 577.201 102.032V108H575.769V99.896H576.625C576.827 99.896 576.953 99.9947 577.001 100.192L577.113 101.072ZM587.515 104.04C587.803 104.04 588.056 104 588.275 103.92C588.493 103.84 588.677 103.728 588.827 103.584C588.976 103.44 589.088 103.269 589.163 103.072C589.237 102.869 589.275 102.648 589.275 102.408C589.275 101.912 589.123 101.517 588.819 101.224C588.52 100.931 588.085 100.784 587.515 100.784C586.939 100.784 586.499 100.931 586.195 101.224C585.896 101.517 585.747 101.912 585.747 102.408C585.747 102.648 585.784 102.869 585.859 103.072C585.939 103.269 586.053 103.44 586.203 103.584C586.352 103.728 586.536 103.84 586.755 103.92C586.973 104 587.227 104.04 587.515 104.04ZM590.083 108.44C590.083 108.243 590.027 108.083 589.915 107.96C589.803 107.837 589.651 107.741 589.459 107.672C589.272 107.603 589.053 107.555 588.803 107.528C588.552 107.496 588.285 107.472 588.003 107.456C587.725 107.44 587.443 107.424 587.155 107.408C586.867 107.392 586.589 107.365 586.323 107.328C586.024 107.467 585.779 107.643 585.587 107.856C585.4 108.064 585.307 108.309 585.307 108.592C585.307 108.773 585.352 108.941 585.443 109.096C585.539 109.256 585.683 109.392 585.875 109.504C586.067 109.621 586.307 109.712 586.595 109.776C586.888 109.845 587.232 109.88 587.627 109.88C588.011 109.88 588.355 109.845 588.659 109.776C588.963 109.707 589.219 109.608 589.427 109.48C589.64 109.352 589.803 109.2 589.915 109.024C590.027 108.848 590.083 108.653 590.083 108.44ZM591.531 100.216V100.744C591.531 100.92 591.419 101.032 591.195 101.08L590.275 101.2C590.456 101.552 590.547 101.941 590.547 102.368C590.547 102.763 590.469 103.123 590.315 103.448C590.165 103.768 589.957 104.043 589.691 104.272C589.424 104.501 589.104 104.677 588.731 104.8C588.357 104.923 587.952 104.984 587.515 104.984C587.136 104.984 586.779 104.939 586.443 104.848C586.272 104.955 586.141 105.069 586.051 105.192C585.96 105.309 585.914 105.429 585.914 105.552C585.914 105.744 585.992 105.891 586.147 105.992C586.307 106.088 586.515 106.157 586.771 106.2C587.027 106.243 587.317 106.269 587.643 106.28C587.973 106.291 588.309 106.309 588.651 106.336C588.997 106.357 589.333 106.397 589.659 106.456C589.989 106.515 590.283 106.611 590.539 106.744C590.795 106.877 591 107.061 591.155 107.296C591.315 107.531 591.395 107.835 591.395 108.208C591.395 108.555 591.307 108.891 591.131 109.216C590.96 109.541 590.712 109.829 590.387 110.08C590.061 110.336 589.661 110.539 589.187 110.688C588.717 110.843 588.187 110.92 587.595 110.92C587.003 110.92 586.485 110.861 586.043 110.744C585.6 110.627 585.232 110.469 584.939 110.272C584.645 110.075 584.424 109.845 584.275 109.584C584.131 109.328 584.059 109.059 584.059 108.776C584.059 108.376 584.184 108.037 584.435 107.76C584.685 107.483 585.029 107.261 585.467 107.096C585.227 106.989 585.035 106.848 584.891 106.672C584.752 106.491 584.683 106.248 584.683 105.944C584.683 105.827 584.704 105.707 584.747 105.584C584.789 105.456 584.853 105.331 584.939 105.208C585.029 105.08 585.139 104.96 585.267 104.848C585.395 104.736 585.544 104.637 585.715 104.552C585.315 104.328 585.003 104.032 584.779 103.664C584.555 103.291 584.443 102.859 584.443 102.368C584.443 101.973 584.517 101.616 584.667 101.296C584.821 100.971 585.035 100.696 585.307 100.472C585.579 100.243 585.901 100.067 586.275 99.944C586.653 99.8213 587.067 99.76 587.515 99.76C587.867 99.76 588.195 99.8 588.499 99.88C588.803 99.9547 589.08 100.067 589.331 100.216H591.531Z" fill="#40322D"/>
<line x1="605" y1="102.5" x2="709" y2="102.5" stroke="#40322D"/>
<line x1="90" y1="102.5" x2="518" y2="102.5" stroke="#40322D"/>
<g clip-path="url(#clip1_405_1535)">
<path d="M268.237 193.602L274.181 187.658C275.358 186.477 275.358 184.566 274.181 183.388C273.003 182.211 271.092 182.207 269.911 183.388L263.967 189.332C262.79 190.513 262.79 192.424 263.967 193.602C265.145 194.779 267.056 194.779 268.237 193.602Z" fill="#4B4B4B"/>
<path d="M270.254 203.078C270.412 203.465 270.637 203.804 270.916 204.082C271.747 204.913 273.026 205.214 274.185 204.748L281.98 201.595C283.526 200.971 284.271 199.21 283.646 197.664C283.022 196.118 281.261 195.37 279.715 195.998L271.92 199.146C270.374 199.771 269.629 201.531 270.254 203.078Z" fill="#4B4B4B"/>
<path d="M254.45 187.274C255.996 187.899 257.753 187.15 258.381 185.604L261.53 177.809C262.151 176.263 261.409 174.507 259.863 173.882C258.317 173.258 256.56 174.003 255.932 175.549L252.783 183.343C252.317 184.502 252.618 185.781 253.449 186.612C253.728 186.89 254.062 187.116 254.454 187.274H254.45Z" fill="#4B4B4B"/>
<path d="M221.973 197.725C222.548 197.713 223.184 197.367 223.876 196.675L224.888 195.663C225.543 195.012 225.9 194.418 225.96 193.891C226.021 193.365 225.802 192.849 225.302 192.349L223.929 190.976L219.136 195.768L220.25 196.882C220.818 197.45 221.393 197.732 221.973 197.725Z" fill="#4B4B4B"/>
<path d="M238.612 225.242L246.407 214.701L235.866 222.496L238.612 225.242Z" fill="#4B4B4B"/>
<path d="M217.816 199.628L216.548 198.36L210.98 203.931L212.613 205.564C213.113 206.064 213.621 206.298 214.129 206.275C214.641 206.249 215.224 205.906 215.879 205.252L217.459 203.672C218.29 202.841 218.723 202.126 218.756 201.52C218.79 200.918 218.482 200.286 217.823 199.632L217.816 199.628Z" fill="#4B4B4B"/>
<path d="M232.175 209.484C232.755 209.473 233.39 209.123 234.079 208.434L235.87 206.644C236.524 205.989 236.882 205.399 236.942 204.872C237.002 204.345 236.784 203.83 236.283 203.33L234.91 201.957L229.339 207.528L230.452 208.641C231.02 209.209 231.596 209.491 232.175 209.484Z" fill="#4B4B4B"/>
<path d="M287.381 230.151L230.072 172.848C228.119 170.891 225.426 169.861 222.665 170.015L194.883 171.576C193.099 171.678 191.674 173.1 191.572 174.883L190.015 202.664C189.86 205.425 190.887 208.122 192.844 210.074L250.149 267.382C253.64 270.873 259.306 270.873 262.797 267.382L287.378 242.802C290.872 239.311 290.869 233.646 287.378 230.155L287.381 230.151ZM201.564 188.497C199.649 186.582 199.649 183.478 201.564 181.564C203.479 179.649 206.579 179.653 208.493 181.564C210.408 183.478 210.408 186.578 208.493 188.493C206.579 190.408 203.475 190.408 201.56 188.493L201.564 188.497ZM210.017 208.148L205.536 203.668L223.665 185.54L227.965 189.84C229.432 191.307 230.166 192.717 230.155 194.072C230.147 195.426 229.432 196.814 228.018 198.228L227.371 198.875C226.438 199.808 225.52 200.425 224.613 200.726C223.707 201.027 222.796 201.016 221.882 200.685C222.744 202.66 222.157 204.661 220.122 206.696L218.643 208.175C217.247 209.57 215.81 210.274 214.343 210.27C212.876 210.27 211.431 209.563 210.017 208.148ZM225.377 223.504L222.477 220.604C222.665 220.209 222.875 219.863 223.101 219.565C223.323 219.272 223.774 218.787 224.448 218.113L227.296 215.266C228.127 214.434 228.567 213.697 228.631 213.054C228.695 212.407 228.394 211.756 227.739 211.098L226.754 210.112L219.373 217.493L216.521 214.641L234.65 196.513L238.95 200.813C240.417 202.28 241.151 203.691 241.14 205.045C241.132 206.403 240.417 207.787 239.003 209.205L237.577 210.631C235.711 212.497 233.864 213.099 232.032 212.444C232.431 213.392 232.449 214.34 232.1 215.281C231.746 216.221 231.065 217.192 230.068 218.192L227.269 220.991C226.754 221.506 226.351 221.947 226.065 222.3C225.783 222.654 225.554 223.053 225.381 223.504H225.377ZM233.744 231.87L236.542 228.09L233.048 224.595L229.267 227.394L226.652 224.779L247.685 209.548L251.854 213.716L236.625 234.744L233.751 231.87H233.744ZM244.491 242.618L254.073 225.938L240.94 239.07L238.378 236.509L256.507 218.38L260.081 221.954L252.154 235.734L263.008 224.881L265.547 227.42L247.418 245.548L244.491 242.621V242.618ZM272.334 243.163L263.166 252.331C261.699 253.798 260.228 254.558 258.76 254.61C257.293 254.663 255.852 253.982 254.434 252.564L249.927 248.057L268.056 229.929L272.563 234.436C273.981 235.85 274.662 237.291 274.61 238.758C274.557 240.225 273.797 241.692 272.326 243.163H272.334Z" fill="#4B4B4B"/>
<path d="M268.32 235.369L255.368 248.321L256.974 249.927C257.441 250.393 257.937 250.612 258.464 250.585C258.987 250.559 259.566 250.235 260.187 249.615L269.614 240.188C270.239 239.563 270.558 238.991 270.585 238.461C270.611 237.938 270.389 237.438 269.926 236.975L268.32 235.369Z" fill="#4B4B4B"/>
</g>
<rect y="202" width="90" height="30" fill="#D9D9D9"/>
</g>
<defs>
<clipPath id="clip0_405_1535">
<rect width="800" height="400" fill="white"/>
</clipPath>
<clipPath id="clip1_405_1535">
<rect width="100" height="100" fill="white" transform="translate(190 170)"/>
</clipPath>
</defs>
</svg>
