<svg width="468" height="700" viewBox="0 0 468 700" fill="none" xmlns="http://www.w3.org/2000/svg">
<path d="M0 15.5556C0 6.96446 6.97538 0 15.5799 0H451.818C460.423 0 467.398 6.96446 467.398 15.5556V684.444C467.398 693.036 460.423 700 451.818 700H15.58C6.97539 700 0 693.036 0 684.444V15.5556Z" fill="#E2DBD3"/>
<path d="M57.2798 77.1556H64.1101C63.6614 85.5182 63.0133 109.81 42.6222 122.304C41.5753 120.761 39.6309 118.919 37.5868 117.525C57.6288 106.425 56.9308 83.6764 57.2798 77.1556ZM63.9107 78.4498C64.0602 82.7804 65.1072 107.62 85.5481 117.177C83.6536 118.62 81.8587 120.612 80.9613 122.254C59.4735 111.602 58.5262 84.1742 58.1274 79.0471L63.9107 78.4498Z" fill="#47665E"/>
<path d="M107.161 103.712C106.388 104.16 105.59 104.608 104.668 105.056C103.122 105.828 100.006 107.296 97.7129 108.764C95.6439 110.108 94.2479 111.552 94.2479 113.269C94.2479 115.061 95.9929 116.032 99.4578 116.032C102 116.032 105.366 115.634 107.584 115.111L107.559 118.695C105.416 119.044 102.798 119.317 99.5576 119.317C94.572 119.317 90.8079 117.924 90.8079 113.643C90.8079 110.482 93.1262 108.267 96.0926 106.325C98.4607 104.757 101.602 103.214 103.122 102.343C104.07 101.796 104.767 101.372 105.416 100.85L107.161 103.712ZM94.6218 98.3858C95.8184 101.696 97.3888 104.683 98.5604 106.773L95.7187 108.416C94.3476 106.151 92.8519 102.891 91.4809 99.68L94.6218 98.3858Z" fill="#40322D"/>
<path d="M111.647 104.583C112.569 104.434 113.815 104.11 114.738 103.836C116.632 103.239 121.717 101.472 125.382 101.472C129.869 101.472 133.434 104.06 133.434 108.665C133.434 114.29 128.049 117.899 119.275 118.347L117.804 115.036C124.559 114.887 129.869 112.946 129.869 108.59C129.869 106.251 128.249 104.484 125.257 104.484C121.568 104.484 115.685 106.948 113.068 108.092L111.647 104.583Z" fill="#B96842"/>
<path d="M137.297 101.92C138.369 102.044 139.715 102.094 140.613 102.094C143.704 102.094 147.069 101.572 149.487 100.8L149.562 103.687C147.418 104.284 143.829 104.932 140.638 104.907C139.641 104.907 138.594 104.882 137.522 104.832L137.297 101.92ZM146.994 98.1867C146.67 99.5058 146.072 101.945 145.399 104.06C144.252 107.644 142.009 112.274 139.89 115.211L136.874 113.668C139.117 110.93 141.361 106.574 142.333 103.886C142.931 102.094 143.48 99.7796 143.554 97.8631L146.994 98.1867ZM152.852 105.952C152.778 106.997 152.803 108.043 152.828 109.138C152.877 110.606 153.102 114.315 153.102 115.708C153.102 118.023 151.855 119.84 148.291 119.84C145.2 119.84 142.757 118.446 142.757 115.708C142.757 113.294 144.801 111.403 148.266 111.403C152.628 111.403 156.068 113.593 158.137 115.46L156.492 118.148C154.697 116.48 151.855 113.916 148.091 113.916C146.645 113.916 145.698 114.539 145.698 115.41C145.698 116.331 146.496 116.978 147.867 116.978C149.562 116.978 150.11 116.032 150.11 114.638C150.11 113.145 149.836 108.565 149.712 105.952H152.852ZM157.14 107.271C155.694 106.101 152.852 104.484 151.132 103.712L152.753 101.273C154.548 102.044 157.614 103.712 158.91 104.633L157.14 107.271Z" fill="#B96842"/>
<path d="M171.499 98.7591C171.349 99.4062 171.199 100.203 171.075 100.825C170.825 101.945 170.526 103.488 170.252 104.757C169.429 108.267 167.435 115.36 164.818 119.566L161.552 118.272C164.519 114.29 166.388 107.719 167.086 104.583C167.56 102.343 167.834 100.228 167.809 98.3609L171.499 98.7591ZM180.099 101.248C181.619 103.413 183.713 108.043 184.486 110.407L181.32 111.876C180.672 109.113 178.902 104.732 177.107 102.517L180.099 101.248ZM161.403 103.861C162.3 103.911 163.148 103.886 164.07 103.861C166.064 103.812 170.801 103.264 172.645 103.264C175.288 103.264 177.157 104.434 177.157 108.043C177.157 110.98 176.783 115.012 175.736 117.152C174.914 118.894 173.518 119.442 171.648 119.442C170.676 119.442 169.504 119.292 168.657 119.093L168.108 115.808C169.08 116.082 170.501 116.331 171.15 116.331C171.997 116.331 172.645 116.082 173.019 115.26C173.717 113.867 174.041 110.83 174.041 108.391C174.041 106.4 173.194 106.101 171.623 106.101C170.152 106.101 165.84 106.649 164.469 106.823C163.746 106.923 162.45 107.097 161.702 107.221L161.403 103.861ZM179.65 97.8133C180.273 98.7093 181.146 100.302 181.619 101.223L179.625 102.069C179.102 101.049 178.329 99.5804 177.656 98.6098L179.65 97.8133ZM182.591 96.6684C183.24 97.6142 184.162 99.2071 184.611 100.078L182.616 100.924C182.118 99.8791 181.295 98.4356 180.622 97.4898L182.591 96.6684Z" fill="#B96842"/>
<path d="M190.593 99.2818C191.291 99.3564 192.139 99.4062 192.837 99.4062C194.183 99.4062 199.493 99.2818 200.913 99.1573C201.96 99.0827 202.534 98.9831 202.833 98.8836L204.428 101.124C203.855 101.497 203.257 101.845 202.708 102.268C201.362 103.214 198.745 105.404 197.149 106.649C197.997 106.425 198.745 106.375 199.517 106.375C203.755 106.375 206.971 109.013 206.971 112.622C206.971 116.555 203.98 119.666 197.947 119.666C194.482 119.666 191.865 118.098 191.865 115.584C191.865 113.568 193.709 111.726 196.352 111.726C199.767 111.726 201.661 114.016 201.736 116.754L198.819 117.127C198.77 115.335 197.822 114.091 196.352 114.091C195.429 114.091 194.806 114.663 194.806 115.31C194.806 116.231 195.828 116.853 197.349 116.853C201.562 116.853 203.705 115.26 203.705 112.597C203.705 110.332 201.462 108.814 198.545 108.814C194.706 108.814 192.239 110.855 189.571 113.867L187.303 111.527C189.073 110.133 192.089 107.595 193.535 106.375C194.931 105.23 197.548 103.14 198.77 102.044C197.498 102.094 194.058 102.219 192.712 102.318C192.039 102.368 191.266 102.418 190.693 102.517L190.593 99.2818Z" fill="#B96842"/>
<path d="M232.447 102.766C232.173 103.239 231.824 103.911 231.625 104.533C230.952 106.773 229.531 110.084 227.262 112.846C224.894 115.733 221.903 118.023 217.216 119.865L214.275 117.252C219.36 115.708 222.127 113.543 224.321 111.079C226.016 109.138 227.462 106.151 227.86 104.309H219.46L220.606 101.472C221.703 101.472 226.938 101.472 227.711 101.472C228.484 101.472 229.331 101.372 229.88 101.173L232.447 102.766ZM224.321 98.8089C223.722 99.68 223.074 100.825 222.8 101.348C221.105 104.359 218.139 107.868 214.549 110.308L211.757 108.242C216.119 105.579 218.313 102.368 219.535 100.228C219.908 99.6302 220.432 98.4853 220.656 97.6142L224.321 98.8089Z" fill="#40322D"/>
<path d="M254.957 98.9084C254.907 99.6053 254.882 100.402 254.882 101.422C254.882 102.692 254.882 105.106 254.882 106.325C254.882 111.701 253.835 113.991 251.966 116.032C250.321 117.849 247.753 119.044 245.933 119.641L243.316 116.878C245.809 116.306 247.803 115.36 249.323 113.742C251.019 111.876 251.367 110.009 251.367 106.126C251.367 104.882 251.367 102.492 251.367 101.422C251.367 100.402 251.293 99.6053 251.193 98.9084H254.957ZM243.415 99.1324C243.366 99.7049 243.316 100.252 243.316 101.024C243.316 102.119 243.316 108.043 243.316 109.436C243.316 110.059 243.366 111.029 243.415 111.602H239.776C239.826 111.154 239.901 110.183 239.901 109.412C239.901 107.993 239.901 102.119 239.901 101.024C239.901 100.576 239.876 99.7049 239.801 99.1324H243.415Z" fill="#40322D"/>
<path d="M263.333 100.85C263.981 100.949 265.028 101.024 265.701 101.024H279.287C280.035 101.024 280.907 100.949 281.605 100.85V104.284C280.882 104.21 280.01 104.16 279.287 104.16H265.701C265.028 104.16 263.981 104.21 263.333 104.284V100.85ZM270.537 116.181V102.766H274.002V116.181H270.537ZM261.738 114.14C262.535 114.265 263.433 114.34 264.18 114.34H280.633C281.505 114.34 282.303 114.215 282.951 114.14V117.724C282.253 117.65 281.206 117.625 280.633 117.625H264.18C263.458 117.625 262.56 117.65 261.738 117.724V114.14Z" fill="#40322D"/>
<path d="M286.366 108.565C290.828 107.42 294.468 105.803 297.26 104.085C299.802 102.517 302.644 100.028 304.264 98.0622L306.957 100.601C304.688 102.891 301.647 105.23 298.706 106.997C295.889 108.665 291.85 110.532 287.912 111.701L286.366 108.565ZM296.736 105.703L300.276 104.857V116.082C300.276 117.177 300.326 118.72 300.5 119.342H296.537C296.637 118.745 296.736 117.177 296.736 116.082V105.703Z" fill="#40322D"/>
<path d="M314.272 99.1573C315.07 99.2569 316.092 99.3316 316.94 99.3316C318.51 99.3316 325.49 99.3316 326.961 99.3316C327.783 99.3316 328.78 99.2569 329.628 99.1573V102.368C328.78 102.318 327.808 102.268 326.961 102.268C325.49 102.268 318.51 102.268 316.94 102.268C316.092 102.268 315.02 102.318 314.272 102.368V99.1573ZM311.356 105.504C312.104 105.604 312.976 105.653 313.749 105.653C315.319 105.653 328.606 105.653 330.077 105.653C330.6 105.653 331.697 105.628 332.37 105.504V108.74C331.722 108.715 330.775 108.69 330.077 108.69C328.606 108.69 315.319 108.69 313.749 108.69C313.026 108.69 312.054 108.715 311.356 108.764V105.504ZM324.119 107.246C324.119 110.507 323.545 112.996 322.474 115.061C321.626 116.804 319.682 118.72 317.488 119.865L314.546 117.749C316.316 117.052 318.086 115.634 319.058 114.165C320.305 112.274 320.654 109.934 320.654 107.271L324.119 107.246Z" fill="#40322D"/>
<path d="M335.347 111.154C338.613 110.432 342.302 108.764 344.271 107.57C346.714 106.101 349.207 103.886 350.503 102.268L352.971 104.683C351.475 106.3 348.459 108.64 345.742 110.233C343.498 111.552 339.66 113.22 336.818 114.066L335.347 111.154ZM343.997 109.536L347.387 108.889V117.724C347.387 118.62 347.412 119.94 347.562 120.437H343.847C343.922 119.94 343.997 118.62 343.997 117.724V109.536Z" fill="#40322D"/>
<path d="M376.553 97.2658C377.176 98.2116 377.999 99.6302 378.447 100.551L376.378 101.422C375.88 100.377 375.132 99.1076 374.484 98.112L376.553 97.2658ZM380.018 96.6187C380.666 97.5396 381.538 99.0329 382.012 99.9289L379.943 100.8C379.42 99.7796 378.647 98.3858 377.949 97.4649L380.018 96.6187ZM379.12 101.945C378.896 102.418 378.697 103.14 378.572 103.662C377.999 106.101 376.902 109.984 374.833 112.747C372.564 115.733 369.249 118.197 364.812 119.616L362.095 116.629C367.03 115.484 369.847 113.319 371.841 110.805C373.512 108.74 374.459 105.902 374.783 103.762C373.287 103.762 365.036 103.762 363.167 103.762C362.045 103.762 360.848 103.836 360.2 103.886V100.352C360.948 100.452 362.344 100.576 363.167 100.576C365.036 100.576 373.312 100.576 374.708 100.576C375.207 100.576 376.004 100.551 376.653 100.377L379.12 101.945Z" fill="#40322D"/>
<path d="M394.675 98.2613C394.476 99.1822 394.152 100.651 393.454 102.443C392.931 103.662 392.208 105.081 391.51 106.076C392.183 105.778 393.504 105.604 394.351 105.604C396.42 105.604 397.991 106.823 397.991 109.138C397.991 110.482 398.066 113.195 398.091 114.763H395.099C395.199 113.593 395.249 111.477 395.224 110.133C395.224 108.54 394.227 108.018 393.18 108.018C391.809 108.018 390.238 108.839 389.291 109.735C388.543 110.482 387.845 111.378 386.998 112.473L384.33 110.482C387.521 107.545 389.441 104.857 390.488 102.119C390.986 100.775 391.31 99.2569 391.385 97.9876L394.675 98.2613ZM385.278 100.576C386.549 100.75 388.394 100.85 389.665 100.85C392.955 100.85 397.467 100.676 401.082 100.028L401.057 102.916C397.542 103.413 392.532 103.637 389.49 103.637C388.468 103.637 386.649 103.588 385.278 103.463V100.576ZM405.021 107.644C404.248 107.868 402.902 108.366 402.054 108.69C400.434 109.312 398.19 110.208 395.847 111.403C393.579 112.572 392.357 113.643 392.357 115.012C392.357 116.38 393.554 116.754 395.972 116.754C398.091 116.754 400.883 116.48 403.076 116.032L402.976 119.243C401.306 119.467 398.265 119.691 395.897 119.691C392.008 119.691 389.092 118.72 389.092 115.509C389.092 112.05 392.656 110.009 395.648 108.516C397.941 107.321 399.511 106.724 401.007 106.027C401.979 105.604 402.852 105.205 403.799 104.732L405.021 107.644Z" fill="#40322D"/>
<path d="M412.3 112.075C414.543 112.075 416.338 113.867 416.338 116.082C416.338 118.322 414.543 120.114 412.3 120.114C410.081 120.114 408.261 118.322 408.261 116.082C408.261 113.867 410.081 112.075 412.3 112.075ZM412.3 118.322C413.546 118.322 414.543 117.326 414.543 116.082C414.543 114.862 413.546 113.867 412.3 113.867C411.078 113.867 410.056 114.862 410.056 116.082C410.056 117.326 411.078 118.322 412.3 118.322Z" fill="#40322D"/>
<path d="M78.8968 152.457H105.071V158.181H78.8968V152.457ZM75.2573 167.191H107.713V172.965H75.2573V167.191ZM84.8795 170.676L91.4106 172.368C89.3665 178.889 86.6245 186.256 84.3311 190.985L79.0464 189.392C81.2899 184.414 83.683 176.599 84.8795 170.676ZM74.8585 188.048C81.938 187.65 92.9561 186.804 103.077 185.957V191.532C93.5046 192.528 83.2343 193.474 75.9055 194.071L74.8585 188.048ZM94.7011 179.387L100.036 177.147C103.476 182.124 107.065 188.695 108.312 193.275L102.429 195.813C101.432 191.383 98.0913 184.613 94.7011 179.387ZM71.8671 149.172L77.451 150.964C74.0608 159.426 68.5767 168.336 62.8931 173.961C62.3945 172.567 60.7991 169.282 59.802 167.838C64.5383 163.358 69.1749 156.29 71.8671 149.172ZM67.081 162.96L72.7147 157.285L72.7645 157.335V195.664H67.081V162.96Z" fill="#47665E"/>
<path d="M116.837 171.173C119.629 171.696 124.415 172.219 126.983 172.368L126.584 175.305C123.966 175.081 119.33 174.533 116.339 174.06L116.837 171.173ZM127.88 179.063C127.207 179.511 126.684 179.959 126.235 180.332C125.113 181.303 122.77 183.468 122.172 184.091C122.396 184.091 122.845 184.165 123.144 184.29C123.842 184.489 124.291 185.036 124.64 185.982C124.864 186.629 125.138 187.575 125.337 188.247C125.587 189.019 126.135 189.392 127.107 189.392C129.002 189.392 130.722 189.218 131.993 188.969L131.769 192.229C130.747 192.404 128.179 192.578 126.883 192.578C124.54 192.578 123.244 192.055 122.645 190.462C122.371 189.716 122.097 188.546 121.897 187.924C121.623 187.028 121.1 186.704 120.576 186.704C120.078 186.704 119.554 187.102 118.956 187.724C118.083 188.596 116.214 190.636 114.494 192.802L111.552 190.761C112.001 190.363 112.599 189.84 113.272 189.193C114.569 187.899 119.654 182.846 121.922 180.457C120.177 180.507 117.211 180.756 115.79 180.88C114.918 180.955 114.145 181.079 113.621 181.179L113.347 177.744C113.921 177.794 114.818 177.819 115.715 177.819C116.912 177.794 122.546 177.545 124.64 177.296C125.088 177.246 125.786 177.097 126.035 176.997L127.88 179.063Z" fill="#40322D"/>
<path d="M145.778 171.472C145.604 172.169 145.38 173.289 145.255 173.836C144.906 175.529 144.283 178.565 143.61 181.104C142.712 184.588 141.042 189.666 139.671 192.628L136.206 191.458C137.677 188.944 139.571 183.742 140.519 180.258C141.142 177.918 141.715 175.18 141.89 173.712C142.014 172.791 142.039 171.771 141.964 171.173L145.778 171.472ZM139.422 175.205C142.463 175.205 145.978 174.732 149.218 173.961V177.072C146.127 177.794 142.214 178.217 139.397 178.217C138.175 178.217 137.253 178.167 136.381 178.117L136.281 175.006C137.577 175.156 138.4 175.205 139.422 175.205ZM147.249 179.013C148.645 178.864 150.44 178.764 152.06 178.764C153.481 178.764 154.977 178.839 156.423 178.988L156.373 181.975C155.101 181.826 153.581 181.652 152.085 181.652C150.365 181.652 148.82 181.726 147.249 181.925V179.013ZM148.595 185.26C148.421 185.982 148.271 186.779 148.271 187.326C148.271 188.421 148.994 189.243 151.686 189.243C153.356 189.243 155.076 189.068 156.846 188.745L156.722 191.906C155.326 192.105 153.656 192.254 151.661 192.254C147.449 192.254 145.205 190.836 145.205 188.322C145.205 187.152 145.429 185.957 145.629 184.987L148.595 185.26Z" fill="#40322D"/>
<path d="M165.372 173.563C165.197 174.434 165.073 175.902 165.073 176.599C165.073 178.217 165.073 180.059 165.222 181.876C165.571 185.46 166.319 187.924 167.889 187.924C169.086 187.924 170.058 184.987 170.532 183.02L173.049 186.032C171.379 190.388 169.834 191.881 167.84 191.881C165.073 191.881 162.704 189.442 162.006 182.772C161.757 180.482 161.732 177.545 161.732 176.027C161.732 175.355 161.707 174.284 161.533 173.513L165.372 173.563ZM177.836 174.11C180.204 176.972 182.123 183.195 182.397 187.003L179.107 188.297C178.733 184.265 177.387 178.242 174.67 175.156L177.836 174.11Z" fill="#40322D"/>
<path d="M196.831 177.445H205.755V180.133H196.831V177.445ZM196.856 183.319H205.78V186.032H196.856V183.319ZM196.831 189.218H205.78V191.906H196.831V189.218ZM195.41 171.547H207.176V193.225H204.16V174.359H198.277V193.374H195.41V171.547ZM184.94 175.33H194.537V178.167H184.94V175.33ZM188.555 170.203H191.421V193.573H188.555V170.203ZM188.38 177.246L190.175 177.868C189.352 181.925 187.707 186.704 185.738 189.292C185.464 188.446 184.766 187.227 184.317 186.48C186.112 184.315 187.707 180.432 188.38 177.246ZM191.197 179.436C191.92 180.133 194.363 183.145 194.911 183.817L193.216 186.231C192.493 184.763 190.723 182.05 189.826 180.805L191.197 179.436Z" fill="#40322D"/>
<path d="M228.265 170.153L230.434 172.617C225.298 173.936 218.119 174.558 212.012 174.757C211.937 174.011 211.563 172.791 211.289 172.144C217.297 171.895 224.177 171.248 228.265 170.153ZM211.513 177.221H231.231V180.084H211.513V177.221ZM209.793 183.02H232.702V185.932H209.793V183.02ZM219.715 173.662H222.831V190.014C222.831 191.781 222.382 192.578 221.185 193.026C219.989 193.499 218.169 193.573 215.626 193.548C215.427 192.702 214.854 191.358 214.405 190.587C216.25 190.661 218.343 190.636 218.917 190.636C219.49 190.636 219.715 190.462 219.715 189.964V173.662Z" fill="#40322D"/>
<path d="M234.621 183.941C235.369 183.344 235.968 182.772 236.715 182C237.887 180.805 239.781 178.242 241.352 176.45C243.097 174.459 244.692 174.284 246.512 176.052C248.232 177.694 250.201 180.258 251.672 181.876C253.267 183.618 255.411 185.833 257.779 187.948L255.187 190.935C253.417 189.243 251.298 186.853 249.703 184.987C248.157 183.17 246.288 180.78 245.141 179.461C244.244 178.516 243.77 178.64 243.047 179.536C242.05 180.805 240.305 183.269 239.233 184.688C238.66 185.484 238.086 186.38 237.638 187.028L234.621 183.941Z" fill="#40322D"/>
<path d="M265.657 185.509H268.673V189.566C268.673 190.313 268.897 190.388 270.119 190.388C270.667 190.388 272.961 190.388 273.683 190.388C274.73 190.388 274.905 190.039 275.054 187.55C275.678 187.998 276.949 188.471 277.772 188.645C277.423 192.204 276.575 193.1 273.933 193.1C273.235 193.1 270.418 193.1 269.77 193.1C266.454 193.1 265.657 192.254 265.657 189.591V185.509ZM268.124 184.738L270.094 182.896C271.864 183.767 274.057 185.161 275.129 186.281L272.985 188.322C272.013 187.227 269.894 185.708 268.124 184.738ZM276.799 185.808L279.467 184.713C280.838 186.555 282.259 188.994 282.757 190.761L279.841 191.98C279.417 190.313 278.121 187.749 276.799 185.808ZM262.142 184.862L264.834 185.833C264.261 187.973 263.388 190.487 262.192 192.155L259.524 190.661C260.671 189.168 261.618 186.903 262.142 184.862ZM264.834 178.366V180.507H276.999V178.366H264.834ZM264.834 173.836V175.952H276.999V173.836H264.834ZM262.017 171.248H279.965V183.095H262.017V171.248ZM269.52 172.393H272.437V182.025H269.52V172.393Z" fill="#40322D"/>
<path d="M287.095 180.805C287.842 180.681 288.989 180.382 289.737 180.133C291.457 179.636 295.67 178.192 298.686 178.192C302.65 178.192 305.292 180.532 305.292 184.315C305.292 188.795 301.304 191.881 293.401 192.354L292.08 189.292C297.764 189.143 301.977 187.625 301.977 184.24C301.977 182.398 300.581 181.079 298.387 181.079C295.495 181.079 290.535 183.145 288.391 184.041L287.095 180.805Z" fill="#40322D"/>
<path d="M320.274 171.472C320.099 172.169 319.875 173.289 319.75 173.836C319.401 175.529 318.778 178.565 318.105 181.104C317.208 184.588 315.537 189.666 314.166 192.628L310.701 191.458C312.172 188.944 314.067 183.742 315.014 180.258C315.637 177.918 316.21 175.18 316.385 173.712C316.51 172.791 316.534 171.771 316.46 171.173L320.274 171.472ZM313.917 175.205C316.958 175.205 320.473 174.732 323.714 173.961V177.072C320.623 177.794 316.709 178.217 313.892 178.217C312.671 178.217 311.748 178.167 310.876 178.117L310.776 175.006C312.072 175.156 312.895 175.205 313.917 175.205ZM321.744 179.013C323.14 178.864 324.935 178.764 326.556 178.764C327.976 178.764 329.472 178.839 330.918 178.988L330.868 181.975C329.597 181.826 328.076 181.652 326.58 181.652C324.86 181.652 323.315 181.726 321.744 181.925V179.013ZM323.091 185.26C322.916 185.982 322.766 186.779 322.766 187.326C322.766 188.421 323.489 189.243 326.182 189.243C327.852 189.243 329.572 189.068 331.342 188.745L331.217 191.906C329.821 192.105 328.151 192.254 326.157 192.254C321.944 192.254 319.7 190.836 319.7 188.322C319.7 187.152 319.925 185.957 320.124 184.987L323.091 185.26Z" fill="#40322D"/>
<path d="M340.241 179.909V189.068H337.399V182.672H334.208V179.909H340.241ZM340.241 187.899C341.238 189.566 342.958 190.263 345.526 190.363C348.492 190.512 354.425 190.437 357.865 190.164C357.541 190.836 357.092 192.204 356.943 193.076C353.852 193.225 348.542 193.275 345.476 193.125C342.484 193.001 340.49 192.279 338.995 190.363C337.848 191.333 336.676 192.304 335.255 193.349L333.884 190.388C335.056 189.716 336.452 188.82 337.648 187.899H340.241ZM334.557 172.642L336.626 170.725C338.172 171.771 340.116 173.388 341.014 174.583L338.77 176.724C337.972 175.529 336.103 173.787 334.557 172.642ZM344.653 175.031L346.548 173.438C348.766 174.21 351.907 175.554 353.602 176.524L351.558 178.292C350.038 177.346 346.947 175.927 344.653 175.031ZM342.385 176.45H355.073V178.615H345.202V189.342H342.385V176.45ZM353.677 176.45H356.519V186.754C356.519 187.973 356.319 188.596 355.497 188.994C354.724 189.417 353.627 189.417 352.132 189.417C352.032 188.695 351.708 187.724 351.384 187.077C352.181 187.102 353.054 187.102 353.303 187.102C353.602 187.102 353.677 187.003 353.677 186.729V176.45ZM342.609 171.024H354.5V173.289H342.609V171.024ZM343.955 179.959H354.649V182.025H343.955V179.959ZM343.955 183.444H354.649V185.609H343.955V183.444ZM348.068 177.47H350.736V189.243H348.068V177.47ZM353.428 171.024H354.101L354.699 170.875L356.469 172.318C354.699 173.961 352.231 175.728 349.938 176.823C349.589 176.325 348.866 175.554 348.442 175.156C350.312 174.26 352.481 172.692 353.428 171.547V171.024Z" fill="#40322D"/>
<path d="M367.338 171.348C366.989 172.567 366.465 175.131 366.315 176.524C367.512 174.608 369.706 172.492 372.498 172.492C375.963 172.492 378.655 175.902 378.655 181.378C378.655 188.421 374.342 191.756 367.736 192.976L365.842 190.089C371.401 189.243 375.29 187.401 375.29 181.378C375.29 177.545 373.993 175.404 371.924 175.404C368.983 175.404 366.39 179.835 366.291 183.095C366.241 183.792 366.266 184.588 366.39 185.733L363.324 185.957C363.175 184.987 363.025 183.468 363.025 181.801C363.025 179.461 363.349 176.4 363.723 173.812C363.823 172.891 363.897 171.895 363.922 171.223L367.338 171.348Z" fill="#40322D"/>
<path d="M394.409 173.936C397.475 174.359 402.461 174.235 405.128 173.911V177.122C402.087 177.42 397.55 177.42 394.434 177.122L394.409 173.936ZM396.403 184.564C396.204 185.41 396.104 186.007 396.104 186.654C396.104 187.774 397.077 188.446 399.619 188.446C401.838 188.446 403.682 188.247 405.851 187.774L405.926 191.134C404.306 191.458 402.286 191.632 399.47 191.632C395.182 191.632 393.113 190.089 393.113 187.55C393.113 186.555 393.263 185.584 393.562 184.315L396.403 184.564ZM390.57 172.268C390.396 172.791 390.072 174.06 389.972 174.508C389.623 176.151 388.751 181.129 388.751 183.618C388.751 184.116 388.776 184.738 388.85 185.236C389.224 184.389 389.623 183.543 389.997 182.697L391.543 183.916C390.82 186.007 389.997 188.695 389.748 190.014C389.673 190.388 389.598 190.935 389.598 191.184C389.623 191.458 389.623 191.881 389.648 192.229L386.781 192.404C386.283 190.711 385.809 187.675 385.809 184.29C385.809 180.532 386.557 176.35 386.831 174.409C386.931 173.737 387.056 172.791 387.08 171.995L390.57 172.268Z" fill="#40322D"/>
<path d="M106.442 209.228H119.529V212.091H106.442V209.228ZM104.622 216.596H120.85V219.483H104.622V216.596ZM109.433 218.338L112.699 219.184C111.677 222.444 110.306 226.128 109.159 228.492L106.517 227.696C107.639 225.207 108.835 221.3 109.433 218.338ZM104.423 227.024C107.963 226.825 113.472 226.402 118.532 225.979V228.766C113.746 229.264 108.611 229.737 104.946 230.036L104.423 227.024ZM114.344 222.693L117.012 221.573C118.732 224.062 120.526 227.348 121.15 229.637L118.208 230.907C117.71 228.692 116.039 225.307 114.344 222.693ZM102.927 207.586L105.719 208.482C104.024 212.713 101.282 217.168 98.4403 219.98C98.191 219.284 97.3933 217.641 96.8948 216.919C99.2629 214.679 101.581 211.145 102.927 207.586ZM100.534 214.48L103.351 211.643L103.376 211.668V230.832H100.534V214.48Z" fill="#B96842"/>
<path d="M129.301 208.507C132.093 209.029 136.879 209.552 139.447 209.701L139.048 212.638C136.43 212.414 131.794 211.867 128.802 211.394L129.301 208.507ZM140.344 216.396C139.671 216.844 139.148 217.292 138.699 217.666C137.577 218.636 135.234 220.802 134.636 221.424C134.86 221.424 135.309 221.499 135.608 221.623C136.306 221.822 136.754 222.37 137.103 223.316C137.328 223.963 137.602 224.908 137.801 225.58C138.051 226.352 138.599 226.725 139.571 226.725C141.466 226.725 143.186 226.551 144.457 226.302L144.233 229.563C143.211 229.737 140.643 229.911 139.347 229.911C137.004 229.911 135.707 229.388 135.109 227.796C134.835 227.049 134.561 225.879 134.361 225.257C134.087 224.361 133.564 224.037 133.04 224.037C132.542 224.037 132.018 224.436 131.42 225.058C130.547 225.929 128.678 227.97 126.958 230.135L124.016 228.094C124.465 227.696 125.063 227.173 125.736 226.526C127.033 225.232 132.118 220.18 134.386 217.79C132.641 217.84 129.675 218.089 128.254 218.213C127.382 218.288 126.609 218.412 126.085 218.512L125.811 215.077C126.384 215.127 127.282 215.152 128.179 215.152C129.376 215.127 135.01 214.878 137.103 214.629C137.552 214.58 138.25 214.43 138.499 214.331L140.344 216.396Z" fill="#B96842"/>
<path d="M154.752 208.631C157.121 209.378 162.555 210.348 164.748 210.572L164.001 213.634C161.458 213.285 155.924 212.14 153.98 211.643L154.752 208.631ZM154.927 213.634C154.578 215.028 154.154 218.039 153.98 219.483C156.223 217.84 158.716 217.093 161.333 217.093C165.696 217.093 168.238 219.781 168.238 222.793C168.238 227.348 164.624 230.832 154.279 229.936L153.307 226.676C160.81 227.721 164.748 225.904 164.748 222.718C164.748 221.1 163.228 219.931 161.034 219.931C158.217 219.931 155.7 220.976 154.129 222.868C153.681 223.39 153.406 223.788 153.207 224.286L150.315 223.589C150.814 221.15 151.412 216.272 151.562 213.186L154.927 213.634Z" fill="#B96842"/>
<path d="M195.684 227.372C194.512 228.443 193.017 229.239 190.973 229.239C189.103 229.239 187.857 227.895 187.857 225.481C187.857 222.768 188.754 219.134 188.754 216.844C188.754 215.625 188.131 215.028 187.059 215.028C184.741 215.028 181.026 218.686 179.032 221.225L179.007 217.392C180.528 215.799 184.691 212.066 187.981 212.066C190.674 212.066 191.895 213.659 191.895 215.749C191.895 218.313 191.072 221.972 191.072 224.56C191.072 225.207 191.421 225.655 192.045 225.655C192.967 225.655 194.138 225.008 195.26 223.888L195.684 227.372ZM178.459 215.525C177.337 215.65 174.969 215.948 173.324 216.197L173 212.987C173.698 213.012 174.271 213.012 175.168 212.962C176.739 212.887 179.93 212.414 181.051 212.041L182.048 213.335C181.625 213.908 180.852 215.127 180.428 215.774L178.982 220.453C177.885 222.046 175.667 225.381 174.346 227.198L172.401 224.46C173.972 222.519 176.963 218.587 178.21 216.62L178.259 215.973L178.459 215.525ZM178.16 210.722C178.16 210.025 178.185 209.278 178.035 208.507L181.675 208.606C181.251 210.597 180.428 217.118 180.428 221.573C180.428 223.589 180.428 225.705 180.578 228.02C180.603 228.468 180.702 229.388 180.752 229.936H177.337C177.387 229.364 177.412 228.492 177.412 228.094C177.437 225.68 177.462 224.012 177.537 220.901C177.611 218.686 178.16 211.717 178.16 210.722Z" fill="#B96842"/>
<path d="M201.791 209.726C202.489 209.801 203.337 209.851 204.035 209.851C205.381 209.851 210.691 209.726 212.111 209.602C213.158 209.527 213.732 209.428 214.031 209.328L215.626 211.568C215.053 211.941 214.455 212.29 213.906 212.713C212.56 213.659 209.943 215.849 208.347 217.093C209.195 216.869 209.943 216.82 210.716 216.82C214.953 216.82 218.169 219.458 218.169 223.067C218.169 226.999 215.178 230.11 209.145 230.11C205.68 230.11 203.063 228.542 203.063 226.028C203.063 224.012 204.907 222.171 207.55 222.171C210.965 222.171 212.859 224.46 212.934 227.198L210.018 227.572C209.968 225.78 209.02 224.535 207.55 224.535C206.627 224.535 206.004 225.108 206.004 225.755C206.004 226.676 207.026 227.298 208.547 227.298C212.76 227.298 214.903 225.705 214.903 223.042C214.903 220.777 212.66 219.259 209.743 219.259C205.904 219.259 203.437 221.3 200.769 224.311L198.501 221.972C200.271 220.578 203.287 218.039 204.733 216.82C206.129 215.675 208.746 213.584 209.968 212.489C208.696 212.539 205.256 212.663 203.91 212.763C203.237 212.812 202.464 212.862 201.891 212.962L201.791 209.726Z" fill="#B96842"/>
<path d="M225.897 209.9C226.694 210 227.741 210.075 228.564 210.075C230.134 210.075 235.27 210.075 236.74 210.075C237.588 210.075 238.56 210 239.408 209.9V213.111C238.56 213.061 237.588 213.012 236.74 213.012C235.27 213.012 230.134 213.012 228.589 213.012C227.716 213.012 226.669 213.061 225.897 213.111V209.9ZM223.03 216.247C223.753 216.347 224.625 216.421 225.398 216.421C226.969 216.421 240.255 216.421 241.726 216.421C242.249 216.421 243.346 216.372 244.019 216.247V219.508C243.396 219.458 242.424 219.433 241.726 219.433C240.255 219.433 226.969 219.433 225.398 219.433C224.675 219.433 223.703 219.458 223.03 219.508V216.247ZM235.768 217.989C235.768 221.25 235.195 223.739 234.148 225.829C233.275 227.547 231.356 229.488 229.137 230.608L226.196 228.492C227.966 227.796 229.736 226.377 230.733 224.908C231.979 223.042 232.303 220.677 232.303 218.014L235.768 217.989ZM240.903 208.183C241.526 209.079 242.424 210.672 242.873 211.593L240.878 212.439C240.38 211.419 239.607 209.95 238.934 208.98L240.903 208.183ZM243.845 207.063C244.493 207.984 245.415 209.577 245.864 210.448L243.895 211.294C243.371 210.249 242.573 208.805 241.875 207.86L243.845 207.063Z" fill="#40322D"/>
<path d="M266.529 209.328C267.003 210.299 267.551 211.742 267.825 212.713L266.105 213.285C265.756 212.215 265.333 210.871 264.834 209.851L266.529 209.328ZM269.097 208.532C269.57 209.502 270.144 210.971 270.443 211.916L268.748 212.464C268.374 211.369 267.9 210.05 267.402 209.054L269.097 208.532ZM264.385 218.064C264.385 224.212 262.89 227.995 256.882 230.633L254.19 228.119C259.026 226.452 261.12 224.286 261.12 218.188V211.568C261.12 210.548 261.07 209.726 260.995 209.253H264.535C264.485 209.751 264.385 210.548 264.385 211.568V218.064ZM255.361 209.477C255.312 209.925 255.212 210.722 255.212 211.717V220.628C255.212 221.723 255.287 222.743 255.336 223.216H251.847C251.896 222.743 251.971 221.748 251.971 220.628V211.717C251.971 210.996 251.921 210.224 251.822 209.477H255.361ZM247.16 213.957C247.609 214.032 248.631 214.181 249.877 214.181H266.205C267.526 214.181 268.274 214.132 268.972 214.007V217.317C268.424 217.243 267.526 217.243 266.23 217.243H249.877C248.606 217.243 247.733 217.292 247.16 217.342V213.957Z" fill="#40322D"/>
<path d="M272.636 219.01C277.099 217.865 280.738 216.247 283.53 214.53C286.073 212.962 288.914 210.473 290.535 208.507L293.227 211.045C290.958 213.335 287.917 215.675 284.976 217.442C282.159 219.109 278.121 220.976 274.182 222.146L272.636 219.01ZM283.006 216.148L286.546 215.301V226.526C286.546 227.621 286.596 229.164 286.771 229.787H282.807C282.907 229.189 283.006 227.621 283.006 226.526V216.148Z" fill="#40322D"/>
<path d="M302.026 209.751C303.746 210.921 306.987 213.509 308.458 215.028L305.915 217.616C304.619 216.222 301.478 213.509 299.658 212.265L302.026 209.751ZM298.886 226.327C302.799 225.78 306.015 224.51 308.433 223.092C312.696 220.553 315.936 216.77 317.532 213.41L319.451 216.894C317.581 220.279 314.266 223.714 310.253 226.128C307.71 227.646 304.494 229.015 301.004 229.612L298.886 226.327Z" fill="#40322D"/>
<path d="M333.062 208.706C332.862 209.627 332.538 211.095 331.84 212.887C331.317 214.107 330.594 215.525 329.896 216.521C330.569 216.222 331.89 216.048 332.738 216.048C334.807 216.048 336.377 217.268 336.377 219.582C336.377 220.926 336.452 223.639 336.477 225.207H333.485C333.585 224.037 333.635 221.922 333.61 220.578C333.61 218.985 332.613 218.462 331.566 218.462C330.195 218.462 328.625 219.284 327.677 220.18C326.929 220.926 326.231 221.822 325.384 222.917L322.717 220.926C325.907 217.989 327.827 215.301 328.874 212.564C329.372 211.22 329.696 209.701 329.771 208.432L333.062 208.706ZM323.664 211.02C324.935 211.195 326.78 211.294 328.051 211.294C331.342 211.294 335.854 211.12 339.468 210.473L339.443 213.36C335.928 213.858 330.918 214.082 327.877 214.082C326.855 214.082 325.035 214.032 323.664 213.908V211.02ZM343.407 218.089C342.634 218.313 341.288 218.811 340.44 219.134C338.82 219.756 336.577 220.652 334.233 221.847C331.965 223.017 330.743 224.087 330.743 225.456C330.743 226.825 331.94 227.198 334.358 227.198C336.477 227.198 339.269 226.924 341.462 226.476L341.363 229.687C339.693 229.911 336.651 230.135 334.283 230.135C330.394 230.135 327.478 229.164 327.478 225.954C327.478 222.494 331.043 220.453 334.034 218.96C336.327 217.765 337.898 217.168 339.393 216.471C340.366 216.048 341.238 215.65 342.185 215.177L343.407 218.089Z" fill="#40322D"/>
<path d="M350.686 222.519C352.929 222.519 354.724 224.311 354.724 226.526C354.724 228.766 352.929 230.558 350.686 230.558C348.467 230.558 346.647 228.766 346.647 226.526C346.647 224.311 348.467 222.519 350.686 222.519ZM350.686 228.766C351.932 228.766 352.929 227.771 352.929 226.526C352.929 225.307 351.932 224.311 350.686 224.311C349.464 224.311 348.442 225.307 348.442 226.526C348.442 227.771 349.464 228.766 350.686 228.766Z" fill="#40322D"/>
<path d="M32.7179 304.889C32.7179 296.298 39.6932 289.333 48.2978 289.333H419.1C427.705 289.333 434.68 296.298 434.68 304.889V631.556C434.68 640.147 427.705 647.111 419.1 647.111H48.2978C39.6933 647.111 32.7179 640.147 32.7179 631.556V304.889Z" fill="#F8F6F0"/>
<path d="M92.506 442.937C98.1361 442.937 103.312 440.977 107.409 437.713L115.685 445.974C116.851 444.624 118.116 443.362 119.468 442.198L111.197 433.943C114.484 429.848 116.466 424.664 116.466 419.021C116.466 405.839 105.719 395.111 92.506 395.111C79.2933 395.111 68.5517 405.839 68.5517 419.021C68.5517 432.204 79.2991 442.931 92.506 442.931V442.937ZM92.506 404.245C96.8131 404.245 100.304 407.729 100.304 412.029C100.304 416.328 96.8131 419.812 92.506 419.812C88.1989 419.812 84.7077 416.328 84.7077 412.029C84.7077 407.729 88.1989 404.245 92.506 404.245ZM79.5788 430.482C79.5788 426.573 82.1258 423.274 85.6286 422.052C87.5869 423.396 89.959 424.205 92.506 424.205C95.053 424.205 97.4251 423.396 99.3834 422.052C102.886 423.274 105.404 426.573 105.404 430.482V432.373C102.059 435.596 97.5125 437.591 92.5002 437.591C87.4878 437.591 82.9243 435.59 79.573 432.349V430.482H79.5788Z" fill="#40322D"/>
<path d="M192.601 495.063C186.959 495.063 181.778 497.029 177.681 500.299L169.381 492.014C168.215 493.364 166.951 494.626 165.598 495.79L173.898 504.074C170.622 508.164 168.647 513.342 168.647 518.973C168.647 532.156 179.394 542.883 192.601 542.883C205.808 542.883 216.555 532.156 216.555 518.973C216.555 505.79 205.808 495.063 192.601 495.063ZM192.601 504.202C196.908 504.202 200.399 507.687 200.399 511.986C200.399 516.285 196.908 519.77 192.601 519.77C188.294 519.77 184.803 516.285 184.803 511.986C184.803 507.687 188.294 504.202 192.601 504.202ZM205.505 532.33C202.159 535.553 197.613 537.548 192.601 537.548C187.589 537.548 183.025 535.547 179.674 532.307V530.434C179.674 526.524 182.221 523.226 185.718 522.004C187.676 523.348 190.054 524.156 192.595 524.156C195.136 524.156 197.514 523.348 199.472 522.004C202.975 523.226 205.493 526.524 205.493 530.434V532.324L205.505 532.33Z" fill="#40322D"/>
<path d="M127.796 422.809C129.935 422.809 131.672 421.075 131.672 418.94C131.672 416.805 129.935 415.071 127.796 415.071C125.657 415.071 123.921 416.805 123.921 418.94C123.921 421.075 125.657 422.809 127.796 422.809Z" fill="#40322D"/>
<path d="M157.27 422.809C159.409 422.809 161.146 421.075 161.146 418.94C161.146 416.805 159.409 415.071 157.27 415.071C155.131 415.071 153.394 416.805 153.394 418.94C153.394 421.075 155.131 422.809 157.27 422.809Z" fill="#40322D"/>
<path d="M142.536 422.809C144.675 422.809 146.412 421.075 146.412 418.94C146.412 416.805 144.675 415.071 142.536 415.071C140.397 415.071 138.66 416.805 138.66 418.94C138.66 421.075 140.397 422.809 142.536 422.809Z" fill="#40322D"/>
<path d="M127.796 515.023C125.657 515.023 123.921 516.756 123.921 518.891C123.921 521.026 125.657 522.76 127.796 522.76C129.935 522.76 131.672 521.026 131.672 518.891C131.672 516.756 129.935 515.023 127.796 515.023Z" fill="#40322D"/>
<path d="M157.27 515.023C155.131 515.023 153.394 516.756 153.394 518.891C153.394 521.026 155.131 522.76 157.27 522.76C159.409 522.76 161.146 521.026 161.146 518.891C161.146 516.756 159.409 515.023 157.27 515.023Z" fill="#40322D"/>
<path d="M142.536 515.023C140.397 515.023 138.66 516.756 138.66 518.891C138.66 521.026 140.397 522.76 142.536 522.76C144.675 522.76 146.412 521.026 146.412 518.891C146.412 516.756 144.675 515.023 142.536 515.023Z" fill="#40322D"/>
<path d="M192.601 450.337C190.462 450.337 188.725 452.071 188.725 454.206C188.725 456.341 190.462 458.075 192.601 458.075C194.74 458.075 196.477 456.341 196.477 454.206C196.477 452.071 194.74 450.337 192.601 450.337Z" fill="#40322D"/>
<path d="M192.601 479.757C190.462 479.757 188.725 481.49 188.725 483.625C188.725 485.76 190.462 487.494 192.601 487.494C194.74 487.494 196.477 485.76 196.477 483.625C196.477 481.49 194.74 479.757 192.601 479.757Z" fill="#40322D"/>
<path d="M192.601 465.05C190.462 465.05 188.725 466.784 188.725 468.919C188.725 471.054 190.462 472.787 192.601 472.787C194.74 472.787 196.477 471.054 196.477 468.919C196.477 466.784 194.74 465.05 192.601 465.05Z" fill="#40322D"/>
<path d="M92.465 458.848C94.6056 458.848 96.3408 457.116 96.3408 454.98C96.3408 452.843 94.6056 451.111 92.465 451.111C90.3245 451.111 88.5892 452.843 88.5892 454.98C88.5892 457.116 90.3245 458.848 92.465 458.848Z" fill="#40322D"/>
<path d="M92.465 488.268C94.6056 488.268 96.3408 486.536 96.3408 484.399C96.3408 482.263 94.6056 480.531 92.465 480.531C90.3245 480.531 88.5892 482.263 88.5892 484.399C88.5892 486.536 90.3245 488.268 92.465 488.268Z" fill="#40322D"/>
<path d="M92.465 473.555C94.6056 473.555 96.3408 471.823 96.3408 469.687C96.3408 467.55 94.6056 465.818 92.465 465.818C90.3245 465.818 88.5892 467.55 88.5892 469.687C88.5892 471.823 90.3245 473.555 92.465 473.555Z" fill="#40322D"/>
<path d="M169.381 445.974L177.675 437.696C181.772 440.965 186.959 442.937 192.601 442.937C205.808 442.937 216.555 432.21 216.555 419.027C216.555 405.845 205.814 395.111 192.601 395.111C179.388 395.111 168.647 405.839 168.647 419.021C168.647 424.653 170.617 429.825 173.892 433.914L165.598 442.193C166.951 443.356 168.215 444.619 169.381 445.968V445.974ZM192.601 404.245C196.908 404.245 200.399 407.729 200.399 412.029C200.399 416.328 196.908 419.812 192.601 419.812C188.294 419.812 184.803 416.328 184.803 412.029C184.803 407.729 188.294 404.245 192.601 404.245ZM179.68 430.482C179.68 426.573 182.227 423.274 185.724 422.052C187.682 423.396 190.06 424.205 192.601 424.205C195.142 424.205 197.52 423.396 199.478 422.052C202.981 423.274 205.499 426.573 205.499 430.482V432.373C202.154 435.596 197.607 437.591 192.595 437.591C187.583 437.591 183.019 435.59 179.668 432.349V430.476L179.68 430.482Z" fill="#40322D"/>
<path d="M115.685 492.02L107.409 500.281C103.317 497.023 98.1418 495.063 92.5117 495.063C79.3048 495.063 68.5574 505.79 68.5574 518.973C68.5574 532.155 79.3048 542.883 92.5117 542.883C105.719 542.883 116.466 532.155 116.466 518.973C116.466 513.33 114.484 508.146 111.197 504.051L119.468 495.796C118.115 494.632 116.851 493.37 115.685 492.02ZM92.5059 504.202C96.813 504.202 100.304 507.687 100.304 511.986C100.304 516.285 96.813 519.77 92.5059 519.77C88.1988 519.77 84.7076 516.285 84.7076 511.986C84.7076 507.687 88.1988 504.202 92.5059 504.202ZM105.41 532.33C102.064 535.553 97.5182 537.548 92.5059 537.548C87.4935 537.548 82.93 535.547 79.5787 532.307V530.439C79.5787 526.53 82.1257 523.231 85.6285 522.01C87.5868 523.353 89.9589 524.162 92.5059 524.162C95.0528 524.162 97.4249 523.353 99.3833 522.01C102.886 523.231 105.404 526.53 105.404 530.439V532.33H105.41Z" fill="#40322D"/>
<path d="M149.92 454.933C148.469 446.137 145.485 439.307 142.816 438.696L142.489 438.673L142.163 438.702C139.534 439.336 136.579 446.166 135.14 454.933L134.878 456.539H150.188L149.926 454.933H149.92Z" fill="#40322D"/>
<path d="M155.242 455.358L155.416 456.539H170.343L169.224 454.497C165.837 448.313 160.353 443.461 153.779 440.837L150.754 439.627L151.984 442.641C153.417 446.149 154.513 450.43 155.242 455.358Z" fill="#40322D"/>
<path d="M155.947 476.243H172.062L172.289 475.137C172.709 473.119 172.919 471.054 172.919 468.988C172.919 466.923 172.709 464.858 172.289 462.839L172.062 461.734H155.947L156.034 463.194C156.151 465.12 156.215 467.057 156.215 468.982C156.215 470.908 156.151 472.84 156.034 474.771L155.947 476.231V476.243Z" fill="#40322D"/>
<path d="M150.999 468.994C150.999 466.888 150.929 464.922 150.812 463.043L150.731 461.746H134.324L134.248 463.043C134.132 464.922 134.062 466.888 134.062 468.994C134.062 471.1 134.137 473.072 134.248 474.946L134.324 476.243H150.731L150.812 474.946C150.929 473.067 150.999 471.1 150.999 468.994Z" fill="#40322D"/>
<path d="M129.119 461.739H113.004L112.777 462.845C112.357 464.864 112.147 466.929 112.147 468.994C112.147 471.059 112.357 473.124 112.777 475.143L113.004 476.248H129.119L129.032 474.788C128.921 472.863 128.851 470.925 128.851 469C128.851 467.074 128.915 465.143 129.032 463.211L129.119 461.751V461.739Z" fill="#40322D"/>
<path d="M129.824 482.625L129.65 481.444H114.723L115.842 483.486C119.229 489.67 124.713 494.522 131.287 497.145L134.318 498.355L133.082 495.342C131.649 491.834 130.553 487.552 129.824 482.625Z" fill="#40322D"/>
<path d="M170.337 481.444H155.411L155.236 482.625C154.507 487.552 153.412 491.834 151.978 495.342L150.748 498.355L153.773 497.145C160.347 494.522 165.832 489.67 169.218 483.486L170.337 481.444Z" fill="#40322D"/>
<path d="M114.729 456.539H129.656L129.83 455.358C130.559 450.425 131.655 446.149 133.088 442.641L134.318 439.627L131.293 440.837C124.719 443.461 119.235 448.313 115.848 454.497L114.729 456.539Z" fill="#40322D"/>
<path d="M135.146 483.049C136.597 491.84 139.581 498.669 142.244 499.286L142.448 499.333L142.897 499.286C145.526 498.652 148.481 491.822 149.926 483.049L150.188 481.444H134.878L135.14 483.049H135.146Z" fill="#40322D"/>
<path d="M386.398 489.444C382.857 481.15 370.098 482.332 365.162 483.877C362.966 484.56 361.539 485.747 359.937 487.395C358.139 489.244 345.265 502.466 345.265 502.466L329.373 508.472C325.51 509.931 323.57 514.229 325.036 518.073C326.169 521.044 329.013 522.876 332.031 522.876C332.914 522.876 333.813 522.719 334.685 522.388L352.14 515.791C353.165 515.4 354.096 514.793 354.859 514.007L356.129 512.701C356.297 521.542 357.55 536.667 357.659 537.426C357.845 538.733 358.439 539.627 360.073 539.627H387.02C388.441 539.627 389.362 538.538 389.373 537.123C389.509 520.903 390.141 498.221 386.398 489.455V489.444Z" fill="#40322D"/>
<path d="M370.839 478.976C379.866 478.976 387.183 471.696 387.183 462.708C387.183 453.72 379.866 446.444 370.839 446.444C361.811 446.444 354.494 453.73 354.494 462.708C354.494 471.685 361.811 478.976 370.839 478.976Z" fill="#40322D"/>
<path d="M315.453 493.661C313.578 489.996 309.067 488.543 305.39 490.414L291.405 497.515C291.405 497.515 283.668 492.181 281.167 490.365C279.598 489.226 274.995 485.567 270.5 484.033C265.602 482.363 252.804 481.306 249.263 489.601C245.52 498.372 246.152 521.054 246.288 537.273C246.299 538.694 247.22 539.778 248.642 539.778H275.589C277.223 539.778 277.817 538.884 278.002 537.577C278.122 536.737 279.636 518.381 279.549 510.309C279.538 509.453 279.549 508.498 279.566 507.506L286.675 512.299C287.934 513.15 289.4 513.578 290.871 513.578C292.031 513.578 293.197 513.307 294.27 512.765L312.184 503.668C315.867 501.798 317.327 497.315 315.447 493.656L315.453 493.661Z" fill="#40322D"/>
<path d="M264.823 479.132C273.85 479.132 281.167 471.852 281.167 462.864C281.167 453.876 273.85 446.601 264.823 446.601C255.795 446.601 248.478 453.886 248.478 462.864C248.478 471.841 255.795 479.132 264.823 479.132Z" fill="#40322D"/>
<path d="M318.384 395.539C304.763 397.708 293.834 408.685 291.677 422.243C290.413 430.174 292.107 437.612 295.752 443.781L289.356 457.67C288.185 460.207 290.816 462.826 293.371 461.665L307.324 455.296C313.535 458.933 321.042 460.619 329.024 459.345C342.655 457.171 353.677 446.259 355.818 432.69C359.289 410.702 340.481 392.021 318.384 395.539ZM338.809 430.765L324.954 444.551C324.3 445.202 323.238 445.202 322.584 444.551L308.969 431.004C306.164 428.212 305.123 423.881 306.932 420.362C309.966 414.47 317.398 413.651 321.664 417.89L323.767 419.988L325.63 418.134C328.436 415.342 332.789 414.307 336.319 416.107C342.241 419.126 343.069 426.515 338.803 430.765H338.809Z" fill="#40322D"/>
</svg>
