<svg width="400" height="600" viewBox="0 0 400 600" fill="none" xmlns="http://www.w3.org/2000/svg">
<path d="M0 13.3333C0 5.96954 5.96954 0 13.3333 0H386.667C394.03 0 400 5.96954 400 13.3333V586.667C400 594.03 394.03 600 386.667 600H13.3333C5.96955 600 0 594.03 0 586.667V13.3333Z" fill="#E2DBD3"/>
<path d="M21.3333 37.3333H380V240H21.3333V37.3333Z" fill="#F8F6F0"/>
<path d="M240.199 102.376L248.52 94.0544C250.169 92.4007 250.169 89.7253 248.52 88.0769C246.872 86.4285 244.196 86.4232 242.542 88.0769L234.221 96.398C232.572 98.0517 232.572 100.727 234.221 102.376C235.869 104.024 238.545 104.024 240.199 102.376Z" fill="#40322D"/>
<path d="M243.022 115.642C243.243 116.184 243.559 116.658 243.949 117.048C245.113 118.212 246.903 118.633 248.525 117.98L259.438 113.567C261.603 112.693 262.645 110.228 261.771 108.063C260.897 105.899 258.432 104.851 256.267 105.73L245.355 110.138C243.19 111.013 242.147 113.477 243.022 115.642Z" fill="#40322D"/>
<path d="M220.896 93.5172C223.061 94.3915 225.52 93.3434 226.4 91.1789L230.808 80.2666C231.677 78.1021 230.64 75.6426 228.475 74.7684C226.31 73.8941 223.851 74.9369 222.971 77.1015L218.563 88.0137C217.91 89.6358 218.331 91.4264 219.495 92.5903C219.885 92.98 220.354 93.296 220.901 93.5172H220.896Z" fill="#40322D"/>
<path d="M175.429 108.148C176.234 108.132 177.124 107.647 178.094 106.678L179.51 105.262C180.427 104.35 180.927 103.518 181.011 102.781C181.096 102.044 180.79 101.322 180.09 100.622L178.167 98.6995L171.457 105.409L173.016 106.968C173.812 107.763 174.617 108.158 175.429 108.148Z" fill="#40322D"/>
<path d="M198.723 146.672L209.636 131.915L194.879 142.828L198.723 146.672Z" fill="#40322D"/>
<path d="M169.609 110.812L167.834 109.038L160.039 116.837L162.325 119.123C163.025 119.824 163.736 120.15 164.447 120.118C165.164 120.082 165.98 119.602 166.896 118.686L169.108 116.474C170.272 115.31 170.878 114.309 170.926 113.462C170.973 112.619 170.541 111.734 169.619 110.818L169.609 110.812Z" fill="#40322D"/>
<path d="M189.712 124.611C190.523 124.595 191.413 124.105 192.377 123.141L194.884 120.635C195.8 119.718 196.301 118.891 196.385 118.154C196.469 117.417 196.164 116.695 195.463 115.995L193.541 114.072L185.741 121.872L187.3 123.431C188.095 124.226 188.901 124.621 189.712 124.611Z" fill="#40322D"/>
<path d="M267.001 153.545L186.768 73.3199C184.034 70.5813 180.263 69.1383 176.397 69.3542L137.503 71.5398C135.006 71.682 133.01 73.6728 132.868 76.1691L130.687 115.062C130.472 118.928 131.909 122.704 134.648 125.437L214.876 205.668C219.764 210.555 227.695 210.555 232.583 205.668L266.995 171.256C271.888 166.369 271.883 158.437 266.995 153.55L267.001 153.545ZM146.856 95.2287C144.176 92.548 144.176 88.2031 146.856 85.5225C149.537 82.8418 153.877 82.8471 156.558 85.5225C159.238 88.2031 159.238 92.5427 156.558 95.2234C153.877 97.9041 149.532 97.9041 146.851 95.2234L146.856 95.2287ZM158.691 122.741L152.418 116.469L177.798 91.0892L183.818 97.1088C185.872 99.1628 186.899 101.138 186.883 103.034C186.873 104.93 185.872 106.873 183.892 108.853L182.986 109.759C181.68 111.065 180.395 111.929 179.126 112.35C177.856 112.771 176.582 112.756 175.302 112.292C176.508 115.057 175.686 117.859 172.837 120.708L170.767 122.778C168.813 124.732 166.801 125.717 164.747 125.711C162.693 125.711 160.671 124.721 158.691 122.741ZM180.195 144.239L176.134 140.178C176.397 139.625 176.692 139.141 177.008 138.725C177.319 138.314 177.951 137.635 178.894 136.692L182.881 132.705C184.045 131.541 184.661 130.509 184.75 129.609C184.84 128.703 184.419 127.792 183.502 126.87L182.122 125.49L171.789 135.823L167.797 131.831L193.177 106.452L199.197 112.471C201.251 114.525 202.278 116.5 202.262 118.396C202.252 120.297 201.251 122.235 199.271 124.221L197.275 126.217C194.662 128.829 192.076 129.672 189.511 128.755C190.07 130.083 190.096 131.41 189.606 132.726C189.111 134.043 188.158 135.402 186.762 136.803L182.844 140.721C182.122 141.442 181.559 142.059 181.158 142.554C180.763 143.049 180.442 143.607 180.2 144.239H180.195ZM191.908 155.952L195.826 150.659L190.933 145.766L185.64 149.685L181.98 146.024L211.426 124.7L217.262 130.535L195.942 159.975L191.918 155.952H191.908ZM206.955 170.998L220.369 147.646L201.983 166.032L198.396 162.445L223.777 137.066L228.78 142.069L217.683 161.36L232.878 146.166L236.433 149.721L211.052 175.101L206.955 171.003V170.998ZM245.934 171.762L233.099 184.596C231.045 186.65 228.986 187.714 226.932 187.788C224.878 187.862 222.86 186.908 220.875 184.923L214.565 178.614L239.946 153.234L246.255 159.543C248.241 161.524 249.194 163.541 249.12 165.595C249.047 167.649 247.983 169.703 245.923 171.762H245.934Z" fill="#40322D"/>
<path d="M240.315 160.85L222.181 178.982L224.43 181.231C225.083 181.884 225.778 182.19 226.516 182.153C227.248 182.116 228.059 181.663 228.928 180.794L242.126 167.596C243.001 166.722 243.448 165.921 243.485 165.179C243.522 164.447 243.211 163.746 242.563 163.099L240.315 160.85Z" fill="#40322D"/>
<path d="M238.019 277.387C238.403 277.387 238.741 277.333 239.033 277.227C239.324 277.12 239.57 276.971 239.769 276.779C239.968 276.587 240.117 276.359 240.217 276.096C240.316 275.826 240.366 275.531 240.366 275.211C240.366 274.549 240.163 274.023 239.758 273.632C239.36 273.241 238.78 273.045 238.019 273.045C237.251 273.045 236.665 273.241 236.259 273.632C235.861 274.023 235.662 274.549 235.662 275.211C235.662 275.531 235.712 275.826 235.811 276.096C235.918 276.359 236.071 276.587 236.27 276.779C236.469 276.971 236.714 277.12 237.006 277.227C237.298 277.333 237.635 277.387 238.019 277.387ZM241.443 283.253C241.443 282.99 241.369 282.777 241.219 282.613C241.07 282.45 240.867 282.322 240.611 282.229C240.362 282.137 240.071 282.073 239.737 282.037C239.402 281.995 239.047 281.963 238.67 281.941C238.3 281.92 237.923 281.899 237.539 281.877C237.155 281.856 236.786 281.82 236.43 281.771C236.032 281.956 235.705 282.19 235.449 282.475C235.2 282.752 235.075 283.079 235.075 283.456C235.075 283.698 235.136 283.922 235.257 284.128C235.385 284.341 235.577 284.523 235.833 284.672C236.089 284.828 236.409 284.949 236.793 285.035C237.184 285.127 237.642 285.173 238.169 285.173C238.681 285.173 239.139 285.127 239.545 285.035C239.95 284.942 240.291 284.811 240.569 284.64C240.853 284.469 241.07 284.267 241.219 284.032C241.369 283.797 241.443 283.538 241.443 283.253ZM243.374 272.288V272.992C243.374 273.227 243.225 273.376 242.926 273.44L241.699 273.6C241.941 274.069 242.062 274.588 242.062 275.157C242.062 275.684 241.959 276.164 241.753 276.597C241.554 277.024 241.276 277.39 240.921 277.696C240.565 278.002 240.138 278.236 239.641 278.4C239.143 278.564 238.602 278.645 238.019 278.645C237.514 278.645 237.038 278.585 236.59 278.464C236.362 278.606 236.188 278.759 236.067 278.923C235.946 279.079 235.886 279.239 235.886 279.403C235.886 279.659 235.989 279.854 236.195 279.989C236.409 280.117 236.686 280.21 237.027 280.267C237.369 280.324 237.756 280.359 238.19 280.373C238.631 280.388 239.079 280.412 239.534 280.448C239.996 280.476 240.444 280.53 240.878 280.608C241.319 280.686 241.71 280.814 242.051 280.992C242.393 281.17 242.666 281.415 242.873 281.728C243.086 282.041 243.193 282.446 243.193 282.944C243.193 283.406 243.075 283.854 242.841 284.288C242.613 284.722 242.282 285.106 241.849 285.44C241.415 285.781 240.882 286.052 240.249 286.251C239.623 286.457 238.915 286.56 238.126 286.56C237.337 286.56 236.647 286.482 236.057 286.325C235.466 286.169 234.976 285.959 234.585 285.696C234.194 285.433 233.898 285.127 233.699 284.779C233.507 284.437 233.411 284.078 233.411 283.701C233.411 283.168 233.578 282.716 233.913 282.347C234.247 281.977 234.706 281.682 235.289 281.461C234.969 281.319 234.713 281.131 234.521 280.896C234.336 280.654 234.243 280.331 234.243 279.925C234.243 279.769 234.272 279.609 234.329 279.445C234.386 279.275 234.471 279.108 234.585 278.944C234.706 278.773 234.851 278.613 235.022 278.464C235.193 278.315 235.392 278.183 235.619 278.069C235.086 277.771 234.67 277.376 234.371 276.885C234.073 276.388 233.923 275.812 233.923 275.157C233.923 274.631 234.023 274.155 234.222 273.728C234.428 273.294 234.713 272.928 235.075 272.629C235.438 272.324 235.868 272.089 236.366 271.925C236.871 271.762 237.422 271.68 238.019 271.68C238.489 271.68 238.926 271.733 239.331 271.84C239.737 271.94 240.106 272.089 240.441 272.288H243.374Z" fill="#40322D"/>
<path d="M224.15 273.429C224.385 273.166 224.634 272.928 224.897 272.715C225.16 272.501 225.437 272.32 225.729 272.171C226.027 272.014 226.34 271.897 226.667 271.819C227.002 271.733 227.361 271.691 227.745 271.691C228.335 271.691 228.854 271.79 229.302 271.989C229.757 272.181 230.134 272.459 230.433 272.821C230.739 273.177 230.97 273.607 231.126 274.112C231.283 274.617 231.361 275.175 231.361 275.787V282.667H229.452V275.787C229.452 274.969 229.263 274.336 228.886 273.888C228.516 273.433 227.951 273.205 227.19 273.205C226.628 273.205 226.102 273.34 225.611 273.611C225.128 273.881 224.68 274.247 224.268 274.709V282.667H222.358V271.861H223.499C223.77 271.861 223.937 271.993 224.001 272.256L224.15 273.429Z" fill="#40322D"/>
<path d="M219.238 271.861V282.667H217.34V271.861H219.238ZM219.644 268.469C219.644 268.654 219.605 268.828 219.526 268.992C219.455 269.148 219.356 269.291 219.228 269.419C219.107 269.54 218.961 269.636 218.79 269.707C218.627 269.778 218.453 269.813 218.268 269.813C218.083 269.813 217.909 269.778 217.745 269.707C217.589 269.636 217.45 269.54 217.329 269.419C217.208 269.291 217.112 269.148 217.041 268.992C216.97 268.828 216.934 268.654 216.934 268.469C216.934 268.284 216.97 268.11 217.041 267.947C217.112 267.776 217.208 267.63 217.329 267.509C217.45 267.381 217.589 267.282 217.745 267.211C217.909 267.14 218.083 267.104 218.268 267.104C218.453 267.104 218.627 267.14 218.79 267.211C218.961 267.282 219.107 267.381 219.228 267.509C219.356 267.63 219.455 267.776 219.526 267.947C219.605 268.11 219.644 268.284 219.644 268.469Z" fill="#40322D"/>
<path d="M212.336 274.432C211.98 273.956 211.596 273.625 211.184 273.44C210.771 273.248 210.309 273.152 209.797 273.152C208.794 273.152 208.023 273.511 207.482 274.229C206.942 274.948 206.672 275.972 206.672 277.301C206.672 278.005 206.732 278.61 206.853 279.115C206.974 279.612 207.152 280.025 207.386 280.352C207.621 280.672 207.909 280.907 208.25 281.056C208.592 281.205 208.979 281.28 209.413 281.28C210.039 281.28 210.583 281.138 211.045 280.853C211.514 280.569 211.945 280.167 212.336 279.648V274.432ZM214.234 266.955V282.667H213.104C212.833 282.667 212.663 282.535 212.592 282.272L212.421 280.96C211.959 281.515 211.433 281.963 210.842 282.304C210.252 282.645 209.569 282.816 208.794 282.816C208.176 282.816 207.614 282.699 207.109 282.464C206.604 282.222 206.174 281.87 205.818 281.408C205.463 280.946 205.189 280.37 204.997 279.68C204.805 278.99 204.709 278.197 204.709 277.301C204.709 276.505 204.816 275.765 205.029 275.083C205.242 274.393 205.548 273.796 205.946 273.291C206.345 272.786 206.832 272.391 207.408 272.107C207.991 271.815 208.645 271.669 209.37 271.669C210.032 271.669 210.597 271.783 211.066 272.011C211.543 272.231 211.966 272.54 212.336 272.939V266.955H214.234Z" fill="#40322D"/>
<path d="M195.192 273.429C195.427 273.166 195.675 272.928 195.939 272.715C196.202 272.501 196.479 272.32 196.771 272.171C197.069 272.014 197.382 271.897 197.709 271.819C198.043 271.733 198.403 271.691 198.787 271.691C199.377 271.691 199.896 271.79 200.344 271.989C200.799 272.181 201.176 272.459 201.475 272.821C201.78 273.177 202.011 273.607 202.168 274.112C202.324 274.617 202.403 275.175 202.403 275.787V282.667H200.493V275.787C200.493 274.969 200.305 274.336 199.928 273.888C199.558 273.433 198.993 273.205 198.232 273.205C197.67 273.205 197.144 273.34 196.653 273.611C196.17 273.881 195.722 274.247 195.309 274.709V282.667H193.4V271.861H194.541C194.811 271.861 194.979 271.993 195.043 272.256L195.192 273.429Z" fill="#40322D"/>
<path d="M188.652 277.803C187.777 277.831 187.03 277.902 186.412 278.016C185.8 278.123 185.299 278.265 184.908 278.443C184.524 278.62 184.243 278.83 184.065 279.072C183.894 279.314 183.809 279.584 183.809 279.883C183.809 280.167 183.855 280.412 183.948 280.619C184.04 280.825 184.165 280.996 184.321 281.131C184.485 281.259 184.673 281.355 184.886 281.419C185.107 281.476 185.341 281.504 185.59 281.504C185.925 281.504 186.23 281.472 186.508 281.408C186.785 281.337 187.045 281.237 187.286 281.109C187.535 280.981 187.77 280.828 187.99 280.651C188.218 280.473 188.438 280.27 188.652 280.043V277.803ZM182.518 273.387C183.116 272.811 183.759 272.38 184.449 272.096C185.139 271.812 185.903 271.669 186.742 271.669C187.347 271.669 187.884 271.769 188.353 271.968C188.822 272.167 189.217 272.444 189.537 272.8C189.857 273.156 190.099 273.586 190.262 274.091C190.426 274.596 190.508 275.15 190.508 275.755V282.667H189.665C189.48 282.667 189.338 282.638 189.238 282.581C189.139 282.517 189.061 282.396 189.004 282.219L188.79 281.195C188.506 281.458 188.229 281.692 187.958 281.899C187.688 282.098 187.404 282.268 187.105 282.411C186.806 282.546 186.486 282.649 186.145 282.72C185.811 282.798 185.437 282.837 185.025 282.837C184.605 282.837 184.211 282.78 183.841 282.667C183.471 282.546 183.148 282.368 182.87 282.133C182.6 281.899 182.383 281.604 182.22 281.248C182.063 280.885 181.985 280.459 181.985 279.968C181.985 279.541 182.102 279.132 182.337 278.741C182.572 278.343 182.952 277.991 183.478 277.685C184.005 277.38 184.691 277.131 185.537 276.939C186.383 276.74 187.421 276.626 188.652 276.597V275.755C188.652 274.916 188.47 274.283 188.108 273.856C187.745 273.422 187.215 273.205 186.518 273.205C186.049 273.205 185.654 273.266 185.334 273.387C185.021 273.5 184.748 273.632 184.513 273.781C184.285 273.924 184.086 274.055 183.916 274.176C183.752 274.29 183.589 274.347 183.425 274.347C183.297 274.347 183.187 274.315 183.094 274.251C183.002 274.18 182.924 274.094 182.86 273.995L182.518 273.387Z" fill="#40322D"/>
<path d="M176.994 274.027C177.335 273.287 177.755 272.711 178.253 272.299C178.751 271.879 179.359 271.669 180.077 271.669C180.304 271.669 180.521 271.694 180.728 271.744C180.941 271.794 181.129 271.872 181.293 271.979L181.154 273.397C181.112 273.575 181.005 273.664 180.834 273.664C180.735 273.664 180.589 273.643 180.397 273.6C180.205 273.557 179.988 273.536 179.746 273.536C179.405 273.536 179.099 273.586 178.829 273.685C178.566 273.785 178.327 273.934 178.114 274.133C177.908 274.325 177.72 274.567 177.549 274.859C177.385 275.143 177.236 275.47 177.101 275.84V282.667H175.191V271.861H176.28C176.486 271.861 176.628 271.9 176.706 271.979C176.784 272.057 176.838 272.192 176.866 272.384L176.994 274.027Z" fill="#40322D"/>
<path d="M167.442 281.024C168.033 281.024 168.541 280.956 168.968 280.821C169.394 280.686 169.743 280.498 170.013 280.256C170.29 280.007 170.493 279.716 170.621 279.381C170.749 279.04 170.813 278.667 170.813 278.261C170.813 277.472 170.532 276.85 169.97 276.395C169.409 275.932 168.566 275.701 167.442 275.701H164.136V281.024H167.442ZM164.136 269.013V274.229H166.866C167.449 274.229 167.954 274.165 168.381 274.037C168.815 273.909 169.17 273.732 169.448 273.504C169.732 273.276 169.942 273.003 170.077 272.683C170.212 272.356 170.28 272 170.28 271.616C170.28 270.713 170.009 270.055 169.469 269.643C168.929 269.223 168.089 269.013 166.952 269.013H164.136ZM166.952 267.381C167.89 267.381 168.697 267.474 169.373 267.659C170.056 267.844 170.614 268.107 171.048 268.448C171.489 268.789 171.812 269.209 172.018 269.707C172.225 270.197 172.328 270.752 172.328 271.371C172.328 271.748 172.267 272.11 172.146 272.459C172.033 272.8 171.858 273.12 171.624 273.419C171.389 273.717 171.09 273.988 170.728 274.229C170.372 274.464 169.953 274.656 169.469 274.805C170.593 275.019 171.435 275.42 171.997 276.011C172.566 276.594 172.85 277.362 172.85 278.315C172.85 278.962 172.729 279.552 172.488 280.085C172.253 280.619 171.905 281.077 171.442 281.461C170.987 281.845 170.425 282.144 169.757 282.357C169.089 282.564 168.328 282.667 167.474 282.667H162.077V267.381H166.952Z" fill="#40322D"/>
<path d="M56.1067 307.605C56.6187 308.352 57.3867 309.611 57.8133 310.421L56.6187 310.955C56.192 310.08 55.4667 308.864 54.9333 308.096L56.1067 307.605ZM58.8587 307.072C59.3707 307.797 60.16 309.056 60.608 309.888L59.4133 310.4C58.944 309.525 58.2613 308.288 57.6853 307.563L58.8587 307.072ZM58.0267 311.445C57.8987 311.744 57.792 312.107 57.7067 312.512C57.2587 314.752 56.2133 318.208 54.528 320.384C52.5867 322.901 50.048 324.864 46.144 326.101L44.6933 324.501C48.8107 323.456 51.2213 321.643 52.992 319.36C54.5067 317.44 55.5093 314.453 55.7867 312.405C54.5707 312.405 46.1013 312.405 44.8853 312.405C44.032 312.405 43.3067 312.448 42.752 312.491V310.592C43.3493 310.656 44.1813 310.741 44.8853 310.741C46.1013 310.741 54.6133 310.741 55.5947 310.741C55.9147 310.741 56.3413 310.72 56.7253 310.613L58.0267 311.445Z" fill="#40322D"/>
<path d="M66.2613 309.461C66.816 309.525 67.4773 309.568 68.16 309.568C69.312 309.568 75.3067 309.568 76.5653 309.568C77.2267 309.568 77.9733 309.525 78.4853 309.461V311.232C77.9947 311.189 77.248 311.168 76.5227 311.168C75.328 311.168 69.3333 311.168 68.16 311.168C67.52 311.168 66.8373 311.189 66.2613 311.232V309.461ZM80.064 315.072C79.9573 315.285 79.808 315.541 79.7653 315.712C79.2107 317.803 78.2507 320.021 76.6507 321.771C74.432 324.224 71.744 325.461 69.0347 326.229L67.712 324.715C70.72 324.096 73.3867 322.709 75.2213 320.789C76.5013 319.445 77.3547 317.632 77.7387 316.075C76.6933 316.075 67.712 316.075 66.432 316.075C65.92 316.075 65.1093 316.096 64.3413 316.16V314.368C65.1093 314.432 65.8347 314.496 66.432 314.496C67.4773 314.496 76.5653 314.496 77.6533 314.496C78.144 314.496 78.6133 314.432 78.848 314.325L80.064 315.072Z" fill="#40322D"/>
<path d="M87.5093 309.717C89.0027 310.72 91.7547 312.939 92.928 314.112L91.6053 315.477C90.5173 314.368 87.872 312.064 86.272 311.019L87.5093 309.717ZM85.6747 324.011C89.3867 323.456 92.16 322.155 94.1867 320.896C97.4933 318.827 100.075 315.669 101.312 313.024L102.336 314.859C100.885 317.504 98.4107 320.405 95.1893 322.432C93.0347 323.776 90.3467 325.099 86.784 325.76L85.6747 324.011Z" fill="#40322D"/>
<path d="M117.995 309.995C118.528 310.763 119.445 312.192 119.936 313.216L118.72 313.771C118.187 312.64 117.504 311.467 116.8 310.507L117.995 309.995ZM120.555 308.928C121.131 309.675 122.069 311.083 122.56 312.085L121.365 312.683C120.811 311.552 120.107 310.421 119.403 309.483L120.555 308.928ZM110.507 323.733C110.507 322.56 110.507 313.131 110.507 311.339C110.507 310.72 110.443 309.781 110.336 309.12H112.427C112.363 309.76 112.277 310.699 112.277 311.339C112.277 314.667 112.299 322.731 112.299 323.733C112.299 324.416 112.341 325.568 112.427 326.272H110.357C110.464 325.589 110.507 324.544 110.507 323.733ZM111.893 314.709C114.731 315.52 119.019 317.163 121.387 318.336L120.64 320.128C118.208 318.827 114.219 317.312 111.893 316.587V314.709Z" fill="#40322D"/>
<path d="M135.04 310.933C137.365 311.339 141.696 311.253 143.808 310.933V312.661C141.525 312.917 137.387 312.917 135.061 312.661L135.04 310.933ZM135.872 319.637C135.68 320.405 135.573 321.003 135.573 321.579C135.573 322.56 136.256 323.52 139.179 323.52C141.077 323.52 142.741 323.349 144.448 322.944L144.491 324.736C143.168 325.013 141.376 325.184 139.157 325.184C135.595 325.184 133.995 323.989 133.995 321.984C133.995 321.28 134.101 320.512 134.336 319.488L135.872 319.637ZM130.987 309.291C130.859 309.653 130.688 310.336 130.603 310.72C130.197 312.704 129.536 316.501 129.536 318.912C129.536 319.936 129.6 320.832 129.728 321.877C130.091 320.917 130.581 319.637 130.944 318.763L131.84 319.467C131.307 320.981 130.517 323.221 130.325 324.245C130.261 324.544 130.219 324.949 130.219 325.205C130.24 325.419 130.261 325.717 130.283 325.952L128.768 326.059C128.341 324.544 127.979 322.091 127.979 319.189C127.979 316.053 128.683 312.405 128.939 310.635C129.003 310.144 129.067 309.611 129.088 309.141L130.987 309.291Z" fill="#40322D"/>
<path d="M152.085 317.696H162.539V318.891H152.085V317.696ZM151.744 320.576H162.88V321.813H151.744V320.576ZM156.395 318.272H157.867V320.384C157.867 322.261 157.248 324.565 152.491 326.059C152.277 325.739 151.851 325.248 151.552 324.992C155.947 323.776 156.395 321.749 156.395 320.363V318.272ZM157.845 321.088C158.613 322.987 160.363 324.309 162.88 324.821C162.56 325.099 162.176 325.632 161.984 325.995C159.317 325.291 157.483 323.691 156.608 321.365L157.845 321.088ZM153.429 315.947L154.688 315.541C155.2 316.203 155.691 317.099 155.861 317.696L154.539 318.144C154.368 317.504 153.92 316.608 153.429 315.947ZM159.659 315.499L161.109 315.968C160.597 316.8 160.064 317.653 159.616 318.251L158.549 317.824C158.933 317.163 159.424 316.16 159.659 315.499ZM149.376 311.211H155.371V312.299H149.376V311.211ZM159.168 311.211H165.227V312.299H159.168V311.211ZM164.629 308.331H166.208V325.141C166.208 326.016 166.016 326.485 165.44 326.763C164.907 327.019 163.989 327.04 162.624 327.04C162.581 326.635 162.368 325.931 162.155 325.504C163.093 325.547 163.989 325.547 164.267 325.525C164.523 325.525 164.629 325.419 164.629 325.12V308.331ZM149.504 308.331H156.352V315.264H149.504V314.069H154.837V309.525H149.504V308.331ZM165.397 308.331V309.525H159.765V314.091H165.397V315.285H158.229V308.331H165.397ZM148.544 308.331H150.123V327.061H148.544V308.331Z" fill="#40322D"/>
<path d="M179.264 323.819C182.869 323.285 186.112 321.621 186.091 317.952C186.091 316.309 184.789 314.133 181.952 314.133C179.221 314.133 176.768 315.648 174.699 317.803V315.904C177.259 313.493 179.968 312.597 182.208 312.597C185.173 312.597 187.797 314.667 187.797 317.973C187.819 322.283 184.683 324.523 180.032 325.419L179.264 323.819ZM174.443 313.536C173.76 313.621 171.435 313.92 169.856 314.155L169.664 312.384C170.133 312.405 170.539 312.405 171.072 312.363C172.203 312.299 174.848 311.979 175.851 311.659L176.469 312.384C176.107 312.939 175.531 313.856 175.168 314.453L174.528 317.376C173.547 318.891 171.563 321.771 170.219 323.627L169.152 322.176C170.475 320.512 173.355 316.587 174.187 315.179L174.272 314.091L174.443 313.536ZM174.229 309.995C174.229 309.504 174.251 308.949 174.144 308.416L176.171 308.48C175.872 309.867 175.211 315.968 175.211 319.723C175.211 321.664 175.211 322.965 175.296 324.864C175.317 325.227 175.381 325.76 175.403 326.165H173.568C173.589 325.867 173.632 325.248 173.632 324.907C173.632 322.837 173.653 321.771 173.675 319.424C173.717 317.547 174.229 310.784 174.229 309.995Z" fill="#40322D"/>
<path d="M194.411 309.632C194.88 309.675 195.477 309.696 195.904 309.696C197.035 309.696 202.091 309.547 203.221 309.44C203.861 309.376 204.16 309.333 204.395 309.248L205.376 310.507C204.992 310.763 204.565 311.04 204.16 311.36C203.115 312.171 200.213 314.667 198.549 316.032C199.531 315.712 200.555 315.605 201.515 315.605C205.056 315.605 207.595 317.717 207.595 320.597C207.595 324.032 204.757 326.272 200.235 326.272C197.333 326.272 195.563 325.013 195.563 323.221C195.563 321.771 196.885 320.448 198.848 320.448C201.685 320.448 203.115 322.453 203.264 324.608L201.728 324.864C201.6 323.051 200.555 321.749 198.848 321.749C197.867 321.749 197.12 322.347 197.12 323.093C197.12 324.139 198.293 324.757 199.979 324.757C203.605 324.757 205.888 323.264 205.888 320.597C205.888 318.485 203.883 316.928 201.088 316.928C197.547 316.928 195.627 318.421 192.939 321.173L191.701 319.936C193.472 318.485 196.224 316.181 197.44 315.136C198.635 314.155 201.323 311.915 202.389 310.955C201.259 311.019 196.992 311.189 195.883 311.253C195.392 311.296 194.923 311.317 194.453 311.381L194.411 309.632Z" fill="#40322D"/>
<path d="M220.715 308.459C220.629 308.715 220.544 309.099 220.48 309.397C220.117 311.189 219.755 314.56 219.755 317.483C219.755 320.256 220.352 322.816 221.013 324.821L219.456 325.291C218.837 323.392 218.261 320.363 218.261 317.653C218.261 314.731 218.688 311.275 218.88 309.44C218.923 309.056 218.944 308.672 218.944 308.395L220.715 308.459ZM217.28 311.083C221.035 311.083 224.747 310.784 227.691 310.123L227.712 311.701C224.64 312.235 220.437 312.555 217.259 312.555C216.341 312.555 214.677 312.469 213.803 312.427L213.76 310.827C214.507 310.955 216.363 311.083 217.28 311.083ZM226.176 313.6C226.048 313.877 225.856 314.453 225.728 314.795C224.469 318.741 222.336 321.707 220.096 323.435C218.731 324.48 217.024 325.269 215.509 325.269C214.101 325.269 212.992 324.416 212.992 322.603C212.992 319.68 215.701 316.672 218.859 315.456C220.288 314.901 222.016 314.581 223.403 314.581C227.435 314.581 229.973 316.928 229.973 319.915C229.973 322.965 227.947 325.632 222.997 326.421L222.08 324.992C225.92 324.565 228.309 322.581 228.309 319.829C228.309 317.76 226.56 315.947 223.381 315.947C221.589 315.947 220.011 316.459 218.923 316.949C216.512 318.016 214.592 320.363 214.592 322.325C214.592 323.2 215.019 323.627 215.808 323.627C216.875 323.627 218.261 323.029 219.627 321.835C221.525 320.171 223.275 317.867 224.256 314.411C224.341 314.091 224.448 313.515 224.469 313.173L226.176 313.6Z" fill="#40322D"/>
<path d="M239.125 308.608C240.96 309.205 245.504 310.08 247.403 310.272L246.997 311.893C244.949 311.616 240.341 310.677 238.699 310.251L239.125 308.608ZM238.656 312.512C238.379 313.963 237.995 317.12 237.781 318.507C239.829 316.715 242.176 315.883 244.736 315.883C248 315.883 250.176 317.845 250.176 320.363C250.176 324.16 246.784 326.741 238.869 326.08L238.357 324.352C245.099 325.163 248.384 323.221 248.384 320.299C248.384 318.613 246.784 317.397 244.608 317.397C241.813 317.397 239.509 318.443 238.016 320.256C237.696 320.619 237.504 320.96 237.376 321.301L235.776 320.917C236.203 318.976 236.736 314.496 236.864 312.277L238.656 312.512Z" fill="#40322D"/>
<path d="M258.539 310.165C258.453 310.464 258.347 310.827 258.261 311.168C257.984 312.555 257.557 315.797 257.685 317.461C259.093 313.792 262.613 311.339 266.325 311.339C270.315 311.339 272.661 313.835 272.661 317.013C272.661 320.491 270.507 323.2 266.112 323.2C263.659 323.2 261.397 321.835 260.224 319.445L261.248 318.251C262.229 320.341 263.765 321.579 266.133 321.579C269.099 321.579 271.04 319.872 271.04 317.056C271.04 314.731 269.525 312.768 266.283 312.768C261.803 312.768 258.901 316.459 258.176 319.509C258.091 319.893 258.005 320.363 258.027 320.832C258.069 321.28 258.197 322.283 258.325 322.837L256.832 323.072C256.448 321.707 256.128 319.552 256.128 317.525C256.128 315.136 256.576 312.192 256.683 310.997C256.725 310.635 256.747 310.293 256.725 310.037L258.539 310.165ZM265.899 308.416C266.219 309.931 266.645 313.088 266.645 316.224C266.645 320.661 265.749 324.459 262.336 326.699L260.779 325.76C264.107 323.947 265.045 320.405 265.045 316.245C265.045 313.493 264.725 310.912 264.491 309.781C264.384 309.333 264.256 308.779 264.128 308.48L265.899 308.416Z" fill="#40322D"/>
<path d="M279.744 309.632C280.213 309.675 280.811 309.696 281.237 309.696C282.368 309.696 287.424 309.547 288.555 309.44C289.195 309.376 289.493 309.333 289.728 309.248L290.709 310.507C290.325 310.763 289.899 311.04 289.493 311.36C288.448 312.171 285.547 314.667 283.883 316.032C284.864 315.712 285.888 315.605 286.848 315.605C290.389 315.605 292.928 317.717 292.928 320.597C292.928 324.032 290.091 326.272 285.568 326.272C282.667 326.272 280.896 325.013 280.896 323.221C280.896 321.771 282.219 320.448 284.181 320.448C287.019 320.448 288.448 322.453 288.597 324.608L287.061 324.864C286.933 323.051 285.888 321.749 284.181 321.749C283.2 321.749 282.453 322.347 282.453 323.093C282.453 324.139 283.627 324.757 285.312 324.757C288.939 324.757 291.221 323.264 291.221 320.597C291.221 318.485 289.216 316.928 286.421 316.928C282.88 316.928 280.96 318.421 278.272 321.173L277.035 319.936C278.805 318.485 281.557 316.181 282.773 315.136C283.968 314.155 286.656 311.915 287.723 310.955C286.592 311.019 282.325 311.189 281.216 311.253C280.725 311.296 280.256 311.317 279.787 311.381L279.744 309.632Z" fill="#40322D"/>
<path d="M300.331 309.76C300.928 309.824 301.568 309.867 302.251 309.867C303.488 309.867 308.459 309.867 309.653 309.867C310.251 309.867 311.019 309.824 311.637 309.76V311.531C310.997 311.488 310.251 311.445 309.653 311.445C308.459 311.445 303.488 311.445 302.293 311.445C301.568 311.445 300.885 311.488 300.331 311.531V309.76ZM297.792 315.115C298.368 315.179 298.987 315.221 299.648 315.221C300.885 315.221 312.469 315.221 313.6 315.221C314.048 315.221 314.752 315.179 315.285 315.115V316.885C314.816 316.843 314.133 316.821 313.6 316.821C312.469 316.821 300.885 316.821 299.648 316.821C299.008 316.821 298.368 316.843 297.792 316.885V315.115ZM307.84 315.968C307.84 318.656 307.499 320.875 306.56 322.667C305.771 324.096 304.171 325.632 302.357 326.549L300.779 325.397C302.421 324.693 303.957 323.477 304.811 322.112C305.877 320.427 306.027 318.336 306.048 315.989L307.84 315.968ZM312.747 308.011C313.28 308.779 314.048 310.08 314.475 310.933L313.323 311.445C312.917 310.592 312.192 309.312 311.616 308.501L312.747 308.011ZM315.072 307.157C315.648 307.947 316.459 309.269 316.864 310.059L315.733 310.571C315.264 309.653 314.56 308.437 313.963 307.648L315.072 307.157Z" fill="#40322D"/>
<path d="M334.315 309.077C334.72 309.845 335.275 311.168 335.573 312.021L334.507 312.384C334.208 311.488 333.717 310.208 333.291 309.397L334.315 309.077ZM336.448 308.416C336.853 309.205 337.408 310.507 337.728 311.36L336.661 311.723C336.32 310.763 335.851 309.547 335.403 308.736L336.448 308.416ZM332.288 315.925C332.288 321.6 331.072 324.523 326.208 326.699L324.757 325.355C328.64 323.861 330.581 322.027 330.581 316.053V310.869C330.581 310.037 330.517 309.333 330.475 309.12H332.395C332.373 309.333 332.288 310.037 332.288 310.869V315.925ZM324.608 309.269C324.587 309.461 324.501 310.059 324.501 310.805V318.635C324.501 319.403 324.565 320.341 324.587 320.555H322.709C322.731 320.341 322.795 319.445 322.795 318.635V310.805C322.795 310.357 322.773 309.739 322.709 309.269H324.608ZM318.357 313.408C318.549 313.429 319.595 313.536 320.512 313.536H334.635C335.573 313.536 336.299 313.472 336.597 313.429V315.243C336.363 315.2 335.573 315.179 334.635 315.179H320.512C319.573 315.179 318.613 315.221 318.357 315.243V313.408Z" fill="#40322D"/>
<path d="M340.501 317.632C344.192 316.651 347.435 315.136 349.803 313.664C352.043 312.256 354.176 310.421 355.648 308.629L357.077 309.973C355.243 311.872 353.003 313.664 350.507 315.221C348.16 316.672 344.768 318.229 341.333 319.296L340.501 317.632ZM349.461 314.539L351.296 313.984V323.733C351.296 324.523 351.339 325.589 351.445 325.995H349.333C349.397 325.589 349.461 324.523 349.461 323.733V314.539Z" fill="#40322D"/>
<path d="M44.8427 348.384C46.336 349.387 49.088 351.605 50.2613 352.779L48.9387 354.144C47.8507 353.035 45.2053 350.731 43.6053 349.685L44.8427 348.384ZM43.008 362.677C46.72 362.123 49.4933 360.821 51.52 359.563C54.8267 357.493 57.408 354.336 58.6453 351.691L59.6693 353.525C58.2187 356.171 55.744 359.072 52.5227 361.099C50.368 362.443 47.68 363.765 44.1173 364.427L43.008 362.677Z" fill="#40322D"/>
<path d="M69.824 351.392C71.04 351.52 72.192 351.584 73.4507 351.584C76.0107 351.584 78.6347 351.392 80.7893 350.944V352.587C78.528 352.971 75.9253 353.141 73.4293 353.141C72.192 353.141 71.0827 353.099 69.8453 353.013L69.824 351.392ZM77.2907 347.573C77.2267 348 77.184 348.448 77.1627 348.853C77.12 349.643 77.0987 351.157 77.0987 352.416C77.0987 355.701 77.4187 359.029 77.4187 361.227C77.4187 362.976 76.608 364.683 73.728 364.683C70.8693 364.683 69.312 363.531 69.312 361.611C69.312 359.819 70.8907 358.411 73.7067 358.411C77.2907 358.411 79.7867 360.224 81.5787 361.845L80.6613 363.253C78.4213 361.163 76.2667 359.712 73.5573 359.712C71.9573 359.712 70.848 360.416 70.848 361.44C70.848 362.549 71.8933 363.125 73.4507 363.125C75.2427 363.125 75.7547 362.229 75.7547 360.8C75.7547 359.264 75.4773 355.275 75.4773 352.459C75.4773 350.987 75.456 349.643 75.456 348.896C75.456 348.512 75.4347 347.957 75.3707 347.573H77.2907ZM66.7733 347.723C66.6453 348.064 66.4747 348.768 66.3893 349.152C65.9627 351.136 65.3227 355.36 65.3227 357.749C65.3227 358.795 65.3867 359.691 65.536 360.736C65.8773 359.755 66.4107 358.453 66.7733 357.579L67.648 358.261C67.1147 359.755 66.3253 361.931 66.112 362.976C66.048 363.275 66.0053 363.701 66.0267 363.936C66.048 364.149 66.0693 364.469 66.0907 364.683L64.576 364.811C64.1707 363.275 63.7653 360.928 63.7653 358.048C63.7653 354.912 64.4907 350.837 64.7467 349.088C64.832 348.576 64.8747 348.021 64.896 347.552L66.7733 347.723Z" fill="#40322D"/>
<path d="M92.4373 346.08H94.0587V363.915C94.0587 364.917 93.7813 365.301 93.12 365.536C92.4373 365.749 91.328 365.771 89.536 365.771C89.4507 365.387 89.1947 364.789 88.9813 364.427C90.2613 364.469 91.5413 364.448 91.9253 364.448C92.3093 364.427 92.4373 364.299 92.4373 363.915V346.08ZM84.096 347.787H102.613V349.109H84.096V347.787ZM87.8507 351.499V353.035H98.8587V351.499H87.8507ZM86.336 350.389H100.48V354.165H86.336V350.389ZM85.7173 355.659H100.8V363.424H99.2V356.853H85.7173V355.659ZM83.6907 358.325H103.019V359.605H83.6907V358.325ZM85.504 361.227H100.032V362.464H85.504V361.227Z" fill="#40322D"/>
<path d="M105.344 359.264H124.032V360.608H105.344V359.264ZM105.429 349.899H123.947V351.264H105.429V349.899ZM106.283 353.547H123.179V354.869H106.283V353.547ZM107.371 356.427H122.133V357.664H107.371V356.427ZM113.835 354.165H115.413V365.728H113.835V354.165ZM111.872 346.08H113.387V350.539H111.872V346.08ZM115.904 346.08H117.44V350.475H115.904V346.08ZM113.323 359.797L114.603 360.395C112.619 362.613 109.013 364.469 105.835 365.365C105.6 364.96 105.131 364.341 104.789 364C107.947 363.296 111.509 361.653 113.323 359.797ZM115.925 359.755C117.739 361.675 121.323 363.317 124.565 364C124.203 364.341 123.712 364.981 123.477 365.429C120.235 364.533 116.672 362.592 114.667 360.288L115.925 359.755ZM120.853 346.336L122.496 346.784C121.877 347.957 121.109 349.216 120.512 350.048L119.211 349.621C119.787 348.725 120.491 347.317 120.853 346.336ZM117.995 350.859L119.659 351.264C119.125 352.224 118.571 353.205 118.101 353.888L116.757 353.483C117.184 352.736 117.739 351.627 117.995 350.859ZM107.157 346.784L108.523 346.293C109.248 347.253 110.037 348.597 110.336 349.472L108.907 350.005C108.608 349.152 107.84 347.787 107.157 346.784ZM109.931 351.413L111.445 351.115C111.936 351.819 112.427 352.779 112.619 353.419L111.04 353.76C110.869 353.12 110.4 352.117 109.931 351.413Z" fill="#40322D"/>
<path d="M137.344 349.451C137.067 351.669 136.64 354.165 135.979 356.448C134.677 360.821 132.971 363.083 131.008 363.083C129.088 363.083 127.189 360.907 127.189 357.365C127.189 352.736 131.307 348.704 136.533 348.704C141.525 348.704 144.704 352.224 144.704 356.555C144.704 361.013 141.76 364 136.683 364.661L135.701 363.083C136.384 363.019 137.024 362.933 137.536 362.827C140.267 362.208 142.955 360.16 142.955 356.469C142.955 353.056 140.587 350.24 136.491 350.24C131.797 350.24 128.875 354.101 128.875 357.237C128.875 359.925 130.091 361.12 131.051 361.12C132.053 361.12 133.205 359.669 134.293 356.064C134.912 354.037 135.36 351.627 135.573 349.408L137.344 349.451Z" fill="#40322D"/>
<path d="M156.224 346.741H157.995C157.824 350.091 157.504 360.736 148.672 365.536C148.395 365.131 147.861 364.64 147.371 364.277C156.075 359.84 156.075 349.579 156.224 346.741ZM157.931 347.168C157.995 348.832 158.613 360.16 167.403 364.192C166.933 364.555 166.443 365.088 166.187 365.536C157.141 361.205 156.544 349.28 156.395 347.317L157.931 347.168Z" fill="#40322D"/>
<path d="M175.403 359.157H181.867V360.395H175.403V359.157ZM175.339 355.936H182.613V363.723H175.339V362.485H181.099V357.195H175.339V355.936ZM174.635 355.936H176.107V364.811H174.635V355.936ZM170.709 350.027H176.64V351.2H170.709V350.027ZM180.544 350.027H186.581V351.2H180.544V350.027ZM185.92 346.997H187.52V363.595C187.52 364.619 187.285 365.152 186.603 365.429C185.92 365.685 184.768 365.707 182.976 365.707C182.912 365.259 182.656 364.512 182.421 364.064C183.723 364.128 185.024 364.107 185.408 364.085C185.792 364.085 185.92 363.957 185.92 363.595V346.997ZM170.837 346.997H177.664V354.336H170.837V353.099H176.149V348.235H170.837V346.997ZM186.709 346.997V348.235H181.12V353.141H186.709V354.357H179.584V346.997H186.709ZM169.92 346.997H171.499V365.728H169.92V346.997Z" fill="#40322D"/>
<path d="M192.981 346.08H194.603V365.685H192.981V346.08ZM191.019 350.133L192.235 350.325C192.128 352.053 191.744 354.528 191.168 356.064L189.909 355.637C190.485 354.208 190.869 351.861 191.019 350.133ZM194.752 350.005L195.861 349.515C196.523 350.667 197.184 352.181 197.419 353.099L196.224 353.696C195.989 352.757 195.349 351.2 194.752 350.005ZM199.104 347.083L200.661 347.339C200.107 350.453 199.168 353.483 197.973 355.488C197.653 355.253 196.928 354.912 196.523 354.741C197.781 352.864 198.635 349.963 199.104 347.083ZM199.125 350.603H209.045V352.139H198.635L199.125 350.603ZM202.581 346.165H204.181V364.299H202.581V346.165ZM198.037 356.576H208.576V358.091H198.037V356.576ZM196.437 363.424H209.557V364.96H196.437V363.424Z" fill="#40322D"/>
<path d="M220.48 347.147C220.288 347.979 220.053 349.152 219.499 350.581C218.965 351.883 218.176 353.312 217.323 354.421C218.155 353.931 219.371 353.632 220.309 353.632C221.952 353.632 223.232 354.613 223.232 356.341C223.232 357.451 223.275 359.904 223.296 361.227H221.653C221.739 360.096 221.76 357.899 221.739 356.789C221.717 355.552 220.864 354.976 219.755 354.976C218.389 354.976 217.045 355.659 216.064 356.533C215.445 357.131 214.848 357.899 214.144 358.773L212.672 357.685C215.744 354.741 217.173 352.267 217.899 350.453C218.368 349.28 218.667 348 218.731 346.997L220.48 347.147ZM213.163 349.451C214.315 349.6 215.787 349.664 216.768 349.664C219.648 349.664 223.339 349.493 226.347 348.96V350.539C223.36 350.987 219.392 351.179 216.683 351.179C215.765 351.179 214.357 351.136 213.163 351.051V349.451ZM229.461 354.592C228.928 354.763 228.16 355.061 227.584 355.275C226.069 355.872 224.043 356.683 221.973 357.749C219.861 358.859 218.368 360.011 218.368 361.483C218.368 363.147 220.011 363.403 222.208 363.403C223.872 363.403 226.176 363.211 228.053 362.869L227.989 364.597C226.368 364.789 224 364.96 222.144 364.96C219.115 364.96 216.661 364.299 216.661 361.717C216.661 359.115 219.307 357.515 221.845 356.213C223.872 355.168 225.6 354.507 227.008 353.845C227.648 353.547 228.181 353.312 228.779 353.013L229.461 354.592Z" fill="#40322D"/>
<path d="M234.112 347.872H251.243V349.259H234.112V347.872ZM235.093 351.008H250.411V352.352H235.093V351.008ZM233.323 354.272H251.968V355.68H233.323V354.272ZM241.792 346.08H243.413V355.36H241.792V346.08ZM241.728 354.741L243.115 355.403C240.896 357.835 236.949 360.075 233.643 361.163C233.387 360.757 232.939 360.16 232.597 359.84C235.883 358.901 239.744 356.853 241.728 354.741ZM244.053 354.955C245.333 359.52 248.107 362.891 252.629 364.235C252.267 364.555 251.819 365.216 251.584 365.643C246.869 364.021 244.075 360.416 242.603 355.253L244.053 354.955ZM250.133 356.384L251.413 357.387C249.899 358.603 247.872 359.904 246.336 360.757L245.355 359.883C246.848 358.987 248.917 357.515 250.133 356.384ZM234.965 364.235C237.419 363.701 241.259 362.741 244.907 361.845L245.056 363.275C241.685 364.149 238.037 365.067 235.477 365.707L234.965 364.235ZM237.973 358.709L239.125 357.557L239.573 357.685V364.128H237.973V358.709Z" fill="#40322D"/>
<path d="M266.709 347.104C266.667 347.36 266.603 348.192 266.603 348.448C266.539 349.835 266.581 353.952 266.603 355.659L264.981 354.827C264.981 353.888 264.96 349.643 264.896 348.469C264.853 347.893 264.789 347.296 264.747 347.104H266.709ZM255.36 350.091C258.261 350.048 263.595 349.856 266.88 349.856C269.483 349.856 272.128 349.856 273.131 349.877L273.109 351.456C271.915 351.392 269.995 351.349 266.859 351.349C263.189 351.349 258.624 351.499 255.403 351.733L255.36 350.091ZM266.56 356.277C266.56 359.136 265.237 360.565 263.296 360.565C261.504 360.565 259.776 359.307 259.776 356.981C259.776 354.869 261.525 353.291 263.552 353.291C266.027 353.291 267.285 355.125 267.285 357.579C267.285 360.48 265.877 363.68 260.928 365.152L259.499 363.765C263.381 362.848 265.643 360.949 265.643 357.429C265.643 355.509 264.704 354.699 263.552 354.699C262.421 354.699 261.376 355.573 261.376 356.96C261.376 358.304 262.379 359.072 263.552 359.072C264.875 359.072 265.728 357.963 265.387 355.68L266.56 356.277Z" fill="#40322D"/>
<path d="M292.011 351.285C291.541 351.563 291.008 351.861 290.368 352.181C288.939 352.928 285.973 354.336 283.883 355.701C281.899 357.003 280.704 358.411 280.704 360.011C280.704 361.781 282.411 362.891 285.781 362.891C288.085 362.891 290.944 362.592 292.608 362.165L292.587 364.085C290.987 364.363 288.512 364.597 285.845 364.597C281.835 364.597 278.933 363.403 278.933 360.203C278.933 357.899 280.491 356.085 283.008 354.421C285.184 352.971 288.171 351.541 289.557 350.752C290.176 350.389 290.645 350.112 291.093 349.749L292.011 351.285ZM281.216 347.403C282.197 350.133 283.52 352.8 284.501 354.528L283.051 355.403C281.963 353.653 280.683 350.773 279.531 348.128L281.216 347.403Z" fill="#40322D"/>
<path d="M297.365 352.416H315.733V353.803H297.365V352.416ZM299.008 348.619H311.125V349.963H299.008V348.619ZM304.448 346.08H306.027V353.099H304.448V346.08ZM312.448 355.168L313.493 356.256C310.805 356.981 306.645 357.472 303.168 357.728C303.125 357.408 302.933 356.896 302.784 356.619C306.155 356.32 310.208 355.787 312.448 355.168ZM313.579 347.083L314.88 347.808C310.571 353.035 304.085 357.003 297.515 359.52C297.301 359.2 296.811 358.56 296.491 358.261C303.147 355.957 309.568 351.989 313.579 347.083ZM302.549 355.211L304.128 355.403C303.68 357.472 303.04 360.096 302.549 361.696L300.949 361.483C301.483 359.861 302.144 357.195 302.549 355.211ZM311.851 359.307H313.472C313.472 359.307 313.429 359.776 313.387 360.032C312.875 363.189 312.405 364.597 311.701 365.216C311.253 365.621 310.805 365.728 310.059 365.749C309.397 365.792 308.139 365.771 306.816 365.685C306.773 365.259 306.581 364.64 306.304 364.213C307.648 364.341 309.035 364.363 309.547 364.363C309.995 364.363 310.251 364.341 310.464 364.171C310.997 363.744 311.445 362.443 311.829 359.52L311.851 359.307ZM302.315 359.307H312.277V360.651H301.973L302.315 359.307Z" fill="#40322D"/>
<path d="M323.989 347.189C326.293 347.701 330.368 348.192 332.416 348.299L332.181 349.877C330.048 349.685 326.315 349.216 323.712 348.747L323.989 347.189ZM332.843 353.291C332.437 353.568 331.904 354.016 331.648 354.229C330.837 354.976 328.448 357.216 327.637 358.048C327.872 358.027 328.256 358.027 328.491 358.091C329.301 358.176 329.792 358.731 330.091 359.605C330.304 360.224 330.603 361.312 330.816 361.995C331.072 362.805 331.563 363.168 332.672 363.168C334.059 363.168 335.68 362.976 336.704 362.72L336.576 364.512C335.68 364.683 333.717 364.832 332.587 364.832C330.859 364.832 329.813 364.427 329.344 363.019C329.131 362.379 328.832 361.12 328.619 360.523C328.384 359.776 327.915 359.371 327.317 359.371C326.741 359.371 326.229 359.669 325.739 360.16C324.949 360.907 322.624 363.36 321.408 364.896L319.787 363.765C320.064 363.552 320.448 363.211 320.853 362.805C321.728 361.952 327.531 356.128 329.621 354.037C327.936 354.123 324.352 354.443 323.051 354.549C322.347 354.592 321.792 354.677 321.344 354.741L321.195 352.885C321.685 352.928 322.304 352.928 322.987 352.928C324.224 352.885 329.173 352.565 330.795 352.352C331.157 352.309 331.605 352.203 331.819 352.117L332.843 353.291Z" fill="#40322D"/>
<path d="M339.396 349.835C340.207 349.813 340.89 349.771 341.316 349.728C342.703 349.579 346.713 349.195 350.66 348.853C352.985 348.661 354.97 348.533 356.399 348.491L356.42 350.197C355.183 350.176 353.327 350.219 352.239 350.517C349.188 351.499 347.332 354.763 347.332 357.28C347.332 361.44 351.236 362.763 354.692 362.912L354.095 364.661C350.127 364.512 345.647 362.421 345.647 357.643C345.647 354.315 347.673 351.605 349.636 350.453C347.332 350.688 341.914 351.221 339.588 351.712L339.396 349.835Z" fill="#40322D"/>
<path d="M52.2027 385.749C52.16 386.112 52.1173 386.539 52.096 387.179C52.0533 388.032 52.0533 390.891 52.0533 392.683C52.0533 395.499 52.3733 399.232 52.3733 400.661C52.3733 402.155 51.392 403.669 48.6187 403.669C45.5467 403.669 43.8613 402.581 43.8613 400.512C43.8613 398.571 45.7173 397.269 48.7893 397.269C53.2907 397.269 56.8107 399.701 58.4533 401.045L57.472 402.56C55.552 400.789 52.3947 398.656 48.5973 398.656C46.5493 398.656 45.4613 399.445 45.4613 400.427C45.4613 401.429 46.2933 402.155 48.4053 402.155C49.6427 402.155 50.688 401.792 50.688 400.299C50.688 398.656 50.4747 394.56 50.4747 392.683C50.4747 390.763 50.4747 388.523 50.4747 387.029C50.4747 386.667 50.4533 386.027 50.3893 385.749H52.2027ZM44.0533 388.053C45.4187 388.309 48.0853 388.523 49.4933 388.523C52.2027 388.523 55.0613 388.331 57.8347 387.883V389.44C55.424 389.717 52.3733 389.995 49.5147 389.995C48.0427 389.995 45.4187 389.803 44.0747 389.632L44.0533 388.053ZM43.9467 392.597C45.4613 392.832 47.8933 392.981 49.3013 392.981C52.3947 392.981 55.232 392.768 58.0053 392.363V393.963C55.104 394.325 52.5013 394.475 49.3013 394.475C47.8293 394.475 45.4827 394.368 43.968 394.197L43.9467 392.597Z" fill="#40322D"/>
<path d="M74.7093 385.771C74.6667 386.027 74.6027 386.859 74.6027 387.115C74.5387 388.501 74.5813 392.619 74.6027 394.325L72.9813 393.493C72.9813 392.555 72.96 388.309 72.896 387.136C72.8533 386.56 72.7893 385.963 72.7467 385.771H74.7093ZM63.36 388.757C66.2613 388.715 71.5947 388.523 74.88 388.523C77.4827 388.523 80.128 388.523 81.1307 388.544L81.1093 390.123C79.9147 390.059 77.9947 390.016 74.8587 390.016C71.1893 390.016 66.624 390.165 63.4027 390.4L63.36 388.757ZM74.56 394.944C74.56 397.803 73.2373 399.232 71.296 399.232C69.504 399.232 67.776 397.973 67.776 395.648C67.776 393.536 69.5253 391.957 71.552 391.957C74.0267 391.957 75.2853 393.792 75.2853 396.245C75.2853 399.147 73.8773 402.347 68.928 403.819L67.4987 402.432C71.3813 401.515 73.6427 399.616 73.6427 396.096C73.6427 394.176 72.704 393.365 71.552 393.365C70.4213 393.365 69.376 394.24 69.376 395.627C69.376 396.971 70.3787 397.739 71.552 397.739C72.8747 397.739 73.728 396.629 73.3867 394.347L74.56 394.944Z" fill="#40322D"/>
<path d="M84.6803 397.483C86.4723 397.483 87.923 398.933 87.923 400.725C87.923 402.517 86.4723 403.968 84.6803 403.968C82.8883 403.968 81.4163 402.517 81.4163 400.725C81.4163 398.933 82.8883 397.483 84.6803 397.483ZM84.6803 402.88C85.875 402.88 86.835 401.92 86.835 400.725C86.835 399.531 85.875 398.571 84.6803 398.571C83.4857 398.571 82.5043 399.531 82.5043 400.725C82.5043 401.92 83.4857 402.88 84.6803 402.88Z" fill="#40322D"/>
<path d="M111.646 384.747H113.267V402.581C113.267 403.584 112.99 403.968 112.328 404.203C111.646 404.416 110.536 404.437 108.744 404.437C108.659 404.053 108.403 403.456 108.19 403.093C109.47 403.136 110.75 403.115 111.134 403.115C111.518 403.093 111.646 402.965 111.646 402.581V384.747ZM103.304 386.453H121.822V387.776H103.304V386.453ZM107.059 390.165V391.701H118.067V390.165H107.059ZM105.544 389.056H119.688V392.832H105.544V389.056ZM104.926 394.325H120.008V402.091H118.408V395.52H104.926V394.325ZM102.899 396.992H122.227V398.272H102.899V396.992ZM104.712 399.893H119.24V401.131H104.712V399.893Z" fill="#40322D"/>
<path d="M124.552 397.931H143.24V399.275H124.552V397.931ZM124.638 388.565H143.155V389.931H124.638V388.565ZM125.491 392.213H142.387V393.536H125.491V392.213ZM126.579 395.093H141.342V396.331H126.579V395.093ZM133.043 392.832H134.622V404.395H133.043V392.832ZM131.08 384.747H132.595V389.205H131.08V384.747ZM135.112 384.747H136.648V389.141H135.112V384.747ZM132.531 398.464L133.811 399.061C131.827 401.28 128.222 403.136 125.043 404.032C124.808 403.627 124.339 403.008 123.998 402.667C127.155 401.963 130.718 400.32 132.531 398.464ZM135.134 398.421C136.947 400.341 140.531 401.984 143.774 402.667C143.411 403.008 142.92 403.648 142.686 404.096C139.443 403.2 135.88 401.259 133.875 398.955L135.134 398.421ZM140.062 385.003L141.704 385.451C141.086 386.624 140.318 387.883 139.72 388.715L138.419 388.288C138.995 387.392 139.699 385.984 140.062 385.003ZM137.203 389.525L138.867 389.931C138.334 390.891 137.779 391.872 137.31 392.555L135.966 392.149C136.392 391.403 136.947 390.293 137.203 389.525ZM126.366 385.451L127.731 384.96C128.456 385.92 129.246 387.264 129.544 388.139L128.115 388.672C127.816 387.819 127.048 386.453 126.366 385.451ZM129.139 390.08L130.654 389.781C131.144 390.485 131.635 391.445 131.827 392.085L130.248 392.427C130.078 391.787 129.608 390.784 129.139 390.08Z" fill="#40322D"/>
<path d="M156.552 388.117C156.275 390.336 155.848 392.832 155.187 395.115C153.886 399.488 152.179 401.749 150.216 401.749C148.296 401.749 146.398 399.573 146.398 396.032C146.398 391.403 150.515 387.371 155.742 387.371C160.734 387.371 163.912 390.891 163.912 395.221C163.912 399.68 160.968 402.667 155.891 403.328L154.91 401.749C155.592 401.685 156.232 401.6 156.744 401.493C159.475 400.875 162.163 398.827 162.163 395.136C162.163 391.723 159.795 388.907 155.699 388.907C151.006 388.907 148.083 392.768 148.083 395.904C148.083 398.592 149.299 399.787 150.259 399.787C151.262 399.787 152.414 398.336 153.502 394.731C154.12 392.704 154.568 390.293 154.782 388.075L156.552 388.117Z" fill="#40322D"/>
<path d="M169.502 392.747H174.814V394.24H169.502V392.747ZM174.174 392.747H175.731C175.731 392.747 175.731 393.216 175.731 393.429C175.624 398.251 175.496 400.043 175.048 400.64C174.707 401.024 174.366 401.173 173.768 401.237C173.214 401.301 172.254 401.28 171.208 401.237C171.166 400.768 170.995 400.149 170.76 399.744C171.72 399.829 172.659 399.829 173.022 399.829C173.32 399.829 173.534 399.808 173.683 399.616C174.003 399.232 174.11 397.632 174.174 393.024V392.747ZM180.19 385.835L181.15 384.832C182.472 385.515 184.158 386.539 184.99 387.285L183.987 388.373C183.176 387.627 181.534 386.539 180.19 385.835ZM183.24 391.616L184.84 392C183.027 397.568 179.848 401.685 175.475 404.267C175.24 403.947 174.643 403.285 174.302 402.965C178.632 400.661 181.64 396.757 183.24 391.616ZM169.63 388.373H186.142V389.952H169.63V388.373ZM168.606 388.373H170.27V394.389C170.27 397.419 169.928 401.728 167.987 404.523C167.71 404.203 167.027 403.648 166.643 403.456C168.414 400.832 168.606 397.163 168.606 394.368V388.373ZM177.459 384.789H179.123C179.08 394.603 181.171 402.603 183.944 402.603C184.542 402.603 184.819 401.493 184.947 398.656C185.31 399.019 185.907 399.381 186.334 399.531C186.035 403.179 185.438 404.224 183.816 404.224C179.464 404.224 177.544 395.008 177.459 384.789Z" fill="#40322D"/>
<path d="M188.318 394.987H207.411V396.416H188.318V394.987ZM192.968 388.757H204.659V390.059H192.968V388.757ZM192.968 391.851H204.659V393.152H192.968V391.851ZM189.342 402.752C191.795 402.411 195.678 401.749 199.326 401.152L199.39 402.56C195.976 403.179 192.307 403.797 189.747 404.245L189.342 402.752ZM197.96 395.371C199.454 399.381 202.824 402.069 207.752 403.029C207.411 403.349 206.963 403.989 206.75 404.437C201.587 403.243 198.238 400.32 196.51 395.755L197.96 395.371ZM205.171 396.608L206.451 397.483C204.851 398.677 202.718 399.915 201.054 400.704L199.966 399.851C201.587 399.04 203.848 397.653 205.171 396.608ZM192.094 385.6H205.342V386.965H193.715V395.584H192.094V385.6ZM192.072 395.435H193.715V402.773L192.072 402.965V395.435Z" fill="#40322D"/>
<path d="M218.248 388.267C220.574 388.672 224.904 388.587 227.016 388.267V389.995C224.734 390.251 220.595 390.251 218.27 389.995L218.248 388.267ZM219.08 396.971C218.888 397.739 218.782 398.336 218.782 398.912C218.782 399.893 219.464 400.853 222.387 400.853C224.286 400.853 225.95 400.683 227.656 400.277L227.699 402.069C226.376 402.347 224.584 402.517 222.366 402.517C218.803 402.517 217.203 401.323 217.203 399.317C217.203 398.613 217.31 397.845 217.544 396.821L219.08 396.971ZM214.195 386.624C214.067 386.987 213.896 387.669 213.811 388.053C213.406 390.037 212.744 393.835 212.744 396.245C212.744 397.269 212.808 398.165 212.936 399.211C213.299 398.251 213.79 396.971 214.152 396.096L215.048 396.8C214.515 398.315 213.726 400.555 213.534 401.579C213.47 401.877 213.427 402.283 213.427 402.539C213.448 402.752 213.47 403.051 213.491 403.285L211.976 403.392C211.55 401.877 211.187 399.424 211.187 396.523C211.187 393.387 211.891 389.739 212.147 387.968C212.211 387.477 212.275 386.944 212.296 386.475L214.195 386.624Z" fill="#40322D"/>
<path d="M235.678 384.555L237.448 384.939C236.296 389.035 234.462 392.832 232.264 395.285C231.944 395.008 231.155 394.475 230.707 394.24C232.968 392 234.675 388.373 235.678 384.555ZM248.051 388.437H248.35L248.67 388.352L249.928 388.8C249.16 391.189 248.094 393.835 247.006 395.541L245.555 394.901C246.494 393.387 247.496 390.848 248.051 388.8V388.437ZM235.507 388.437H248.648V389.995H234.696L235.507 388.437ZM241.416 389.824V392.747C241.416 394.88 242.76 400.512 250.206 402.837C249.864 403.221 249.331 403.947 249.075 404.352C243.08 402.261 240.947 397.653 240.52 395.605C240.072 397.632 237.96 402.112 231.923 404.373C231.731 404.011 231.155 403.307 230.814 402.965C238.195 400.555 239.582 394.987 239.582 392.768V389.824H241.416Z" fill="#40322D"/>
<path d="M260.531 386.027C260.446 386.432 260.36 386.88 260.275 387.307C260.147 388.075 259.848 389.824 259.571 391.147C258.846 394.133 257.31 399.445 254.899 403.349L253.171 402.645C255.603 399.403 257.31 393.707 257.886 391.083C258.27 389.397 258.568 387.477 258.568 385.835L260.531 386.027ZM267.891 388.309C269.214 390.037 271.07 393.963 271.774 395.947L270.131 396.736C269.491 394.539 267.827 390.763 266.334 389.013L267.891 388.309ZM252.851 390.72C253.534 390.741 254.088 390.741 254.771 390.72C256.35 390.677 260.68 390.187 262.131 390.187C264.03 390.187 265.587 390.912 265.587 393.813C265.587 396.352 265.246 399.744 264.371 401.515C263.688 402.944 262.622 403.285 261.256 403.285C260.424 403.285 259.422 403.136 258.739 402.987L258.462 401.195C259.358 401.472 260.467 401.643 261.064 401.643C261.854 401.643 262.494 401.472 262.942 400.533C263.624 399.104 263.944 396.309 263.944 394.005C263.944 392.064 263.048 391.701 261.683 391.701C260.254 391.701 256.264 392.171 254.963 392.299C254.472 392.363 253.576 392.469 253.043 392.555L252.851 390.72Z" fill="#40322D"/>
<path d="M288.307 386.219C288.264 386.581 288.222 387.307 288.222 387.776C288.2 389.099 288.2 390.592 288.158 391.68C288.115 393.323 288.051 395.627 287.838 396.736C287.646 397.696 287.155 397.973 286.195 397.973C285.406 397.973 283.934 397.781 283.379 397.675L283.4 396.181C284.147 396.352 285.043 396.459 285.534 396.459C286.067 396.459 286.28 396.373 286.366 395.883C286.494 395.072 286.579 393.216 286.6 391.701C286.622 390.507 286.622 389.013 286.622 387.84C286.622 387.349 286.558 386.603 286.494 386.219H288.307ZM279.88 386.901C279.816 387.392 279.795 387.968 279.795 388.629C279.774 390.933 279.71 396.8 279.752 398.272C279.838 400.576 279.859 401.387 283.55 401.387C285.875 401.387 288.52 401.152 289.907 400.896L289.843 402.688C288.414 402.837 285.811 403.051 283.635 403.051C278.707 403.051 278.238 401.899 278.152 398.507C278.11 396.715 278.131 389.675 278.131 388.693C278.131 388.053 278.11 387.541 278.003 386.901H279.88ZM273.502 392C274.163 392 274.952 391.957 275.72 391.872C278.024 391.68 286.152 390.827 290.526 390.592C291.08 390.571 291.699 390.528 292.19 390.485V392.171C291.87 392.149 291.059 392.171 290.526 392.171C287.112 392.235 278.536 393.131 275.827 393.451C275.187 393.536 274.27 393.664 273.672 393.749L273.502 392Z" fill="#40322D"/>
<path d="M295.923 389.227C296.712 389.312 297.63 389.355 298.547 389.355C300.851 389.355 303.539 389.077 305.992 388.267L306.035 389.845C303.944 390.421 301.15 390.891 298.547 390.869C297.758 390.869 296.84 390.848 296.051 390.827L295.923 389.227ZM303.496 385.749C303.219 386.795 302.771 388.8 302.259 390.315C301.235 393.387 299.272 397.269 297.502 399.659L295.859 398.805C297.758 396.587 299.742 392.789 300.616 390.272C301.086 388.928 301.555 387.051 301.619 385.557L303.496 385.749ZM308.531 392.341C308.467 393.216 308.467 393.856 308.488 394.624C308.531 396.011 308.723 399.253 308.723 400.661C308.723 402.368 307.635 403.755 304.99 403.755C302.643 403.755 300.744 402.816 300.744 400.683C300.744 398.72 302.6 397.483 304.99 397.483C308.574 397.483 311.326 399.275 313.075 400.789L312.179 402.24C310.536 400.747 308.083 398.848 304.947 398.848C303.368 398.848 302.302 399.573 302.302 400.555C302.302 401.536 303.134 402.219 304.798 402.219C306.568 402.219 307.166 401.28 307.166 400.128C307.166 398.507 306.931 394.688 306.846 392.341H308.531ZM312.798 392.896C311.646 391.915 309.32 390.613 307.912 389.952L308.766 388.672C310.323 389.333 312.734 390.72 313.758 391.488L312.798 392.896Z" fill="#40322D"/>
<path d="M319.966 387.797C319.859 388.288 319.795 389.312 319.774 389.867C319.752 391.189 319.774 393.152 319.923 394.901C320.286 398.464 321.31 400.832 322.846 400.832C323.934 400.832 324.936 398.635 325.491 396.501L326.835 398.016C325.534 401.621 324.254 402.859 322.803 402.859C320.776 402.859 318.856 400.853 318.259 395.328C318.067 393.493 318.024 390.891 318.024 389.653C318.024 389.163 318.024 388.245 317.896 387.755L319.966 387.797ZM331.059 388.373C332.979 390.848 334.515 395.392 334.835 398.997L333.107 399.68C332.744 395.84 331.443 391.445 329.416 388.949L331.059 388.373Z" fill="#40322D"/>
<path d="M346.099 385.408H347.87C347.699 388.757 347.379 399.403 338.547 404.203C338.27 403.797 337.736 403.307 337.246 402.944C345.95 398.507 345.95 388.245 346.099 385.408ZM347.806 385.835C347.87 387.499 348.488 398.827 357.278 402.859C356.808 403.221 356.318 403.755 356.062 404.203C347.016 399.872 346.419 387.947 346.27 385.984L347.806 385.835Z" fill="#40322D"/>
<path d="M57.344 428.619C56.8747 428.896 56.3413 429.195 55.7013 429.515C54.272 430.261 51.3067 431.669 49.216 433.035C47.232 434.336 46.0373 435.744 46.0373 437.344C46.0373 439.115 47.744 440.224 51.1147 440.224C53.4187 440.224 56.2773 439.925 57.9413 439.499L57.92 441.419C56.32 441.696 53.8453 441.931 51.1787 441.931C47.168 441.931 44.2667 440.736 44.2667 437.536C44.2667 435.232 45.824 433.419 48.3413 431.755C50.5173 430.304 53.504 428.875 54.8907 428.085C55.5093 427.723 55.9787 427.445 56.4267 427.083L57.344 428.619ZM46.5493 424.736C47.5307 427.467 48.8533 430.133 49.8347 431.861L48.384 432.736C47.296 430.987 46.016 428.107 44.864 425.461L46.5493 424.736Z" fill="#40322D"/>
<path d="M70.8907 424.075H72.6613C72.4907 427.424 72.1707 438.069 63.3387 442.869C63.0613 442.464 62.528 441.973 62.0373 441.611C70.7413 437.173 70.7413 426.912 70.8907 424.075ZM72.5973 424.501C72.6613 426.165 73.28 437.493 82.0693 441.525C81.6 441.888 81.1093 442.421 80.8533 442.869C71.808 438.539 71.2107 426.613 71.0613 424.651L72.5973 424.501Z" fill="#40322D"/>
<path d="M94.6773 426.784C94.4 429.003 93.9733 431.499 93.312 433.781C92.0107 438.155 90.304 440.416 88.3413 440.416C86.4213 440.416 84.5227 438.24 84.5227 434.699C84.5227 430.069 88.64 426.037 93.8667 426.037C98.8587 426.037 102.037 429.557 102.037 433.888C102.037 438.347 99.0933 441.333 94.016 441.995L93.0347 440.416C93.7173 440.352 94.3573 440.267 94.8693 440.16C97.6 439.541 100.288 437.493 100.288 433.803C100.288 430.389 97.92 427.573 93.824 427.573C89.1307 427.573 86.208 431.435 86.208 434.571C86.208 437.259 87.424 438.453 88.384 438.453C89.3867 438.453 90.5387 437.003 91.6267 433.397C92.2453 431.371 92.6933 428.96 92.9067 426.741L94.6773 426.784Z" fill="#40322D"/>
<path d="M105.536 430.197C106.325 430.069 107.093 429.835 107.904 429.6C109.696 429.024 113.899 427.488 117.013 427.488C120.533 427.488 123.349 429.536 123.349 433.099C123.349 438.219 118.272 440.672 111.701 441.056L110.933 439.285C116.501 439.136 121.493 437.429 121.493 433.077C121.493 430.837 119.851 429.067 116.971 429.067C113.451 429.067 108.032 431.413 106.325 432.096L105.536 430.197Z" fill="#40322D"/>
<path d="M127.381 427.893C128.171 427.979 129.088 428.021 130.005 428.021C132.309 428.021 134.997 427.744 137.451 426.933L137.493 428.512C135.403 429.088 132.608 429.557 130.005 429.536C129.216 429.536 128.299 429.515 127.509 429.493L127.381 427.893ZM134.955 424.416C134.677 425.461 134.229 427.467 133.717 428.981C132.693 432.053 130.731 435.936 128.96 438.325L127.317 437.472C129.216 435.253 131.2 431.456 132.075 428.939C132.544 427.595 133.013 425.717 133.077 424.224L134.955 424.416ZM139.989 431.008C139.925 431.883 139.925 432.523 139.947 433.291C139.989 434.677 140.181 437.92 140.181 439.328C140.181 441.035 139.093 442.421 136.448 442.421C134.101 442.421 132.203 441.483 132.203 439.349C132.203 437.387 134.059 436.149 136.448 436.149C140.032 436.149 142.784 437.941 144.533 439.456L143.637 440.907C141.995 439.413 139.541 437.515 136.405 437.515C134.827 437.515 133.76 438.24 133.76 439.221C133.76 440.203 134.592 440.885 136.256 440.885C138.027 440.885 138.624 439.947 138.624 438.795C138.624 437.173 138.389 433.355 138.304 431.008H139.989ZM144.256 431.563C143.104 430.581 140.779 429.28 139.371 428.619L140.224 427.339C141.781 428 144.192 429.387 145.216 430.155L144.256 431.563Z" fill="#40322D"/>
<path d="M155.712 424.779C155.627 425.163 155.541 425.632 155.456 426.037C155.307 426.805 155.029 428.555 154.731 429.877C154.005 432.885 152.491 438.197 150.08 442.08L148.331 441.397C150.763 438.133 152.469 432.437 153.045 429.835C153.451 428.128 153.728 426.208 153.728 424.565L155.712 424.779ZM163.051 427.232C164.373 428.96 166.229 432.843 166.955 434.805L165.291 435.595C164.672 433.419 162.987 429.707 161.493 427.936L163.051 427.232ZM148.032 429.451C148.693 429.493 149.248 429.472 149.931 429.451C151.531 429.408 155.861 428.939 157.312 428.939C159.211 428.939 160.768 429.664 160.768 432.544C160.768 435.083 160.427 438.475 159.531 440.245C158.869 441.675 157.803 442.037 156.416 442.037C155.605 442.037 154.581 441.888 153.92 441.717L153.621 439.947C154.517 440.224 155.648 440.373 156.245 440.373C157.035 440.373 157.675 440.203 158.101 439.285C158.784 437.835 159.125 435.061 159.125 432.757C159.125 430.795 158.229 430.432 156.864 430.432C155.435 430.432 151.424 430.923 150.123 431.051C149.632 431.115 148.757 431.221 148.203 431.307L148.032 429.451ZM163.285 424.139C163.819 424.907 164.587 426.208 165.035 427.083L163.883 427.595C163.456 426.72 162.731 425.44 162.133 424.629L163.285 424.139ZM165.632 423.285C166.208 424.075 167.019 425.419 167.445 426.208L166.272 426.72C165.824 425.781 165.12 424.565 164.501 423.776L165.632 423.285Z" fill="#40322D"/>
<path d="M175.211 424.501C174.763 426.08 174.357 428.96 174.229 430.453C175.104 428.256 177.323 425.589 180.032 425.589C182.848 425.589 184.896 428.448 184.896 432.928C184.896 438.837 181.163 441.461 175.893 442.421L174.869 440.885C179.52 440.181 183.125 438.304 183.125 432.949C183.125 429.579 181.995 427.147 179.755 427.147C177.088 427.147 174.613 431.029 174.357 433.824C174.251 434.635 174.251 435.381 174.4 436.448L172.736 436.576C172.629 435.765 172.523 434.571 172.523 433.184C172.523 431.157 172.928 428.021 173.184 426.272C173.269 425.632 173.312 425.035 173.355 424.437L175.211 424.501Z" fill="#40322D"/>
<path d="M199.147 424.48C198.955 425.312 198.72 426.485 198.165 427.915C197.632 429.216 196.843 430.645 195.989 431.755C196.821 431.264 198.037 430.965 198.976 430.965C200.619 430.965 201.899 431.947 201.899 433.675C201.899 434.784 201.941 437.237 201.963 438.56H200.32C200.405 437.429 200.427 435.232 200.405 434.123C200.384 432.885 199.531 432.309 198.421 432.309C197.056 432.309 195.712 432.992 194.731 433.867C194.112 434.464 193.515 435.232 192.811 436.107L191.339 435.019C194.411 432.075 195.84 429.6 196.565 427.787C197.035 426.613 197.333 425.333 197.397 424.331L199.147 424.48ZM191.829 426.784C192.981 426.933 194.453 426.997 195.435 426.997C198.315 426.997 202.005 426.827 205.013 426.293V427.872C202.027 428.32 198.059 428.512 195.349 428.512C194.432 428.512 193.024 428.469 191.829 428.384V426.784ZM208.128 431.925C207.595 432.096 206.827 432.395 206.251 432.608C204.736 433.205 202.709 434.016 200.64 435.083C198.528 436.192 197.035 437.344 197.035 438.816C197.035 440.48 198.677 440.736 200.875 440.736C202.539 440.736 204.843 440.544 206.72 440.203L206.656 441.931C205.035 442.123 202.667 442.293 200.811 442.293C197.781 442.293 195.328 441.632 195.328 439.051C195.328 436.448 197.973 434.848 200.512 433.547C202.539 432.501 204.267 431.84 205.675 431.179C206.315 430.88 206.848 430.645 207.445 430.347L208.128 431.925Z" fill="#40322D"/>
<path d="M212.075 429.109H219.605V430.304H212.075V429.109ZM215.104 429.472H216.576V433.76H215.104V429.472ZM211.669 433.675C213.653 433.397 216.683 432.928 219.605 432.459L219.691 433.717C216.896 434.187 214.016 434.656 211.904 434.997L211.669 433.675ZM220.843 428.981H222.315V431.157C222.315 432.928 221.632 434.848 218.517 436.085C218.325 435.765 217.771 435.189 217.472 434.976C220.331 433.931 220.843 432.501 220.843 431.115V428.981ZM226.837 428.981H228.373V433.291C228.373 433.696 228.373 433.931 228.459 434.016C228.523 434.08 228.651 434.101 228.8 434.101C228.928 434.101 229.184 434.101 229.376 434.101C229.547 434.101 229.717 434.08 229.803 434.016C229.888 433.973 229.973 433.824 230.016 433.589C230.059 433.312 230.08 432.715 230.101 431.904C230.379 432.16 230.848 432.395 231.211 432.501C231.189 433.291 231.125 434.187 230.997 434.507C230.891 434.848 230.677 435.083 230.4 435.211C230.165 435.317 229.76 435.36 229.419 435.36C229.184 435.36 228.651 435.36 228.437 435.36C228.011 435.36 227.541 435.275 227.243 435.019C226.944 434.741 226.837 434.4 226.837 433.227V428.981ZM211.819 436.555H230.891V437.877H211.819V436.555ZM220.523 434.912H222.08V443.019H220.523V434.912ZM219.925 437.237L221.163 437.813C219.179 439.925 215.552 441.696 212.395 442.507C212.16 442.101 211.712 441.525 211.371 441.205C214.528 440.544 218.112 439.008 219.925 437.237ZM222.656 437.323C224.533 439.029 228.139 440.459 231.296 441.099C230.955 441.397 230.507 442.037 230.272 442.443C227.115 441.675 223.488 439.925 221.483 437.856L222.656 437.323ZM214.144 425.077H221.035V426.379H214.144V425.077ZM222.464 425.077H231.083V426.379H222.464V425.077ZM214.549 423.328L216.064 423.712C215.275 425.568 214.016 427.403 212.779 428.597C212.48 428.341 211.84 427.915 211.477 427.701C212.736 426.613 213.888 424.971 214.549 423.328ZM222.955 423.328L224.469 423.691C223.701 425.589 222.336 427.381 220.971 428.512C220.651 428.277 219.968 427.893 219.584 427.701C220.992 426.656 222.272 425.035 222.955 423.328ZM215.339 426.101L216.597 425.76C217.088 426.485 217.6 427.488 217.835 428.128L216.491 428.512C216.299 427.872 215.808 426.848 215.339 426.101ZM224.384 426.08L225.707 425.675C226.347 426.4 227.072 427.403 227.392 428.085L226.027 428.555C225.728 427.872 225.045 426.827 224.384 426.08ZM222.592 431.861L223.509 431.008C224.555 431.627 225.856 432.565 226.475 433.205L225.536 434.187C224.896 433.504 223.637 432.523 222.592 431.861ZM221.419 428.981H227.648V430.133H221.419V428.981Z" fill="#40322D"/>
<path d="M247.019 425.611C246.549 425.952 245.888 426.528 245.547 426.827C244.075 428.107 241.003 430.517 239.424 431.84C238.144 432.949 238.123 433.269 239.509 434.421C241.451 436.021 245.227 439.051 247.488 441.333L245.973 442.72C245.525 442.208 245.013 441.696 244.501 441.163C242.987 439.627 239.765 436.853 237.76 435.211C235.755 433.525 235.989 432.608 237.909 430.987C239.531 429.643 242.773 427.083 244.203 425.632C244.629 425.205 245.184 424.587 245.419 424.203L247.019 425.611Z" fill="#40322D"/>
<path d="M263.36 430.325H272.128V431.925H263.36V430.325ZM254.421 440.437H273.579V442.037H254.421V440.437ZM262.443 423.733H264.128V441.291H262.443V423.733Z" fill="#40322D"/>
<path d="M276.331 427.296C277.141 427.275 277.824 427.232 278.251 427.189C279.616 427.04 283.648 426.656 287.573 426.315C289.92 426.123 291.904 425.995 293.333 425.952L293.355 427.659C292.117 427.637 290.261 427.68 289.173 427.979C286.123 428.96 284.267 432.224 284.267 434.741C284.267 438.901 288.171 440.245 291.627 440.373L291.008 442.123C287.061 441.973 282.581 439.883 282.581 435.104C282.581 431.797 284.608 429.067 286.549 427.915C284.267 428.149 278.827 428.683 276.523 429.173L276.331 427.296ZM290.261 430.261C290.752 430.965 291.563 432.288 292.032 433.248L290.923 433.739C290.432 432.715 289.835 431.627 289.195 430.731L290.261 430.261ZM292.587 429.365C293.12 430.069 293.952 431.371 294.443 432.309L293.355 432.843C292.843 431.819 292.203 430.752 291.541 429.856L292.587 429.365Z" fill="#40322D"/>
<path d="M309.141 426.656H316.053V428.171H309.141V426.656ZM309.12 436.341H316.416V437.856H309.12V436.341ZM309.035 431.477H315.627V432.928H309.035V431.477ZM297.621 426.656H303.915V428.171H297.621V426.656ZM297.877 431.477H303.851V432.928H297.877V431.477ZM308.309 423.541H309.888V443.04H308.309V423.541ZM296.832 436.811C299.2 436.448 302.912 435.851 306.432 435.232L306.517 436.661C303.189 437.28 299.691 437.92 297.173 438.368L296.832 436.811ZM303.189 423.541H304.768V433.504C304.768 436.256 303.915 440.864 298.773 443.275C298.517 442.912 298.005 442.4 297.621 442.08C302.507 440.011 303.189 435.723 303.189 433.504V423.541Z" fill="#40322D"/>
<path d="M327.445 433.803H329.067V443.061H327.445V433.803ZM324.011 430.88V432.949H332.075V430.88H324.011ZM322.453 429.664H333.717V434.187H322.453V429.664ZM320.555 435.957H334.848V437.408H322.155V442.08H320.555V435.957ZM334.059 435.957H335.68V440.416C335.68 441.248 335.509 441.696 334.848 441.931C334.165 442.187 333.077 442.187 331.413 442.187C331.328 441.76 331.093 441.163 330.859 440.736C332.139 440.779 333.291 440.779 333.632 440.757C333.952 440.736 334.059 440.651 334.059 440.416V435.957ZM327.296 423.413H328.939V427.296H327.296V423.413ZM319.147 426.72H336.981V431.328H335.381V428.149H320.704V431.328H319.147V426.72ZM320.917 424.203L322.347 423.627C323.051 424.395 323.797 425.419 324.16 426.123L322.624 426.827C322.304 426.101 321.579 424.992 320.917 424.203ZM333.589 423.584L335.253 424.16C334.549 425.099 333.739 426.08 333.099 426.741L331.797 426.208C332.395 425.504 333.184 424.352 333.589 423.584Z" fill="#40322D"/>
<path d="M348.373 426.933C350.699 427.339 355.029 427.253 357.141 426.933V428.661C354.859 428.917 350.72 428.917 348.395 428.661L348.373 426.933ZM349.205 435.637C349.013 436.405 348.907 437.003 348.907 437.579C348.907 438.56 349.589 439.52 352.512 439.52C354.411 439.52 356.075 439.349 357.781 438.944L357.824 440.736C356.501 441.013 354.709 441.184 352.491 441.184C348.928 441.184 347.328 439.989 347.328 437.984C347.328 437.28 347.435 436.512 347.669 435.488L349.205 435.637ZM344.32 425.291C344.192 425.653 344.021 426.336 343.936 426.72C343.531 428.704 342.869 432.501 342.869 434.912C342.869 435.936 342.933 436.832 343.061 437.877C343.424 436.917 343.915 435.637 344.277 434.763L345.173 435.467C344.64 436.981 343.851 439.221 343.659 440.245C343.595 440.544 343.552 440.949 343.552 441.205C343.573 441.419 343.595 441.717 343.616 441.952L342.101 442.059C341.675 440.544 341.312 438.091 341.312 435.189C341.312 432.053 342.016 428.405 342.272 426.635C342.336 426.144 342.4 425.611 342.421 425.141L344.32 425.291Z" fill="#40322D"/>
<path d="M41.1093 479.723H60.2453V481.045H41.1093V479.723ZM41.216 465.877H60.1173V467.2H41.216V465.877ZM42.688 476.608H58.88V477.888H42.688V476.608ZM49.7707 463.723H51.3707V480.363H49.7707V463.723ZM57.1947 462.208L58.048 463.445C54.2293 464.149 48.1493 464.512 43.1573 464.619C43.1573 464.235 42.9653 463.68 42.816 463.339C47.7867 463.211 53.824 462.827 57.1947 462.208ZM44.928 472.32V473.963H56.4693V472.32H44.928ZM44.928 469.632V471.253H56.4693V469.632H44.928ZM43.3707 468.48H58.0907V475.115H43.3707V468.48Z" fill="#40322D"/>
<path d="M62.2933 473.749H81.7067V475.093H62.2933V473.749ZM62.8053 463.019H81.1733V464.427H62.8053V463.019ZM69.696 471.509L71.2533 471.936C69.8667 474.155 67.904 476.949 66.5387 478.699L65.024 478.187C66.3893 476.459 68.3733 473.6 69.696 471.509ZM76.096 474.219L77.632 474.667C75.7547 479.36 71.2107 481.109 63.2107 481.707C63.104 481.237 62.848 480.661 62.592 480.299C70.208 479.893 74.3893 478.379 76.096 474.219ZM66.176 477.973L66.9867 476.8C72.256 477.739 77.7387 479.168 81.0453 480.469L80.0853 481.771C76.8213 480.427 71.5947 478.976 66.176 477.973ZM68.6293 463.552H70.144V470.997H68.6293V463.552ZM73.6 463.552H75.1147V470.997H73.6V463.552ZM65.3653 467.563V470.464H78.6773V467.563H65.3653ZM63.872 466.261H80.2773V471.787H63.872V466.261Z" fill="#40322D"/>
<path d="M84.7147 466.56C85.504 466.645 86.4213 466.688 87.3387 466.688C89.6427 466.688 92.3307 466.411 94.784 465.6L94.8267 467.179C92.736 467.755 89.9413 468.224 87.3387 468.203C86.5493 468.203 85.632 468.181 84.8427 468.16L84.7147 466.56ZM92.288 463.083C92.0107 464.128 91.5627 466.133 91.0507 467.648C90.0267 470.72 88.064 474.603 86.2933 476.992L84.6507 476.139C86.5493 473.92 88.5333 470.123 89.408 467.605C89.8773 466.261 90.3467 464.384 90.4107 462.891L92.288 463.083ZM97.3227 469.675C97.2587 470.549 97.2587 471.189 97.28 471.957C97.3227 473.344 97.5147 476.587 97.5147 477.995C97.5147 479.701 96.4267 481.088 93.7813 481.088C91.4347 481.088 89.536 480.149 89.536 478.016C89.536 476.053 91.392 474.816 93.7813 474.816C97.3653 474.816 100.117 476.608 101.867 478.123L100.971 479.573C99.328 478.08 96.8747 476.181 93.7387 476.181C92.16 476.181 91.0933 476.907 91.0933 477.888C91.0933 478.869 91.9253 479.552 93.5893 479.552C95.36 479.552 95.9573 478.613 95.9573 477.461C95.9573 475.84 95.7227 472.021 95.6373 469.675H97.3227ZM101.589 470.229C100.437 469.248 98.112 467.947 96.704 467.285L97.5573 466.005C99.1147 466.667 101.525 468.053 102.549 468.821L101.589 470.229Z" fill="#40322D"/>
<path d="M113.429 463.232C113.301 463.701 113.152 464.512 113.067 464.917C112.747 466.453 112.299 468.864 111.701 470.997C110.933 474.027 109.504 478.443 108.373 480.768L106.517 480.149C107.797 477.931 109.291 473.6 110.101 470.592C110.613 468.629 111.168 465.941 111.317 464.832C111.403 464.235 111.445 463.509 111.403 463.061L113.429 463.232ZM108.715 466.795C111.061 466.795 114.197 466.411 116.843 465.749V467.413C114.197 468.011 110.976 468.373 108.672 468.373C107.733 468.373 106.987 468.352 106.197 468.288L106.155 466.624C107.157 466.752 107.925 466.795 108.715 466.795ZM115.456 469.717C116.565 469.611 117.995 469.547 119.36 469.547C120.597 469.547 121.899 469.589 123.051 469.717L123.008 471.339C121.899 471.211 120.661 471.083 119.403 471.083C118.08 471.083 116.757 471.168 115.456 471.317V469.717ZM115.883 474.901C115.712 475.605 115.584 476.267 115.584 476.821C115.584 477.824 116.16 478.805 119.189 478.805C120.597 478.805 122.048 478.656 123.371 478.4L123.307 480.107C122.155 480.277 120.725 480.405 119.168 480.405C115.819 480.405 113.984 479.381 113.984 477.269C113.984 476.459 114.112 475.648 114.304 474.752L115.883 474.901Z" fill="#40322D"/>
<path d="M139.605 463.488C139.456 464.021 139.328 464.768 139.221 465.173C138.453 468.693 136.96 473.152 135.253 475.499C133.632 477.76 132.075 479.36 130.133 479.36C128.512 479.36 127.147 478.016 127.147 475.52C127.147 472.832 128.789 469.995 131.051 468.48C133.163 467.051 135.253 466.496 137.451 466.496C141.632 466.496 144.661 469.312 144.661 473.472C144.661 477.739 141.611 480.32 137.024 480.96L136.043 479.445C140.501 479.04 142.955 476.715 142.955 473.408C142.955 470.272 140.693 467.968 137.259 467.968C135.189 467.968 133.333 468.672 131.669 469.909C129.856 471.211 128.704 473.493 128.704 475.413C128.704 476.821 129.323 477.675 130.283 477.675C131.669 477.675 133.163 475.861 134.251 474.133C135.659 471.957 137.088 468.053 137.621 464.939C137.707 464.512 137.771 463.808 137.749 463.317L139.605 463.488ZM130.859 464.469C130.965 465.045 131.136 465.749 131.307 466.347C131.861 468.437 133.056 471.723 133.952 473.216C134.677 474.453 135.68 475.861 136.704 476.843L135.36 477.931C134.507 476.992 133.717 475.947 132.907 474.56C131.861 472.896 130.624 469.632 129.813 466.965C129.6 466.283 129.365 465.579 129.088 465.024L130.859 464.469Z" fill="#40322D"/>
<path d="M152.491 481.195C151.104 479.509 149.269 477.696 147.755 476.459L149.141 475.243C150.677 476.48 152.597 478.4 153.941 479.957L152.491 481.195Z" fill="#40322D"/>
<path d="M174.549 467.264H176.213V478.741C176.213 479.744 176.469 479.936 177.664 479.936C178.261 479.936 181.035 479.936 181.803 479.936C183.04 479.936 183.232 479.232 183.403 475.84C183.808 476.139 184.491 476.437 184.96 476.544C184.704 480.384 184.213 481.536 181.888 481.536C181.333 481.536 178.069 481.536 177.536 481.536C175.211 481.536 174.549 480.939 174.549 478.699V467.264ZM174.592 463.275L175.637 462.144C177.472 463.339 179.797 465.088 181.035 466.091L179.968 467.392C178.731 466.304 176.384 464.512 174.592 463.275ZM171.136 468.544L172.629 468.928C172.16 471.296 171.371 474.368 170.176 476.245L168.661 475.627C169.877 473.771 170.709 470.869 171.136 468.544ZM183.744 469.931L185.173 469.269C186.667 471.403 188.096 474.197 188.693 476.075L187.157 476.843C186.624 474.944 185.173 472.064 183.744 469.931ZM184.875 463.36L186.453 464.021C182.955 470.677 177.323 476.821 169.728 480.448C169.493 480.085 169.024 479.509 168.683 479.189C176.043 475.84 181.781 469.675 184.875 463.36Z" fill="#40322D"/>
<path d="M190.293 473.749H209.707V475.093H190.293V473.749ZM190.805 463.019H209.173V464.427H190.805V463.019ZM197.696 471.509L199.253 471.936C197.867 474.155 195.904 476.949 194.539 478.699L193.024 478.187C194.389 476.459 196.373 473.6 197.696 471.509ZM204.096 474.219L205.632 474.667C203.755 479.36 199.211 481.109 191.211 481.707C191.104 481.237 190.848 480.661 190.592 480.299C198.208 479.893 202.389 478.379 204.096 474.219ZM194.176 477.973L194.987 476.8C200.256 477.739 205.739 479.168 209.045 480.469L208.085 481.771C204.821 480.427 199.595 478.976 194.176 477.973ZM196.629 463.552H198.144V470.997H196.629V463.552ZM201.6 463.552H203.115V470.997H201.6V463.552ZM193.365 467.563V470.464H206.677V467.563H193.365ZM191.872 466.261H208.277V471.787H191.872V466.261Z" fill="#40322D"/>
<path d="M212.715 466.56C213.504 466.645 214.421 466.688 215.339 466.688C217.643 466.688 220.331 466.411 222.784 465.6L222.827 467.179C220.736 467.755 217.941 468.224 215.339 468.203C214.549 468.203 213.632 468.181 212.843 468.16L212.715 466.56ZM220.288 463.083C220.011 464.128 219.563 466.133 219.051 467.648C218.027 470.72 216.064 474.603 214.293 476.992L212.651 476.139C214.549 473.92 216.533 470.123 217.408 467.605C217.877 466.261 218.347 464.384 218.411 462.891L220.288 463.083ZM225.323 469.675C225.259 470.549 225.259 471.189 225.28 471.957C225.323 473.344 225.515 476.587 225.515 477.995C225.515 479.701 224.427 481.088 221.781 481.088C219.435 481.088 217.536 480.149 217.536 478.016C217.536 476.053 219.392 474.816 221.781 474.816C225.365 474.816 228.117 476.608 229.867 478.123L228.971 479.573C227.328 478.08 224.875 476.181 221.739 476.181C220.16 476.181 219.093 476.907 219.093 477.888C219.093 478.869 219.925 479.552 221.589 479.552C223.36 479.552 223.957 478.613 223.957 477.461C223.957 475.84 223.723 472.021 223.637 469.675H225.323ZM229.589 470.229C228.437 469.248 226.112 467.947 224.704 467.285L225.557 466.005C227.115 466.667 229.525 468.053 230.549 468.821L229.589 470.229Z" fill="#40322D"/>
<path d="M236.992 465.045C238.528 465.216 240.491 465.301 242.645 465.301C244.693 465.301 246.848 465.173 248.384 465.003V466.752C246.933 466.859 244.608 467.008 242.645 467.008C240.512 467.008 238.677 466.923 236.992 466.773V465.045ZM237.845 473.643C237.589 474.475 237.419 475.264 237.419 476.053C237.419 477.696 239.083 478.805 242.496 478.805C245.419 478.805 248.171 478.485 249.792 477.973L249.813 479.808C248.277 480.213 245.568 480.533 242.539 480.533C238.208 480.533 235.691 479.125 235.691 476.437C235.691 475.328 235.925 474.325 236.117 473.472L237.845 473.643Z" fill="#40322D"/>
<path d="M262.123 463.531C261.995 464 261.824 464.811 261.739 465.216C261.44 466.752 260.992 469.184 260.395 471.296C259.627 474.325 258.197 478.741 257.067 481.067L255.189 480.448C256.491 478.251 257.984 473.899 258.773 470.891C259.307 468.928 259.861 466.261 260.011 465.131C260.096 464.533 260.139 463.808 260.096 463.36L262.123 463.531ZM257.408 467.093C259.755 467.093 262.891 466.731 265.536 466.048V467.733C262.891 468.331 259.669 468.672 257.365 468.672C256.427 468.672 255.68 468.651 254.891 468.587L254.848 466.944C255.851 467.072 256.619 467.093 257.408 467.093ZM264.149 470.037C265.259 469.931 266.667 469.845 268.053 469.845C269.291 469.845 270.592 469.888 271.744 470.016L271.701 471.637C270.592 471.509 269.355 471.403 268.096 471.403C266.752 471.403 265.451 471.467 264.149 471.616V470.037ZM264.576 475.221C264.405 475.904 264.277 476.587 264.277 477.141C264.277 478.144 264.853 479.125 267.883 479.125C269.269 479.125 270.741 478.955 272.064 478.699L272 480.427C270.848 480.576 269.419 480.725 267.861 480.725C264.512 480.725 262.677 479.68 262.677 477.568C262.677 476.757 262.805 475.968 262.997 475.051L264.576 475.221ZM269.419 464.192C269.973 464.939 270.741 466.261 271.189 467.115L270.037 467.627C269.611 466.773 268.864 465.472 268.288 464.661L269.419 464.192ZM271.787 463.317C272.363 464.107 273.173 465.429 273.579 466.24L272.427 466.752C271.979 465.813 271.253 464.619 270.656 463.808L271.787 463.317Z" fill="#40322D"/>
<path d="M285.931 478.485C289.536 477.952 292.779 476.288 292.757 472.619C292.757 470.976 291.456 468.8 288.619 468.8C285.888 468.8 283.435 470.315 281.365 472.469V470.571C283.925 468.16 286.635 467.264 288.875 467.264C291.84 467.264 294.464 469.333 294.464 472.64C294.485 476.949 291.349 479.189 286.699 480.085L285.931 478.485ZM281.109 468.203C280.427 468.288 278.101 468.587 276.523 468.821L276.331 467.051C276.8 467.072 277.205 467.072 277.739 467.029C278.869 466.965 281.515 466.645 282.517 466.325L283.136 467.051C282.773 467.605 282.197 468.523 281.835 469.12L281.195 472.043C280.213 473.557 278.229 476.437 276.885 478.293L275.819 476.843C277.141 475.179 280.021 471.253 280.853 469.845L280.939 468.757L281.109 468.203ZM280.896 464.661C280.896 464.171 280.917 463.616 280.811 463.083L282.837 463.147C282.539 464.533 281.877 470.635 281.877 474.389C281.877 476.331 281.877 477.632 281.963 479.531C281.984 479.893 282.048 480.427 282.069 480.832H280.235C280.256 480.533 280.299 479.915 280.299 479.573C280.299 477.504 280.32 476.437 280.341 474.091C280.384 472.213 280.896 465.451 280.896 464.661Z" fill="#40322D"/>
<path d="M303.211 463.168C302.763 464.747 302.357 467.627 302.229 469.12C303.104 466.923 305.323 464.256 308.032 464.256C310.848 464.256 312.896 467.115 312.896 471.595C312.896 477.504 309.163 480.128 303.893 481.088L302.869 479.552C307.52 478.848 311.125 476.971 311.125 471.616C311.125 468.245 309.995 465.813 307.755 465.813C305.088 465.813 302.613 469.696 302.357 472.491C302.251 473.301 302.251 474.048 302.4 475.115L300.736 475.243C300.629 474.432 300.523 473.237 300.523 471.851C300.523 469.824 300.928 466.688 301.184 464.939C301.269 464.299 301.312 463.701 301.355 463.104L303.211 463.168Z" fill="#40322D"/>
<path d="M327.147 463.147C326.955 463.979 326.72 465.152 326.165 466.581C325.632 467.883 324.843 469.312 323.989 470.421C324.821 469.931 326.037 469.632 326.976 469.632C328.619 469.632 329.899 470.613 329.899 472.341C329.899 473.451 329.941 475.904 329.963 477.227H328.32C328.405 476.096 328.427 473.899 328.405 472.789C328.384 471.552 327.531 470.976 326.421 470.976C325.056 470.976 323.712 471.659 322.731 472.533C322.112 473.131 321.515 473.899 320.811 474.773L319.339 473.685C322.411 470.741 323.84 468.267 324.565 466.453C325.035 465.28 325.333 464 325.397 462.997L327.147 463.147ZM319.829 465.451C320.981 465.6 322.453 465.664 323.435 465.664C326.315 465.664 330.005 465.493 333.013 464.96V466.539C330.027 466.987 326.059 467.179 323.349 467.179C322.432 467.179 321.024 467.136 319.829 467.051V465.451ZM336.128 470.592C335.595 470.763 334.827 471.061 334.251 471.275C332.736 471.872 330.709 472.683 328.64 473.749C326.528 474.859 325.035 476.011 325.035 477.483C325.035 479.147 326.677 479.403 328.875 479.403C330.539 479.403 332.843 479.211 334.72 478.869L334.656 480.597C333.035 480.789 330.667 480.96 328.811 480.96C325.781 480.96 323.328 480.299 323.328 477.717C323.328 475.115 325.973 473.515 328.512 472.213C330.539 471.168 332.267 470.507 333.675 469.845C334.315 469.547 334.848 469.312 335.445 469.013L336.128 470.592Z" fill="#40322D"/>
<path d="M348.096 463.232C347.968 463.808 347.904 464.256 347.819 464.725C347.541 467.115 346.581 473.685 346.581 475.989C346.581 478.059 347.755 479.317 350.187 479.317C353.429 479.317 355.499 477.909 355.499 475.691C355.499 474.261 354.731 472.683 353.152 471.36L355.029 470.955C356.501 472.576 357.227 474.069 357.227 475.883C357.227 479.061 354.389 481.003 350.165 481.003C347.285 481.003 344.939 479.723 344.939 476.245C344.939 473.963 345.941 467.584 346.176 464.64C346.24 463.893 346.24 463.509 346.197 463.125L348.096 463.232ZM341.269 466.069C343.061 466.645 345.621 466.923 347.52 466.923C349.141 466.923 350.613 466.837 351.872 466.645L351.829 468.267C350.464 468.395 349.205 468.459 347.477 468.459C345.6 468.459 343.04 468.139 341.163 467.627L341.269 466.069ZM340.736 471.381C342.805 472.107 345.301 472.299 347.264 472.299C348.736 472.299 350.208 472.256 351.701 472.043L351.68 473.664C350.251 473.813 348.928 473.856 347.499 473.856C345.173 473.856 342.592 473.6 340.651 473.003L340.736 471.381Z" fill="#40322D"/>
<path d="M49.024 501.963C48.8533 502.539 48.7467 503.2 48.6187 503.755C48.32 505.461 47.4667 509.579 46.7413 511.563C48.5973 510.261 50.5173 509.728 52.736 509.728C56.128 509.728 58.112 511.456 58.112 513.952C58.112 518.411 53.568 520.053 47.0827 519.371L46.6347 517.664C51.584 518.347 56.3627 517.515 56.3627 513.995C56.3627 512.416 55.0613 511.179 52.5653 511.179C50.0267 511.179 47.6587 512.053 46.2507 513.739C45.9947 514.059 45.8027 514.357 45.5893 514.72L44.0107 514.165C45.632 510.987 46.7627 505.696 47.0187 503.648C47.104 502.965 47.1467 502.453 47.104 501.877L49.024 501.963ZM42.3893 504.693C43.52 504.885 45.1413 505.035 46.4213 505.035C49.152 505.035 53.3547 504.715 56.704 503.968L56.7467 505.611C53.7173 506.144 49.3653 506.571 46.4427 506.571C44.992 506.571 43.6267 506.464 42.4107 506.357L42.3893 504.693Z" fill="#40322D"/>
<path d="M62.8693 507.531C63.6587 507.403 64.4267 507.168 65.2373 506.933C67.0293 506.357 71.232 504.821 74.3467 504.821C77.8667 504.821 80.6827 506.869 80.6827 510.432C80.6827 515.552 75.6053 518.005 69.0347 518.389L68.2667 516.619C73.8347 516.469 78.8267 514.763 78.8267 510.411C78.8267 508.171 77.184 506.4 74.304 506.4C70.784 506.4 65.3653 508.747 63.6587 509.429L62.8693 507.531Z" fill="#40322D"/>
<path d="M84.2027 507.531C84.992 507.403 85.76 507.168 86.5707 506.933C88.3627 506.357 92.5653 504.821 95.68 504.821C99.2 504.821 102.016 506.869 102.016 510.432C102.016 515.552 96.9387 518.005 90.368 518.389L89.6 516.619C95.168 516.469 100.16 514.763 100.16 510.411C100.16 508.171 98.5173 506.4 95.6373 506.4C92.1173 506.4 86.6987 508.747 84.992 509.429L84.2027 507.531Z" fill="#40322D"/>
<path d="M118.421 502.709H119.915V514.528H118.421V502.709ZM122.219 500.981H123.776V518.155C123.776 519.221 123.52 519.691 122.859 519.989C122.219 520.267 121.045 520.309 119.467 520.309C119.381 519.84 119.147 519.115 118.933 518.603C120.192 518.645 121.387 518.645 121.771 518.645C122.112 518.624 122.219 518.539 122.219 518.176V500.981ZM110.165 500.832H111.68V520.373H110.165V500.832ZM114.645 511.179H116.117V517.045C116.117 517.771 116.011 518.176 115.477 518.432C114.965 518.688 114.155 518.709 112.96 518.688C112.917 518.283 112.725 517.707 112.512 517.301C113.429 517.323 114.112 517.323 114.368 517.301C114.581 517.301 114.645 517.237 114.645 517.024V511.179ZM105.92 511.179H115.243V512.629H107.371V518.624H105.92V511.179ZM104.939 507.552H116.885V509.024H104.939V507.552ZM107.008 503.84H116.032V505.312H106.709L107.008 503.84ZM107.029 501.259L108.523 501.557C108.011 503.776 107.179 506.037 106.283 507.488C105.963 507.317 105.259 507.04 104.875 506.912C105.835 505.461 106.581 503.328 107.029 501.259Z" fill="#40322D"/>
<path d="M135.723 504.331H145.835V505.867H134.976L135.723 504.331ZM138.389 508.96H145.344V510.432H138.389V508.96ZM138.368 513.653H145.643V515.168H138.368V513.653ZM137.579 504.821H139.221V520.373H137.579V504.821ZM136.533 501.003L138.091 501.408C136.875 504.8 135.019 508.149 133.056 510.347C132.821 510.069 132.181 509.493 131.819 509.237C133.76 507.253 135.488 504.139 136.533 501.003ZM131.413 500.832L132.949 501.323C131.541 504.928 129.344 508.576 127.019 510.965C126.869 510.581 126.379 509.728 126.08 509.344C128.213 507.275 130.197 504.075 131.413 500.832ZM129.131 506.336L130.709 504.736L130.752 504.757V520.352H129.131V506.336Z" fill="#40322D"/>
<path d="M153.92 502.048C153.813 502.752 153.749 503.499 153.707 504.203C153.621 506.613 153.451 511.669 153.451 514.848C153.451 517.195 154.923 518.005 156.949 518.005C160.853 518.005 163.072 515.829 164.608 513.611L165.803 515.061C164.352 517.088 161.579 519.755 156.907 519.755C153.835 519.755 151.723 518.496 151.723 514.997C151.723 511.84 151.936 506.443 151.936 504.203C151.936 503.413 151.872 502.667 151.744 502.048H153.92Z" fill="#40322D"/>
<path d="M169.146 504.501C169.957 504.48 170.64 504.437 171.066 504.395C172.453 504.245 176.464 503.861 180.41 503.52C182.736 503.328 184.72 503.2 186.149 503.157L186.17 504.864C184.933 504.843 183.077 504.885 181.989 505.184C178.938 506.165 177.082 509.429 177.082 511.947C177.082 516.107 180.986 517.429 184.442 517.579L183.845 519.328C179.877 519.179 175.397 517.088 175.397 512.309C175.397 508.981 177.424 506.272 179.386 505.12C177.082 505.355 171.664 505.888 169.338 506.379L169.146 504.501Z" fill="#40322D"/>
<path d="M196.788 501.643C196.724 502.027 196.682 502.603 196.66 503.115C196.596 504.373 196.49 507.637 196.49 509.856C196.49 512.075 196.596 515.403 196.596 516.747C196.596 518.709 195.871 519.349 194.698 519.349C193.034 519.349 190.26 517.728 190.26 515.808C190.26 513.931 192.799 511.947 195.444 510.944C197.343 510.197 199.476 509.813 201.162 509.813C204.298 509.813 206.538 511.499 206.538 514.059C206.538 516.64 204.916 518.283 201.972 518.965C201.034 519.179 200.074 519.221 199.327 519.264L198.73 517.557C199.54 517.557 200.436 517.579 201.247 517.408C203.103 517.045 204.81 516.043 204.81 514.059C204.81 512.245 203.167 511.285 201.162 511.285C199.242 511.285 197.492 511.691 195.679 512.416C193.588 513.227 191.946 514.656 191.946 515.744C191.946 516.704 193.439 517.557 194.271 517.557C194.762 517.557 195.039 517.216 195.039 516.512C195.039 515.275 194.932 512.309 194.932 509.941C194.932 507.488 195.018 504.011 195.018 503.136C195.018 502.731 194.975 501.984 194.911 501.643H196.788ZM203.423 504.011C204.938 504.8 207.263 506.251 208.287 507.104L207.434 508.469C206.388 507.488 203.999 506.016 202.634 505.291L203.423 504.011ZM190.623 505.461C191.796 505.611 192.564 505.632 193.332 505.632C195.444 505.632 198.836 505.184 200.948 504.544L200.991 506.208C198.794 506.741 195.295 507.211 193.375 507.211C192.18 507.211 191.37 507.168 190.666 507.104L190.623 505.461Z" fill="#40322D"/>
<path d="M216.586 501.835C216.138 503.413 215.732 506.293 215.604 507.787C216.479 505.589 218.698 502.923 221.407 502.923C224.223 502.923 226.271 505.781 226.271 510.261C226.271 516.171 222.538 518.795 217.268 519.755L216.244 518.219C220.895 517.515 224.5 515.637 224.5 510.283C224.5 506.912 223.37 504.48 221.13 504.48C218.463 504.48 215.988 508.363 215.732 511.157C215.626 511.968 215.626 512.715 215.775 513.781L214.111 513.909C214.004 513.099 213.898 511.904 213.898 510.517C213.898 508.491 214.303 505.355 214.559 503.605C214.644 502.965 214.687 502.368 214.73 501.771L216.586 501.835Z" fill="#40322D"/>
<path d="M242.911 501.749C242.868 502.112 242.826 502.539 242.804 503.179C242.762 504.032 242.762 506.891 242.762 508.683C242.762 511.499 243.082 515.232 243.082 516.661C243.082 518.155 242.1 519.669 239.327 519.669C236.255 519.669 234.57 518.581 234.57 516.512C234.57 514.571 236.426 513.269 239.498 513.269C243.999 513.269 247.519 515.701 249.162 517.045L248.18 518.56C246.26 516.789 243.103 514.656 239.306 514.656C237.258 514.656 236.17 515.445 236.17 516.427C236.17 517.429 237.002 518.155 239.114 518.155C240.351 518.155 241.396 517.792 241.396 516.299C241.396 514.656 241.183 510.56 241.183 508.683C241.183 506.763 241.183 504.523 241.183 503.029C241.183 502.667 241.162 502.027 241.098 501.749H242.911ZM234.762 504.053C236.127 504.309 238.794 504.523 240.202 504.523C242.911 504.523 245.77 504.331 248.543 503.883V505.44C246.132 505.717 243.082 505.995 240.223 505.995C238.751 505.995 236.127 505.803 234.783 505.632L234.762 504.053ZM234.655 508.597C236.17 508.832 238.602 508.981 240.01 508.981C243.103 508.981 245.94 508.768 248.714 508.363V509.963C245.812 510.325 243.21 510.475 240.01 510.475C238.538 510.475 236.191 510.368 234.676 510.197L234.655 508.597Z" fill="#40322D"/>
<path d="M265.418 501.771C265.375 502.027 265.311 502.859 265.311 503.115C265.247 504.501 265.29 508.619 265.311 510.325L263.69 509.493C263.69 508.555 263.668 504.309 263.604 503.136C263.562 502.56 263.498 501.963 263.455 501.771H265.418ZM254.068 504.757C256.97 504.715 262.303 504.523 265.588 504.523C268.191 504.523 270.836 504.523 271.839 504.544L271.818 506.123C270.623 506.059 268.703 506.016 265.567 506.016C261.898 506.016 257.332 506.165 254.111 506.4L254.068 504.757ZM265.268 510.944C265.268 513.803 263.946 515.232 262.004 515.232C260.212 515.232 258.484 513.973 258.484 511.648C258.484 509.536 260.234 507.957 262.26 507.957C264.735 507.957 265.994 509.792 265.994 512.245C265.994 515.147 264.586 518.347 259.636 519.819L258.207 518.432C262.09 517.515 264.351 515.616 264.351 512.096C264.351 510.176 263.412 509.365 262.26 509.365C261.13 509.365 260.084 510.24 260.084 511.627C260.084 512.971 261.087 513.739 262.26 513.739C263.583 513.739 264.436 512.629 264.095 510.347L265.268 510.944Z" fill="#40322D"/>
<path d="M275.389 513.483C277.181 513.483 278.631 514.933 278.631 516.725C278.631 518.517 277.181 519.968 275.389 519.968C273.597 519.968 272.125 518.517 272.125 516.725C272.125 514.933 273.597 513.483 275.389 513.483ZM275.389 518.88C276.583 518.88 277.543 517.92 277.543 516.725C277.543 515.531 276.583 514.571 275.389 514.571C274.194 514.571 273.213 515.531 273.213 516.725C273.213 517.92 274.194 518.88 275.389 518.88Z" fill="#40322D"/>
<path fill-rule="evenodd" clip-rule="evenodd" d="M133.333 276H40V274.667H133.333V276ZM360 276H266.667V274.667H360V276Z" fill="#40322D"/>
</svg>
