<svg width="467" height="700" viewBox="0 0 467 700" fill="none" xmlns="http://www.w3.org/2000/svg">
<path d="M0 15.5556C0 6.96446 6.959 0 15.5434 0H450.758C459.342 0 466.301 6.96446 466.301 15.5556V684.444C466.301 693.036 459.342 700 450.758 700H15.5434C6.95902 700 0 693.036 0 684.444V15.5556Z" fill="#E2DBD3"/>
<path d="M24.8694 43.5556H442.986V280H24.8694V43.5556Z" fill="#F8F6F0"/>
<path d="M280.012 119.438L289.713 109.73C291.635 107.801 291.635 104.68 289.713 102.756C287.791 100.833 284.672 100.827 282.744 102.756L273.044 112.464C271.122 114.394 271.122 117.515 273.044 119.438C274.965 121.361 278.084 121.361 280.012 119.438Z" fill="#40322D"/>
<path d="M283.303 134.916C283.561 135.548 283.929 136.101 284.384 136.556C285.741 137.914 287.828 138.405 289.719 137.644L302.44 132.495C304.964 131.475 306.18 128.599 305.16 126.074C304.141 123.549 301.268 122.326 298.744 123.352L286.023 128.495C283.5 129.515 282.284 132.39 283.303 134.916Z" fill="#40322D"/>
<path d="M257.51 109.103C260.034 110.123 262.901 108.901 263.926 106.375L269.065 93.6444C270.078 91.1191 268.869 88.2497 266.345 87.2298C263.822 86.2098 260.955 87.4264 259.929 89.9517L254.79 102.683C254.029 104.575 254.52 106.664 255.877 108.022C256.331 108.477 256.878 108.845 257.516 109.103H257.51Z" fill="#40322D"/>
<path d="M204.506 126.172C205.446 126.154 206.483 125.589 207.613 124.458L209.264 122.805C210.333 121.742 210.916 120.771 211.014 119.911C211.113 119.051 210.756 118.209 209.94 117.392L207.699 115.149L199.877 122.977L201.694 124.796C202.621 125.724 203.561 126.185 204.506 126.172Z" fill="#40322D"/>
<path d="M231.662 171.118L244.384 153.901L227.18 166.632L231.662 171.118Z" fill="#40322D"/>
<path d="M197.722 129.281L195.653 127.211L186.566 136.31L189.231 138.977C190.047 139.794 190.876 140.175 191.705 140.138C192.54 140.095 193.492 139.536 194.56 138.467L197.139 135.886C198.495 134.528 199.202 133.361 199.257 132.372C199.312 131.389 198.809 130.356 197.734 129.287L197.722 129.281Z" fill="#40322D"/>
<path d="M221.157 145.379C222.103 145.361 223.14 144.789 224.264 143.665L227.186 140.74C228.255 139.671 228.838 138.707 228.936 137.846C229.034 136.986 228.678 136.144 227.862 135.327L225.621 133.085L216.528 142.184L218.345 144.003C219.272 144.931 220.212 145.392 221.157 145.379Z" fill="#40322D"/>
<path d="M311.257 179.136L217.725 85.5399C214.538 82.3449 210.142 80.6613 205.636 80.9133L160.294 83.4631C157.384 83.629 155.057 85.9516 154.891 88.864L152.349 134.239C152.097 138.749 153.774 143.155 156.966 146.344L250.492 239.946C256.19 245.647 265.436 245.647 271.134 239.946L311.251 199.799C316.954 194.097 316.948 184.844 311.251 179.142L311.257 179.136ZM171.198 111.1C168.073 107.973 168.073 102.904 171.198 99.7762C174.323 96.6488 179.382 96.6549 182.507 99.7762C185.632 102.904 185.632 107.967 182.507 111.094C179.382 114.221 174.317 114.221 171.192 111.094L171.198 111.1ZM184.994 143.198L177.682 135.88L207.269 106.271L214.286 113.294C216.681 115.69 217.878 117.994 217.86 120.206C217.847 122.418 216.681 124.685 214.372 126.995L213.316 128.052C211.794 129.576 210.296 130.584 208.816 131.075C207.336 131.567 205.85 131.548 204.359 131.008C205.765 134.233 204.807 137.502 201.485 140.826L199.072 143.241C196.794 145.52 194.449 146.669 192.055 146.663C189.66 146.663 187.302 145.508 184.994 143.198ZM210.062 168.279L205.329 163.542C205.636 162.896 205.979 162.331 206.348 161.846C206.71 161.366 207.447 160.574 208.546 159.474L213.194 154.823C214.55 153.465 215.269 152.261 215.373 151.21C215.478 150.153 214.986 149.09 213.918 148.015L212.309 146.405L200.263 158.46L195.609 153.803L225.197 124.194L232.214 131.216C234.609 133.613 235.806 135.917 235.788 138.129C235.775 140.347 234.609 142.608 232.3 144.924L229.973 147.253C226.928 150.301 223.913 151.284 220.923 150.215C221.574 151.763 221.605 153.311 221.034 154.847C220.457 156.383 219.346 157.969 217.719 159.603L213.151 164.174C212.309 165.016 211.652 165.735 211.186 166.313C210.725 166.89 210.351 167.541 210.068 168.279H210.062ZM223.717 181.944L228.285 175.769L222.581 170.061L216.411 174.632L212.144 170.362L246.471 145.483L253.273 152.291L228.42 186.638L223.729 181.944H223.717ZM241.258 199.498L256.896 172.254L235.462 193.704L231.281 189.52L260.868 159.91L266.701 165.747L253.765 188.254L271.478 170.528L275.622 174.675L246.035 204.284L241.258 199.504V199.498ZM286.698 200.389L271.736 215.362C269.341 217.759 266.94 219 264.546 219.086C262.151 219.172 259.8 218.06 257.485 215.743L250.13 208.382L279.717 178.773L287.073 186.134C289.387 188.444 290.498 190.798 290.412 193.194C290.327 195.59 289.086 197.986 286.686 200.389H286.698Z" fill="#40322D"/>
<path d="M280.147 187.658L259.008 208.813L261.63 211.436C262.391 212.198 263.202 212.555 264.061 212.512C264.915 212.469 265.86 211.94 266.873 210.926L282.259 195.529C283.278 194.509 283.8 193.575 283.843 192.709C283.886 191.855 283.524 191.037 282.769 190.282L280.147 187.658Z" fill="#40322D"/>
<path d="M277.472 323.618C277.919 323.618 278.313 323.556 278.653 323.431C278.993 323.307 279.279 323.132 279.511 322.908C279.743 322.684 279.917 322.419 280.033 322.112C280.149 321.797 280.207 321.452 280.207 321.079C280.207 320.308 279.971 319.694 279.498 319.237C279.034 318.781 278.359 318.553 277.472 318.553C276.576 318.553 275.892 318.781 275.42 319.237C274.956 319.694 274.724 320.308 274.724 321.079C274.724 321.452 274.782 321.797 274.898 322.112C275.022 322.419 275.2 322.684 275.432 322.908C275.664 323.132 275.95 323.307 276.29 323.431C276.63 323.556 277.024 323.618 277.472 323.618ZM281.463 330.462C281.463 330.155 281.376 329.906 281.202 329.716C281.028 329.525 280.792 329.375 280.493 329.268C280.203 329.16 279.863 329.085 279.474 329.044C279.084 328.994 278.669 328.956 278.23 328.932C277.799 328.907 277.36 328.882 276.912 328.857C276.464 328.832 276.033 328.791 275.619 328.732C275.155 328.948 274.773 329.222 274.475 329.554C274.185 329.877 274.04 330.259 274.04 330.699C274.04 330.981 274.11 331.242 274.251 331.483C274.4 331.732 274.624 331.943 274.922 332.117C275.221 332.3 275.594 332.441 276.042 332.54C276.498 332.648 277.032 332.702 277.646 332.702C278.243 332.702 278.777 332.648 279.25 332.54C279.722 332.433 280.12 332.279 280.443 332.08C280.775 331.881 281.028 331.644 281.202 331.371C281.376 331.097 281.463 330.794 281.463 330.462ZM283.714 317.669V318.491C283.714 318.764 283.54 318.939 283.192 319.013L281.762 319.2C282.043 319.748 282.184 320.353 282.184 321.017C282.184 321.631 282.064 322.191 281.824 322.697C281.592 323.195 281.268 323.622 280.854 323.979C280.439 324.335 279.942 324.609 279.362 324.8C278.781 324.991 278.151 325.086 277.472 325.086C276.883 325.086 276.328 325.016 275.805 324.875C275.54 325.041 275.337 325.219 275.196 325.41C275.055 325.592 274.985 325.779 274.985 325.97C274.985 326.268 275.105 326.497 275.345 326.654C275.594 326.804 275.917 326.911 276.315 326.978C276.713 327.044 277.165 327.086 277.671 327.102C278.185 327.119 278.707 327.148 279.237 327.189C279.776 327.223 280.298 327.285 280.804 327.376C281.318 327.467 281.774 327.617 282.172 327.824C282.57 328.031 282.889 328.318 283.129 328.683C283.378 329.048 283.502 329.521 283.502 330.101C283.502 330.641 283.366 331.163 283.092 331.669C282.827 332.175 282.441 332.623 281.936 333.013C281.43 333.412 280.808 333.727 280.07 333.959C279.341 334.2 278.516 334.32 277.596 334.32C276.676 334.32 275.872 334.229 275.184 334.046C274.496 333.864 273.924 333.619 273.468 333.312C273.012 333.005 272.668 332.648 272.436 332.242C272.212 331.844 272.1 331.425 272.1 330.985C272.1 330.363 272.295 329.836 272.684 329.404C273.074 328.973 273.609 328.629 274.288 328.372C273.915 328.206 273.617 327.986 273.393 327.712C273.177 327.43 273.07 327.052 273.07 326.58C273.07 326.397 273.103 326.21 273.169 326.02C273.236 325.82 273.335 325.625 273.468 325.435C273.609 325.236 273.779 325.049 273.977 324.875C274.176 324.7 274.409 324.547 274.674 324.414C274.052 324.066 273.567 323.605 273.219 323.033C272.871 322.452 272.697 321.78 272.697 321.017C272.697 320.403 272.813 319.847 273.045 319.349C273.285 318.843 273.617 318.416 274.04 318.068C274.462 317.711 274.964 317.437 275.544 317.246C276.133 317.055 276.775 316.96 277.472 316.96C278.019 316.96 278.529 317.022 279.001 317.147C279.474 317.263 279.905 317.437 280.294 317.669H283.714Z" fill="#40322D"/>
<path d="M261.304 319.001C261.577 318.694 261.867 318.416 262.174 318.167C262.481 317.918 262.804 317.707 263.144 317.532C263.492 317.35 263.857 317.213 264.238 317.122C264.628 317.022 265.046 316.972 265.494 316.972C266.182 316.972 266.787 317.089 267.31 317.321C267.84 317.545 268.279 317.868 268.628 318.292C268.984 318.706 269.253 319.208 269.436 319.797C269.618 320.386 269.709 321.038 269.709 321.751V329.778H267.484V321.751C267.484 320.797 267.264 320.059 266.825 319.536C266.393 319.005 265.734 318.74 264.847 318.74C264.193 318.74 263.579 318.897 263.007 319.212C262.443 319.528 261.921 319.955 261.44 320.494V329.778H259.215V317.172H260.545C260.86 317.172 261.055 317.325 261.129 317.632L261.304 319.001Z" fill="#40322D"/>
<path d="M255.578 317.172V329.778H253.364V317.172H255.578ZM256.05 313.214C256.05 313.43 256.005 313.633 255.914 313.824C255.831 314.007 255.715 314.172 255.565 314.322C255.424 314.463 255.254 314.575 255.056 314.658C254.865 314.741 254.662 314.782 254.446 314.782C254.231 314.782 254.028 314.741 253.837 314.658C253.655 314.575 253.493 314.463 253.352 314.322C253.211 314.172 253.099 314.007 253.016 313.824C252.933 313.633 252.892 313.43 252.892 313.214C252.892 312.999 252.933 312.795 253.016 312.604C253.099 312.405 253.211 312.235 253.352 312.094C253.493 311.945 253.655 311.829 253.837 311.746C254.028 311.663 254.231 311.621 254.446 311.621C254.662 311.621 254.865 311.663 255.056 311.746C255.254 311.829 255.424 311.945 255.565 312.094C255.715 312.235 255.831 312.405 255.914 312.604C256.005 312.795 256.05 312.999 256.05 313.214Z" fill="#40322D"/>
<path d="M247.531 320.171C247.116 319.615 246.669 319.229 246.188 319.013C245.707 318.789 245.168 318.677 244.571 318.677C243.402 318.677 242.503 319.096 241.873 319.934C241.243 320.772 240.928 321.967 240.928 323.518C240.928 324.34 240.998 325.045 241.139 325.634C241.28 326.215 241.488 326.696 241.761 327.077C242.035 327.451 242.37 327.724 242.768 327.899C243.166 328.073 243.618 328.16 244.124 328.16C244.853 328.16 245.487 327.994 246.026 327.662C246.573 327.33 247.075 326.862 247.531 326.256V320.171ZM249.744 311.447V329.778H248.426C248.111 329.778 247.912 329.624 247.829 329.317L247.63 327.787C247.091 328.434 246.478 328.956 245.79 329.355C245.102 329.753 244.306 329.952 243.402 329.952C242.681 329.952 242.026 329.815 241.438 329.541C240.849 329.259 240.348 328.849 239.933 328.309C239.519 327.77 239.2 327.098 238.976 326.293C238.752 325.489 238.64 324.564 238.64 323.518C238.64 322.589 238.764 321.726 239.013 320.93C239.262 320.125 239.618 319.428 240.082 318.839C240.547 318.25 241.115 317.79 241.786 317.458C242.466 317.118 243.228 316.948 244.074 316.948C244.845 316.948 245.504 317.08 246.051 317.346C246.606 317.603 247.1 317.964 247.531 318.428V311.447H249.744Z" fill="#40322D"/>
<path d="M227.545 319.001C227.819 318.694 228.109 318.416 228.416 318.167C228.722 317.918 229.046 317.707 229.386 317.532C229.734 317.35 230.099 317.213 230.48 317.122C230.87 317.022 231.288 316.972 231.736 316.972C232.424 316.972 233.029 317.089 233.551 317.321C234.082 317.545 234.521 317.868 234.869 318.292C235.226 318.706 235.495 319.208 235.678 319.797C235.86 320.386 235.951 321.038 235.951 321.751V329.778H233.725V321.751C233.725 320.797 233.506 320.059 233.066 319.536C232.635 319.005 231.976 318.74 231.089 318.74C230.434 318.74 229.821 318.897 229.249 319.212C228.685 319.528 228.163 319.955 227.682 320.494V329.778H225.456V317.172H226.787C227.102 317.172 227.297 317.325 227.371 317.632L227.545 319.001Z" fill="#40322D"/>
<path d="M219.921 324.103C218.901 324.136 218.031 324.219 217.31 324.352C216.597 324.476 216.012 324.642 215.557 324.85C215.109 325.057 214.781 325.302 214.574 325.584C214.375 325.866 214.276 326.181 214.276 326.53C214.276 326.862 214.33 327.148 214.437 327.388C214.545 327.629 214.69 327.828 214.873 327.986C215.063 328.135 215.283 328.247 215.532 328.322C215.789 328.388 216.062 328.421 216.352 328.421C216.742 328.421 217.098 328.384 217.422 328.309C217.745 328.226 218.048 328.11 218.329 327.961C218.62 327.812 218.893 327.633 219.15 327.426C219.415 327.218 219.672 326.982 219.921 326.716V324.103ZM212.771 318.951C213.468 318.279 214.218 317.777 215.022 317.445C215.826 317.113 216.717 316.948 217.695 316.948C218.4 316.948 219.026 317.064 219.573 317.296C220.12 317.528 220.58 317.852 220.953 318.267C221.326 318.681 221.608 319.183 221.799 319.772C221.989 320.361 222.085 321.009 222.085 321.714V329.778H221.102C220.887 329.778 220.721 329.745 220.605 329.678C220.489 329.604 220.398 329.463 220.331 329.255L220.083 328.06C219.751 328.367 219.428 328.641 219.113 328.882C218.798 329.114 218.466 329.313 218.118 329.479C217.77 329.637 217.397 329.757 216.999 329.84C216.609 329.931 216.174 329.977 215.693 329.977C215.204 329.977 214.744 329.911 214.313 329.778C213.882 329.637 213.505 329.429 213.182 329.156C212.867 328.882 212.614 328.537 212.423 328.123C212.241 327.7 212.149 327.202 212.149 326.629C212.149 326.132 212.286 325.655 212.56 325.198C212.833 324.734 213.277 324.323 213.89 323.966C214.504 323.609 215.304 323.319 216.29 323.095C217.277 322.863 218.487 322.73 219.921 322.697V321.714C219.921 320.735 219.71 319.996 219.287 319.499C218.864 318.993 218.247 318.74 217.434 318.74C216.887 318.74 216.427 318.81 216.054 318.951C215.689 319.084 215.37 319.237 215.096 319.412C214.831 319.577 214.599 319.731 214.4 319.872C214.209 320.005 214.019 320.071 213.828 320.071C213.679 320.071 213.55 320.034 213.443 319.959C213.335 319.876 213.244 319.777 213.169 319.66L212.771 318.951Z" fill="#40322D"/>
<path d="M206.331 319.698C206.729 318.835 207.218 318.163 207.799 317.682C208.379 317.192 209.088 316.948 209.925 316.948C210.19 316.948 210.443 316.977 210.684 317.035C210.932 317.093 211.152 317.184 211.343 317.308L211.181 318.964C211.131 319.171 211.007 319.275 210.808 319.275C210.692 319.275 210.522 319.25 210.298 319.2C210.074 319.15 209.821 319.125 209.54 319.125C209.142 319.125 208.785 319.183 208.47 319.3C208.163 319.416 207.886 319.59 207.637 319.822C207.397 320.046 207.177 320.328 206.978 320.668C206.787 321 206.613 321.382 206.456 321.813V329.778H204.23V317.172H205.498C205.739 317.172 205.904 317.217 205.996 317.308C206.087 317.4 206.149 317.557 206.182 317.781L206.331 319.698Z" fill="#40322D"/>
<path d="M195.196 327.861C195.884 327.861 196.477 327.783 196.974 327.625C197.472 327.467 197.878 327.247 198.193 326.965C198.516 326.675 198.753 326.335 198.902 325.945C199.051 325.547 199.126 325.111 199.126 324.638C199.126 323.717 198.798 322.991 198.143 322.46C197.488 321.921 196.506 321.652 195.196 321.652H191.342V327.861H195.196ZM191.342 313.849V319.934H194.525C195.205 319.934 195.793 319.86 196.291 319.71C196.796 319.561 197.211 319.353 197.534 319.088C197.866 318.823 198.11 318.503 198.268 318.13C198.425 317.748 198.504 317.333 198.504 316.885C198.504 315.832 198.189 315.064 197.559 314.583C196.929 314.094 195.951 313.849 194.624 313.849H191.342ZM194.624 311.945C195.719 311.945 196.659 312.053 197.447 312.268C198.243 312.484 198.894 312.791 199.399 313.189C199.913 313.588 200.29 314.077 200.531 314.658C200.771 315.23 200.891 315.877 200.891 316.599C200.891 317.039 200.821 317.462 200.68 317.868C200.547 318.267 200.344 318.64 200.071 318.988C199.797 319.337 199.449 319.652 199.026 319.934C198.612 320.208 198.123 320.432 197.559 320.606C198.869 320.855 199.851 321.324 200.506 322.012C201.169 322.693 201.501 323.589 201.501 324.7C201.501 325.455 201.36 326.144 201.078 326.766C200.804 327.388 200.398 327.924 199.859 328.372C199.329 328.82 198.674 329.168 197.895 329.417C197.115 329.657 196.228 329.778 195.234 329.778H188.942V311.945H194.624Z" fill="#40322D"/>
<path d="M65.4065 358.873C66.0033 359.744 66.8986 361.212 67.396 362.158L66.0033 362.78C65.506 361.76 64.6604 360.341 64.0387 359.445L65.4065 358.873ZM68.6146 358.251C69.2115 359.097 70.1317 360.565 70.6539 361.536L69.2612 362.133C68.7141 361.113 67.9183 359.669 67.2468 358.823L68.6146 358.251ZM67.6447 363.353C67.4955 363.701 67.3712 364.124 67.2717 364.597C66.7494 367.211 65.5308 371.243 63.5661 373.781C61.303 376.718 58.3436 379.008 53.7925 380.452L52.1014 378.585C56.9011 377.365 59.7114 375.25 61.7755 372.587C63.5413 370.347 64.7101 366.862 65.0334 364.473C63.6159 364.473 53.7427 364.473 52.3252 364.473C51.3304 364.473 50.4848 364.523 49.8382 364.572V362.357C50.5346 362.432 51.5045 362.532 52.3252 362.532C53.7427 362.532 63.6656 362.532 64.8096 362.532C65.1827 362.532 65.68 362.507 66.1277 362.382L67.6447 363.353Z" fill="#40322D"/>
<path d="M77.2443 361.038C77.8909 361.113 78.6619 361.163 79.4577 361.163C80.8006 361.163 87.7889 361.163 89.2562 361.163C90.0272 361.163 90.8976 361.113 91.4945 361.038V363.104C90.9225 363.054 90.052 363.029 89.2065 363.029C87.8138 363.029 80.8255 363.029 79.4577 363.029C78.7116 363.029 77.9158 363.054 77.2443 363.104V361.038ZM93.3348 367.584C93.2104 367.833 93.0364 368.132 92.9866 368.331C92.34 370.77 91.2209 373.358 89.3557 375.399C86.7693 378.261 83.6357 379.705 80.4773 380.601L78.9354 378.834C82.442 378.112 85.5507 376.494 87.6894 374.254C89.1816 372.686 90.1764 370.571 90.624 368.754C89.4054 368.754 78.9354 368.754 77.4433 368.754C76.8464 368.754 75.9014 368.779 75.0061 368.853V366.763C75.9014 366.837 76.7469 366.912 77.4433 366.912C78.6619 366.912 89.2562 366.912 90.5246 366.912C91.0966 366.912 91.6437 366.837 91.9172 366.713L93.3348 367.584Z" fill="#40322D"/>
<path d="M102.014 361.337C103.755 362.507 106.963 365.095 108.331 366.464L106.789 368.057C105.521 366.763 102.437 364.075 100.572 362.855L102.014 361.337ZM99.8754 378.012C104.203 377.365 107.436 375.847 109.798 374.379C113.653 371.964 116.662 368.281 118.105 365.195L119.298 367.335C117.607 370.421 114.722 373.806 110.967 376.171C108.455 377.739 105.322 379.282 101.169 380.053L99.8754 378.012Z" fill="#40322D"/>
<path d="M137.553 361.66C138.174 362.556 139.244 364.224 139.816 365.419L138.398 366.066C137.776 364.747 136.981 363.378 136.16 362.258L137.553 361.66ZM140.537 360.416C141.208 361.287 142.303 362.93 142.875 364.1L141.482 364.796C140.835 363.477 140.015 362.158 139.194 361.063L140.537 360.416ZM128.823 377.689C128.823 376.32 128.823 365.319 128.823 363.228C128.823 362.507 128.749 361.412 128.624 360.64H131.062C130.987 361.387 130.888 362.482 130.888 363.228C130.888 367.111 130.912 376.519 130.912 377.689C130.912 378.485 130.962 379.829 131.062 380.651H128.649C128.774 379.854 128.823 378.635 128.823 377.689ZM130.44 367.161C133.748 368.107 138.746 370.023 141.507 371.392L140.636 373.483C137.801 371.964 133.151 370.197 130.44 369.351V367.161Z" fill="#40322D"/>
<path d="M157.423 362.756C160.134 363.228 165.182 363.129 167.645 362.756V364.772C164.983 365.07 160.159 365.07 157.448 364.772L157.423 362.756ZM158.393 372.91C158.169 373.806 158.045 374.503 158.045 375.175C158.045 376.32 158.841 377.44 162.248 377.44C164.461 377.44 166.401 377.241 168.391 376.768L168.44 378.859C166.898 379.182 164.809 379.381 162.223 379.381C158.07 379.381 156.205 377.988 156.205 375.648C156.205 374.827 156.329 373.931 156.603 372.736L158.393 372.91ZM152.698 360.839C152.549 361.262 152.35 362.059 152.25 362.507C151.778 364.821 151.007 369.252 151.007 372.064C151.007 373.259 151.081 374.304 151.231 375.524C151.653 374.404 152.225 372.91 152.648 371.89L153.693 372.711C153.071 374.478 152.151 377.092 151.927 378.286C151.852 378.635 151.803 379.108 151.803 379.406C151.828 379.655 151.852 380.004 151.877 380.277L150.112 380.402C149.614 378.635 149.191 375.772 149.191 372.388C149.191 368.729 150.012 364.473 150.311 362.407C150.385 361.835 150.46 361.212 150.485 360.665L152.698 360.839Z" fill="#40322D"/>
<path d="M177.294 370.645H189.48V372.039H177.294V370.645ZM176.896 374.005H189.878V375.449H176.896V374.005ZM182.317 371.317H184.033V373.781C184.033 375.972 183.312 378.66 177.766 380.402C177.518 380.028 177.02 379.456 176.672 379.157C181.795 377.739 182.317 375.374 182.317 373.756V371.317ZM184.009 374.603C184.904 376.818 186.943 378.361 189.878 378.958C189.505 379.282 189.057 379.904 188.833 380.327C185.725 379.506 183.586 377.639 182.566 374.926L184.009 374.603ZM178.861 368.604L180.328 368.132C180.925 368.903 181.497 369.948 181.696 370.645L180.154 371.168C179.955 370.421 179.433 369.376 178.861 368.604ZM186.122 368.082L187.814 368.629C187.217 369.6 186.595 370.596 186.073 371.292L184.829 370.795C185.277 370.023 185.849 368.853 186.122 368.082ZM174.135 363.079H181.124V364.348H174.135V363.079ZM185.55 363.079H192.613V364.348H185.55V363.079ZM191.917 359.719H193.757V379.332C193.757 380.352 193.534 380.9 192.862 381.223C192.24 381.522 191.171 381.547 189.579 381.547C189.53 381.074 189.281 380.252 189.032 379.755C190.126 379.804 191.171 379.804 191.494 379.78C191.793 379.78 191.917 379.655 191.917 379.307V359.719ZM174.285 359.719H182.268V367.808H174.285V366.414H180.502V361.113H174.285V359.719ZM192.812 359.719V361.113H186.247V366.439H192.812V367.833H184.456V359.719H192.812ZM173.166 359.719H175.006V381.572H173.166V359.719Z" fill="#40322D"/>
<path d="M208.977 377.788C213.18 377.166 216.96 375.225 216.936 370.944C216.936 369.028 215.419 366.489 212.111 366.489C208.928 366.489 206.068 368.256 203.655 370.77V368.555C206.64 365.742 209.798 364.697 212.409 364.697C215.866 364.697 218.925 367.111 218.925 370.969C218.95 375.996 215.294 378.61 209.873 379.655L208.977 377.788ZM203.357 365.792C202.561 365.892 199.85 366.24 198.01 366.514L197.786 364.448C198.333 364.473 198.806 364.473 199.428 364.423C200.746 364.348 203.829 363.975 204.998 363.602L205.72 364.448C205.297 365.095 204.625 366.165 204.203 366.862L203.456 370.272C202.312 372.039 200 375.399 198.433 377.564L197.189 375.872C198.731 373.931 202.089 369.351 203.059 367.708L203.158 366.439L203.357 365.792ZM203.108 361.66C203.108 361.088 203.133 360.441 203.009 359.819L205.371 359.893C205.023 361.511 204.252 368.629 204.252 373.01C204.252 375.275 204.252 376.793 204.352 379.008C204.377 379.431 204.451 380.053 204.476 380.526H202.337C202.362 380.178 202.412 379.456 202.412 379.058C202.412 376.644 202.437 375.399 202.462 372.661C202.511 370.471 203.108 362.581 203.108 361.66Z" fill="#40322D"/>
<path d="M226.635 361.237C227.182 361.287 227.878 361.312 228.376 361.312C229.694 361.312 235.588 361.138 236.906 361.013C237.652 360.939 238 360.889 238.274 360.789L239.418 362.258C238.97 362.556 238.473 362.88 238 363.253C236.781 364.199 233.399 367.111 231.459 368.704C232.603 368.331 233.797 368.206 234.916 368.206C239.045 368.206 242.004 370.67 242.004 374.03C242.004 378.037 238.696 380.651 233.424 380.651C230.042 380.651 227.978 379.182 227.978 377.092C227.978 375.399 229.52 373.856 231.808 373.856C235.115 373.856 236.781 376.196 236.955 378.709L235.165 379.008C235.016 376.892 233.797 375.374 231.808 375.374C230.664 375.374 229.793 376.071 229.793 376.942C229.793 378.162 231.161 378.884 233.126 378.884C237.353 378.884 240.014 377.141 240.014 374.03C240.014 371.566 237.677 369.749 234.419 369.749C230.29 369.749 228.052 371.492 224.919 374.702L223.476 373.259C225.54 371.566 228.749 368.878 230.166 367.659C231.559 366.514 234.692 363.9 235.936 362.78C234.618 362.855 229.644 363.054 228.351 363.129C227.779 363.179 227.232 363.204 226.684 363.278L226.635 361.237Z" fill="#40322D"/>
<path d="M257.299 359.868C257.199 360.167 257.1 360.615 257.025 360.964C256.602 363.054 256.18 366.987 256.18 370.396C256.18 373.632 256.876 376.619 257.647 378.958L255.831 379.506C255.11 377.291 254.439 373.756 254.439 370.596C254.439 367.186 254.936 363.154 255.16 361.013C255.21 360.565 255.234 360.117 255.234 359.794L257.299 359.868ZM253.295 362.93C257.672 362.93 261.999 362.581 265.431 361.81L265.456 363.652C261.875 364.274 256.975 364.647 253.27 364.647C252.2 364.647 250.261 364.548 249.241 364.498L249.191 362.631C250.062 362.78 252.225 362.93 253.295 362.93ZM263.665 365.867C263.516 366.19 263.292 366.862 263.143 367.26C261.676 371.865 259.189 375.324 256.577 377.34C254.986 378.56 252.996 379.481 251.231 379.481C249.589 379.481 248.296 378.485 248.296 376.37C248.296 372.96 251.454 369.451 255.135 368.032C256.801 367.385 258.816 367.012 260.432 367.012C265.132 367.012 268.092 369.749 268.092 373.234C268.092 376.793 265.729 379.904 259.96 380.825L258.89 379.157C263.367 378.66 266.152 376.345 266.152 373.134C266.152 370.72 264.113 368.604 260.407 368.604C258.318 368.604 256.478 369.202 255.21 369.774C252.399 371.019 250.161 373.756 250.161 376.046C250.161 377.067 250.659 377.564 251.579 377.564C252.822 377.564 254.439 376.868 256.03 375.474C258.244 373.532 260.283 370.844 261.427 366.812C261.526 366.439 261.651 365.767 261.676 365.369L263.665 365.867Z" fill="#40322D"/>
<path d="M278.761 360.043C280.9 360.74 286.197 361.76 288.41 361.984L287.938 363.876C285.55 363.552 280.178 362.457 278.264 361.959L278.761 360.043ZM278.214 364.597C277.89 366.29 277.443 369.973 277.194 371.591C279.582 369.5 282.317 368.53 285.302 368.53C289.107 368.53 291.643 370.82 291.643 373.756C291.643 378.187 287.689 381.198 278.462 380.427L277.866 378.411C285.724 379.356 289.554 377.092 289.554 373.682C289.554 371.716 287.689 370.297 285.152 370.297C281.894 370.297 279.209 371.516 277.468 373.632C277.095 374.055 276.871 374.453 276.722 374.852L274.856 374.404C275.354 372.139 275.976 366.912 276.125 364.324L278.214 364.597Z" fill="#40322D"/>
<path d="M301.392 361.86C301.293 362.208 301.168 362.631 301.069 363.029C300.745 364.647 300.248 368.43 300.397 370.372C302.039 366.091 306.142 363.228 310.469 363.228C315.12 363.228 317.856 366.14 317.856 369.849C317.856 373.906 315.344 377.067 310.221 377.067C307.361 377.067 304.725 375.474 303.357 372.686L304.55 371.292C305.694 373.732 307.485 375.175 310.246 375.175C313.702 375.175 315.966 373.184 315.966 369.899C315.966 367.186 314.2 364.896 310.42 364.896C305.197 364.896 301.815 369.202 300.969 372.761C300.87 373.209 300.77 373.756 300.795 374.304C300.845 374.827 300.994 375.996 301.143 376.644L299.402 376.917C298.955 375.324 298.582 372.811 298.582 370.446C298.582 367.659 299.104 364.224 299.228 362.83C299.278 362.407 299.303 362.009 299.278 361.71L301.392 361.86ZM309.972 359.819C310.345 361.586 310.842 365.269 310.842 368.928C310.842 374.105 309.798 378.535 305.819 381.148L304.003 380.053C307.883 377.938 308.977 373.806 308.977 368.953C308.977 365.742 308.604 362.731 308.331 361.412C308.206 360.889 308.057 360.242 307.908 359.893L309.972 359.819Z" fill="#40322D"/>
<path d="M326.112 361.237C326.659 361.287 327.356 361.312 327.853 361.312C329.171 361.312 335.065 361.138 336.383 361.013C337.129 360.939 337.478 360.889 337.751 360.789L338.895 362.258C338.447 362.556 337.95 362.88 337.478 363.253C336.259 364.199 332.877 367.111 330.937 368.704C332.081 368.331 333.275 368.206 334.394 368.206C338.522 368.206 341.481 370.67 341.481 374.03C341.481 378.037 338.174 380.651 332.902 380.651C329.519 380.651 327.455 379.182 327.455 377.092C327.455 375.399 328.997 373.856 331.285 373.856C334.593 373.856 336.259 376.196 336.433 378.709L334.642 379.008C334.493 376.892 333.275 375.374 331.285 375.374C330.141 375.374 329.271 376.071 329.271 376.942C329.271 378.162 330.638 378.884 332.603 378.884C336.831 378.884 339.492 377.141 339.492 374.03C339.492 371.566 337.154 369.749 333.896 369.749C329.768 369.749 327.53 371.492 324.396 374.702L322.954 373.259C325.018 371.566 328.226 368.878 329.644 367.659C331.036 366.514 334.17 363.9 335.413 362.78C334.095 362.855 329.121 363.054 327.828 363.129C327.256 363.179 326.709 363.204 326.162 363.278L326.112 361.237Z" fill="#40322D"/>
<path d="M350.111 361.387C350.808 361.461 351.554 361.511 352.349 361.511C353.792 361.511 359.586 361.511 360.979 361.511C361.675 361.511 362.571 361.461 363.292 361.387V363.452C362.546 363.403 361.675 363.353 360.979 363.353C359.586 363.353 353.792 363.353 352.399 363.353C351.554 363.353 350.758 363.403 350.111 363.452V361.387ZM347.152 367.634C347.823 367.708 348.544 367.758 349.315 367.758C350.758 367.758 364.262 367.758 365.58 367.758C366.102 367.758 366.923 367.708 367.545 367.634V369.7C366.997 369.65 366.202 369.625 365.58 369.625C364.262 369.625 350.758 369.625 349.315 369.625C348.569 369.625 347.823 369.65 347.152 369.7V367.634ZM358.865 368.629C358.865 371.765 358.467 374.354 357.373 376.444C356.453 378.112 354.588 379.904 352.474 380.974L350.633 379.63C352.548 378.809 354.339 377.39 355.334 375.797C356.577 373.831 356.751 371.392 356.776 368.654L358.865 368.629ZM364.585 359.346C365.207 360.242 366.102 361.76 366.6 362.756L365.257 363.353C364.784 362.357 363.939 360.864 363.267 359.918L364.585 359.346ZM367.296 358.35C367.967 359.271 368.912 360.814 369.385 361.735L368.067 362.332C367.52 361.262 366.699 359.844 366.003 358.923L367.296 358.35Z" fill="#40322D"/>
<path d="M389.728 360.59C390.201 361.486 390.847 363.029 391.195 364.025L389.952 364.448C389.604 363.403 389.032 361.909 388.534 360.964L389.728 360.59ZM392.215 359.819C392.688 360.74 393.334 362.258 393.707 363.253L392.464 363.676C392.066 362.556 391.519 361.138 390.996 360.192L392.215 359.819ZM387.366 368.58C387.366 375.2 385.948 378.61 380.278 381.148L378.587 379.58C383.113 377.838 385.376 375.698 385.376 368.729V362.681C385.376 361.71 385.301 360.889 385.252 360.64H387.49C387.465 360.889 387.366 361.71 387.366 362.681V368.58ZM378.413 360.814C378.388 361.038 378.288 361.735 378.288 362.606V371.74C378.288 372.636 378.363 373.732 378.388 373.98H376.199C376.224 373.732 376.299 372.686 376.299 371.74V362.606C376.299 362.084 376.274 361.362 376.199 360.814H378.413ZM371.126 365.643C371.35 365.668 372.568 365.792 373.638 365.792H390.101C391.195 365.792 392.041 365.717 392.389 365.668V367.783C392.116 367.733 391.195 367.708 390.101 367.708H373.638C372.543 367.708 371.424 367.758 371.126 367.783V365.643Z" fill="#40322D"/>
<path d="M396.94 370.571C401.243 369.426 405.023 367.659 407.783 365.941C410.395 364.299 412.881 362.158 414.597 360.068L416.264 361.636C414.125 363.851 411.514 365.941 408.604 367.758C405.868 369.451 401.914 371.268 397.91 372.512L396.94 370.571ZM407.385 366.962L409.524 366.315V377.689C409.524 378.61 409.574 379.854 409.698 380.327H407.236C407.311 379.854 407.385 378.61 407.385 377.689V366.962Z" fill="#40322D"/>
<path d="M52.2754 406.448C54.0163 407.618 57.2244 410.206 58.5923 411.575L57.0504 413.168C55.782 411.874 52.6982 409.186 50.833 407.966L52.2754 406.448ZM50.1367 423.124C54.4639 422.476 57.697 420.958 60.0596 419.49C63.9143 417.076 66.9235 413.392 68.3659 410.306L69.5597 412.446C67.8685 415.532 64.9837 418.917 61.2284 421.282C58.7166 422.85 55.5831 424.393 51.4299 425.164L50.1367 423.124Z" fill="#40322D"/>
<path d="M81.3975 409.957C82.815 410.107 84.158 410.181 85.6253 410.181C88.6096 410.181 91.6685 409.957 94.1804 409.435V411.351C91.5442 411.799 88.5101 411.998 85.6004 411.998C84.158 411.998 82.8648 411.948 81.4224 411.849L81.3975 409.957ZM90.1018 405.502C90.0272 406 89.9774 406.523 89.9526 406.996C89.9028 407.916 89.878 409.684 89.878 411.152C89.878 414.985 90.251 418.868 90.251 421.431C90.251 423.472 89.306 425.463 85.9486 425.463C82.6161 425.463 80.8006 424.119 80.8006 421.879C80.8006 419.788 82.641 418.146 85.9237 418.146C90.1018 418.146 93.0115 420.261 95.1005 422.153L94.0311 423.796C91.4199 421.356 88.908 419.664 85.7496 419.664C83.8844 419.664 82.5912 420.485 82.5912 421.68C82.5912 422.974 83.8098 423.646 85.6253 423.646C87.7143 423.646 88.3112 422.601 88.3112 420.933C88.3112 419.141 87.9879 414.487 87.9879 411.202C87.9879 409.484 87.963 407.916 87.963 407.045C87.963 406.597 87.9381 405.95 87.8635 405.502H90.1018ZM77.8412 405.676C77.692 406.075 77.493 406.896 77.3935 407.344C76.8961 409.659 76.1501 414.587 76.1501 417.374C76.1501 418.594 76.2247 419.639 76.3987 420.859C76.7967 419.714 77.4184 418.196 77.8412 417.175L78.8608 417.972C78.2391 419.714 77.3189 422.252 77.0702 423.472C76.9956 423.82 76.9459 424.318 76.9707 424.592C76.9956 424.841 77.0205 425.214 77.0453 425.463L75.2796 425.612C74.8071 423.82 74.3346 421.083 74.3346 417.723C74.3346 414.064 75.1801 409.31 75.4786 407.269C75.5781 406.672 75.6278 406.025 75.6527 405.477L77.8412 405.676Z" fill="#40322D"/>
<path d="M107.759 403.76H109.649V424.567C109.649 425.737 109.326 426.185 108.555 426.459C107.759 426.708 106.466 426.732 104.377 426.732C104.277 426.284 103.979 425.588 103.73 425.164C105.222 425.214 106.715 425.189 107.162 425.189C107.61 425.164 107.759 425.015 107.759 424.567V403.76ZM98.0351 405.751H119.622V407.294H98.0351V405.751ZM102.412 410.082V411.874H115.245V410.082H102.412ZM100.646 408.788H117.135V413.193H100.646V408.788ZM99.9252 414.935H117.508V423.995H115.643V416.329H99.9252V414.935ZM97.5626 418.046H120.094V419.54H97.5626V418.046ZM99.6765 421.431H116.613V422.875H99.6765V421.431Z" fill="#40322D"/>
<path d="M122.805 419.141H144.591V420.709H122.805V419.141ZM122.904 408.215H144.491V409.808H122.904V408.215ZM123.899 412.471H143.596V414.014H123.899V412.471ZM125.168 415.831H142.377V417.275H125.168V415.831ZM132.703 413.193H134.543V426.683H132.703V413.193ZM130.415 403.76H132.181V408.962H130.415V403.76ZM135.115 403.76H136.906V408.887H135.115V403.76ZM132.106 419.764L133.598 420.46C131.285 423.049 127.083 425.214 123.377 426.26C123.103 425.787 122.556 425.065 122.158 424.667C125.839 423.845 129.992 421.929 132.106 419.764ZM135.14 419.714C137.254 421.954 141.432 423.87 145.212 424.667C144.79 425.065 144.218 425.812 143.944 426.334C140.164 425.289 136.011 423.024 133.673 420.336L135.14 419.714ZM140.885 404.059L142.8 404.581C142.079 405.95 141.183 407.419 140.487 408.389L138.97 407.892C139.642 406.846 140.462 405.204 140.885 404.059ZM137.553 409.335L139.492 409.808C138.871 410.928 138.224 412.073 137.677 412.869L136.11 412.396C136.608 411.525 137.254 410.231 137.553 409.335ZM124.919 404.581L126.511 404.009C127.356 405.129 128.276 406.697 128.624 407.717L126.958 408.34C126.61 407.344 125.715 405.751 124.919 404.581ZM128.152 409.982L129.918 409.634C130.49 410.455 131.062 411.575 131.285 412.322L129.445 412.72C129.246 411.973 128.699 410.804 128.152 409.982Z" fill="#40322D"/>
<path d="M160.109 407.692C159.786 410.281 159.288 413.193 158.517 415.856C157 420.958 155.011 423.596 152.723 423.596C150.485 423.596 148.271 421.058 148.271 416.926C148.271 411.525 153.071 406.821 159.164 406.821C164.983 406.821 168.689 410.928 168.689 415.98C168.689 421.182 165.257 424.667 159.338 425.438L158.194 423.596C158.99 423.522 159.736 423.422 160.333 423.298C163.516 422.576 166.65 420.187 166.65 415.881C166.65 411.899 163.889 408.613 159.114 408.613C153.643 408.613 150.236 413.118 150.236 416.777C150.236 419.913 151.653 421.307 152.773 421.307C153.941 421.307 155.284 419.614 156.553 415.408C157.274 413.044 157.796 410.231 158.045 407.643L160.109 407.692Z" fill="#40322D"/>
<path d="M182.118 404.532H184.183C183.984 408.439 183.611 420.859 173.315 426.459C172.991 425.986 172.37 425.413 171.798 424.99C181.944 419.813 181.944 407.842 182.118 404.532ZM184.108 405.029C184.183 406.971 184.904 420.187 195.15 424.891C194.603 425.314 194.031 425.936 193.732 426.459C183.188 421.406 182.492 407.493 182.317 405.204L184.108 405.029Z" fill="#40322D"/>
<path d="M204.476 419.017H212.011V420.46H204.476V419.017ZM204.401 415.259H212.882V424.343H204.401V422.9H211.116V416.727H204.401V415.259ZM203.581 415.259H205.297V425.612H203.581V415.259ZM199.005 408.364H205.918V409.733H199.005V408.364ZM210.47 408.364H217.508V409.733H210.47V408.364ZM216.737 404.83H218.602V424.194C218.602 425.388 218.328 426.011 217.532 426.334C216.737 426.633 215.394 426.658 213.305 426.658C213.23 426.135 212.932 425.264 212.658 424.741C214.175 424.816 215.692 424.791 216.14 424.766C216.587 424.766 216.737 424.617 216.737 424.194V404.83ZM199.154 404.83H207.112V413.392H199.154V411.948H205.346V406.274H199.154V404.83ZM217.657 404.83V406.274H211.141V411.998H217.657V413.417H209.35V404.83H217.657ZM198.085 404.83H199.925V426.683H198.085V404.83Z" fill="#40322D"/>
<path d="M224.968 403.76H226.859V426.633H224.968V403.76ZM222.68 408.489L224.098 408.713C223.974 410.729 223.526 413.616 222.855 415.408L221.387 414.91C222.059 413.243 222.506 410.505 222.68 408.489ZM227.033 408.34L228.326 407.767C229.097 409.111 229.868 410.878 230.141 411.948L228.749 412.645C228.475 411.55 227.729 409.733 227.033 408.34ZM232.106 404.93L233.921 405.228C233.275 408.862 232.181 412.396 230.788 414.736C230.415 414.462 229.569 414.064 229.097 413.865C230.564 411.675 231.559 408.29 232.106 404.93ZM232.131 409.036H243.695V410.828H231.559L232.131 409.036ZM236.16 403.86H238.025V425.015H236.16V403.86ZM230.862 416.005H243.148V417.772H230.862V416.005ZM228.997 423.995H244.292V425.787H228.997V423.995Z" fill="#40322D"/>
<path d="M257.025 405.004C256.801 405.975 256.528 407.344 255.881 409.012C255.259 410.53 254.339 412.197 253.344 413.492C254.314 412.919 255.732 412.571 256.826 412.571C258.741 412.571 260.233 413.716 260.233 415.732C260.233 417.026 260.283 419.888 260.308 421.431H258.393C258.492 420.112 258.517 417.548 258.492 416.254C258.467 414.811 257.473 414.139 256.18 414.139C254.588 414.139 253.021 414.935 251.877 415.956C251.156 416.652 250.46 417.548 249.639 418.569L247.923 417.3C251.504 413.865 253.17 410.978 254.016 408.862C254.563 407.493 254.911 406 254.986 404.83L257.025 405.004ZM248.495 407.692C249.838 407.867 251.554 407.941 252.698 407.941C256.055 407.941 260.358 407.742 263.864 407.12V408.962C260.382 409.484 255.757 409.708 252.598 409.708C251.529 409.708 249.888 409.659 248.495 409.559V407.692ZM267.495 413.691C266.873 413.89 265.978 414.238 265.307 414.487C263.541 415.184 261.178 416.13 258.766 417.374C256.304 418.668 254.563 420.012 254.563 421.73C254.563 423.671 256.478 423.97 259.04 423.97C260.979 423.97 263.665 423.746 265.854 423.348L265.779 425.364C263.889 425.588 261.129 425.787 258.965 425.787C255.433 425.787 252.573 425.015 252.573 422.004C252.573 418.967 255.657 417.1 258.617 415.582C260.979 414.363 262.994 413.591 264.635 412.82C265.381 412.471 266.003 412.197 266.699 411.849L267.495 413.691Z" fill="#40322D"/>
<path d="M272.917 405.851H292.887V407.468H272.917V405.851ZM274.061 409.509H291.917V411.077H274.061V409.509ZM271.996 413.317H293.732V414.96H271.996V413.317ZM281.87 403.76H283.76V414.587H281.87V403.76ZM281.795 413.865L283.411 414.636C280.825 417.474 276.224 420.087 272.369 421.356C272.071 420.884 271.549 420.187 271.151 419.813C274.981 418.718 279.482 416.329 281.795 413.865ZM284.506 414.114C285.998 419.44 289.231 423.372 294.503 424.94C294.08 425.314 293.558 426.085 293.285 426.583C287.789 424.692 284.531 420.485 282.815 414.462L284.506 414.114ZM291.594 415.781L293.086 416.951C291.32 418.37 288.957 419.888 287.167 420.884L286.023 419.863C287.764 418.818 290.176 417.1 291.594 415.781ZM273.911 424.94C276.771 424.318 281.248 423.198 285.501 422.153L285.675 423.82C281.745 424.841 277.493 425.911 274.508 426.658L273.911 424.94ZM277.418 418.494L278.761 417.15L279.283 417.3V424.816H277.418V418.494Z" fill="#40322D"/>
<path d="M310.917 404.955C310.867 405.253 310.793 406.224 310.793 406.523C310.718 408.14 310.768 412.944 310.793 414.935L308.903 413.964C308.903 412.869 308.878 407.916 308.803 406.548C308.753 405.876 308.679 405.179 308.629 404.955H310.917ZM297.687 408.439C301.069 408.389 307.286 408.165 311.116 408.165C314.15 408.165 317.234 408.165 318.403 408.19L318.378 410.032C316.985 409.957 314.747 409.908 311.091 409.908C306.814 409.908 301.492 410.082 297.736 410.356L297.687 408.439ZM310.743 415.657C310.743 418.992 309.201 420.66 306.938 420.66C304.849 420.66 302.834 419.191 302.834 416.478C302.834 414.014 304.874 412.172 307.236 412.172C310.121 412.172 311.589 414.313 311.589 417.175C311.589 420.56 309.947 424.293 304.177 426.011L302.511 424.393C307.037 423.323 309.674 421.108 309.674 417.001C309.674 414.761 308.579 413.815 307.236 413.815C305.918 413.815 304.7 414.836 304.7 416.453C304.7 418.021 305.869 418.917 307.236 418.917C308.778 418.917 309.773 417.623 309.375 414.96L310.743 415.657Z" fill="#40322D"/>
<path d="M340.412 409.833C339.865 410.156 339.243 410.505 338.497 410.878C336.831 411.749 333.374 413.392 330.937 414.985C328.624 416.503 327.231 418.146 327.231 420.012C327.231 422.078 329.221 423.372 333.15 423.372C335.836 423.372 339.169 423.024 341.108 422.526L341.084 424.766C339.218 425.09 336.334 425.364 333.225 425.364C328.549 425.364 325.167 423.97 325.167 420.236C325.167 417.548 326.983 415.433 329.917 413.492C332.454 411.799 335.936 410.132 337.552 409.211C338.273 408.788 338.82 408.464 339.343 408.041L340.412 409.833ZM327.828 405.303C328.972 408.489 330.514 411.6 331.658 413.616L329.967 414.636C328.699 412.596 327.206 409.236 325.864 406.149L327.828 405.303Z" fill="#40322D"/>
<path d="M346.654 411.152H368.067V412.77H346.654V411.152ZM348.569 406.722H362.695V408.29H348.569V406.722ZM354.911 403.76H356.751V411.948H354.911V403.76ZM364.237 414.363L365.456 415.632C362.322 416.478 357.473 417.051 353.419 417.349C353.369 416.976 353.145 416.379 352.971 416.055C356.901 415.707 361.626 415.084 364.237 414.363ZM365.555 404.93L367.072 405.776C362.048 411.874 354.488 416.503 346.828 419.44C346.58 419.067 346.008 418.32 345.635 417.972C353.394 415.284 360.88 410.654 365.555 404.93ZM352.698 414.412L354.538 414.636C354.016 417.051 353.27 420.112 352.698 421.979L350.832 421.73C351.454 419.838 352.225 416.727 352.698 414.412ZM363.541 419.191H365.431C365.431 419.191 365.381 419.739 365.331 420.037C364.734 423.721 364.187 425.364 363.367 426.085C362.844 426.558 362.322 426.683 361.452 426.708C360.681 426.757 359.213 426.732 357.671 426.633C357.622 426.135 357.398 425.413 357.075 424.916C358.641 425.065 360.258 425.09 360.855 425.09C361.377 425.09 361.675 425.065 361.924 424.866C362.546 424.368 363.068 422.85 363.516 419.44L363.541 419.191ZM352.424 419.191H364.038V420.759H352.026L352.424 419.191Z" fill="#40322D"/>
<path d="M377.691 405.054C380.377 405.652 385.127 406.224 387.515 406.348L387.241 408.19C384.754 407.966 380.402 407.419 377.368 406.871L377.691 405.054ZM388.012 412.172C387.54 412.496 386.918 413.019 386.619 413.268C385.674 414.139 382.889 416.752 381.944 417.723C382.218 417.698 382.665 417.698 382.939 417.772C383.884 417.872 384.456 418.519 384.804 419.54C385.053 420.261 385.401 421.531 385.65 422.327C385.948 423.273 386.52 423.696 387.813 423.696C389.43 423.696 391.32 423.472 392.513 423.173L392.364 425.264C391.32 425.463 389.032 425.637 387.714 425.637C385.699 425.637 384.481 425.164 383.934 423.522C383.685 422.775 383.337 421.307 383.088 420.61C382.814 419.739 382.267 419.266 381.571 419.266C380.899 419.266 380.303 419.614 379.731 420.187C378.81 421.058 376.1 423.92 374.682 425.712L372.792 424.393C373.115 424.144 373.563 423.746 374.036 423.273C375.055 422.277 381.82 415.483 384.257 413.044C382.292 413.143 378.114 413.516 376.597 413.641C375.776 413.691 375.13 413.79 374.608 413.865L374.433 411.7C375.005 411.749 375.727 411.749 376.522 411.749C377.965 411.7 383.735 411.326 385.625 411.077C386.047 411.028 386.57 410.903 386.818 410.804L388.012 412.172Z" fill="#40322D"/>
<path d="M395.652 408.14C396.597 408.116 397.393 408.066 397.89 408.016C399.507 407.842 404.182 407.394 408.783 406.996C411.494 406.772 413.807 406.622 415.473 406.572L415.498 408.564C414.055 408.539 411.892 408.588 410.623 408.937C407.067 410.082 404.903 413.89 404.903 416.827C404.903 421.68 409.454 423.223 413.483 423.397L412.787 425.438C408.161 425.264 402.939 422.825 402.939 417.25C402.939 413.367 405.301 410.206 407.589 408.862C404.903 409.136 398.586 409.758 395.876 410.331L395.652 408.14Z" fill="#40322D"/>
<path d="M60.8554 450.041C60.8056 450.464 60.7559 450.962 60.731 451.708C60.6813 452.704 60.6813 456.039 60.6813 458.13C60.6813 461.415 61.0543 465.771 61.0543 467.438C61.0543 469.18 59.9103 470.948 56.6773 470.948C53.0961 470.948 51.1315 469.678 51.1315 467.264C51.1315 464.999 53.2951 463.481 56.8763 463.481C62.1237 463.481 66.2272 466.318 68.1421 467.886L66.9981 469.653C64.7599 467.588 61.0792 465.099 56.6525 465.099C54.265 465.099 52.9967 466.02 52.9967 467.164C52.9967 468.334 53.9666 469.18 56.4286 469.18C57.8711 469.18 59.0897 468.757 59.0897 467.015C59.0897 465.099 58.841 460.32 58.841 458.13C58.841 455.89 58.841 453.276 58.841 451.534C58.841 451.111 58.8161 450.364 58.7415 450.041H60.8554ZM51.3553 452.729C52.9469 453.028 56.0556 453.276 57.697 453.276C60.8554 453.276 64.1879 453.052 67.4209 452.53V454.347C64.6107 454.67 61.0543 454.994 57.7218 454.994C56.0059 454.994 52.9469 454.77 51.3801 454.571L51.3553 452.729ZM51.2309 458.03C52.9967 458.304 55.8318 458.478 57.4731 458.478C61.0792 458.478 64.3868 458.229 67.6199 457.756V459.623C64.2376 460.046 61.2036 460.22 57.4731 460.22C55.7572 460.22 53.0215 460.096 51.2558 459.897L51.2309 458.03Z" fill="#40322D"/>
<path d="M87.0926 450.066C87.0428 450.364 86.9682 451.335 86.9682 451.634C86.8936 453.252 86.9434 458.055 86.9682 460.046L85.0782 459.076C85.0782 457.98 85.0533 453.028 84.9787 451.659C84.9289 450.987 84.8543 450.29 84.8046 450.066H87.0926ZM73.8621 453.55C77.2443 453.5 83.4616 453.276 87.2915 453.276C90.3256 453.276 93.4094 453.276 94.5783 453.301L94.5534 455.143C93.1607 455.068 90.9225 455.019 87.2667 455.019C82.9891 455.019 77.6671 455.193 73.9118 455.467L73.8621 453.55ZM86.9185 460.768C86.9185 464.103 85.3766 465.771 83.1135 465.771C81.0244 465.771 79.01 464.302 79.01 461.589C79.01 459.125 81.0493 457.284 83.4119 457.284C86.2968 457.284 87.7641 459.424 87.7641 462.286C87.7641 465.671 86.1227 469.404 80.353 471.122L78.6867 469.504C83.213 468.434 85.8491 466.219 85.8491 462.112C85.8491 459.872 84.7549 458.926 83.4119 458.926C82.0938 458.926 80.8752 459.947 80.8752 461.564C80.8752 463.132 82.0441 464.028 83.4119 464.028C84.9538 464.028 85.9486 462.734 85.5507 460.071L86.9185 460.768Z" fill="#40322D"/>
<path d="M98.7163 463.73C100.805 463.73 102.496 465.422 102.496 467.513C102.496 469.604 100.805 471.296 98.7163 471.296C96.6273 471.296 94.9113 469.604 94.9113 467.513C94.9113 465.422 96.6273 463.73 98.7163 463.73ZM98.7163 470.027C100.109 470.027 101.228 468.907 101.228 467.513C101.228 466.119 100.109 464.999 98.7163 464.999C97.3236 464.999 96.1796 466.119 96.1796 467.513C96.1796 468.907 97.3236 470.027 98.7163 470.027Z" fill="#40322D"/>
<path d="M130.151 448.871H132.041V469.678C132.041 470.848 131.718 471.296 130.947 471.57C130.151 471.819 128.858 471.844 126.769 471.844C126.669 471.396 126.371 470.699 126.122 470.276C127.615 470.325 129.107 470.3 129.554 470.3C130.002 470.276 130.151 470.126 130.151 469.678V448.871ZM120.427 450.862H142.014V452.405H120.427V450.862ZM124.804 455.193V456.985H137.637V455.193H124.804ZM123.039 453.899H139.527V458.304H123.039V453.899ZM122.317 460.046H139.9V469.106H138.035V461.44H122.317V460.046ZM119.955 463.157H142.486V464.651H119.955V463.157ZM122.069 466.542H139.005V467.986H122.069V466.542Z" fill="#40322D"/>
<path d="M145.197 464.252H166.983V465.82H145.197V464.252ZM145.297 453.326H166.883V454.919H145.297V453.326ZM146.291 457.582H165.988V459.125H146.291V457.582ZM147.56 460.942H164.769V462.386H147.56V460.942ZM155.095 458.304H156.936V471.794H155.095V458.304ZM152.807 448.871H154.573V454.073H152.807V448.871ZM157.508 448.871H159.298V453.998H157.508V448.871ZM154.498 464.875L155.99 465.572C153.678 468.16 149.475 470.325 145.769 471.371C145.496 470.898 144.948 470.176 144.551 469.778C148.231 468.956 152.384 467.04 154.498 464.875ZM157.532 464.825C159.646 467.065 163.824 468.981 167.604 469.778C167.182 470.176 166.61 470.923 166.336 471.445C162.556 470.4 158.403 468.135 156.065 465.447L157.532 464.825ZM163.277 449.17L165.192 449.692C164.471 451.061 163.576 452.53 162.879 453.5L161.362 453.003C162.034 451.957 162.854 450.315 163.277 449.17ZM159.945 454.446L161.885 454.919C161.263 456.039 160.616 457.184 160.069 457.98L158.502 457.508C159 456.636 159.646 455.342 159.945 454.446ZM147.311 449.692L148.903 449.12C149.748 450.24 150.668 451.808 151.017 452.828L149.35 453.451C149.002 452.455 148.107 450.862 147.311 449.692ZM150.544 455.093L152.31 454.745C152.882 455.566 153.454 456.686 153.678 457.433L151.837 457.831C151.638 457.084 151.091 455.915 150.544 455.093Z" fill="#40322D"/>
<path d="M182.501 452.804C182.178 455.392 181.681 458.304 180.91 460.967C179.393 466.069 177.403 468.708 175.115 468.708C172.877 468.708 170.663 466.169 170.663 462.037C170.663 456.636 175.463 451.932 181.556 451.932C187.376 451.932 191.081 456.039 191.081 461.092C191.081 466.293 187.649 469.778 181.73 470.549L180.586 468.708C181.382 468.633 182.128 468.533 182.725 468.409C185.908 467.687 189.042 465.298 189.042 460.992C189.042 457.01 186.281 453.724 181.506 453.724C176.035 453.724 172.628 458.229 172.628 461.888C172.628 465.024 174.046 466.418 175.165 466.418C176.334 466.418 177.677 464.725 178.945 460.519C179.666 458.155 180.188 455.342 180.437 452.754L182.501 452.804Z" fill="#40322D"/>
<path d="M197.597 458.204H203.789V459.947H197.597V458.204ZM203.043 458.204H204.859C204.859 458.204 204.859 458.752 204.859 459.001C204.734 464.626 204.585 466.716 204.063 467.413C203.665 467.861 203.267 468.036 202.571 468.11C201.924 468.185 200.805 468.16 199.587 468.11C199.537 467.563 199.338 466.841 199.064 466.368C200.183 466.468 201.278 466.468 201.7 466.468C202.049 466.468 202.297 466.443 202.471 466.219C202.844 465.771 202.969 463.904 203.043 458.528V458.204ZM210.057 450.14L211.176 448.971C212.718 449.767 214.682 450.962 215.652 451.833L214.483 453.102C213.538 452.231 211.623 450.962 210.057 450.14ZM213.613 456.885L215.478 457.333C213.364 463.829 209.659 468.633 204.56 471.644C204.287 471.271 203.59 470.5 203.193 470.126C208.241 467.438 211.748 462.884 213.613 456.885ZM197.746 453.102H216.995V454.944H197.746V453.102ZM196.552 453.102H198.492V460.121C198.492 463.655 198.094 468.683 195.831 471.943C195.508 471.57 194.712 470.923 194.264 470.699C196.329 467.637 196.552 463.356 196.552 460.096V453.102ZM206.873 448.921H208.813C208.763 460.37 211.201 469.703 214.434 469.703C215.13 469.703 215.453 468.409 215.602 465.099C216.025 465.522 216.722 465.945 217.219 466.119C216.871 470.375 216.174 471.595 214.284 471.595C209.211 471.595 206.973 460.843 206.873 448.921Z" fill="#40322D"/>
<path d="M219.532 460.818H241.79V462.485H219.532V460.818ZM224.953 453.55H238.582V455.068H224.953V453.55ZM224.953 457.159H238.582V458.677H224.953V457.159ZM220.725 469.877C223.585 469.479 228.112 468.708 232.364 468.011L232.439 469.653C228.46 470.375 224.182 471.097 221.198 471.62L220.725 469.877ZM230.773 461.266C232.514 465.945 236.443 469.081 242.188 470.201C241.79 470.574 241.268 471.321 241.019 471.844C235.001 470.45 231.096 467.04 229.082 461.714L230.773 461.266ZM239.179 462.709L240.671 463.73C238.806 465.124 236.319 466.567 234.379 467.488L233.11 466.492C235.001 465.547 237.637 463.929 239.179 462.709ZM223.934 449.867H239.378V451.46H225.824V461.515H223.934V449.867ZM223.909 461.34H225.824V469.902L223.909 470.126V461.34Z" fill="#40322D"/>
<path d="M254.423 452.978C257.134 453.451 262.183 453.351 264.645 452.978V454.994C261.984 455.292 257.159 455.292 254.448 454.994L254.423 452.978ZM255.393 463.132C255.17 464.028 255.045 464.725 255.045 465.397C255.045 466.542 255.841 467.662 259.248 467.662C261.462 467.662 263.401 467.463 265.391 466.99L265.441 469.081C263.899 469.404 261.81 469.604 259.223 469.604C255.07 469.604 253.205 468.21 253.205 465.87C253.205 465.049 253.329 464.153 253.603 462.958L255.393 463.132ZM249.698 451.061C249.549 451.484 249.35 452.281 249.251 452.729C248.778 455.044 248.007 459.474 248.007 462.286C248.007 463.481 248.082 464.526 248.231 465.746C248.654 464.626 249.226 463.132 249.649 462.112L250.693 462.933C250.071 464.7 249.151 467.314 248.927 468.508C248.853 468.857 248.803 469.33 248.803 469.628C248.828 469.877 248.853 470.226 248.878 470.5L247.112 470.624C246.615 468.857 246.192 465.995 246.192 462.61C246.192 458.951 247.012 454.695 247.311 452.629C247.385 452.057 247.46 451.435 247.485 450.887L249.698 451.061Z" fill="#40322D"/>
<path d="M274.742 448.647L276.806 449.095C275.463 453.874 273.324 458.304 270.763 461.166C270.39 460.843 269.469 460.22 268.947 459.947C271.583 457.333 273.573 453.102 274.742 448.647ZM289.166 453.177H289.514L289.887 453.077L291.355 453.6C290.459 456.388 289.216 459.474 287.947 461.465L286.256 460.718C287.351 458.951 288.519 455.989 289.166 453.6V453.177ZM274.543 453.177H289.862V454.994H273.598L274.543 453.177ZM281.432 454.795V458.204C281.432 460.693 282.998 467.264 291.678 469.977C291.28 470.425 290.658 471.271 290.36 471.744C283.371 469.305 280.885 463.929 280.387 461.54C279.865 463.904 277.403 469.131 270.365 471.769C270.141 471.346 269.469 470.524 269.072 470.126C277.676 467.314 279.293 460.818 279.293 458.229V454.795H281.432Z" fill="#40322D"/>
<path d="M303.715 450.364C303.615 450.837 303.516 451.36 303.416 451.858C303.267 452.754 302.919 454.795 302.596 456.338C301.75 459.822 299.959 466.02 297.149 470.574L295.135 469.753C297.97 465.97 299.959 459.324 300.631 456.263C301.078 454.297 301.427 452.057 301.427 450.14L303.715 450.364ZM312.295 453.028C313.836 455.044 316 459.623 316.821 461.938L314.906 462.859C314.16 460.295 312.22 455.89 310.479 453.849L312.295 453.028ZM294.762 455.84C295.557 455.865 296.204 455.865 297 455.84C298.84 455.79 303.889 455.218 305.58 455.218C307.793 455.218 309.609 456.064 309.609 459.449C309.609 462.411 309.211 466.368 308.191 468.434C307.395 470.101 306.152 470.5 304.56 470.5C303.59 470.5 302.421 470.325 301.626 470.151L301.302 468.06C302.347 468.384 303.64 468.583 304.336 468.583C305.257 468.583 306.003 468.384 306.525 467.289C307.321 465.621 307.694 462.361 307.694 459.673C307.694 457.408 306.649 456.985 305.058 456.985C303.391 456.985 298.741 457.532 297.224 457.682C296.652 457.756 295.607 457.881 294.985 457.98L294.762 455.84Z" fill="#40322D"/>
<path d="M336.095 450.588C336.045 451.012 335.995 451.858 335.995 452.405C335.97 453.948 335.97 455.691 335.92 456.96C335.871 458.876 335.796 461.564 335.547 462.859C335.324 463.979 334.752 464.302 333.632 464.302C332.712 464.302 330.996 464.078 330.35 463.954L330.375 462.212C331.245 462.411 332.29 462.535 332.862 462.535C333.483 462.535 333.732 462.436 333.831 461.863C333.981 460.917 334.08 458.752 334.105 456.985C334.13 455.591 334.13 453.849 334.13 452.48C334.13 451.908 334.055 451.036 333.981 450.588H336.095ZM326.271 451.385C326.197 451.957 326.172 452.629 326.172 453.401C326.147 456.089 326.072 462.933 326.122 464.651C326.221 467.339 326.246 468.284 330.549 468.284C333.259 468.284 336.343 468.011 337.96 467.712L337.885 469.803C336.219 469.977 333.185 470.226 330.648 470.226C324.903 470.226 324.356 468.882 324.257 464.924C324.207 462.834 324.232 454.62 324.232 453.476C324.232 452.729 324.207 452.132 324.083 451.385H326.271ZM318.835 457.333C319.606 457.333 320.526 457.284 321.422 457.184C324.108 456.96 333.583 455.964 338.681 455.691C339.328 455.666 340.049 455.616 340.621 455.566V457.532C340.248 457.508 339.303 457.532 338.681 457.532C334.702 457.607 324.704 458.652 321.546 459.026C320.8 459.125 319.731 459.275 319.034 459.374L318.835 457.333Z" fill="#40322D"/>
<path d="M344.973 454.098C345.893 454.197 346.962 454.247 348.032 454.247C350.718 454.247 353.851 453.924 356.711 452.978L356.761 454.82C354.324 455.492 351.066 456.039 348.032 456.014C347.112 456.014 346.042 455.989 345.122 455.964L344.973 454.098ZM353.802 450.041C353.478 451.26 352.956 453.6 352.359 455.367C351.165 458.951 348.877 463.481 346.813 466.268L344.898 465.273C347.112 462.684 349.425 458.254 350.444 455.317C350.991 453.749 351.538 451.559 351.613 449.817L353.802 450.041ZM359.671 457.732C359.596 458.752 359.596 459.499 359.621 460.395C359.671 462.012 359.895 465.796 359.895 467.438C359.895 469.429 358.626 471.047 355.542 471.047C352.807 471.047 350.593 469.952 350.593 467.463C350.593 465.173 352.757 463.73 355.542 463.73C359.72 463.73 362.929 465.82 364.968 467.588L363.923 469.28C362.008 467.538 359.148 465.323 355.493 465.323C353.652 465.323 352.409 466.169 352.409 467.314C352.409 468.459 353.379 469.255 355.319 469.255C357.383 469.255 358.079 468.16 358.079 466.816C358.079 464.924 357.806 460.469 357.706 457.732H359.671ZM364.645 458.379C363.302 457.234 360.591 455.716 358.95 454.944L359.944 453.451C361.76 454.222 364.57 455.84 365.764 456.736L364.645 458.379Z" fill="#40322D"/>
<path d="M373.001 452.43C372.876 453.003 372.802 454.197 372.777 454.844C372.752 456.388 372.777 458.677 372.951 460.718C373.374 464.875 374.567 467.637 376.358 467.637C377.626 467.637 378.795 465.074 379.442 462.585L381.009 464.352C379.492 468.558 377.999 470.002 376.308 470.002C373.946 470.002 371.708 467.662 371.011 461.216C370.787 459.076 370.738 456.039 370.738 454.596C370.738 454.023 370.738 452.953 370.588 452.38L373.001 452.43ZM385.933 453.102C388.171 455.989 389.962 461.291 390.335 465.497L388.32 466.293C387.897 461.813 386.38 456.686 384.018 453.774L385.933 453.102Z" fill="#40322D"/>
<path d="M403.466 449.643H405.53C405.331 453.55 404.958 465.97 394.662 471.57C394.339 471.097 393.717 470.524 393.145 470.101C403.292 464.924 403.292 452.953 403.466 449.643ZM405.455 450.14C405.53 452.082 406.251 465.298 416.497 470.002C415.95 470.425 415.378 471.047 415.08 471.57C404.535 466.517 403.839 452.604 403.665 450.315L405.455 450.14Z" fill="#40322D"/>
<path d="M66.8489 500.055C66.3018 500.379 65.68 500.727 64.934 501.1C63.2677 501.972 59.8109 503.614 57.3737 505.207C55.0608 506.725 53.6681 508.368 53.6681 510.235C53.6681 512.3 55.6577 513.595 59.587 513.595C62.2729 513.595 65.6054 513.246 67.5452 512.748L67.5204 514.988C65.6552 515.312 62.7703 515.586 59.6617 515.586C54.9862 515.586 51.604 514.192 51.604 510.459C51.604 507.771 53.4194 505.655 56.354 503.714C58.8907 502.021 62.3724 500.354 63.9889 499.433C64.7101 499.01 65.2573 498.686 65.7795 498.263L66.8489 500.055ZM54.265 495.525C55.409 498.711 56.9509 501.822 58.0949 503.838L56.4038 504.859C55.1354 502.818 53.6433 499.458 52.3003 496.372L54.265 495.525Z" fill="#40322D"/>
<path d="M82.641 494.754H84.7051C84.5062 498.661 84.1331 511.081 73.8372 516.681C73.5139 516.208 72.8922 515.636 72.3202 515.212C82.4669 510.036 82.4669 498.064 82.641 494.754ZM84.6305 495.252C84.7051 497.193 85.4263 510.409 95.6725 515.113C95.1254 515.536 94.5534 516.158 94.255 516.681C83.7103 511.628 83.014 497.716 82.8399 495.426L84.6305 495.252Z" fill="#40322D"/>
<path d="M110.37 497.915C110.047 500.503 109.55 503.415 108.779 506.078C107.262 511.18 105.272 513.819 102.984 513.819C100.746 513.819 98.5325 511.28 98.5325 507.148C98.5325 501.748 103.332 497.044 109.425 497.044C115.245 497.044 118.95 501.15 118.95 506.203C118.95 511.404 115.518 514.889 109.599 515.66L108.455 513.819C109.251 513.744 109.997 513.644 110.594 513.52C113.777 512.798 116.911 510.409 116.911 506.103C116.911 502.121 114.15 498.836 109.376 498.836C103.904 498.836 100.497 503.34 100.497 506.999C100.497 510.135 101.915 511.529 103.034 511.529C104.203 511.529 105.546 509.836 106.814 505.63C107.535 503.266 108.057 500.453 108.306 497.865L110.37 497.915Z" fill="#40322D"/>
<path d="M123.029 501.897C123.949 501.748 124.844 501.474 125.789 501.2C127.878 500.528 132.778 498.736 136.409 498.736C140.512 498.736 143.795 501.125 143.795 505.282C143.795 511.255 137.876 514.117 130.216 514.565L129.321 512.5C135.812 512.325 141.631 510.334 141.631 505.257C141.631 502.644 139.716 500.578 136.359 500.578C132.255 500.578 125.939 503.316 123.949 504.112L123.029 501.897Z" fill="#40322D"/>
<path d="M148.495 499.209C149.415 499.308 150.485 499.358 151.554 499.358C154.24 499.358 157.373 499.035 160.233 498.089L160.283 499.931C157.846 500.603 154.588 501.15 151.554 501.125C150.634 501.125 149.564 501.1 148.644 501.076L148.495 499.209ZM157.324 495.152C157 496.372 156.478 498.711 155.881 500.478C154.688 504.062 152.4 508.592 150.335 511.38L148.42 510.384C150.634 507.796 152.947 503.365 153.966 500.428C154.513 498.86 155.061 496.67 155.135 494.928L157.324 495.152ZM163.193 502.843C163.118 503.863 163.118 504.61 163.143 505.506C163.193 507.124 163.417 510.907 163.417 512.549C163.417 514.54 162.148 516.158 159.065 516.158C156.329 516.158 154.116 515.063 154.116 512.574C154.116 510.284 156.279 508.841 159.065 508.841C163.243 508.841 166.451 510.932 168.49 512.699L167.446 514.391C165.531 512.649 162.671 510.434 159.015 510.434C157.175 510.434 155.931 511.28 155.931 512.425C155.931 513.57 156.901 514.366 158.841 514.366C160.905 514.366 161.601 513.271 161.601 511.927C161.601 510.036 161.328 505.58 161.228 502.843H163.193ZM168.167 503.49C166.824 502.345 164.113 500.827 162.472 500.055L163.466 498.562C165.282 499.333 168.092 500.951 169.286 501.847L168.167 503.49Z" fill="#40322D"/>
<path d="M181.522 495.575C181.422 496.023 181.323 496.571 181.223 497.044C181.049 497.94 180.726 499.98 180.378 501.524C179.532 505.033 177.766 511.23 174.956 515.76L172.917 514.964C175.752 511.156 177.741 504.51 178.413 501.474C178.885 499.483 179.209 497.243 179.209 495.326L181.522 495.575ZM190.077 498.437C191.619 500.453 193.782 504.983 194.628 507.273L192.688 508.194C191.967 505.655 190.002 501.324 188.261 499.259L190.077 498.437ZM172.569 501.026C173.34 501.076 173.986 501.051 174.782 501.026C176.647 500.976 181.696 500.428 183.387 500.428C185.6 500.428 187.416 501.275 187.416 504.635C187.416 507.596 187.018 511.554 185.973 513.62C185.202 515.287 183.959 515.71 182.342 515.71C181.397 515.71 180.204 515.536 179.433 515.337L179.084 513.271C180.129 513.595 181.447 513.769 182.143 513.769C183.064 513.769 183.81 513.57 184.307 512.5C185.103 510.807 185.501 507.572 185.501 504.884C185.501 502.594 184.456 502.171 182.865 502.171C181.198 502.171 176.523 502.743 175.006 502.892C174.434 502.967 173.414 503.092 172.768 503.191L172.569 501.026ZM190.35 494.828C190.972 495.724 191.867 497.243 192.39 498.263L191.047 498.86C190.549 497.84 189.704 496.347 189.007 495.401L190.35 494.828ZM193.086 493.833C193.757 494.754 194.702 496.322 195.2 497.243L193.832 497.84C193.31 496.745 192.489 495.326 191.768 494.405L193.086 493.833Z" fill="#40322D"/>
<path d="M204.252 495.252C203.73 497.093 203.257 500.453 203.108 502.196C204.128 499.632 206.714 496.521 209.873 496.521C213.155 496.521 215.543 499.856 215.543 505.083C215.543 511.977 211.191 515.038 205.048 516.158L203.854 514.366C209.276 513.545 213.479 511.355 213.479 505.108C213.479 501.175 212.161 498.338 209.549 498.338C206.441 498.338 203.556 502.868 203.257 506.128C203.133 507.074 203.133 507.945 203.307 509.189L201.367 509.339C201.243 508.393 201.119 506.999 201.119 505.381C201.119 503.017 201.591 499.358 201.89 497.317C201.989 496.571 202.039 495.874 202.089 495.177L204.252 495.252Z" fill="#40322D"/>
<path d="M232.156 495.227C231.932 496.197 231.658 497.566 231.012 499.234C230.39 500.752 229.47 502.42 228.475 503.714C229.445 503.141 230.862 502.793 231.957 502.793C233.872 502.793 235.364 503.938 235.364 505.954C235.364 507.248 235.414 510.11 235.438 511.653H233.524C233.623 510.334 233.648 507.771 233.623 506.476C233.598 505.033 232.603 504.361 231.31 504.361C229.718 504.361 228.152 505.157 227.008 506.178C226.287 506.875 225.59 507.771 224.769 508.791L223.053 507.522C226.635 504.087 228.301 501.2 229.146 499.084C229.694 497.716 230.042 496.222 230.116 495.052L232.156 495.227ZM223.625 497.915C224.968 498.089 226.684 498.164 227.828 498.164C231.186 498.164 235.488 497.964 238.995 497.342V499.184C235.513 499.707 230.887 499.931 227.729 499.931C226.66 499.931 225.018 499.881 223.625 499.781V497.915ZM242.626 503.913C242.004 504.112 241.109 504.46 240.437 504.709C238.671 505.406 236.309 506.352 233.897 507.596C231.434 508.891 229.694 510.235 229.694 511.952C229.694 513.893 231.609 514.192 234.17 514.192C236.11 514.192 238.796 513.968 240.984 513.57L240.91 515.586C239.02 515.81 236.259 516.009 234.096 516.009C230.564 516.009 227.704 515.237 227.704 512.226C227.704 509.189 230.788 507.323 233.747 505.804C236.11 504.585 238.124 503.813 239.766 503.042C240.512 502.693 241.134 502.42 241.83 502.071L242.626 503.913Z" fill="#40322D"/>
<path d="M247.227 500.628H256.005V502.021H247.227V500.628ZM250.758 501.051H252.474V506.053H250.758V501.051ZM246.754 505.954C249.067 505.63 252.598 505.083 256.005 504.535L256.105 506.004C252.847 506.551 249.49 507.099 247.028 507.497L246.754 505.954ZM257.448 500.478H259.164V503.017C259.164 505.083 258.368 507.323 254.737 508.766C254.513 508.393 253.867 507.721 253.518 507.472C256.851 506.252 257.448 504.585 257.448 502.967V500.478ZM264.436 500.478H266.227V505.506C266.227 505.979 266.227 506.252 266.326 506.352C266.401 506.427 266.55 506.452 266.724 506.452C266.873 506.452 267.172 506.452 267.396 506.452C267.595 506.452 267.794 506.427 267.893 506.352C267.992 506.302 268.092 506.128 268.142 505.854C268.191 505.531 268.216 504.834 268.241 503.888C268.564 504.187 269.112 504.46 269.534 504.585C269.51 505.506 269.435 506.551 269.286 506.924C269.161 507.323 268.913 507.596 268.589 507.746C268.316 507.87 267.843 507.92 267.445 507.92C267.172 507.92 266.55 507.92 266.301 507.92C265.804 507.92 265.257 507.82 264.909 507.522C264.561 507.198 264.436 506.8 264.436 505.431V500.478ZM246.928 509.314H269.161V510.857H246.928V509.314ZM257.075 507.397H258.89V516.855H257.075V507.397ZM256.378 510.11L257.821 510.782C255.508 513.246 251.28 515.312 247.6 516.258C247.326 515.785 246.804 515.113 246.406 514.74C250.087 513.968 254.265 512.176 256.378 510.11ZM259.562 510.21C261.75 512.201 265.953 513.868 269.634 514.615C269.236 514.964 268.714 515.71 268.44 516.183C264.759 515.287 260.532 513.246 258.194 510.832L259.562 510.21ZM249.639 495.924H257.672V497.442H249.639V495.924ZM259.338 495.924H269.385V497.442H259.338V495.924ZM250.111 493.883L251.877 494.331C250.957 496.496 249.49 498.636 248.047 500.03C247.699 499.732 246.953 499.234 246.53 498.985C247.997 497.716 249.34 495.799 250.111 493.883ZM259.91 493.883L261.676 494.306C260.78 496.521 259.189 498.612 257.597 499.931C257.224 499.657 256.428 499.209 255.981 498.985C257.622 497.765 259.114 495.874 259.91 493.883ZM251.032 497.118L252.499 496.72C253.071 497.566 253.668 498.736 253.941 499.483L252.374 499.931C252.151 499.184 251.579 497.989 251.032 497.118ZM261.576 497.093L263.118 496.62C263.864 497.467 264.71 498.636 265.083 499.433L263.491 499.98C263.143 499.184 262.347 497.964 261.576 497.093ZM259.487 503.838L260.557 502.843C261.775 503.564 263.292 504.66 264.013 505.406L262.919 506.551C262.173 505.755 260.706 504.61 259.487 503.838ZM258.119 500.478H265.381V501.822H258.119V500.478Z" fill="#40322D"/>
<path d="M287.963 496.546C287.415 496.944 286.645 497.616 286.247 497.964C284.531 499.458 280.949 502.27 279.109 503.813C277.617 505.108 277.592 505.481 279.209 506.825C281.472 508.692 285.874 512.226 288.51 514.889L286.744 516.507C286.222 515.909 285.625 515.312 285.028 514.69C283.262 512.898 279.507 509.662 277.169 507.746C274.832 505.78 275.105 504.709 277.343 502.818C279.233 501.25 283.014 498.263 284.68 496.571C285.177 496.073 285.824 495.351 286.097 494.903L287.963 496.546Z" fill="#40322D"/>
<path d="M307.013 502.046H317.234V503.913H307.013V502.046ZM296.592 513.844H318.925V515.71H296.592V513.844ZM305.943 494.356H307.908V514.839H305.943V494.356Z" fill="#40322D"/>
<path d="M322.133 498.512C323.078 498.487 323.874 498.437 324.371 498.388C325.963 498.213 330.663 497.765 335.239 497.367C337.975 497.143 340.288 496.994 341.954 496.944L341.979 498.935C340.536 498.91 338.373 498.96 337.104 499.308C333.548 500.453 331.385 504.261 331.385 507.198C331.385 512.052 335.936 513.62 339.964 513.769L339.243 515.81C334.642 515.636 329.42 513.196 329.42 507.621C329.42 503.764 331.782 500.578 334.046 499.234C331.385 499.508 325.043 500.13 322.357 500.702L322.133 498.512ZM338.373 501.972C338.945 502.793 339.89 504.336 340.437 505.456L339.144 506.028C338.572 504.834 337.875 503.564 337.129 502.519L338.373 501.972ZM341.084 500.926C341.705 501.748 342.675 503.266 343.247 504.361L341.979 504.983C341.382 503.788 340.636 502.544 339.865 501.499L341.084 500.926Z" fill="#40322D"/>
<path d="M360.382 497.765H368.44V499.532H360.382V497.765ZM360.357 509.065H368.863V510.832H360.357V509.065ZM360.258 503.39H367.943V505.083H360.258V503.39ZM346.953 497.765H354.289V499.532H346.953V497.765ZM347.251 503.39H354.215V505.083H347.251V503.39ZM359.412 494.132H361.253V516.88H359.412V494.132ZM346.033 509.612C348.793 509.189 353.12 508.492 357.224 507.771L357.323 509.438C353.444 510.16 349.365 510.907 346.431 511.429L346.033 509.612ZM353.444 494.132H355.284V505.755C355.284 508.965 354.289 514.341 348.296 517.154C347.997 516.731 347.4 516.133 346.953 515.76C352.648 513.346 353.444 508.343 353.444 505.755V494.132Z" fill="#40322D"/>
<path d="M381.72 506.103H383.61V516.905H381.72V506.103ZM377.716 502.693V505.108H387.117V502.693H377.716ZM375.901 501.275H389.032V506.551H375.901V501.275ZM373.687 508.617H390.35V510.309H375.553V515.76H373.687V508.617ZM389.43 508.617H391.32V513.819C391.32 514.789 391.121 515.312 390.35 515.586C389.554 515.884 388.286 515.884 386.346 515.884C386.246 515.387 385.973 514.69 385.699 514.192C387.191 514.242 388.534 514.242 388.932 514.217C389.305 514.192 389.43 514.092 389.43 513.819V508.617ZM381.546 493.982H383.461V498.512H381.546V493.982ZM372.046 497.84H392.837V503.216H390.972V499.508H373.861V503.216H372.046V497.84ZM374.11 494.903L375.776 494.231C376.597 495.127 377.467 496.322 377.89 497.143L376.1 497.964C375.727 497.118 374.881 495.824 374.11 494.903ZM388.883 494.181L390.822 494.853C390.002 495.948 389.057 497.093 388.311 497.865L386.794 497.243C387.49 496.421 388.41 495.077 388.883 494.181Z" fill="#40322D"/>
<path d="M406.117 498.089C408.828 498.562 413.876 498.462 416.338 498.089V500.105C413.677 500.404 408.853 500.404 406.142 500.105L406.117 498.089ZM407.087 508.244C406.863 509.14 406.739 509.836 406.739 510.508C406.739 511.653 407.535 512.773 410.942 512.773C413.155 512.773 415.095 512.574 417.084 512.101L417.134 514.192C415.592 514.516 413.503 514.715 410.917 514.715C406.764 514.715 404.898 513.321 404.898 510.981C404.898 510.16 405.023 509.264 405.296 508.069L407.087 508.244ZM401.392 496.172C401.243 496.596 401.044 497.392 400.944 497.84C400.472 500.155 399.701 504.585 399.701 507.397C399.701 508.592 399.775 509.637 399.925 510.857C400.347 509.737 400.919 508.244 401.342 507.223L402.387 508.044C401.765 509.812 400.845 512.425 400.621 513.62C400.546 513.968 400.497 514.441 400.497 514.74C400.521 514.988 400.546 515.337 400.571 515.611L398.805 515.735C398.308 513.968 397.885 511.106 397.885 507.721C397.885 504.062 398.706 499.806 399.004 497.74C399.079 497.168 399.154 496.546 399.178 495.998L401.392 496.172Z" fill="#40322D"/>
<path d="M47.9233 559.676H70.2311V561.22H47.9233V559.676ZM48.0476 543.524H70.0819V545.067H48.0476V543.524ZM49.7636 556.043H68.6395V557.536H49.7636V556.043ZM58.0203 541.01H59.8855V560.423H58.0203V541.01ZM66.6748 539.243L67.6696 540.686C63.218 541.508 56.1302 541.931 50.3108 542.055C50.3108 541.607 50.0869 540.96 49.9129 540.562C55.7074 540.412 62.7455 539.964 66.6748 539.243ZM52.3749 551.04V552.956H65.8293V551.04H52.3749ZM52.3749 547.904V549.796H65.8293V547.904H52.3749ZM50.5595 546.56H67.7193V554.3H50.5595V546.56Z" fill="#40322D"/>
<path d="M72.6186 552.708H95.2497V554.276H72.6186V552.708ZM73.2155 540.188H94.628V541.831H73.2155V540.188ZM81.2483 550.094L83.0637 550.592C81.4472 553.18 79.1592 556.441 77.5676 558.482L75.8019 557.884C77.3935 555.868 79.7064 552.533 81.2483 550.094ZM88.7091 553.255L90.4997 553.778C88.3112 559.253 83.014 561.294 73.688 561.991C73.5636 561.444 73.2652 560.772 72.9668 560.348C81.8451 559.876 86.7195 558.108 88.7091 553.255ZM77.1448 557.636L78.0899 556.267C84.2326 557.362 90.624 559.029 94.4788 560.548L93.3597 562.066C89.5547 560.498 83.4616 558.805 77.1448 557.636ZM80.0048 540.811H81.7705V549.497H80.0048V540.811ZM85.7994 540.811H87.5651V549.497H85.7994V540.811ZM76.1998 545.49V548.875H91.7183V545.49H76.1998ZM74.4589 543.972H93.5835V550.418H74.4589V543.972Z" fill="#40322D"/>
<path d="M98.7563 544.32C99.6765 544.42 100.746 544.469 101.815 544.469C104.501 544.469 107.635 544.146 110.495 543.2L110.544 545.042C108.107 545.714 104.849 546.261 101.815 546.236C100.895 546.236 99.8257 546.212 98.9055 546.187L98.7563 544.32ZM107.585 540.263C107.262 541.483 106.739 543.822 106.143 545.589C104.949 549.173 102.661 553.703 100.597 556.491L98.6817 555.495C100.895 552.907 103.208 548.476 104.228 545.54C104.775 543.972 105.322 541.781 105.396 540.039L107.585 540.263ZM113.454 547.954C113.38 548.974 113.38 549.721 113.404 550.617C113.454 552.235 113.678 556.018 113.678 557.66C113.678 559.652 112.41 561.269 109.326 561.269C106.59 561.269 104.377 560.174 104.377 557.685C104.377 555.396 106.54 553.952 109.326 553.952C113.504 553.952 116.712 556.043 118.751 557.81L117.707 559.502C115.792 557.76 112.932 555.545 109.276 555.545C107.436 555.545 106.192 556.391 106.192 557.536C106.192 558.681 107.162 559.477 109.102 559.477C111.166 559.477 111.862 558.382 111.862 557.038C111.862 555.147 111.589 550.692 111.489 547.954H113.454ZM118.428 548.601C117.085 547.456 114.374 545.938 112.733 545.166L113.728 543.673C115.543 544.444 118.353 546.062 119.547 546.958L118.428 548.601Z" fill="#40322D"/>
<path d="M132.231 540.437C132.081 540.985 131.907 541.931 131.808 542.404C131.435 544.196 130.912 547.008 130.216 549.497C129.321 553.031 127.655 558.183 126.336 560.896L124.173 560.174C125.665 557.586 127.406 552.533 128.351 549.024C128.948 546.734 129.594 543.598 129.768 542.304C129.868 541.607 129.918 540.761 129.868 540.238L132.231 540.437ZM126.734 544.594C129.47 544.594 133.126 544.146 136.21 543.374V545.316C133.126 546.012 129.371 546.436 126.685 546.436C125.59 546.436 124.72 546.411 123.8 546.336L123.75 544.395C124.919 544.544 125.814 544.594 126.734 544.594ZM134.593 548.004C135.886 547.879 137.553 547.804 139.144 547.804C140.587 547.804 142.104 547.854 143.447 548.004L143.397 549.895C142.104 549.746 140.661 549.596 139.194 549.596C137.652 549.596 136.11 549.696 134.593 549.87V548.004ZM135.09 554.052C134.892 554.873 134.742 555.644 134.742 556.292C134.742 557.461 135.414 558.606 138.945 558.606C140.587 558.606 142.278 558.432 143.82 558.133L143.745 560.124C142.402 560.324 140.736 560.473 138.92 560.473C135.016 560.473 132.877 559.278 132.877 556.814C132.877 555.868 133.026 554.923 133.25 553.877L135.09 554.052Z" fill="#40322D"/>
<path d="M162.745 540.736C162.571 541.358 162.422 542.229 162.298 542.702C161.402 546.809 159.661 552.011 157.672 554.748C155.782 557.387 153.966 559.253 151.703 559.253C149.813 559.253 148.222 557.685 148.222 554.773C148.222 551.637 150.136 548.327 152.773 546.56C155.235 544.892 157.672 544.245 160.233 544.245C165.108 544.245 168.639 547.531 168.639 552.384C168.639 557.362 165.083 560.373 159.736 561.12L158.592 559.353C163.79 558.88 166.65 556.167 166.65 552.309C166.65 548.651 164.014 545.963 160.01 545.963C157.597 545.963 155.434 546.784 153.494 548.228C151.38 549.746 150.037 552.409 150.037 554.649C150.037 556.292 150.758 557.287 151.877 557.287C153.494 557.287 155.235 555.172 156.503 553.156C158.144 550.617 159.811 546.062 160.432 542.428C160.532 541.931 160.606 541.109 160.582 540.537L162.745 540.736ZM152.549 541.881C152.673 542.553 152.872 543.374 153.071 544.071C153.718 546.51 155.11 550.343 156.155 552.085C157 553.529 158.169 555.172 159.363 556.316L157.796 557.586C156.801 556.491 155.881 555.271 154.936 553.653C153.718 551.712 152.275 547.904 151.33 544.793C151.082 543.996 150.808 543.175 150.485 542.528L152.549 541.881Z" fill="#40322D"/>
<path d="M177.766 561.394C176.15 559.428 174.011 557.312 172.245 555.868L173.862 554.45C175.652 555.893 177.891 558.133 179.457 559.95L177.766 561.394Z" fill="#40322D"/>
<path d="M203.481 545.141H205.421V558.532C205.421 559.701 205.72 559.925 207.112 559.925C207.809 559.925 211.042 559.925 211.937 559.925C213.379 559.925 213.603 559.104 213.802 555.147C214.275 555.495 215.07 555.844 215.618 555.968C215.319 560.448 214.747 561.792 212.036 561.792C211.39 561.792 207.585 561.792 206.963 561.792C204.252 561.792 203.481 561.095 203.481 558.482V545.141ZM203.531 540.487L204.75 539.168C206.888 540.562 209.599 542.603 211.042 543.772L209.798 545.291C208.356 544.021 205.62 541.931 203.531 540.487ZM199.502 546.635L201.243 547.083C200.696 549.845 199.776 553.429 198.383 555.62L196.617 554.898C198.035 552.732 199.005 549.348 199.502 546.635ZM214.2 548.252L215.866 547.481C217.607 549.97 219.273 553.23 219.97 555.42L218.179 556.316C217.557 554.101 215.866 550.741 214.2 548.252ZM215.518 540.587L217.358 541.358C213.28 549.124 206.714 556.292 197.861 560.523C197.587 560.1 197.04 559.428 196.642 559.054C205.222 555.147 211.912 547.954 215.518 540.587Z" fill="#40322D"/>
<path d="M221.835 552.708H244.466V554.276H221.835V552.708ZM222.432 540.188H243.844V541.831H222.432V540.188ZM230.465 550.094L232.28 550.592C230.664 553.18 228.376 556.441 226.784 558.482L225.018 557.884C226.61 555.868 228.923 552.533 230.465 550.094ZM237.925 553.255L239.716 553.778C237.527 559.253 232.23 561.294 222.904 561.991C222.78 561.444 222.481 560.772 222.183 560.348C231.061 559.876 235.936 558.108 237.925 553.255ZM226.361 557.636L227.306 556.267C233.449 557.362 239.84 559.029 243.695 560.548L242.576 562.066C238.771 560.498 232.678 558.805 226.361 557.636ZM229.221 540.811H230.987V549.497H229.221V540.811ZM235.016 540.811H236.781V549.497H235.016V540.811ZM225.416 545.49V548.875H240.935V545.49H225.416ZM223.675 543.972H242.8V550.418H223.675V543.972Z" fill="#40322D"/>
<path d="M247.973 544.32C248.893 544.42 249.962 544.469 251.032 544.469C253.717 544.469 256.851 544.146 259.711 543.2L259.761 545.042C257.323 545.714 254.066 546.261 251.032 546.236C250.111 546.236 249.042 546.212 248.122 546.187L247.973 544.32ZM256.801 540.263C256.478 541.483 255.956 543.822 255.359 545.589C254.165 549.173 251.877 553.703 249.813 556.491L247.898 555.495C250.111 552.907 252.424 548.476 253.444 545.54C253.991 543.972 254.538 541.781 254.613 540.039L256.801 540.263ZM262.67 547.954C262.596 548.974 262.596 549.721 262.621 550.617C262.67 552.235 262.894 556.018 262.894 557.66C262.894 559.652 261.626 561.269 258.542 561.269C255.806 561.269 253.593 560.174 253.593 557.685C253.593 555.396 255.757 553.952 258.542 553.952C262.72 553.952 265.928 556.043 267.968 557.81L266.923 559.502C265.008 557.76 262.148 555.545 258.492 555.545C256.652 555.545 255.409 556.391 255.409 557.536C255.409 558.681 256.378 559.477 258.318 559.477C260.382 559.477 261.079 558.382 261.079 557.038C261.079 555.147 260.805 550.692 260.706 547.954H262.67ZM267.644 548.601C266.301 547.456 263.591 545.938 261.949 545.166L262.944 543.673C264.759 544.444 267.57 546.062 268.763 546.958L267.644 548.601Z" fill="#40322D"/>
<path d="M276.274 542.553C278.065 542.752 280.353 542.852 282.864 542.852C285.252 542.852 287.764 542.702 289.554 542.503V544.544C287.863 544.668 285.152 544.843 282.864 544.843C280.377 544.843 278.239 544.743 276.274 544.569V542.553ZM277.269 552.583C276.97 553.554 276.771 554.475 276.771 555.396C276.771 557.312 278.711 558.606 282.69 558.606C286.097 558.606 289.306 558.233 291.196 557.636L291.22 559.776C289.43 560.249 286.271 560.622 282.74 560.622C277.692 560.622 274.757 558.98 274.757 555.844C274.757 554.549 275.031 553.38 275.254 552.384L277.269 552.583Z" fill="#40322D"/>
<path d="M305.57 540.786C305.421 541.333 305.222 542.279 305.122 542.752C304.774 544.544 304.252 547.381 303.556 549.845C302.66 553.38 300.994 558.532 299.676 561.244L297.488 560.523C299.005 557.959 300.745 552.882 301.666 549.372C302.287 547.083 302.934 543.972 303.108 542.652C303.208 541.956 303.257 541.109 303.208 540.587L305.57 540.786ZM300.074 544.942C302.81 544.942 306.465 544.519 309.549 543.723V545.689C306.465 546.386 302.71 546.784 300.024 546.784C298.93 546.784 298.06 546.759 297.139 546.684L297.09 544.768C298.259 544.917 299.154 544.942 300.074 544.942ZM307.933 548.377C309.226 548.252 310.867 548.153 312.484 548.153C313.926 548.153 315.443 548.203 316.786 548.352L316.736 550.244C315.443 550.094 314.001 549.97 312.534 549.97C310.967 549.97 309.45 550.044 307.933 550.219V548.377ZM308.43 554.425C308.231 555.221 308.082 556.018 308.082 556.665C308.082 557.835 308.753 558.98 312.285 558.98C313.901 558.98 315.617 558.78 317.159 558.482L317.085 560.498C315.742 560.672 314.075 560.846 312.26 560.846C308.355 560.846 306.217 559.627 306.217 557.163C306.217 556.217 306.366 555.296 306.59 554.226L308.43 554.425ZM314.075 541.557C314.722 542.428 315.617 543.972 316.14 544.967L314.797 545.564C314.299 544.569 313.429 543.051 312.757 542.105L314.075 541.557ZM316.836 540.537C317.507 541.458 318.452 543.001 318.925 543.947L317.582 544.544C317.06 543.449 316.214 542.055 315.518 541.109L316.836 540.537Z" fill="#40322D"/>
<path d="M333.324 558.233C337.527 557.611 341.307 555.669 341.283 551.388C341.283 549.472 339.766 546.933 336.458 546.933C333.275 546.933 330.415 548.7 328.002 551.214V548.999C330.987 546.187 334.145 545.141 336.756 545.141C340.213 545.141 343.272 547.556 343.272 551.413C343.297 556.441 339.641 559.054 334.22 560.1L333.324 558.233ZM327.704 546.236C326.908 546.336 324.197 546.684 322.357 546.958L322.133 544.892C322.68 544.917 323.153 544.917 323.774 544.868C325.093 544.793 328.176 544.42 329.345 544.046L330.066 544.892C329.644 545.54 328.972 546.61 328.549 547.307L327.803 550.716C326.659 552.484 324.346 555.844 322.78 558.009L321.536 556.316C323.078 554.375 326.436 549.796 327.405 548.153L327.505 546.884L327.704 546.236ZM327.455 542.105C327.455 541.532 327.48 540.885 327.356 540.263L329.718 540.338C329.37 541.956 328.599 549.074 328.599 553.454C328.599 555.719 328.599 557.237 328.699 559.452C328.724 559.876 328.798 560.498 328.823 560.971H326.684C326.709 560.622 326.759 559.9 326.759 559.502C326.759 557.088 326.784 555.844 326.809 553.106C326.858 550.916 327.455 543.026 327.455 542.105Z" fill="#40322D"/>
<path d="M353.469 540.363C352.946 542.204 352.474 545.564 352.325 547.307C353.344 544.743 355.931 541.632 359.089 541.632C362.372 541.632 364.759 544.967 364.759 550.194C364.759 557.088 360.407 560.149 354.264 561.269L353.071 559.477C358.492 558.656 362.695 556.466 362.695 550.219C362.695 546.286 361.377 543.449 358.766 543.449C355.657 543.449 352.772 547.979 352.474 551.239C352.349 552.185 352.349 553.056 352.524 554.3L350.584 554.45C350.459 553.504 350.335 552.11 350.335 550.492C350.335 548.128 350.808 544.469 351.106 542.428C351.205 541.682 351.255 540.985 351.305 540.288L353.469 540.363Z" fill="#40322D"/>
<path d="M381.372 540.338C381.148 541.308 380.875 542.677 380.228 544.345C379.606 545.863 378.686 547.531 377.691 548.825C378.661 548.252 380.079 547.904 381.173 547.904C383.088 547.904 384.58 549.049 384.58 551.065C384.58 552.359 384.63 555.221 384.655 556.764H382.74C382.839 555.445 382.864 552.882 382.839 551.588C382.814 550.144 381.82 549.472 380.526 549.472C378.935 549.472 377.368 550.268 376.224 551.289C375.503 551.986 374.806 552.882 373.986 553.902L372.27 552.633C375.851 549.198 377.517 546.311 378.363 544.196C378.91 542.827 379.258 541.333 379.333 540.164L381.372 540.338ZM372.842 543.026C374.185 543.2 375.901 543.275 377.045 543.275C380.402 543.275 384.704 543.076 388.211 542.453V544.295C384.729 544.818 380.104 545.042 376.945 545.042C375.876 545.042 374.234 544.992 372.842 544.892V543.026ZM391.842 549.024C391.22 549.223 390.325 549.572 389.653 549.82C387.888 550.517 385.525 551.463 383.113 552.708C380.651 554.002 378.91 555.346 378.91 557.063C378.91 559.004 380.825 559.303 383.386 559.303C385.326 559.303 388.012 559.079 390.201 558.681L390.126 560.697C388.236 560.921 385.475 561.12 383.312 561.12C379.78 561.12 376.92 560.348 376.92 557.337C376.92 554.3 380.004 552.434 382.964 550.916C385.326 549.696 387.341 548.924 388.982 548.153C389.728 547.804 390.35 547.531 391.046 547.182L391.842 549.024Z" fill="#40322D"/>
<path d="M405.794 540.437C405.644 541.109 405.57 541.632 405.47 542.18C405.147 544.967 404.028 552.633 404.028 555.321C404.028 557.735 405.396 559.204 408.231 559.204C412.011 559.204 414.423 557.561 414.423 554.972C414.423 553.305 413.528 551.463 411.688 549.92L413.876 549.447C415.592 551.339 416.438 553.081 416.438 555.196C416.438 558.905 413.13 561.17 408.206 561.17C404.849 561.17 402.113 559.676 402.113 555.62C402.113 552.956 403.282 545.515 403.555 542.08C403.63 541.209 403.63 540.761 403.58 540.313L405.794 540.437ZM397.836 543.748C399.925 544.42 402.909 544.743 405.122 544.743C407.012 544.743 408.728 544.644 410.196 544.42L410.146 546.311C408.554 546.46 407.087 546.535 405.073 546.535C402.884 546.535 399.9 546.162 397.711 545.564L397.836 543.748ZM397.214 549.945C399.626 550.791 402.536 551.015 404.824 551.015C406.54 551.015 408.256 550.965 409.997 550.716L409.972 552.608C408.306 552.782 406.764 552.832 405.097 552.832C402.387 552.832 399.377 552.533 397.114 551.836L397.214 549.945Z" fill="#40322D"/>
<path d="M57.1498 585.623C56.9509 586.295 56.8265 587.067 56.6773 587.714C56.3292 589.705 55.3344 594.508 54.4888 596.823C56.6525 595.305 58.8907 594.683 61.4771 594.683C65.4314 594.683 67.7442 596.699 67.7442 599.611C67.7442 604.812 62.447 606.729 54.8867 605.932L54.3645 603.941C60.1342 604.738 65.7049 603.767 65.7049 599.66C65.7049 597.819 64.1879 596.375 61.2782 596.375C58.3187 596.375 55.5582 597.396 53.9168 599.362C53.6184 599.735 53.3946 600.084 53.1459 600.507L51.3055 599.86C53.1956 596.151 54.5137 589.979 54.8121 587.589C54.9116 586.793 54.9613 586.196 54.9116 585.524L57.1498 585.623ZM49.4155 588.809C50.7335 589.033 52.6236 589.207 54.1158 589.207C57.2991 589.207 62.1983 588.834 66.1028 587.963L66.1526 589.879C62.6211 590.501 57.5478 590.999 54.1406 590.999C52.4495 590.999 50.8579 590.875 49.4403 590.75L49.4155 588.809Z" fill="#40322D"/>
<path d="M73.2901 592.119C74.2102 591.97 75.1055 591.696 76.0506 591.422C78.1396 590.75 83.0389 588.958 86.6698 588.958C90.7733 588.958 94.056 591.348 94.056 595.504C94.056 601.477 88.1371 604.34 80.4773 604.788L79.582 602.722C86.0729 602.548 91.8924 600.556 91.8924 595.479C91.8924 592.866 89.9774 590.8 86.6201 590.8C82.5166 590.8 76.1998 593.538 74.2102 594.334L73.2901 592.119Z" fill="#40322D"/>
<path d="M98.1595 592.119C99.0796 591.97 99.9749 591.696 100.92 591.422C103.009 590.75 107.908 588.958 111.539 588.958C115.643 588.958 118.925 591.348 118.925 595.504C118.925 601.477 113.006 604.34 105.347 604.788L104.451 602.722C110.942 602.548 116.762 600.556 116.762 595.479C116.762 592.866 114.847 590.8 111.489 590.8C107.386 590.8 101.069 593.538 99.0796 594.334L98.1595 592.119Z" fill="#40322D"/>
<path d="M138.05 586.494H139.791V600.283H138.05V586.494ZM142.477 584.478H144.292V604.514C144.292 605.758 143.994 606.306 143.223 606.654C142.477 606.978 141.109 607.028 139.269 607.028C139.169 606.48 138.895 605.634 138.647 605.036C140.114 605.086 141.507 605.086 141.954 605.086C142.352 605.061 142.477 604.962 142.477 604.539V584.478ZM128.425 584.304H130.191V607.102H128.425V584.304ZM133.648 596.375H135.364V603.22C135.364 604.066 135.24 604.539 134.618 604.837C134.021 605.136 133.076 605.161 131.683 605.136C131.634 604.663 131.41 603.991 131.161 603.518C132.231 603.543 133.026 603.543 133.325 603.518C133.573 603.518 133.648 603.444 133.648 603.195V596.375ZM123.476 596.375H134.344V598.068H125.168V605.061H123.476V596.375ZM122.332 592.144H136.259V593.861H122.332V592.144ZM124.745 587.813H135.265V589.531H124.397L124.745 587.813ZM124.77 584.802L126.511 585.15C125.914 587.739 124.944 590.377 123.899 592.069C123.526 591.87 122.706 591.547 122.258 591.397C123.377 589.705 124.247 587.216 124.77 584.802Z" fill="#40322D"/>
<path d="M158.219 588.386H170.007V590.178H157.349L158.219 588.386ZM161.328 593.787H169.435V595.504H161.328V593.787ZM161.303 599.262H169.783V601.029H161.303V599.262ZM160.383 588.958H162.298V607.102H160.383V588.958ZM159.164 584.503L160.98 584.976C159.562 588.933 157.398 592.841 155.11 595.404C154.837 595.081 154.091 594.409 153.668 594.11C155.931 591.796 157.945 588.162 159.164 584.503ZM153.195 584.304L154.986 584.876C153.345 589.083 150.783 593.339 148.072 596.126C147.898 595.678 147.326 594.683 146.978 594.235C149.465 591.82 151.778 588.087 153.195 584.304ZM150.534 590.725L152.375 588.859L152.424 588.884V607.077H150.534V590.725Z" fill="#40322D"/>
<path d="M179.433 585.723C179.308 586.544 179.234 587.415 179.184 588.236C179.084 591.049 178.885 596.948 178.885 600.656C178.885 603.394 180.601 604.34 182.964 604.34C187.515 604.34 190.102 601.801 191.892 599.212L193.285 600.905C191.594 603.269 188.361 606.38 182.914 606.38C179.333 606.38 176.871 604.912 176.871 600.83C176.871 597.147 177.12 590.85 177.12 588.236C177.12 587.316 177.045 586.444 176.896 585.723H179.433Z" fill="#40322D"/>
<path d="M197.183 588.585C198.128 588.56 198.923 588.51 199.421 588.46C201.037 588.286 205.713 587.838 210.314 587.44C213.024 587.216 215.337 587.067 217.003 587.017L217.028 589.008C215.586 588.983 213.422 589.033 212.154 589.381C208.598 590.526 206.434 594.334 206.434 597.271C206.434 602.124 210.985 603.668 215.014 603.842L214.318 605.883C209.692 605.708 204.469 603.269 204.469 597.694C204.469 593.812 206.832 590.651 209.12 589.307C206.434 589.58 200.117 590.203 197.406 590.775L197.183 588.585Z" fill="#40322D"/>
<path d="M229.406 585.25C229.332 585.698 229.282 586.37 229.257 586.967C229.183 588.436 229.058 592.244 229.058 594.832C229.058 597.42 229.183 601.303 229.183 602.871C229.183 605.161 228.337 605.908 226.969 605.908C225.029 605.908 221.796 604.016 221.796 601.776C221.796 599.586 224.756 597.271 227.84 596.101C230.053 595.23 232.54 594.782 234.505 594.782C238.16 594.782 240.772 596.748 240.772 599.735C240.772 602.747 238.882 604.663 235.45 605.46C234.355 605.708 233.236 605.758 232.366 605.808L231.67 603.817C232.615 603.817 233.659 603.842 234.604 603.643C236.768 603.22 238.757 602.05 238.757 599.735C238.757 597.62 236.842 596.5 234.505 596.5C232.266 596.5 230.227 596.972 228.113 597.819C225.676 598.764 223.761 600.432 223.761 601.701C223.761 602.821 225.502 603.817 226.472 603.817C227.044 603.817 227.367 603.419 227.367 602.597C227.367 601.154 227.243 597.694 227.243 594.932C227.243 592.069 227.342 588.012 227.342 586.992C227.342 586.519 227.293 585.648 227.218 585.25H229.406ZM237.141 588.012C238.907 588.933 241.617 590.626 242.811 591.621L241.816 593.214C240.598 592.069 237.812 590.352 236.221 589.506L237.141 588.012ZM222.219 589.705C223.587 589.879 224.482 589.904 225.378 589.904C227.84 589.904 231.794 589.381 234.256 588.635L234.306 590.576C231.744 591.198 227.666 591.746 225.427 591.746C224.035 591.746 223.09 591.696 222.269 591.621L222.219 589.705Z" fill="#40322D"/>
<path d="M252.485 585.474C251.963 587.316 251.49 590.676 251.341 592.418C252.361 589.854 254.947 586.743 258.106 586.743C261.388 586.743 263.776 590.078 263.776 595.305C263.776 602.199 259.424 605.26 253.281 606.38L252.087 604.588C257.509 603.767 261.712 601.577 261.712 595.33C261.712 591.397 260.394 588.56 257.782 588.56C254.674 588.56 251.789 593.09 251.49 596.35C251.366 597.296 251.366 598.167 251.54 599.412L249.6 599.561C249.476 598.615 249.352 597.221 249.352 595.604C249.352 593.239 249.824 589.58 250.123 587.54C250.222 586.793 250.272 586.096 250.322 585.399L252.485 585.474Z" fill="#40322D"/>
<path d="M283.174 585.374C283.124 585.797 283.075 586.295 283.05 587.042C283 588.037 283 591.372 283 593.463C283 596.748 283.373 601.104 283.373 602.772C283.373 604.514 282.229 606.281 278.996 606.281C275.415 606.281 273.45 605.012 273.45 602.597C273.45 600.332 275.614 598.814 279.195 598.814C284.442 598.814 288.546 601.652 290.461 603.22L289.317 604.987C287.079 602.921 283.398 600.432 278.971 600.432C276.584 600.432 275.315 601.353 275.315 602.498C275.315 603.668 276.285 604.514 278.747 604.514C280.19 604.514 281.408 604.091 281.408 602.348C281.408 600.432 281.16 595.653 281.16 593.463C281.16 591.223 281.16 588.61 281.16 586.868C281.16 586.444 281.135 585.698 281.06 585.374H283.174ZM273.674 588.062C275.266 588.361 278.374 588.61 280.016 588.61C283.174 588.61 286.507 588.386 289.74 587.863V589.68C286.929 590.004 283.373 590.327 280.041 590.327C278.325 590.327 275.266 590.103 273.699 589.904L273.674 588.062ZM273.55 593.364C275.315 593.637 278.15 593.812 279.792 593.812C283.398 593.812 286.706 593.563 289.939 593.09V594.956C286.556 595.38 283.522 595.554 279.792 595.554C278.076 595.554 275.34 595.429 273.574 595.23L273.55 593.364Z" fill="#40322D"/>
<path d="M309.411 585.399C309.362 585.698 309.287 586.668 309.287 586.967C309.212 588.585 309.262 593.388 309.287 595.38L307.397 594.409C307.397 593.314 307.372 588.361 307.297 586.992C307.248 586.32 307.173 585.623 307.123 585.399H309.411ZM296.181 588.884C299.563 588.834 305.78 588.61 309.61 588.61C312.644 588.61 315.728 588.61 316.897 588.635L316.872 590.476C315.479 590.402 313.241 590.352 309.585 590.352C305.308 590.352 299.986 590.526 296.23 590.8L296.181 588.884ZM309.237 596.101C309.237 599.436 307.695 601.104 305.432 601.104C303.343 601.104 301.329 599.636 301.329 596.923C301.329 594.459 303.368 592.617 305.731 592.617C308.615 592.617 310.083 594.757 310.083 597.62C310.083 601.004 308.441 604.738 302.672 606.455L301.005 604.837C305.532 603.767 308.168 601.552 308.168 597.445C308.168 595.205 307.074 594.26 305.731 594.26C304.413 594.26 303.194 595.28 303.194 596.898C303.194 598.466 304.363 599.362 305.731 599.362C307.272 599.362 308.267 598.068 307.869 595.404L309.237 596.101Z" fill="#40322D"/>
<path d="M321.035 599.063C323.124 599.063 324.815 600.756 324.815 602.846C324.815 604.937 323.124 606.629 321.035 606.629C318.946 606.629 317.23 604.937 317.23 602.846C317.23 600.756 318.946 599.063 321.035 599.063ZM321.035 605.36C322.428 605.36 323.547 604.24 323.547 602.846C323.547 601.452 322.428 600.332 321.035 600.332C319.642 600.332 318.498 601.452 318.498 602.846C318.498 604.24 319.642 605.36 321.035 605.36Z" fill="#40322D"/>
<path fill-rule="evenodd" clip-rule="evenodd" d="M155.434 322H46.6301V320.444H155.434V322ZM419.671 322H310.867V320.444H419.671V322Z" fill="#40322D"/>
</svg>
