<svg width="400" height="600" viewBox="0 0 400 600" fill="none" xmlns="http://www.w3.org/2000/svg">
<path d="M0 13.3333C0 5.96954 5.96954 0 13.3333 0H386.667C394.03 0 400 5.96954 400 13.3333V586.667C400 594.03 394.03 600 386.667 600H13.3333C5.96955 600 0 594.03 0 586.667V13.3333Z" fill="#E2DBD3"/>
<path d="M49.0202 66.1333H54.8655C54.4815 73.3013 53.9268 94.1227 36.4762 104.832C35.5802 103.509 33.9162 101.931 32.1668 100.736C49.3188 91.2213 48.7215 71.7227 49.0202 66.1333ZM54.6948 67.2427C54.8228 70.9547 55.7188 92.2453 73.2122 100.437C71.5908 101.675 70.0548 103.381 69.2868 104.789C50.8975 95.6587 50.0868 72.1493 49.7455 67.7547L54.6948 67.2427Z" fill="#47665E"/>
<path d="M91.7082 88.896C91.0468 89.28 90.3642 89.664 89.5748 90.048C88.2522 90.7093 85.5855 91.968 83.6228 93.2267C81.8522 94.3787 80.6575 95.616 80.6575 97.088C80.6575 98.624 82.1508 99.456 85.1162 99.456C87.2922 99.456 90.1722 99.1147 92.0708 98.6667L92.0495 101.739C90.2148 102.037 87.9748 102.272 85.2015 102.272C80.9348 102.272 77.7135 101.077 77.7135 97.408C77.7135 94.6987 79.6975 92.8 82.2362 91.136C84.2628 89.792 86.9508 88.4693 88.2522 87.7227C89.0628 87.2533 89.6602 86.8907 90.2148 86.4427L91.7082 88.896ZM80.9775 84.3307C82.0015 87.168 83.3455 89.728 84.3482 91.52L81.9162 92.928C80.7428 90.9867 79.4628 88.192 78.2895 85.44L80.9775 84.3307Z" fill="#40322D"/>
<path d="M95.5473 89.6427C96.3367 89.5147 97.4033 89.2373 98.1927 89.0027C99.814 88.4907 104.166 86.976 107.302 86.976C111.142 86.976 114.193 89.1947 114.193 93.1413C114.193 97.9627 109.585 101.056 102.075 101.44L100.817 98.6027C106.598 98.4747 111.142 96.8107 111.142 93.0773C111.142 91.072 109.755 89.5573 107.195 89.5573C104.038 89.5573 99.0033 91.6693 96.7633 92.6507L95.5473 89.6427Z" fill="#B96842"/>
<path d="M117.499 87.36C118.417 87.4667 119.569 87.5093 120.337 87.5093C122.982 87.5093 125.862 87.0613 127.931 86.4L127.995 88.8747C126.161 89.3867 123.089 89.9413 120.358 89.92C119.505 89.92 118.609 89.8987 117.691 89.856L117.499 87.36ZM125.798 84.16C125.521 85.2907 125.009 87.3813 124.433 89.1947C123.451 92.2667 121.531 96.2347 119.718 98.752L117.137 97.4293C119.057 95.0827 120.977 91.3493 121.809 89.0453C122.321 87.5093 122.79 85.5253 122.854 83.8827L125.798 84.16ZM130.811 90.816C130.747 91.712 130.769 92.608 130.79 93.5467C130.833 94.8053 131.025 97.984 131.025 99.1787C131.025 101.163 129.958 102.72 126.907 102.72C124.262 102.72 122.171 101.525 122.171 99.1787C122.171 97.1093 123.921 95.488 126.886 95.488C130.619 95.488 133.563 97.3653 135.334 98.9653L133.926 101.269C132.39 99.84 129.958 97.6427 126.737 97.6427C125.499 97.6427 124.689 98.176 124.689 98.9227C124.689 99.712 125.371 100.267 126.545 100.267C127.995 100.267 128.465 99.456 128.465 98.2613C128.465 96.9813 128.23 93.056 128.123 90.816H130.811ZM134.481 91.9467C133.243 90.944 130.811 89.5573 129.339 88.896L130.726 86.8053C132.262 87.4667 134.886 88.896 135.995 89.6853L134.481 91.9467Z" fill="#B96842"/>
<path d="M146.769 84.6507C146.641 85.2053 146.513 85.888 146.406 86.4213C146.193 87.3813 145.937 88.704 145.702 89.792C144.998 92.8 143.291 98.88 141.051 102.485L138.257 101.376C140.795 97.9627 142.395 92.3307 142.993 89.6427C143.398 87.7227 143.633 85.9093 143.611 84.3093L146.769 84.6507ZM154.129 86.784C155.43 88.64 157.222 92.608 157.883 94.6347L155.174 95.8933C154.619 93.5253 153.105 89.7707 151.569 87.872L154.129 86.784ZM138.129 89.024C138.897 89.0667 139.622 89.0453 140.411 89.024C142.118 88.9813 146.171 88.512 147.75 88.512C150.011 88.512 151.611 89.5147 151.611 92.608C151.611 95.1253 151.291 98.5813 150.395 100.416C149.691 101.909 148.497 102.379 146.897 102.379C146.065 102.379 145.062 102.251 144.337 102.08L143.867 99.264C144.699 99.4987 145.915 99.712 146.47 99.712C147.195 99.712 147.75 99.4987 148.07 98.7947C148.667 97.6 148.945 94.9973 148.945 92.9067C148.945 91.2 148.219 90.944 146.875 90.944C145.617 90.944 141.926 91.4133 140.753 91.5627C140.134 91.648 139.025 91.7973 138.385 91.904L138.129 89.024ZM153.745 83.84C154.278 84.608 155.025 85.9733 155.43 86.7627L153.723 87.488C153.275 86.6133 152.614 85.3547 152.038 84.5227L153.745 83.84ZM156.262 82.8587C156.817 83.6693 157.606 85.0347 157.99 85.7813L156.283 86.5067C155.857 85.6107 155.153 84.3733 154.577 83.5627L156.262 82.8587Z" fill="#B96842"/>
<path d="M163.11 85.0987C163.707 85.1627 164.433 85.2053 165.03 85.2053C166.182 85.2053 170.726 85.0987 171.942 84.992C172.838 84.928 173.329 84.8427 173.585 84.7573L174.95 86.6773C174.459 86.9973 173.947 87.296 173.478 87.6587C172.326 88.4693 170.086 90.3467 168.721 91.4133C169.446 91.2213 170.086 91.1787 170.747 91.1787C174.374 91.1787 177.126 93.44 177.126 96.5333C177.126 99.904 174.566 102.571 169.403 102.571C166.438 102.571 164.198 101.227 164.198 99.072C164.198 97.344 165.777 95.7653 168.038 95.7653C170.961 95.7653 172.582 97.728 172.646 100.075L170.15 100.395C170.107 98.8587 169.297 97.792 168.038 97.792C167.249 97.792 166.715 98.2827 166.715 98.8373C166.715 99.6267 167.59 100.16 168.891 100.16C172.497 100.16 174.331 98.7947 174.331 96.512C174.331 94.5707 172.411 93.2693 169.915 93.2693C166.63 93.2693 164.518 95.0187 162.235 97.6L160.294 95.5947C161.809 94.4 164.39 92.224 165.627 91.1787C166.822 90.1973 169.062 88.4053 170.107 87.4667C169.019 87.5093 166.075 87.616 164.923 87.7013C164.347 87.744 163.686 87.7867 163.195 87.872L163.11 85.0987Z" fill="#B96842"/>
<path d="M198.929 88.0853C198.694 88.4907 198.395 89.0667 198.225 89.6C197.649 91.52 196.433 94.3573 194.491 96.7253C192.465 99.2 189.905 101.163 185.894 102.741L183.377 100.501C187.729 99.1787 190.097 97.3227 191.974 95.2107C193.425 93.5467 194.662 90.9867 195.003 89.408H187.814L188.795 86.976C189.734 86.976 194.214 86.976 194.875 86.976C195.537 86.976 196.262 86.8907 196.731 86.72L198.929 88.0853ZM191.974 84.6933C191.462 85.44 190.907 86.4213 190.673 86.8693C189.222 89.4507 186.683 92.4587 183.611 94.5493L181.222 92.7787C184.955 90.496 186.833 87.744 187.878 85.9093C188.198 85.3973 188.646 84.416 188.838 83.6693L191.974 84.6933Z" fill="#40322D"/>
<path d="M218.193 84.7787C218.15 85.376 218.129 86.0587 218.129 86.9333C218.129 88.0213 218.129 90.0907 218.129 91.136C218.129 95.744 217.233 97.7067 215.633 99.456C214.225 101.013 212.027 102.037 210.47 102.549L208.23 100.181C210.363 99.6907 212.07 98.88 213.371 97.4933C214.822 95.8933 215.121 94.2933 215.121 90.9653C215.121 89.8987 215.121 87.8507 215.121 86.9333C215.121 86.0587 215.057 85.376 214.971 84.7787H218.193ZM208.315 84.9707C208.273 85.4613 208.23 85.9307 208.23 86.592C208.23 87.5307 208.23 92.608 208.23 93.8027C208.23 94.336 208.273 95.168 208.315 95.6587H205.201C205.243 95.2747 205.307 94.4427 205.307 93.7813C205.307 92.5653 205.307 87.5307 205.307 86.592C205.307 86.208 205.286 85.4613 205.222 84.9707H208.315Z" fill="#40322D"/>
<path d="M225.361 86.4427C225.915 86.528 226.811 86.592 227.387 86.592H239.014C239.654 86.592 240.401 86.528 240.998 86.4427V89.3867C240.379 89.3227 239.633 89.28 239.014 89.28H227.387C226.811 89.28 225.915 89.3227 225.361 89.3867V86.4427ZM231.526 99.584V88.0853H234.491V99.584H231.526ZM223.995 97.8347C224.678 97.9413 225.446 98.0053 226.086 98.0053H240.166C240.913 98.0053 241.595 97.8987 242.15 97.8347V100.907C241.553 100.843 240.657 100.821 240.166 100.821H226.086C225.467 100.821 224.699 100.843 223.995 100.907V97.8347Z" fill="#40322D"/>
<path d="M245.073 93.056C248.891 92.0747 252.006 90.688 254.395 89.216C256.571 87.872 259.003 85.7387 260.39 84.0533L262.694 86.2293C260.753 88.192 258.15 90.1973 255.633 91.712C253.222 93.1413 249.766 94.7413 246.395 95.744L245.073 93.056ZM253.947 90.6027L256.977 89.8773V99.4987C256.977 100.437 257.019 101.76 257.169 102.293H253.777C253.862 101.781 253.947 100.437 253.947 99.4987V90.6027Z" fill="#40322D"/>
<path d="M268.955 84.992C269.637 85.0773 270.512 85.1413 271.237 85.1413C272.581 85.1413 278.555 85.1413 279.813 85.1413C280.517 85.1413 281.371 85.0773 282.096 84.992V87.744C281.371 87.7013 280.539 87.6587 279.813 87.6587C278.555 87.6587 272.581 87.6587 271.237 87.6587C270.512 87.6587 269.595 87.7013 268.955 87.744V84.992ZM266.459 90.432C267.099 90.5173 267.845 90.56 268.507 90.56C269.851 90.56 281.221 90.56 282.48 90.56C282.928 90.56 283.867 90.5387 284.443 90.432V93.2053C283.888 93.184 283.077 93.1627 282.48 93.1627C281.221 93.1627 269.851 93.1627 268.507 93.1627C267.888 93.1627 267.056 93.184 266.459 93.2267V90.432ZM277.381 91.9253C277.381 94.72 276.891 96.8533 275.973 98.624C275.248 100.117 273.584 101.76 271.707 102.741L269.189 100.928C270.704 100.331 272.219 99.1147 273.051 97.856C274.117 96.2347 274.416 94.2293 274.416 91.9467L277.381 91.9253Z" fill="#40322D"/>
<path d="M286.991 95.2747C289.785 94.656 292.943 93.2267 294.628 92.2027C296.719 90.944 298.852 89.0453 299.961 87.6587L302.073 89.728C300.793 91.1147 298.212 93.12 295.887 94.4853C293.967 95.616 290.681 97.0453 288.249 97.7707L286.991 95.2747ZM294.393 93.888L297.295 93.3333V100.907C297.295 101.675 297.316 102.805 297.444 103.232H294.265C294.329 102.805 294.393 101.675 294.393 100.907V93.888Z" fill="#40322D"/>
<path d="M322.255 83.3707C322.788 84.1813 323.492 85.3973 323.876 86.1867L322.105 86.9333C321.679 86.0373 321.039 84.9493 320.484 84.096L322.255 83.3707ZM325.22 82.816C325.775 83.6053 326.521 84.8853 326.927 85.6533L325.156 86.4C324.708 85.5253 324.047 84.3307 323.449 83.5413L325.22 82.816ZM324.452 87.3813C324.26 87.7867 324.089 88.4053 323.983 88.8533C323.492 90.944 322.553 94.272 320.783 96.64C318.841 99.2 316.004 101.312 312.207 102.528L309.881 99.968C314.105 98.9867 316.516 97.1307 318.223 94.976C319.652 93.2053 320.463 90.7733 320.74 88.9387C319.46 88.9387 312.399 88.9387 310.799 88.9387C309.839 88.9387 308.815 89.0027 308.26 89.0453V86.016C308.9 86.1013 310.095 86.208 310.799 86.208C312.399 86.208 319.481 86.208 320.676 86.208C321.103 86.208 321.785 86.1867 322.34 86.0373L324.452 87.3813Z" fill="#40322D"/>
<path d="M337.764 84.224C337.593 85.0133 337.316 86.272 336.719 87.808C336.271 88.8533 335.652 90.0693 335.055 90.9227C335.631 90.6667 336.761 90.5173 337.487 90.5173C339.257 90.5173 340.601 91.5627 340.601 93.5467C340.601 94.6987 340.665 97.024 340.687 98.368H338.127C338.212 97.3653 338.255 95.552 338.233 94.4C338.233 93.0347 337.38 92.5867 336.484 92.5867C335.311 92.5867 333.967 93.2907 333.156 94.0587C332.516 94.6987 331.919 95.4667 331.193 96.4053L328.911 94.6987C331.641 92.1813 333.284 89.8773 334.18 87.5307C334.607 86.3787 334.884 85.0773 334.948 83.9893L337.764 84.224ZM329.721 86.208C330.809 86.3573 332.388 86.4427 333.476 86.4427C336.292 86.4427 340.153 86.2933 343.247 85.7387L343.225 88.2133C340.217 88.64 335.929 88.832 333.327 88.832C332.452 88.832 330.895 88.7893 329.721 88.6827V86.208ZM346.617 92.2667C345.956 92.4587 344.804 92.8853 344.079 93.1627C342.692 93.696 340.772 94.464 338.767 95.488C336.825 96.4907 335.78 97.408 335.78 98.5813C335.78 99.7547 336.804 100.075 338.873 100.075C340.687 100.075 343.076 99.84 344.953 99.456L344.868 102.208C343.439 102.4 340.836 102.592 338.809 102.592C335.481 102.592 332.985 101.76 332.985 99.008C332.985 96.0427 336.036 94.2933 338.596 93.0133C340.559 91.9893 341.903 91.4773 343.183 90.88C344.015 90.5173 344.761 90.176 345.572 89.7707L346.617 92.2667Z" fill="#40322D"/>
<path d="M352.847 96.064C354.767 96.064 356.303 97.6 356.303 99.4987C356.303 101.419 354.767 102.955 352.847 102.955C350.948 102.955 349.391 101.419 349.391 99.4987C349.391 97.6 350.948 96.064 352.847 96.064ZM352.847 101.419C353.913 101.419 354.767 100.565 354.767 99.4987C354.767 98.4533 353.913 97.6 352.847 97.6C351.801 97.6 350.927 98.4533 350.927 99.4987C350.927 100.565 351.801 101.419 352.847 101.419Z" fill="#40322D"/>
<path d="M67.52 130.677H89.92V135.584H67.52V130.677ZM64.4053 143.307H92.1813V148.256H64.4053V143.307ZM72.64 146.293L78.2293 147.744C76.48 153.333 74.1333 159.648 72.1707 163.701L67.648 162.336C69.568 158.069 71.616 151.371 72.64 146.293ZM64.064 161.184C70.1227 160.843 79.552 160.117 88.2133 159.392V164.171C80.0213 165.024 71.232 165.835 64.96 166.347L64.064 161.184ZM81.0453 153.76L85.6107 151.84C88.5547 156.107 91.6267 161.739 92.6933 165.664L87.6587 167.84C86.8053 164.043 83.9467 158.24 81.0453 153.76ZM61.504 127.861L66.2827 129.397C63.3813 136.651 58.688 144.288 53.824 149.109C53.3973 147.915 52.032 145.099 51.1787 143.861C55.232 140.021 59.2 133.963 61.504 127.861ZM57.408 139.68L62.2293 134.816L62.272 134.859V167.712H57.408V139.68Z" fill="#47665E"/>
<path d="M99.9893 146.72C102.379 147.168 106.475 147.616 108.672 147.744L108.331 150.261C106.091 150.069 102.123 149.6 99.5627 149.195L99.9893 146.72ZM109.44 153.483C108.864 153.867 108.416 154.251 108.032 154.571C107.072 155.403 105.067 157.259 104.555 157.792C104.747 157.792 105.131 157.856 105.387 157.963C105.984 158.133 106.368 158.603 106.667 159.413C106.859 159.968 107.093 160.779 107.264 161.355C107.477 162.016 107.947 162.336 108.779 162.336C110.4 162.336 111.872 162.187 112.96 161.973L112.768 164.768C111.893 164.917 109.696 165.067 108.587 165.067C106.581 165.067 105.472 164.619 104.96 163.253C104.725 162.613 104.491 161.611 104.32 161.077C104.085 160.309 103.637 160.032 103.189 160.032C102.763 160.032 102.315 160.373 101.803 160.907C101.056 161.653 99.456 163.403 97.984 165.259L95.4667 163.509C95.8507 163.168 96.3627 162.72 96.9387 162.165C98.048 161.056 102.4 156.725 104.341 154.677C102.848 154.72 100.309 154.933 99.0933 155.04C98.3467 155.104 97.6853 155.211 97.2373 155.296L97.0027 152.352C97.4933 152.395 98.2613 152.416 99.0293 152.416C100.053 152.395 104.875 152.181 106.667 151.968C107.051 151.925 107.648 151.797 107.861 151.712L109.44 153.483Z" fill="#40322D"/>
<path d="M124.757 146.976C124.608 147.573 124.416 148.533 124.309 149.003C124.011 150.453 123.477 153.056 122.901 155.232C122.133 158.219 120.704 162.571 119.531 165.109L116.565 164.107C117.824 161.952 119.445 157.493 120.256 154.507C120.789 152.501 121.28 150.155 121.429 148.896C121.536 148.107 121.557 147.232 121.493 146.72L124.757 146.976ZM119.317 150.176C121.92 150.176 124.928 149.771 127.701 149.109V151.776C125.056 152.395 121.707 152.757 119.296 152.757C118.251 152.757 117.461 152.715 116.715 152.672L116.629 150.005C117.739 150.133 118.443 150.176 119.317 150.176ZM126.016 153.44C127.211 153.312 128.747 153.227 130.133 153.227C131.349 153.227 132.629 153.291 133.867 153.419L133.824 155.979C132.736 155.851 131.435 155.701 130.155 155.701C128.683 155.701 127.36 155.765 126.016 155.936V153.44ZM127.168 158.795C127.019 159.413 126.891 160.096 126.891 160.565C126.891 161.504 127.509 162.208 129.813 162.208C131.243 162.208 132.715 162.059 134.229 161.781L134.123 164.491C132.928 164.661 131.499 164.789 129.792 164.789C126.187 164.789 124.267 163.573 124.267 161.419C124.267 160.416 124.459 159.392 124.629 158.56L127.168 158.795Z" fill="#40322D"/>
<path d="M141.525 148.768C141.376 149.515 141.269 150.773 141.269 151.371C141.269 152.757 141.269 154.336 141.397 155.893C141.696 158.965 142.336 161.077 143.68 161.077C144.704 161.077 145.536 158.56 145.941 156.875L148.096 159.456C146.667 163.189 145.344 164.469 143.637 164.469C141.269 164.469 139.243 162.379 138.645 156.661C138.432 154.699 138.411 152.181 138.411 150.88C138.411 150.304 138.389 149.387 138.24 148.725L141.525 148.768ZM152.192 149.237C154.219 151.691 155.861 157.024 156.096 160.288L153.28 161.397C152.96 157.941 151.808 152.779 149.483 150.133L152.192 149.237Z" fill="#40322D"/>
<path d="M168.448 152.096H176.085V154.4H168.448V152.096ZM168.469 157.131H176.107V159.456H168.469V157.131ZM168.448 162.187H176.107V164.491H168.448V162.187ZM167.232 147.04H177.301V165.621H174.72V149.451H169.685V165.749H167.232V147.04ZM158.272 150.283H166.485V152.715H158.272V150.283ZM161.365 145.888H163.819V165.92H161.365V145.888ZM161.216 151.925L162.752 152.459C162.048 155.936 160.64 160.032 158.955 162.251C158.72 161.525 158.123 160.48 157.739 159.84C159.275 157.984 160.64 154.656 161.216 151.925ZM163.627 153.803C164.245 154.4 166.336 156.981 166.805 157.557L165.355 159.627C164.736 158.368 163.221 156.043 162.453 154.976L163.627 153.803Z" fill="#40322D"/>
<path d="M195.349 145.845L197.205 147.957C192.811 149.088 186.667 149.621 181.44 149.792C181.376 149.152 181.056 148.107 180.821 147.552C185.963 147.339 191.851 146.784 195.349 145.845ZM181.013 151.904H197.888V154.357H181.013V151.904ZM179.541 156.875H199.147V159.371H179.541V156.875ZM188.032 148.853H190.699V162.869C190.699 164.384 190.315 165.067 189.291 165.451C188.267 165.856 186.709 165.92 184.533 165.899C184.363 165.173 183.872 164.021 183.488 163.36C185.067 163.424 186.859 163.403 187.349 163.403C187.84 163.403 188.032 163.253 188.032 162.827V148.853Z" fill="#40322D"/>
<path d="M200.789 157.664C201.429 157.152 201.941 156.661 202.581 156C203.584 154.976 205.205 152.779 206.549 151.243C208.043 149.536 209.408 149.387 210.965 150.901C212.437 152.309 214.123 154.507 215.381 155.893C216.747 157.387 218.581 159.285 220.608 161.099L218.389 163.659C216.875 162.208 215.061 160.16 213.696 158.56C212.373 157.003 210.773 154.955 209.792 153.824C209.024 153.013 208.619 153.12 208 153.888C207.147 154.976 205.653 157.088 204.736 158.304C204.245 158.987 203.755 159.755 203.371 160.309L200.789 157.664Z" fill="#40322D"/>
<path d="M227.349 159.008H229.931V162.485C229.931 163.125 230.123 163.189 231.168 163.189C231.637 163.189 233.6 163.189 234.219 163.189C235.115 163.189 235.264 162.891 235.392 160.757C235.925 161.141 237.013 161.547 237.717 161.696C237.419 164.747 236.693 165.515 234.432 165.515C233.835 165.515 231.424 165.515 230.869 165.515C228.032 165.515 227.349 164.789 227.349 162.507V159.008ZM229.461 158.347L231.147 156.768C232.661 157.515 234.539 158.709 235.456 159.669L233.621 161.419C232.789 160.48 230.976 159.179 229.461 158.347ZM236.885 159.264L239.168 158.325C240.341 159.904 241.557 161.995 241.984 163.509L239.488 164.555C239.125 163.125 238.016 160.928 236.885 159.264ZM224.341 158.453L226.645 159.285C226.155 161.12 225.408 163.275 224.384 164.704L222.101 163.424C223.083 162.144 223.893 160.203 224.341 158.453ZM226.645 152.885V154.72H237.056V152.885H226.645ZM226.645 149.003V150.816H237.056V149.003H226.645ZM224.235 146.784H239.595V156.939H224.235V146.784ZM230.656 147.765H233.152V156.021H230.656V147.765Z" fill="#40322D"/>
<path d="M245.696 154.976C246.336 154.869 247.317 154.613 247.957 154.4C249.429 153.973 253.035 152.736 255.616 152.736C259.008 152.736 261.269 154.741 261.269 157.984C261.269 161.824 257.856 164.469 251.093 164.875L249.963 162.251C254.827 162.123 258.432 160.821 258.432 157.92C258.432 156.341 257.237 155.211 255.36 155.211C252.885 155.211 248.64 156.981 246.805 157.749L245.696 154.976Z" fill="#40322D"/>
<path d="M274.091 146.976C273.941 147.573 273.749 148.533 273.643 149.003C273.344 150.453 272.811 153.056 272.235 155.232C271.467 158.219 270.037 162.571 268.864 165.109L265.899 164.107C267.157 161.952 268.779 157.493 269.589 154.507C270.123 152.501 270.613 150.155 270.763 148.896C270.869 148.107 270.891 147.232 270.827 146.72L274.091 146.976ZM268.651 150.176C271.253 150.176 274.261 149.771 277.035 149.109V151.776C274.389 152.395 271.04 152.757 268.629 152.757C267.584 152.757 266.795 152.715 266.048 152.672L265.963 150.005C267.072 150.133 267.776 150.176 268.651 150.176ZM275.349 153.44C276.544 153.312 278.08 153.227 279.467 153.227C280.683 153.227 281.963 153.291 283.2 153.419L283.157 155.979C282.069 155.851 280.768 155.701 279.488 155.701C278.016 155.701 276.693 155.765 275.349 155.936V153.44ZM276.501 158.795C276.352 159.413 276.224 160.096 276.224 160.565C276.224 161.504 276.843 162.208 279.147 162.208C280.576 162.208 282.048 162.059 283.563 161.781L283.456 164.491C282.261 164.661 280.832 164.789 279.125 164.789C275.52 164.789 273.6 163.573 273.6 161.419C273.6 160.416 273.792 159.392 273.963 158.56L276.501 158.795Z" fill="#40322D"/>
<path d="M291.179 154.208V162.059H288.747V156.576H286.016V154.208H291.179ZM291.179 161.056C292.032 162.485 293.504 163.083 295.701 163.168C298.24 163.296 303.317 163.232 306.261 162.997C305.984 163.573 305.6 164.747 305.472 165.493C302.827 165.621 298.283 165.664 295.659 165.536C293.099 165.429 291.392 164.811 290.112 163.168C289.131 164 288.128 164.832 286.912 165.728L285.739 163.189C286.741 162.613 287.936 161.845 288.96 161.056H291.179ZM286.315 147.979L288.085 146.336C289.408 147.232 291.072 148.619 291.84 149.643L289.92 151.477C289.237 150.453 287.637 148.96 286.315 147.979ZM294.955 150.027L296.576 148.661C298.475 149.323 301.163 150.475 302.613 151.307L300.864 152.821C299.563 152.011 296.917 150.795 294.955 150.027ZM293.013 151.243H303.872V153.099H295.424V162.293H293.013V151.243ZM302.677 151.243H305.109V160.075C305.109 161.12 304.939 161.653 304.235 161.995C303.573 162.357 302.635 162.357 301.355 162.357C301.269 161.739 300.992 160.907 300.715 160.352C301.397 160.373 302.144 160.373 302.357 160.373C302.613 160.373 302.677 160.288 302.677 160.053V151.243ZM293.205 146.592H303.381V148.533H293.205V146.592ZM294.357 154.251H303.509V156.021H294.357V154.251ZM294.357 157.237H303.509V159.093H294.357V157.237ZM297.877 152.117H300.16V162.208H297.877V152.117ZM302.464 146.592H303.04L303.552 146.464L305.067 147.701C303.552 149.109 301.44 150.624 299.477 151.563C299.179 151.136 298.56 150.475 298.197 150.133C299.797 149.365 301.653 148.021 302.464 147.04V146.592Z" fill="#40322D"/>
<path d="M314.368 146.869C314.069 147.915 313.621 150.112 313.493 151.307C314.517 149.664 316.395 147.851 318.784 147.851C321.749 147.851 324.053 150.773 324.053 155.467C324.053 161.504 320.363 164.363 314.709 165.408L313.088 162.933C317.845 162.208 321.173 160.629 321.173 155.467C321.173 152.181 320.064 150.347 318.293 150.347C315.776 150.347 313.557 154.144 313.472 156.939C313.429 157.536 313.451 158.219 313.557 159.2L310.933 159.392C310.805 158.56 310.677 157.259 310.677 155.829C310.677 153.824 310.955 151.2 311.275 148.981C311.36 148.192 311.424 147.339 311.445 146.763L314.368 146.869Z" fill="#40322D"/>
<path d="M337.536 149.088C340.16 149.451 344.427 149.344 346.709 149.067V151.819C344.107 152.075 340.224 152.075 337.557 151.819L337.536 149.088ZM339.243 158.197C339.072 158.923 338.987 159.435 338.987 159.989C338.987 160.949 339.819 161.525 341.995 161.525C343.893 161.525 345.472 161.355 347.328 160.949L347.392 163.829C346.005 164.107 344.277 164.256 341.867 164.256C338.197 164.256 336.427 162.933 336.427 160.757C336.427 159.904 336.555 159.072 336.811 157.984L339.243 158.197ZM334.251 147.659C334.101 148.107 333.824 149.195 333.739 149.579C333.44 150.987 332.693 155.253 332.693 157.387C332.693 157.813 332.715 158.347 332.779 158.773C333.099 158.048 333.44 157.323 333.76 156.597L335.083 157.643C334.464 159.435 333.76 161.739 333.547 162.869C333.483 163.189 333.419 163.659 333.419 163.872C333.44 164.107 333.44 164.469 333.461 164.768L331.008 164.917C330.581 163.467 330.176 160.864 330.176 157.963C330.176 154.741 330.816 151.157 331.051 149.493C331.136 148.917 331.243 148.107 331.264 147.424L334.251 147.659Z" fill="#40322D"/>
<path d="M91.0933 179.339H102.293V181.792H91.0933V179.339ZM89.536 185.653H103.424V188.128H89.536V185.653ZM93.6533 187.147L96.448 187.872C95.5733 190.667 94.4 193.824 93.4187 195.851L91.1573 195.168C92.1173 193.035 93.1413 189.685 93.6533 187.147ZM89.3653 194.592C92.3947 194.421 97.1093 194.059 101.44 193.696V196.085C97.344 196.512 92.9493 196.917 89.8133 197.173L89.3653 194.592ZM97.856 190.88L100.139 189.92C101.611 192.053 103.147 194.869 103.68 196.832L101.163 197.92C100.736 196.021 99.3067 193.12 97.856 190.88ZM88.0853 177.931L90.4747 178.699C89.024 182.325 86.6773 186.144 84.2453 188.555C84.032 187.957 83.3493 186.549 82.9227 185.931C84.9493 184.011 86.9333 180.981 88.0853 177.931ZM86.0373 183.84L88.448 181.408L88.4693 181.429V197.856H86.0373V183.84Z" fill="#B96842"/>
<path d="M110.656 178.72C113.045 179.168 117.141 179.616 119.339 179.744L118.997 182.261C116.757 182.069 112.789 181.6 110.229 181.195L110.656 178.72ZM120.107 185.483C119.531 185.867 119.083 186.251 118.699 186.571C117.739 187.403 115.733 189.259 115.221 189.792C115.413 189.792 115.797 189.856 116.053 189.963C116.651 190.133 117.035 190.603 117.333 191.413C117.525 191.968 117.76 192.779 117.931 193.355C118.144 194.016 118.613 194.336 119.445 194.336C121.067 194.336 122.539 194.187 123.627 193.973L123.435 196.768C122.56 196.917 120.363 197.067 119.253 197.067C117.248 197.067 116.139 196.619 115.627 195.253C115.392 194.613 115.157 193.611 114.987 193.077C114.752 192.309 114.304 192.032 113.856 192.032C113.429 192.032 112.981 192.373 112.469 192.907C111.723 193.653 110.123 195.403 108.651 197.259L106.133 195.509C106.517 195.168 107.029 194.72 107.605 194.165C108.715 193.056 113.067 188.725 115.008 186.677C113.515 186.72 110.976 186.933 109.76 187.04C109.013 187.104 108.352 187.211 107.904 187.296L107.669 184.352C108.16 184.395 108.928 184.416 109.696 184.416C110.72 184.395 115.541 184.181 117.333 183.968C117.717 183.925 118.315 183.797 118.528 183.712L120.107 185.483Z" fill="#B96842"/>
<path d="M132.437 178.827C134.464 179.467 139.115 180.299 140.992 180.491L140.352 183.115C138.176 182.816 133.44 181.835 131.776 181.408L132.437 178.827ZM132.587 183.115C132.288 184.309 131.925 186.891 131.776 188.128C133.696 186.72 135.829 186.08 138.069 186.08C141.803 186.08 143.979 188.384 143.979 190.965C143.979 194.869 140.885 197.856 132.032 197.088L131.2 194.293C137.621 195.189 140.992 193.632 140.992 190.901C140.992 189.515 139.691 188.512 137.813 188.512C135.403 188.512 133.248 189.408 131.904 191.029C131.52 191.477 131.285 191.819 131.115 192.245L128.64 191.648C129.067 189.557 129.579 185.376 129.707 182.731L132.587 183.115Z" fill="#B96842"/>
<path d="M167.467 194.891C166.464 195.808 165.184 196.491 163.435 196.491C161.835 196.491 160.768 195.339 160.768 193.269C160.768 190.944 161.536 187.829 161.536 185.867C161.536 184.821 161.003 184.309 160.085 184.309C158.101 184.309 154.923 187.445 153.216 189.621L153.195 186.336C154.496 184.971 158.059 181.771 160.875 181.771C163.179 181.771 164.224 183.136 164.224 184.928C164.224 187.125 163.52 190.261 163.52 192.48C163.52 193.035 163.819 193.419 164.352 193.419C165.141 193.419 166.144 192.864 167.104 191.904L167.467 194.891ZM152.725 184.736C151.765 184.843 149.739 185.099 148.331 185.312L148.053 182.56C148.651 182.581 149.141 182.581 149.909 182.539C151.253 182.475 153.984 182.069 154.944 181.749L155.797 182.859C155.435 183.349 154.773 184.395 154.411 184.949L153.173 188.96C152.235 190.325 150.336 193.184 149.205 194.741L147.541 192.395C148.885 190.731 151.445 187.36 152.512 185.675L152.555 185.12L152.725 184.736ZM152.469 180.619C152.469 180.021 152.491 179.381 152.363 178.72L155.477 178.805C155.115 180.512 154.411 186.101 154.411 189.92C154.411 191.648 154.411 193.461 154.539 195.445C154.56 195.829 154.645 196.619 154.688 197.088H151.765C151.808 196.597 151.829 195.851 151.829 195.509C151.851 193.44 151.872 192.011 151.936 189.344C152 187.445 152.469 181.472 152.469 180.619Z" fill="#B96842"/>
<path d="M172.693 179.765C173.291 179.829 174.016 179.872 174.613 179.872C175.765 179.872 180.309 179.765 181.525 179.659C182.421 179.595 182.912 179.509 183.168 179.424L184.533 181.344C184.043 181.664 183.531 181.963 183.061 182.325C181.909 183.136 179.669 185.013 178.304 186.08C179.029 185.888 179.669 185.845 180.331 185.845C183.957 185.845 186.709 188.107 186.709 191.2C186.709 194.571 184.149 197.237 178.987 197.237C176.021 197.237 173.781 195.893 173.781 193.739C173.781 192.011 175.36 190.432 177.621 190.432C180.544 190.432 182.165 192.395 182.229 194.741L179.733 195.061C179.691 193.525 178.88 192.459 177.621 192.459C176.832 192.459 176.299 192.949 176.299 193.504C176.299 194.293 177.173 194.827 178.475 194.827C182.08 194.827 183.915 193.461 183.915 191.179C183.915 189.237 181.995 187.936 179.499 187.936C176.213 187.936 174.101 189.685 171.819 192.267L169.877 190.261C171.392 189.067 173.973 186.891 175.211 185.845C176.405 184.864 178.645 183.072 179.691 182.133C178.603 182.176 175.659 182.283 174.507 182.368C173.931 182.411 173.269 182.453 172.779 182.539L172.693 179.765Z" fill="#B96842"/>
<path d="M193.323 179.915C194.005 180 194.901 180.064 195.605 180.064C196.949 180.064 201.344 180.064 202.603 180.064C203.328 180.064 204.16 180 204.885 179.915V182.667C204.16 182.624 203.328 182.581 202.603 182.581C201.344 182.581 196.949 182.581 195.627 182.581C194.88 182.581 193.984 182.624 193.323 182.667V179.915ZM190.869 185.355C191.488 185.44 192.235 185.504 192.896 185.504C194.24 185.504 205.611 185.504 206.869 185.504C207.317 185.504 208.256 185.461 208.832 185.355V188.149C208.299 188.107 207.467 188.085 206.869 188.085C205.611 188.085 194.24 188.085 192.896 188.085C192.277 188.085 191.445 188.107 190.869 188.149V185.355ZM201.771 186.848C201.771 189.643 201.28 191.776 200.384 193.568C199.637 195.04 197.995 196.704 196.096 197.664L193.579 195.851C195.093 195.253 196.608 194.037 197.461 192.779C198.528 191.179 198.805 189.152 198.805 186.869L201.771 186.848ZM206.165 178.443C206.699 179.211 207.467 180.576 207.851 181.365L206.144 182.091C205.717 181.216 205.056 179.957 204.48 179.125L206.165 178.443ZM208.683 177.483C209.237 178.272 210.027 179.637 210.411 180.384L208.725 181.109C208.277 180.213 207.595 178.976 206.997 178.165L208.683 177.483Z" fill="#40322D"/>
<path d="M228.096 179.424C228.501 180.256 228.971 181.493 229.205 182.325L227.733 182.816C227.435 181.899 227.072 180.747 226.645 179.872L228.096 179.424ZM230.293 178.741C230.699 179.573 231.189 180.832 231.445 181.643L229.995 182.112C229.675 181.173 229.269 180.043 228.843 179.189L230.293 178.741ZM226.261 186.912C226.261 192.181 224.981 195.424 219.84 197.685L217.536 195.531C221.675 194.101 223.467 192.245 223.467 187.019V181.344C223.467 180.469 223.424 179.765 223.36 179.36H226.389C226.347 179.787 226.261 180.469 226.261 181.344V186.912ZM218.539 179.552C218.496 179.936 218.411 180.619 218.411 181.472V189.109C218.411 190.048 218.475 190.923 218.517 191.328H215.531C215.573 190.923 215.637 190.069 215.637 189.109V181.472C215.637 180.853 215.595 180.192 215.509 179.552H218.539ZM211.52 183.392C211.904 183.456 212.779 183.584 213.845 183.584H227.819C228.949 183.584 229.589 183.541 230.187 183.435V186.272C229.717 186.208 228.949 186.208 227.84 186.208H213.845C212.757 186.208 212.011 186.251 211.52 186.293V183.392Z" fill="#40322D"/>
<path d="M233.323 187.723C237.141 186.741 240.256 185.355 242.645 183.883C244.821 182.539 247.253 180.405 248.64 178.72L250.944 180.896C249.003 182.859 246.4 184.864 243.883 186.379C241.472 187.808 238.016 189.408 234.645 190.411L233.323 187.723ZM242.197 185.269L245.227 184.544V194.165C245.227 195.104 245.269 196.427 245.419 196.96H242.027C242.112 196.448 242.197 195.104 242.197 194.165V185.269Z" fill="#40322D"/>
<path d="M258.475 179.787C259.947 180.789 262.72 183.008 263.979 184.309L261.803 186.528C260.693 185.333 258.005 183.008 256.448 181.941L258.475 179.787ZM255.787 193.995C259.136 193.525 261.888 192.437 263.957 191.221C267.605 189.045 270.379 185.803 271.744 182.923L273.387 185.909C271.787 188.811 268.949 191.755 265.515 193.824C263.339 195.125 260.587 196.299 257.6 196.811L255.787 193.995Z" fill="#40322D"/>
<path d="M285.035 178.891C284.864 179.68 284.587 180.939 283.989 182.475C283.541 183.52 282.923 184.736 282.325 185.589C282.901 185.333 284.032 185.184 284.757 185.184C286.528 185.184 287.872 186.229 287.872 188.213C287.872 189.365 287.936 191.691 287.957 193.035H285.397C285.483 192.032 285.525 190.219 285.504 189.067C285.504 187.701 284.651 187.253 283.755 187.253C282.581 187.253 281.237 187.957 280.427 188.725C279.787 189.365 279.189 190.133 278.464 191.072L276.181 189.365C278.912 186.848 280.555 184.544 281.451 182.197C281.877 181.045 282.155 179.744 282.219 178.656L285.035 178.891ZM276.992 180.875C278.08 181.024 279.659 181.109 280.747 181.109C283.563 181.109 287.424 180.96 290.517 180.405L290.496 182.88C287.488 183.307 283.2 183.499 280.597 183.499C279.723 183.499 278.165 183.456 276.992 183.349V180.875ZM293.888 186.933C293.227 187.125 292.075 187.552 291.349 187.829C289.963 188.363 288.043 189.131 286.037 190.155C284.096 191.157 283.051 192.075 283.051 193.248C283.051 194.421 284.075 194.741 286.144 194.741C287.957 194.741 290.347 194.507 292.224 194.123L292.139 196.875C290.709 197.067 288.107 197.259 286.08 197.259C282.752 197.259 280.256 196.427 280.256 193.675C280.256 190.709 283.307 188.96 285.867 187.68C287.829 186.656 289.173 186.144 290.453 185.547C291.285 185.184 292.032 184.843 292.843 184.437L293.888 186.933Z" fill="#40322D"/>
<path d="M300.117 190.731C302.037 190.731 303.573 192.267 303.573 194.165C303.573 196.085 302.037 197.621 300.117 197.621C298.219 197.621 296.661 196.085 296.661 194.165C296.661 192.267 298.219 190.731 300.117 190.731ZM300.117 196.085C301.184 196.085 302.037 195.232 302.037 194.165C302.037 193.12 301.184 192.267 300.117 192.267C299.072 192.267 298.197 193.12 298.197 194.165C298.197 195.232 299.072 196.085 300.117 196.085Z" fill="#40322D"/>
<path d="M28 261.333C28 253.97 33.9695 248 41.3333 248H358.667C366.03 248 372 253.97 372 261.333V541.333C372 548.697 366.03 554.667 358.667 554.667H41.3333C33.9695 554.667 28 548.697 28 541.333V261.333Z" fill="#F8F6F0"/>
<path d="M79.1668 379.661C83.985 379.661 88.4143 377.98 91.9207 375.183L99.0035 382.264C100.001 381.107 101.083 380.025 102.241 379.027L95.1628 371.951C97.976 368.441 99.6719 363.998 99.6719 359.161C99.6719 347.862 90.4742 338.667 79.1668 338.667C67.8593 338.667 58.6667 347.862 58.6667 359.161C58.6667 370.461 67.8643 379.656 79.1668 379.656V379.661ZM79.1668 346.495C82.8528 346.495 85.8405 349.482 85.8405 353.167C85.8405 356.852 82.8528 359.839 79.1668 359.839C75.4807 359.839 72.493 356.852 72.493 353.167C72.493 349.482 75.4807 346.495 79.1668 346.495ZM68.1037 368.985C68.1037 365.634 70.2834 362.806 73.2811 361.759C74.957 362.911 76.9871 363.604 79.1668 363.604C81.3465 363.604 83.3765 362.911 85.0524 361.759C88.0501 362.806 90.2049 365.634 90.2049 368.985V370.605C87.3419 373.368 83.4513 375.078 79.1618 375.078C74.8722 375.078 70.9667 373.363 68.0987 370.585V368.985H68.1037Z" fill="#40322D"/>
<path d="M164.828 424.339C160 424.339 155.566 426.025 152.059 428.827L144.957 421.727C143.959 422.883 142.877 423.965 141.719 424.963L148.822 432.064C146.019 435.569 144.328 440.007 144.328 444.834C144.328 456.133 153.526 465.328 164.828 465.328C176.131 465.328 185.328 456.133 185.328 444.834C185.328 433.535 176.131 424.339 164.828 424.339ZM164.828 432.173C168.514 432.173 171.502 435.16 171.502 438.845C171.502 442.53 168.514 445.517 164.828 445.517C161.142 445.517 158.154 442.53 158.154 438.845C158.154 435.16 161.142 432.173 164.828 432.173ZM175.871 456.283C173.008 459.045 169.118 460.756 164.828 460.756C160.539 460.756 156.633 459.04 153.765 456.263V454.657C153.765 451.306 155.945 448.479 158.937 447.432C160.613 448.584 162.648 449.277 164.823 449.277C166.998 449.277 169.033 448.584 170.709 447.432C173.707 448.479 175.861 451.306 175.861 454.657V456.278L175.871 456.283Z" fill="#40322D"/>
<path d="M109.368 362.407C111.199 362.407 112.685 360.921 112.685 359.091C112.685 357.261 111.199 355.775 109.368 355.775C107.538 355.775 106.051 357.261 106.051 359.091C106.051 360.921 107.538 362.407 109.368 362.407Z" fill="#40322D"/>
<path d="M134.592 362.407C136.423 362.407 137.909 360.921 137.909 359.091C137.909 357.261 136.423 355.775 134.592 355.775C132.761 355.775 131.275 357.261 131.275 359.091C131.275 360.921 132.761 362.407 134.592 362.407Z" fill="#40322D"/>
<path d="M121.983 362.407C123.813 362.407 125.3 360.921 125.3 359.091C125.3 357.261 123.813 355.775 121.983 355.775C120.152 355.775 118.666 357.261 118.666 359.091C118.666 360.921 120.152 362.407 121.983 362.407Z" fill="#40322D"/>
<path d="M109.368 441.448C107.538 441.448 106.051 442.934 106.051 444.764C106.051 446.594 107.538 448.08 109.368 448.08C111.199 448.08 112.685 446.594 112.685 444.764C112.685 442.934 111.199 441.448 109.368 441.448Z" fill="#40322D"/>
<path d="M134.592 441.448C132.761 441.448 131.275 442.934 131.275 444.764C131.275 446.594 132.761 448.08 134.592 448.08C136.423 448.08 137.909 446.594 137.909 444.764C137.909 442.934 136.423 441.448 134.592 441.448Z" fill="#40322D"/>
<path d="M121.983 441.448C120.152 441.448 118.666 442.934 118.666 444.764C118.666 446.594 120.152 448.08 121.983 448.08C123.813 448.08 125.3 446.594 125.3 444.764C125.3 442.934 123.813 441.448 121.983 441.448Z" fill="#40322D"/>
<path d="M164.828 386.003C162.998 386.003 161.511 387.489 161.511 389.319C161.511 391.149 162.998 392.635 164.828 392.635C166.659 392.635 168.145 391.149 168.145 389.319C168.145 387.489 166.659 386.003 164.828 386.003Z" fill="#40322D"/>
<path d="M164.828 411.22C162.998 411.22 161.511 412.706 161.511 414.536C161.511 416.366 162.998 417.852 164.828 417.852C166.659 417.852 168.145 416.366 168.145 414.536C168.145 412.706 166.659 411.22 164.828 411.22Z" fill="#40322D"/>
<path d="M164.828 398.614C162.998 398.614 161.511 400.1 161.511 401.93C161.511 403.76 162.998 405.246 164.828 405.246C166.659 405.246 168.145 403.76 168.145 401.93C168.145 400.1 166.659 398.614 164.828 398.614Z" fill="#40322D"/>
<path d="M79.1317 393.299C80.9636 393.299 82.4486 391.814 82.4486 389.983C82.4486 388.151 80.9636 386.667 79.1317 386.667C77.2998 386.667 75.8148 388.151 75.8148 389.983C75.8148 391.814 77.2998 393.299 79.1317 393.299Z" fill="#40322D"/>
<path d="M79.1317 418.516C80.9636 418.516 82.4486 417.031 82.4486 415.199C82.4486 413.368 80.9636 411.883 79.1317 411.883C77.2998 411.883 75.8148 413.368 75.8148 415.199C75.8148 417.031 77.2998 418.516 79.1317 418.516Z" fill="#40322D"/>
<path d="M79.1317 405.905C80.9636 405.905 82.4486 404.42 82.4486 402.588C82.4486 400.757 80.9636 399.272 79.1317 399.272C77.2998 399.272 75.8148 400.757 75.8148 402.588C75.8148 404.42 77.2998 405.905 79.1317 405.905Z" fill="#40322D"/>
<path d="M144.957 382.264L152.054 375.168C155.561 377.97 160 379.661 164.828 379.661C176.131 379.661 185.328 370.465 185.328 359.166C185.328 347.867 176.136 338.667 164.828 338.667C153.521 338.667 144.328 347.862 144.328 359.161C144.328 363.988 146.014 368.421 148.817 371.927L141.719 379.022C142.877 380.02 143.959 381.102 144.957 382.259V382.264ZM164.828 346.495C168.514 346.495 171.502 349.482 171.502 353.167C171.502 356.852 168.514 359.839 164.828 359.839C161.142 359.839 158.154 356.852 158.154 353.167C158.154 349.482 161.142 346.495 164.828 346.495ZM153.77 368.985C153.77 365.634 155.95 362.806 158.942 361.759C160.618 362.911 162.653 363.604 164.828 363.604C167.003 363.604 169.038 362.911 170.714 361.759C173.712 362.806 175.866 365.634 175.866 368.985V370.605C173.003 373.368 169.113 375.078 164.823 375.078C160.534 375.078 156.628 373.363 153.76 370.585V368.98L153.77 368.985Z" fill="#40322D"/>
<path d="M99.0034 421.731L91.9206 428.812C88.4191 426.02 83.9899 424.339 79.1717 424.339C67.8692 424.339 58.6716 433.534 58.6716 444.834C58.6716 456.133 67.8692 465.328 79.1717 465.328C90.4741 465.328 99.6717 456.133 99.6717 444.834C99.6717 439.997 97.9759 435.554 95.1627 432.044L102.24 424.968C101.083 423.97 100.001 422.888 99.0034 421.731ZM79.1667 432.173C82.8527 432.173 85.8404 435.16 85.8404 438.845C85.8404 442.53 82.8527 445.517 79.1667 445.517C75.4806 445.517 72.4929 442.53 72.4929 438.845C72.4929 435.16 75.4806 432.173 79.1667 432.173ZM90.2098 456.283C87.3467 459.045 83.4562 460.756 79.1667 460.756C74.8771 460.756 70.9716 459.04 68.1036 456.263V454.662C68.1036 451.311 70.2833 448.484 73.281 447.437C74.9569 448.589 76.987 449.282 79.1667 449.282C81.3464 449.282 83.3764 448.589 85.0523 447.437C88.05 448.484 90.2048 451.311 90.2048 454.662V456.283H90.2098Z" fill="#40322D"/>
<path d="M128.302 389.943C127.06 382.403 124.506 376.549 122.222 376.025L121.943 376.006L121.663 376.03C119.414 376.574 116.885 382.428 115.653 389.943L115.428 391.319H128.531L128.307 389.943H128.302Z" fill="#40322D"/>
<path d="M132.856 390.307L133.006 391.319H145.779L144.822 389.569C141.924 384.268 137.23 380.109 131.604 377.86L129.015 376.823L130.068 379.406C131.295 382.413 132.232 386.083 132.856 390.307Z" fill="#40322D"/>
<path d="M133.46 408.208H147.251L147.446 407.261C147.805 405.53 147.984 403.76 147.984 401.99C147.984 400.22 147.805 398.45 147.446 396.719L147.251 395.772H133.46L133.534 397.023C133.634 398.674 133.689 400.334 133.689 401.985C133.689 403.636 133.634 405.291 133.534 406.947L133.46 408.198V408.208Z" fill="#40322D"/>
<path d="M129.225 401.995C129.225 400.19 129.165 398.505 129.065 396.894L128.995 395.782H114.955L114.89 396.894C114.79 398.505 114.73 400.19 114.73 401.995C114.73 403.8 114.795 405.491 114.89 407.096L114.955 408.208H128.995L129.065 407.096C129.165 405.486 129.225 403.8 129.225 401.995Z" fill="#40322D"/>
<path d="M110.501 395.777H96.7091L96.5146 396.724C96.1555 398.454 95.9759 400.225 95.9759 401.995C95.9759 403.765 96.1555 405.535 96.5146 407.266L96.7091 408.213H110.501L110.426 406.961C110.331 405.311 110.271 403.65 110.271 402C110.271 400.349 110.326 398.694 110.426 397.038L110.501 395.787V395.777Z" fill="#40322D"/>
<path d="M111.104 413.678L110.954 412.666H98.1803L99.138 414.416C102.036 419.717 106.73 423.876 112.356 426.125L114.95 427.162L113.892 424.579C112.665 421.572 111.727 417.902 111.104 413.678Z" fill="#40322D"/>
<path d="M145.775 412.666H133.001L132.851 413.678C132.228 417.902 131.29 421.572 130.063 424.579L129.01 427.162L131.599 426.125C137.225 423.876 141.919 419.717 144.817 414.416L145.775 412.666Z" fill="#40322D"/>
<path d="M98.1855 391.319H110.959L111.109 390.307C111.733 386.078 112.67 382.413 113.897 379.406L114.95 376.823L112.361 377.86C106.735 380.109 102.041 384.268 99.1432 389.569L98.1855 391.319Z" fill="#40322D"/>
<path d="M115.658 414.042C116.9 421.577 119.454 427.431 121.733 427.96L121.908 427.999L122.292 427.96C124.541 427.416 127.07 421.562 128.307 414.042L128.531 412.666H115.428L115.653 414.042H115.658Z" fill="#40322D"/>
<path d="M330.68 419.524C327.65 412.414 316.73 413.427 312.506 414.752C310.627 415.337 309.405 416.355 308.034 417.767C306.496 419.352 295.478 430.685 295.478 430.685L281.878 435.833C278.572 437.083 276.912 440.768 278.166 444.063C279.136 446.609 281.57 448.179 284.153 448.179C284.908 448.179 285.678 448.045 286.424 447.761L301.362 442.106C302.239 441.772 303.036 441.251 303.689 440.578L304.775 439.458C304.92 447.036 305.992 460.001 306.085 460.651C306.244 461.771 306.752 462.538 308.151 462.538H331.212C332.429 462.538 333.217 461.604 333.226 460.391C333.343 446.488 333.884 427.047 330.68 419.533V419.524Z" fill="#40322D"/>
<path d="M317.364 410.551C325.09 410.551 331.352 404.311 331.352 396.607C331.352 388.902 325.09 382.667 317.364 382.667C309.638 382.667 303.377 388.912 303.377 396.607C303.377 404.301 309.638 410.551 317.364 410.551Z" fill="#40322D"/>
<path d="M269.965 423.138C268.361 419.997 264.5 418.752 261.353 420.355L249.384 426.442C249.384 426.442 242.764 421.869 240.624 420.313C239.281 419.337 235.341 416.201 231.494 414.886C227.303 413.454 216.35 412.548 213.32 419.658C210.117 427.176 210.657 446.617 210.774 460.52C210.783 461.738 211.571 462.667 212.788 462.667H235.849C237.248 462.667 237.756 461.9 237.915 460.78C238.017 460.06 239.313 444.327 239.239 437.408C239.229 436.674 239.239 435.856 239.253 435.005L245.337 439.113C246.414 439.843 247.669 440.21 248.927 440.21C249.921 440.21 250.918 439.977 251.837 439.513L267.167 431.716C270.319 430.113 271.569 426.27 269.96 423.133L269.965 423.138Z" fill="#40322D"/>
<path d="M226.636 410.685C234.362 410.685 240.623 404.444 240.623 396.74C240.623 389.036 234.362 382.8 226.636 382.8C218.91 382.8 212.648 389.046 212.648 396.74C212.648 404.435 218.91 410.685 226.636 410.685Z" fill="#40322D"/>
<path d="M272.473 339.034C260.817 340.892 251.464 350.302 249.618 361.923C248.536 368.721 249.986 375.096 253.105 380.384L247.631 392.289C246.629 394.463 248.881 396.708 251.068 395.713L263.008 390.253C268.324 393.371 274.749 394.816 281.579 393.724C293.245 391.861 302.677 382.508 304.51 370.877C307.48 352.03 291.385 336.018 272.473 339.034ZM289.953 369.227L278.096 381.044C277.537 381.601 276.628 381.601 276.068 381.044L264.416 369.432C262.015 367.039 261.125 363.326 262.673 360.311C265.27 355.26 271.629 354.558 275.28 358.192L277.08 359.99L278.674 358.401C281.076 356.008 284.801 355.12 287.822 356.663C292.891 359.251 293.599 365.584 289.948 369.227H289.953Z" fill="#40322D"/>
</svg>
