<svg width="33" height="32" viewBox="0 0 33 32" fill="none" xmlns="http://www.w3.org/2000/svg">
<path d="M14.648 1.61992C15.4352 0.394393 17.2264 0.39439 18.0136 1.61992L22.3055 8.3021C22.5764 8.72376 22.9957 9.02839 23.4804 9.15566L31.1618 11.1727C32.5706 11.5426 33.1241 13.2462 32.2018 14.3735L27.173 20.5204C26.8557 20.9082 26.6955 21.4011 26.7242 21.9015L27.1796 29.8302C27.2632 31.2844 25.814 32.3372 24.4568 31.8084L17.0569 28.9252C16.5899 28.7433 16.0717 28.7433 15.6047 28.9252L8.20472 31.8084C6.84754 32.3372 5.3984 31.2844 5.48192 29.8302L5.93731 21.9015C5.96605 21.4011 5.8059 20.9082 5.48857 20.5204L0.459733 14.3735C-0.462566 13.2462 0.0909565 11.5426 1.49975 11.1727L9.18118 9.15567C9.6659 9.02839 10.0852 8.72376 10.356 8.3021L14.648 1.61992Z" fill="#EB7F4C"/>
</svg>
