<svg width="149" height="106" viewBox="0 0 149 106" fill="none" xmlns="http://www.w3.org/2000/svg">
<g clip-path="url(#clip0_405_1577)">
<path d="M31.2558 45.3137C36.5125 45.8861 41.2414 42.0867 41.8138 36.8259C42.3861 31.5652 38.5867 26.8403 33.326 26.2679C28.0652 25.6956 23.3403 29.495 22.768 34.7557C22.1956 40.0165 25.9951 44.7414 31.2558 45.3178V45.3137Z" fill="#4B4B4B"/>
<path d="M31.7023 83.6245H17.901C14.6536 83.6245 11.8893 81.3067 11.321 78.1081L6.60013 51.4188C6.27946 49.6084 4.55429 48.3947 2.74795 48.7275C0.937539 49.0441 -0.268046 50.7693 0.0526314 52.5797L4.77755 79.269C5.90601 85.646 11.4225 90.2735 17.901 90.2735H29.3601V102.366C29.3601 104.201 30.8458 105.69 32.6846 105.69C34.5234 105.69 36.0091 104.201 36.0091 102.366V87.9314C36.0091 85.5567 34.0769 83.6286 31.7063 83.6286L31.7023 83.6245Z" fill="#4B4B4B"/>
<path d="M42.5772 69.6527H33.8621L36.1312 59.2855L42.2768 62.2487C42.8776 62.537 43.5352 62.6871 44.2009 62.6871C44.2699 62.6871 44.3348 62.6871 44.3998 62.6831L53.6791 62.269C56.1228 62.1594 58.0184 60.0892 57.9088 57.6415C57.7992 55.1979 55.7047 53.3063 53.2854 53.4119L45.1223 53.7772C45.1223 53.7772 35.8349 48.9305 34.6902 48.6626C33.3993 48.3581 28.1305 47.2134 28.1305 47.2134C26.2754 46.8116 24.3717 47.1566 22.7764 48.1917C21.1811 49.2268 20.0933 50.8221 19.7036 52.6812L15.8351 71.2683C15.413 73.3101 15.9204 75.4128 17.2396 77.0324C18.5589 78.652 20.5073 79.5816 22.5978 79.5816H37.9781C38.9686 79.5816 39.7723 80.3853 39.7723 81.3757V100.531C39.7723 103.275 41.9927 105.5 44.7408 105.5C47.4888 105.5 49.7052 103.275 49.7052 100.531V76.7726C49.7052 72.8352 46.5146 69.6446 42.5813 69.6446L42.5772 69.6527Z" fill="#4B4B4B"/>
<path d="M110.853 45.3137C116.114 44.7414 119.913 40.0124 119.341 34.7517C118.768 29.4909 114.043 25.6915 108.783 26.2639C103.522 26.8362 99.7225 31.5652 100.295 36.8219C100.867 42.0826 105.592 45.882 110.853 45.3097V45.3137Z" fill="#4B4B4B"/>
<path d="M139.361 48.7235C137.554 48.3906 135.829 49.6043 135.508 51.4147L130.783 78.104C130.219 81.3027 127.451 83.6205 124.208 83.6205H110.406C108.032 83.6205 106.104 85.5486 106.104 87.9232V102.358C106.104 104.193 107.589 105.682 109.428 105.682C111.267 105.682 112.752 104.193 112.752 102.358V90.2654H124.212C130.686 90.2654 136.207 85.6379 137.335 79.2609L142.06 52.5716C142.381 50.7612 141.175 49.0401 139.365 48.7194L139.361 48.7235Z" fill="#4B4B4B"/>
<path d="M124.874 77.0364C126.193 75.4168 126.7 73.3141 126.278 71.2724L122.406 52.6853C122.02 50.8221 120.928 49.2309 119.333 48.1958C117.738 47.1607 115.834 46.8156 113.979 47.2175C113.979 47.2175 108.71 48.3663 107.419 48.6666C106.274 48.9345 96.9868 53.7812 96.9868 53.7812L88.8238 53.4159C86.4045 53.3104 84.3099 55.202 84.2003 57.6456C84.0907 60.0892 85.9823 62.1594 88.43 62.2731L97.7094 62.6871C97.7784 62.6871 97.8433 62.6912 97.9083 62.6912C98.574 62.6912 99.2316 62.541 99.8323 62.2528L105.978 59.2896L108.247 69.6568H99.532C95.5945 69.6568 92.404 72.8473 92.404 76.7848V100.543C92.404 103.287 94.6284 105.512 97.3725 105.512C100.116 105.512 102.341 103.287 102.341 100.543V81.3879C102.341 80.3975 103.145 79.5937 104.135 79.5937H119.515C121.602 79.5937 123.558 78.6642 124.874 77.0446V77.0364Z" fill="#4B4B4B"/>
<path d="M86.1852 66.0116H55.9197C54.0809 66.0116 52.5952 67.5014 52.5952 69.3361C52.5952 71.1709 54.0809 72.6606 55.9197 72.6606H67.7279V102.362C67.7279 104.197 69.2136 105.686 71.0524 105.686C72.8912 105.686 74.3769 104.197 74.3769 102.362V72.6606H86.1852C88.0199 72.6606 89.5096 71.1709 89.5096 69.3361C89.5096 67.5014 88.0199 66.0116 86.1852 66.0116Z" fill="#4B4B4B"/>
<path d="M56.3418 37.2116C55.8303 38.7378 54.8074 40.7025 52.7616 43.0852C51.4626 44.5912 52.9889 46.8238 54.8521 46.1337C58.7164 44.7008 63.141 42.6793 67.2367 40.6822C68.4829 40.8283 69.7494 40.9217 71.0524 40.9217C84.0134 40.9217 94.5227 33.4162 94.5227 24.1653C94.5227 14.9143 84.0175 7.4048 71.0524 7.4048C58.0873 7.4048 47.582 14.9062 47.582 24.1612C47.582 29.4382 51.0039 34.1387 56.3418 37.2075V37.2116ZM82.6658 20.512C84.6791 20.512 86.319 22.1478 86.319 24.1612C86.319 26.1746 84.6791 27.8104 82.6658 27.8104C80.6524 27.8104 79.0165 26.1746 79.0165 24.1612C79.0165 22.1478 80.6565 20.512 82.6658 20.512ZM71.0524 20.512C73.0657 20.512 74.7057 22.1478 74.7057 24.1612C74.7057 26.1746 73.0698 27.8104 71.0524 27.8104C69.0349 27.8104 67.4031 26.1746 67.4031 24.1612C67.4031 22.1478 69.0431 20.512 71.0524 20.512ZM59.439 20.512C61.4523 20.512 63.0882 22.1478 63.0882 24.1612C63.0882 26.1746 61.4523 27.8104 59.439 27.8104C57.4256 27.8104 55.7897 26.1746 55.7897 24.1612C55.7897 22.1478 57.4256 20.512 59.439 20.512Z" fill="#4B4B4B"/>
</g>
<rect x="131.923" y="4.91884" width="1.61331" height="3.69693" transform="rotate(1.79118 131.923 4.91884)" fill="#4B4B4B"/>
<rect width="1.61331" height="3.69693" transform="matrix(0.0312569 -0.999511 -0.999511 -0.0312569 144.142 17.9265)" fill="#4B4B4B"/>
<rect x="140.397" y="8.04123" width="1.61331" height="3.69693" transform="rotate(46.7912 140.397 8.04123)" fill="#4B4B4B"/>
<rect x="123.673" y="8.61446" width="1.61331" height="3.69693" transform="rotate(-43.2088 123.673 8.61446)" fill="#4B4B4B"/>
<path d="M123.824 24.5849C124.287 25.0778 125.062 25.102 125.555 24.639L123.878 22.8546C123.386 23.3176 123.361 24.0921 123.824 24.5849Z" fill="#4B4B4B"/>
<path d="M127.772 23.9091L124.898 20.8492C124.648 20.5835 124.23 20.5704 123.965 20.82C123.699 21.0699 123.685 21.4878 123.935 21.7535L126.809 24.8134C127.059 25.0791 127.477 25.0926 127.743 24.8426C128.009 24.5931 128.022 24.1748 127.772 23.9091Z" fill="#4B4B4B"/>
<path d="M136.426 12.7996C134.361 10.6012 130.905 10.4927 128.706 12.5582C127.769 13.4381 127.212 14.5706 127.041 15.7512C126.81 17.3403 126.807 18.068 125.74 19.0703C125.251 19.53 125.237 19.9613 125.571 20.317L128.245 23.1631C128.579 23.5192 129.011 23.5327 129.5 23.0731C130.567 22.0708 131.293 22.1128 132.894 21.9818C134.083 21.8846 135.248 21.3995 136.184 20.5195C138.383 18.454 138.491 14.9981 136.426 12.7996Z" fill="#4B4B4B"/>
<rect x="137.363" y="22.8983" width="1.61331" height="3.69693" transform="rotate(-43.2088 137.363 22.8983)" fill="#4B4B4B"/>
<defs>
<clipPath id="clip0_405_1577">
<rect width="142.105" height="98.2815" fill="white" transform="translate(0 7.4048)"/>
</clipPath>
</defs>
</svg>
