<svg width="51" height="63" viewBox="0 0 51 63" fill="none" xmlns="http://www.w3.org/2000/svg">
<path d="M12.7127 20.2329L12.8111 20.2899L19.9067 20.3544L20.0078 20.2994C22.3692 18.9996 23.8521 16.521 23.8772 13.8279C23.8996 11.2744 23.0449 9.09831 22.2179 6.99471C21.6522 5.55654 21.0694 4.07161 20.7643 2.46659C20.5119 1.14101 20.5621 0.568475 20.5615 0.567245L20.6305 0L20.0655 0.0881013C17.4463 0.500553 14.7003 2.20327 12.5329 4.76276C10.2556 7.44973 8.9871 10.6217 8.95929 13.6947C8.93493 16.3866 10.3737 18.8911 12.7127 20.2329ZM11.0921 11.5084C11.1328 11.4088 11.1687 11.3022 11.206 11.1863C11.6049 9.89467 12.9501 9.40359 13.2208 11.2766C13.4928 13.1529 15.0225 12.7533 15.3827 11.1524C15.8311 9.13965 17.0514 9.65522 17.259 10.4496C17.4687 11.2433 17.2407 12.6807 18.3193 12.7629C18.9685 12.8123 19.1651 11.9461 19.5613 10.6865C19.788 9.9632 21.0063 9.30601 21.7213 11.3207C21.9086 12.1253 22.0233 12.9446 22.0158 13.811C21.9995 15.6908 21.0028 17.479 19.4142 18.4884L13.3361 18.4341C11.765 17.3948 10.8024 15.591 10.8193 13.7106C10.8268 12.9879 10.9184 12.2499 11.0921 11.5084Z" fill="#40322D"/>
<path d="M17.9771 22.4078L14.7026 22.3779C13.696 22.3698 12.7279 22.7748 12.0271 23.4992C11.3284 24.2244 10.9566 25.2039 10.9994 26.2113L11.1975 30.8601H21.3303L21.6099 26.3056C21.6715 25.2989 21.3181 24.3139 20.6316 23.5773C19.9444 22.8392 18.9845 22.4173 17.9771 22.4078Z" fill="#40322D"/>
<path d="M12.4483 59.6026C12.5298 61.4892 14.0744 62.9836 15.963 62.9992L15.9881 63C17.8774 63.0163 19.4486 61.551 19.5646 59.6651L21.2334 32.4805H11.2695L12.4483 59.6026Z" fill="#40322D"/>
<path d="M46.3676 20.9716C43.6372 16.9285 39.7685 13.7125 35.218 11.7886C32.1965 10.5099 28.8759 9.80169 25.4027 9.79492C25.6531 10.7256 25.8477 11.6977 25.9236 12.7397C30.3486 12.8509 34.4473 14.2402 37.8785 16.5603C41.4562 18.978 44.2971 22.4024 45.9992 26.4244C47.1315 29.0992 47.7637 32.044 47.7637 35.1421C47.7568 40.255 46.0405 44.9024 43.1506 48.6531C40.2683 52.4045 36.2042 55.2455 31.5432 56.6904C31.3281 56.7528 31.0431 56.8017 30.7304 56.8017C30.3554 56.8017 29.9523 56.7318 29.5915 56.607C29.2306 56.4747 28.918 56.2874 28.6818 56.0582C28.5218 55.8987 28.3895 55.7251 28.2856 55.5094C28.1466 55.2246 28.0563 54.8704 28.0496 54.3705C28.0496 54.0714 28.091 53.724 28.1812 53.3143C28.2924 52.8001 28.4593 52.231 28.6052 51.5919C28.7442 50.9595 28.8691 50.2507 28.8691 49.4733C28.8691 47.1526 28.1609 44.9784 26.9521 43.1862C25.9236 41.6653 24.5277 40.4075 22.8879 39.5467L22.6865 42.8946C23.8193 43.7629 24.7222 44.916 25.2779 46.2429C25.7019 47.236 25.9313 48.3201 25.9313 49.4733C25.9313 49.9311 25.8545 50.4175 25.7366 50.9453C25.6186 51.4737 25.4516 52.0428 25.3126 52.6684C25.181 53.2659 25.1112 53.8284 25.1112 54.3704C25.1112 55.3778 25.3472 56.2942 25.7781 57.0513C26.202 57.8158 26.8064 58.4061 27.4665 58.8232C27.9041 59.1007 28.3762 59.3089 28.8416 59.4548C29.4738 59.6494 30.1129 59.7398 30.7308 59.7398C31.3074 59.7398 31.8772 59.6637 32.4119 59.4969C37.657 57.8714 42.2203 54.6832 45.4853 50.4454C48.7435 46.2151 50.7019 40.9219 50.7019 35.1421C50.7017 29.8977 49.1041 25.0141 46.3676 20.9716Z" fill="#40322D"/>
<path d="M8.77334 42.1305C8.40494 42.2763 7.97428 42.3597 7.52319 42.3597C6.96013 42.3597 6.36249 42.2274 5.80005 41.9358C5.23772 41.6441 4.70247 41.1997 4.23034 40.5187C3.91756 40.0676 3.63947 39.5188 3.41762 38.831C3.126 37.9206 2.93798 36.7816 2.93798 35.3856C2.93798 35.3089 2.93798 35.2396 2.94475 35.1631C2.97256 32.8363 3.34773 30.5923 4.01452 28.4873C4.68131 26.3763 5.63984 24.4029 6.84877 22.6181C7.51556 21.6243 8.25901 20.6935 9.06496 19.8252C8.41171 19.0404 7.88396 18.1443 7.52307 17.1925C7.51556 17.1993 7.50203 17.2135 7.49526 17.2203C2.93122 21.8054 0.0969607 28.14 0.00689058 35.1216V35.1284C-3.02534e-08 35.2118 0 35.2952 0 35.3856C0 37.247 0.27747 38.8445 0.777408 40.1925C1.28485 41.533 2.01403 42.6238 2.88913 43.4431C3.47324 43.9852 4.11898 44.4092 4.78577 44.7145C5.68192 45.1105 6.61941 45.2978 7.52307 45.2978C8.28694 45.2978 9.03715 45.1663 9.72499 44.9092L9.58594 41.6307C9.37024 41.832 9.09277 42.0056 8.77334 42.1305Z" fill="#40322D"/>
<path d="M31.6968 43.4708C31.6968 44.5338 32.0231 45.5269 32.5787 46.3472C33.1342 47.1667 33.9122 47.8192 34.8362 48.2086C35.4549 48.4724 36.1353 48.6184 36.8442 48.6184C37.8998 48.6184 38.9003 48.292 39.7198 47.7365C40.5393 47.1802 41.1858 46.3953 41.5812 45.4713C41.8384 44.8601 41.9841 44.1798 41.9841 43.4708C41.9841 42.408 41.6578 41.4147 41.109 40.5952C40.5534 39.775 39.7685 39.1225 38.8446 38.733C38.2259 38.4766 37.5455 38.3308 36.8441 38.3308C35.7811 38.3308 34.788 38.6571 33.9678 39.2059C33.1484 39.7615 32.4951 40.5464 32.1064 41.4703C31.8425 42.0884 31.6968 42.7627 31.6968 43.4708ZM34.7113 42.0328C34.9888 41.623 35.3782 41.2968 35.8436 41.1021C36.1495 40.9704 36.4826 40.9005 36.8442 40.9005C37.3788 40.9005 37.8652 41.0607 38.2816 41.3381C38.6914 41.6162 39.0183 42.0124 39.2123 42.471C39.3446 42.7762 39.4138 43.1167 39.4138 43.4708C39.4138 44.0061 39.2544 44.4993 38.9763 44.909C38.6989 45.3187 38.3027 45.6449 37.8441 45.8397C37.5388 45.972 37.1983 46.0412 36.8442 46.0412C36.3022 46.0412 35.8158 45.8811 35.406 45.6036C34.9963 45.3255 34.6626 44.9299 34.4753 44.4713C34.343 44.1653 34.2737 43.8323 34.2737 43.4707C34.2737 42.9363 34.4332 42.4499 34.7113 42.0328Z" fill="#40322D"/>
<path d="M31.5352 21.3068C31.5352 19.6841 30.2191 18.368 28.5964 18.368C26.9737 18.368 25.6577 19.6841 25.6577 21.3068C25.6577 22.9295 26.9737 24.2455 28.5964 24.2455C30.2191 24.2455 31.5352 22.9295 31.5352 21.3068Z" fill="#40322D"/>
<path d="M35.8213 23.0366C34.3758 23.0366 33.2041 24.2081 33.2041 25.6537C33.2041 27.0986 34.3756 28.2709 35.8213 28.2709C37.2669 28.2709 38.4385 27.0986 38.4385 25.6537C38.4384 24.2083 37.2669 23.0366 35.8213 23.0366Z" fill="#40322D"/>
<path d="M39.3726 34.619C40.5034 34.619 41.4198 33.7032 41.4198 32.5724C41.4198 31.4416 40.5034 30.5258 39.3726 30.5258C38.2424 30.5258 37.3252 31.4416 37.3252 32.5724C37.3252 33.7032 38.2424 34.619 39.3726 34.619Z" fill="#40322D"/>
</svg>
