<svg width="60" height="64" viewBox="0 0 60 64" fill="none" xmlns="http://www.w3.org/2000/svg">
<path fill-rule="evenodd" clip-rule="evenodd" d="M22.3806 0.69104H23.2363C29.7448 0.69104 35.3931 1.04831 39.6141 1.91416C41.723 2.34675 43.5196 2.91479 44.9009 3.65619C46.2772 4.39484 47.3314 5.35556 47.7881 6.61407C48.2531 7.89514 48.0313 9.29314 47.2572 10.7441C46.4894 12.1834 45.1443 13.7468 43.2185 15.4533C39.3628 18.8699 32.9987 23.0157 23.6397 28.0262C16.2217 31.9975 11.8463 35.7384 9.58403 39.125C7.35023 42.469 7.17035 45.4685 8.15662 48.1193C9.16356 50.8257 11.4276 53.2751 14.2805 55.3523C17.1222 57.4213 20.4733 59.0663 23.5308 60.1887C23.9745 60.3516 24.2025 60.8441 24.0399 61.2887C23.8773 61.7333 23.3857 61.9617 22.9419 61.7988C19.7713 60.6348 16.2715 58.9217 13.2744 56.7395C10.2885 54.5655 7.72576 51.8706 6.55288 48.7182C5.35932 45.5103 5.64655 41.9364 8.16166 38.1713C10.6483 34.4488 15.3037 30.5447 22.833 26.5138C32.1583 21.5214 38.381 17.4506 42.0846 14.1689C43.9384 12.5262 45.116 11.12 45.7478 9.93582C46.3733 8.76328 46.4278 7.88385 46.1797 7.20008C45.9233 6.49375 45.2749 5.80222 44.0927 5.16772C42.9157 4.53596 41.2982 4.00995 39.2708 3.59408C35.2194 2.76302 29.707 2.40581 23.2363 2.40581H22.3806V0.69104Z" fill="#40322D"/>
<path fill-rule="evenodd" clip-rule="evenodd" d="M47.9674 20.5575L2.85509 32.5494L2.78174 32.2734L47.894 20.2816L47.9674 20.5575Z" fill="#40322D"/>
<path d="M21.769 61.3331C21.769 60.2835 22.6199 59.4326 23.6695 59.4326V59.4326C24.7191 59.4326 25.57 60.2835 25.57 61.3331V61.3331C25.57 62.3827 24.7191 63.2335 23.6695 63.2335V63.2335C22.6199 63.2335 21.769 62.3827 21.769 61.3331V61.3331Z" fill="#F8F6F0"/>
<path fill-rule="evenodd" clip-rule="evenodd" d="M22.3538 61.3331C22.3538 62.0597 22.9429 62.6488 23.6695 62.6488C24.3961 62.6488 24.9852 62.0597 24.9852 61.3331C24.9852 60.6064 24.3961 60.0174 23.6695 60.0174C22.9429 60.0174 22.3538 60.6064 22.3538 61.3331ZM23.6695 59.4326C22.6199 59.4326 21.769 60.2835 21.769 61.3331C21.769 62.3827 22.6199 63.2335 23.6695 63.2335C24.7191 63.2335 25.57 62.3827 25.57 61.3331C25.57 60.2835 24.7191 59.4326 23.6695 59.4326Z" fill="#4B4B4B"/>
<path fill-rule="evenodd" clip-rule="evenodd" d="M19.5896 1.90046C19.5896 2.62711 20.1787 3.21617 20.9053 3.21617C21.632 3.21617 22.221 2.62711 22.221 1.90046C22.221 1.17382 21.632 0.584758 20.9053 0.584758C20.1787 0.584758 19.5896 1.17382 19.5896 1.90046ZM20.9053 0C19.8557 0 19.0049 0.850866 19.0049 1.90046C19.0049 2.95006 19.8557 3.80092 20.9053 3.80092C21.9549 3.80092 22.8058 2.95006 22.8058 1.90046C22.8058 0.850866 21.9549 0 20.9053 0Z" fill="#40322D"/>
<path d="M23.4966 26.4337C23.4966 25.3841 24.2701 24.5332 25.2243 24.5332V24.5332C26.1785 24.5332 26.952 25.3841 26.952 26.4337V26.4337C26.952 27.4833 26.1785 28.3341 25.2243 28.3341V28.3341C24.2701 28.3341 23.4966 27.4833 23.4966 26.4337V26.4337Z" fill="#F8F6F0"/>
<path fill-rule="evenodd" clip-rule="evenodd" d="M24.0282 26.4337C24.0282 27.1603 24.5637 27.7494 25.2243 27.7494C25.8849 27.7494 26.4204 27.1603 26.4204 26.4337C26.4204 25.707 25.8849 25.118 25.2243 25.118C24.5637 25.118 24.0282 25.707 24.0282 26.4337ZM25.2243 24.5332C24.2701 24.5332 23.4966 25.3841 23.4966 26.4337C23.4966 27.4833 24.2701 28.3341 25.2243 28.3341C26.1785 28.3341 26.952 27.4833 26.952 26.4337C26.952 25.3841 26.1785 24.5332 25.2243 24.5332Z" fill="#40322D"/>
<path fill-rule="evenodd" clip-rule="evenodd" d="M49.8587 20.9536L49.5057 19.2773L47.8293 19.6304L48.1824 21.3067L49.8587 20.9536ZM49.9468 18.6008L47.1529 19.1893L47.7413 21.9832L50.5352 21.3947L49.9468 18.6008Z" fill="#40322D"/>
<path fill-rule="evenodd" clip-rule="evenodd" d="M2.70591 33.1891L2.35285 31.5128L0.676498 31.8658L1.02956 33.5422L2.70591 33.1891ZM2.79395 30.8363L2.84281e-05 31.4247L0.588458 34.2186L3.38237 33.6302L2.79395 30.8363Z" fill="#40322D"/>
<path d="M0 0.69104H15.8948V16.5858H0V0.69104Z" fill="#F8F6F0"/>
<path fill-rule="evenodd" clip-rule="evenodd" d="M13.6241 2.96172H2.27068V14.3151H13.6241V2.96172ZM0 0.69104V16.5858H15.8948V0.69104H0Z" fill="#40322D"/>
<path d="M9.19251 9.61493L8.3736 7.43106C8.33328 7.3342 8.2914 7.21918 8.24797 7.086C8.20455 6.95282 8.16112 6.80904 8.11769 6.65467C8.07737 6.80904 8.03549 6.95433 7.99206 7.09054C7.94864 7.22372 7.90676 7.34025 7.86644 7.44014L7.05218 9.61493H9.19251ZM11.4026 12.0939H10.4348C10.3263 12.0939 10.2379 12.0682 10.1696 12.0167C10.1014 11.9623 10.0502 11.8957 10.0161 11.817L9.51356 10.4776H6.72648L6.22396 11.817C6.19915 11.8866 6.15107 11.9501 6.07972 12.0077C6.00838 12.0652 5.91998 12.0939 5.81451 12.0939H4.8374L7.4849 5.52869H8.75979L11.4026 12.0939Z" fill="#40322D"/>
<path d="M45.844 33.382C46.3021 33.1746 46.8419 33.2912 47.1736 33.6692L53.4046 40.7723C53.8205 41.2465 53.7733 41.9681 53.2992 42.384L35.1201 58.3311C34.9695 58.4633 34.7868 58.5534 34.5903 58.5926L25.0211 60.5006C24.1635 60.6716 23.4397 59.8546 23.7129 59.0238L29.5918 41.1455C29.6917 40.8417 29.9144 40.5937 30.2057 40.4618L45.844 33.382Z" fill="#40322D"/>
<path d="M53.8591 42.5187C54.1244 42.0915 54.079 41.5411 53.7474 41.163L47.5164 34.0599C47.1004 33.5858 46.3788 33.5386 45.9047 33.9545L27.7256 49.9016C27.575 50.0337 27.4618 50.2032 27.3974 50.3929L24.2593 59.632C23.978 60.4601 24.6938 61.2841 25.5531 61.1214L44.0448 57.6212C44.359 57.5617 44.6339 57.3733 44.8026 57.1016L53.8591 42.5187Z" fill="#40322D"/>
<path d="M51.1529 28.1245C51.6267 27.7082 52.3483 27.7547 52.7647 28.2286L59.7159 36.1394C60.1323 36.6133 60.0857 37.3349 59.6119 37.7512L56.1834 40.7638C55.7095 41.1802 54.9879 41.1336 54.5716 40.6598L47.6203 32.7489C47.204 32.2751 47.2506 31.5535 47.7244 31.1371L51.1529 28.1245Z" fill="#40322D"/>
<path d="M23.8426 63.1455C22.4787 63.365 21.3455 62.0988 21.7146 60.7675C22.1151 59.3231 23.9544 58.8928 24.9539 60.0098C25.9535 61.1268 25.3225 62.9072 23.8426 63.1455Z" fill="#40322D"/>
<path d="M24.8962 58.4474L26.4985 60.238L24.708 61.8403L23.1056 60.0498L24.8962 58.4474Z" fill="#40322D"/>
<path d="M34.5606 50.8749L35.0947 51.4718L24.9482 60.5518L24.414 59.9549L34.5606 50.8749Z" fill="#F8F6F0"/>
<path d="M38.6111 51.5496C37.4574 52.582 35.6851 52.4837 34.6527 51.33C33.6202 50.1763 33.7186 48.404 34.8723 47.3716C36.026 46.3391 37.7982 46.4374 38.8307 47.5912C39.8631 48.7449 39.7648 50.5171 38.6111 51.5496Z" fill="#F8F6F0"/>
</svg>
