<svg width="60" height="44" viewBox="0 0 60 44" fill="none" xmlns="http://www.w3.org/2000/svg">
<path d="M59.7853 37.9402L54.4423 31.2223V2.97012C54.4423 1.60348 53.3339 0.495117 51.9673 0.495117H8.03273C6.66609 0.495117 5.55832 1.60348 5.55832 2.97012V31.2223L0.215273 37.9402C0.0759375 38.1154 0 38.3321 0 38.5571V41.5305C0 42.6217 0.883828 43.505 1.97449 43.505H58.0255C59.1165 43.505 60 42.6217 60 41.5305V38.5571C60 38.3321 59.925 38.1154 59.7853 37.9402ZM9.04992 3.98731H50.9501V27.7302H9.04992V3.98731ZM35.6392 41.1567H24.3608V38.171H35.6392V41.1567Z" fill="#40322D"/>
<path d="M23.9534 11.6208C23.9396 11.6208 23.927 11.6251 23.917 11.6321L17.1758 16.2336C17.158 16.2467 17.1475 16.266 17.1475 16.2883V17.5253C17.1475 17.5475 17.158 17.5679 17.1758 17.579L23.917 22.1805C23.9271 22.1886 23.9398 22.1927 23.9534 22.1927C23.9636 22.1927 23.9741 22.1896 23.9832 22.1846C24.0045 22.1734 24.0182 22.1511 24.0182 22.1268V20.1553C24.0182 20.1351 24.0076 20.1138 23.9898 20.1016L19.3093 16.9062L23.9898 13.7119C24.0076 13.6988 24.0182 13.6795 24.0182 13.6572V11.6867C24.0182 11.6625 24.0045 11.6391 23.9832 11.6291C23.9741 11.623 23.9634 11.6208 23.9534 11.6208Z" fill="#40322D"/>
<path d="M35.8675 11.6321C35.8568 11.6251 35.8446 11.6208 35.8309 11.6208C35.8204 11.6208 35.8102 11.623 35.8006 11.6291C35.7798 11.6391 35.7661 11.6625 35.7661 11.6867V13.6583C35.7661 13.6796 35.7768 13.6999 35.7945 13.7119L40.4749 16.9062L35.7945 20.1016C35.7768 20.1138 35.7661 20.135 35.7661 20.1562V22.1267C35.7661 22.151 35.7798 22.1732 35.8006 22.1845C35.8102 22.1895 35.8204 22.1926 35.8309 22.1926C35.8446 22.1926 35.8567 22.1886 35.8675 22.1804L42.6081 17.5789C42.6273 17.5678 42.6374 17.5475 42.6374 17.5252V16.2882C42.6374 16.2659 42.6273 16.2466 42.6081 16.2335L35.8675 11.6321Z" fill="#40322D"/>
<path d="M32.9738 10.542H31.0894C31.0616 10.542 31.0368 10.5592 31.0282 10.5856L26.7494 22.993C26.7428 23.0123 26.7463 23.0345 26.758 23.0507C26.7708 23.0679 26.7905 23.0791 26.8112 23.0791H28.6956C28.7235 23.0791 28.7484 23.0608 28.7569 23.0345L33.0352 10.6292C33.0423 10.609 33.0387 10.5866 33.0271 10.5694C33.0143 10.5522 32.9946 10.542 32.9738 10.542Z" fill="#40322D"/>
</svg>
