<svg width="91" height="102" viewBox="0 0 91 102" fill="none" xmlns="http://www.w3.org/2000/svg">
<path fill-rule="evenodd" clip-rule="evenodd" d="M27.9966 102H61.6026V65.2681L81.9413 39.6375C82.9586 38.3546 83.3685 36.6923 83.0613 35.0844C82.7551 33.4756 81.7635 32.08 80.3453 31.2622L66.3591 23.1872C63.6677 21.6336 60.2218 22.557 58.6672 25.2484C57.1137 27.9398 58.0371 31.3857 60.7285 32.9402L69.0623 37.7521C69.0623 37.7521 67.6105 39.5822 65.7616 41.9111C60.9072 48.0286 53.5245 51.5951 45.7142 51.5951H43.883C36.0727 51.5951 28.6909 48.0286 23.8356 41.9111C21.9877 39.5822 20.5349 37.7521 20.5349 37.7521L28.8687 32.9402C31.5601 31.3867 32.4835 27.9398 30.93 25.2484C29.3764 22.557 25.9295 21.6336 23.2381 23.1872L9.25391 31.2622C7.83564 32.081 6.84403 33.4765 6.53786 35.0844C6.23169 36.6933 6.64058 38.3556 7.65885 39.6375L27.9976 65.2681V102H27.9966ZM44.7996 22C37.4514 22 31.486 27.9654 31.486 35.3136C31.486 42.6617 37.4514 48.6281 44.7996 48.6281C52.1477 48.6281 58.1142 42.6617 58.1142 35.3136C58.1142 27.9654 52.1477 22 44.7996 22Z" fill="#40322D"/>
<path d="M81.8521 16.3005C71.1387 15.3972 70.9485 19.3302 70.9694 19.2389C71.7332 15.8761 73.3997 11.212 76.8627 8.82467C80.3258 6.43735 85.1955 6.68192 87.1364 8.81975C87.649 9.38425 88.5163 10.7117 88.4402 12.1829C88.3691 13.5633 87.0978 15.2353 85.5442 15.9335C83.9906 16.6317 82.5649 16.3613 81.8507 16.3003L81.8521 16.3005Z" fill="#40322D"/>
<path d="M8.17088 16.3004C18.8842 15.3971 19.0745 19.3301 19.0536 19.2388C18.2897 15.876 16.6233 11.2119 13.1602 8.82454C9.69712 6.43723 4.8274 6.6818 2.88658 8.81963C2.37398 9.38412 1.50662 10.7116 1.5827 12.1828C1.65381 13.5632 2.92516 15.2351 4.47873 15.9334C6.0323 16.6316 7.45808 16.3612 8.17221 16.3002L8.17088 16.3004Z" fill="#40322D"/>
<path d="M21.097 8.77557C28.4279 12.1361 27.1018 14.7752 27.1218 14.7079C27.8629 12.2296 28.4943 8.56863 27.1126 5.73227C25.7309 2.89591 22.4599 1.25996 20.4039 1.94068C19.8609 2.12037 18.8049 2.66763 18.3121 3.65663C17.8495 4.58449 18.0634 6.14541 18.8207 7.17435C19.578 8.2033 20.609 8.55241 21.0979 8.7759L21.097 8.77557Z" fill="#40322D"/>
<path d="M68.5515 8.77557C61.2206 12.1361 62.5466 14.7752 62.5266 14.7078C61.7855 12.2296 61.1541 8.56862 62.5358 5.73227C63.9175 2.89591 67.1885 1.25996 69.2446 1.94068C69.7875 2.12037 70.8436 2.66763 71.3364 3.65663C71.7989 4.58449 71.5851 6.14541 70.8278 7.17435C70.0705 8.2033 69.0395 8.5524 68.5505 8.7759L68.5515 8.77557Z" fill="#40322D"/>
</svg>
