<svg width="94" height="102" viewBox="0 0 94 102" fill="none" xmlns="http://www.w3.org/2000/svg">
<path d="M59.997 6.77715C59.6178 5.34014 58.5914 3.98047 56.9418 3.039C56.7942 2.95412 56.6418 2.87273 56.4854 2.79403C54.779 1.93104 53.1116 1.87168 51.7801 2.3604C50.4465 2.8447 49.4786 3.79375 48.8934 4.80777C48.3953 5.6955 48.1292 6.63449 48.3102 7.59823C48.4371 8.22007 48.9701 8.70316 49.6831 8.61603C50.4631 8.48449 50.8621 7.7702 50.7344 7.14855L50.7347 7.14807C50.6892 7.01011 50.5784 6.4648 50.8855 5.95385C51.2286 5.3531 51.8223 4.7847 52.5572 4.52366C53.2951 4.2668 54.2041 4.2359 55.4584 4.85194C55.5765 4.9105 55.688 4.97085 55.795 5.0324C56.9954 5.72921 57.554 6.55985 57.7766 7.37365C57.996 8.1887 57.8579 9.03299 57.4605 9.72494C57.1312 10.2972 56.6325 10.7488 56.0361 10.9903C54.9273 11.4394 54.2828 11.583 53.7623 11.6628C53.2508 11.7459 52.7625 11.7489 52.0752 11.9218C51.4437 12.081 50.9399 12.3531 50.5835 12.6662C50.2281 12.9754 50.0299 13.2915 49.9383 13.4071C49.7139 13.7044 49.5195 14.0064 49.3545 14.2933C49.1603 14.6318 49.0068 14.9467 48.8943 15.2285C48.6804 15.7661 48.9008 16.3689 49.3878 16.649C49.4356 16.6765 49.4853 16.7008 49.5375 16.7213C50.1274 16.9552 50.7954 16.6669 51.0297 16.0764C51.0906 15.9225 51.2026 15.688 51.3459 15.4389C51.4678 15.2271 51.6136 15.002 51.7719 14.7929C51.9372 14.5677 52.0014 14.4778 52.0882 14.4034C52.1747 14.332 52.295 14.2423 52.6456 14.1489C53.0261 14.0468 53.4192 14.0375 54.1072 13.9366C54.7875 13.8344 55.6621 13.6255 56.8998 13.1204C58.0052 12.6707 58.8847 11.8573 59.4523 10.8708C60.1377 9.68014 60.3804 8.21344 59.997 6.77715ZM49.0715 17.311C48.3363 16.8881 47.3971 17.1416 46.9737 17.8776C46.5503 18.6136 46.8031 19.5534 47.5382 19.9763C48.2736 20.3993 49.2133 20.1456 49.6367 19.4096C50.0601 18.6735 49.8069 17.7341 49.0715 17.311Z" fill="#40322D"/>
<path d="M72.6097 23.1261C72.888 22.1091 72.7416 20.9094 72.0638 19.7446C72.0034 19.64 71.9388 19.5359 71.8707 19.4319C71.1302 18.2951 70.1277 17.6656 69.1365 17.492C68.1455 17.315 67.2138 17.5533 66.4939 17.9676C65.8723 18.3354 65.375 18.8172 65.1433 19.4732C65 19.9001 65.1554 20.3862 65.6241 20.5864C66.1497 20.783 66.6487 20.4865 66.7914 20.0594L66.7917 20.0592C66.8129 19.9584 66.9389 19.5842 67.3091 19.3798C67.7335 19.133 68.3001 18.9953 68.8441 19.0964C69.3884 19.2012 69.9574 19.5056 70.5083 20.3299C70.56 20.4079 70.607 20.4846 70.6508 20.5604C71.1398 21.4151 71.1872 22.1238 71.0344 22.7025C70.8792 23.2809 70.4941 23.7501 70.004 24.0335C69.5983 24.2677 69.1315 24.3675 68.6795 24.3036C67.8391 24.1849 67.3924 24.0438 67.0445 23.9077C66.7009 23.7768 66.4001 23.6049 65.9167 23.4665C65.4724 23.3397 65.0663 23.3275 64.7361 23.3929C64.408 23.4563 64.1739 23.5799 64.0765 23.6183C63.833 23.721 63.6063 23.8372 63.4029 23.9546C63.1633 24.0934 62.9571 24.2321 62.7877 24.365C62.4652 24.619 62.3861 25.0674 62.5854 25.4126C62.605 25.4465 62.6269 25.4791 62.6516 25.5103C62.9305 25.8636 63.4432 25.9243 63.797 25.6452C63.8892 25.5723 64.0414 25.4682 64.2179 25.3663C64.3681 25.2796 64.5377 25.1932 64.7092 25.1212C64.8908 25.0417 64.9622 25.0094 65.0419 24.9946C65.1204 24.9815 65.2262 24.9693 65.4746 25.0366C65.7445 25.1093 65.9891 25.2435 66.4474 25.4262C66.9014 25.6054 67.5126 25.7883 68.452 25.9185C69.2906 26.0356 70.1198 25.8491 70.8192 25.4454C71.6634 24.9583 72.3341 24.1442 72.6097 23.1261ZM62.1558 25.7065C61.8549 25.1854 61.1882 25.0069 60.6665 25.3081C60.1447 25.6093 59.9656 26.2762 60.2665 26.7973C60.5675 27.3186 61.2346 27.497 61.7563 27.1958C62.278 26.8946 62.4567 26.2278 62.1558 25.7065Z" fill="#40322D"/>
<path fill-rule="evenodd" clip-rule="evenodd" d="M19.5618 82.1061C12.9877 82.1061 7.32888 77.3748 6.18952 70.8831C4.57162 61.6678 2.6385 50.6541 2.6385 50.6541C2.51064 49.9295 1.82196 49.4446 1.0991 49.5728C0.376235 49.6997 -0.107362 50.3914 0.0205 51.1161C0.0205 51.1161 1.95362 62.1298 3.57152 71.345C4.85646 78.668 10.9483 84.1215 18.2326 84.7168V100.667C18.2326 101.404 18.8289 102 19.5618 102C20.2948 102 20.8911 101.404 20.8911 100.667V84.7713H35.2281C35.9611 84.7713 36.5573 84.1748 36.5573 83.4387C36.5573 82.7026 35.9611 82.1061 35.2281 82.1061H19.5618ZM20.662 35.3888C23.3268 35.3888 25.9347 36.5996 27.6045 38.681C30.339 42.0887 34.4951 47.2681 34.4951 47.2681H49.66C51.7564 47.2681 53.4579 48.9738 53.4579 51.0755C53.4579 53.1772 51.7564 54.8829 49.66 54.8829H32.9215C31.9138 54.8829 30.9479 54.4819 30.2364 53.7674L29.292 52.752L29.0084 66.7977C29.0084 66.7977 38.8272 67.8371 44.2658 68.4133C46.6217 68.6633 48.5814 70.3411 49.1941 72.6358C51.1311 79.8813 55.153 94.9321 55.153 94.9321C55.886 97.6722 54.2605 100.494 51.5273 101.227C48.7941 101.962 45.9799 100.332 45.2482 97.5923L39.6741 78.6782H20.8506C18.4187 78.6782 16.0868 77.7111 14.3663 75.9876C12.6472 74.2641 11.68 71.9263 11.68 69.4883V44.3909C11.68 39.4184 15.7007 35.3876 20.6607 35.3876L20.662 35.3888ZM35.7028 64.7823H92.671C93.404 64.7823 94.0002 64.1858 94.0002 63.4497C94.0002 62.7136 93.404 62.1171 92.671 62.1171H35.7028C34.9686 62.1171 34.3736 62.7148 34.3736 63.4497C34.3736 64.1845 34.9686 64.7823 35.7028 64.7823ZM64.9693 56.8818L73.5385 35.3812L76.7123 36.6529L67.2847 60.1283L41.8744 60.3085V56.8818H64.9693ZM24.6232 15C19.6707 15 15.6513 19.0308 15.6513 23.9957C15.6513 28.9606 19.672 32.9914 24.6232 32.9914C29.5743 32.9914 33.5963 28.9606 33.5963 23.9957C33.5963 19.0308 29.5756 15 24.6232 15Z" fill="#40322D"/>
</svg>
