<svg width="94" height="135" viewBox="0 0 94 135" fill="none" xmlns="http://www.w3.org/2000/svg">
<path fill-rule="evenodd" clip-rule="evenodd" d="M30.9966 135H64.6026V98.2681L84.9413 72.6375C85.9586 71.3546 86.3685 69.6923 86.0613 68.0844C85.7551 66.4756 84.7635 65.08 83.3453 64.2622L69.3591 56.1872C66.6677 54.6336 63.2218 55.557 61.6672 58.2484C60.1137 60.9398 61.0371 64.3857 63.7285 65.9402L72.0623 70.7521C72.0623 70.7521 70.6105 72.5822 68.7616 74.9111C63.9072 81.0286 56.5245 84.5951 48.7142 84.5951H46.883C39.0727 84.5951 31.6909 81.0286 26.8356 74.9111C24.9877 72.5822 23.5349 70.7521 23.5349 70.7521L31.8687 65.9402C34.5601 64.3867 35.4835 60.9398 33.93 58.2484C32.3764 55.557 28.9295 54.6336 26.2381 56.1872L12.2539 64.2622C10.8356 65.081 9.84403 66.4765 9.53786 68.0844C9.23169 69.6933 9.64058 71.3556 10.6588 72.6375L30.9976 98.2681V135H30.9966ZM47.7996 55C40.4514 55 34.486 60.9654 34.486 68.3136C34.486 75.6617 40.4514 81.6281 47.7996 81.6281C55.1477 81.6281 61.1142 75.6617 61.1142 68.3136C61.1142 60.9654 55.1477 55 47.7996 55Z" fill="#40322D"/>
<path d="M84.8521 49.3005C74.1387 48.3972 73.9485 52.3302 73.9694 52.2389C74.7332 48.8761 76.3997 44.212 79.8627 41.8247C83.3258 39.4374 88.1955 39.6819 90.1364 41.8198C90.649 42.3842 91.5163 43.7117 91.4402 45.1829C91.3691 46.5633 90.0978 48.2353 88.5442 48.9335C86.9906 49.6317 85.5649 49.3613 84.8507 49.3003L84.8521 49.3005Z" fill="#40322D"/>
<path d="M11.1709 49.3004C21.8842 48.3971 22.0745 52.3301 22.0536 52.2388C21.2897 48.876 19.6233 44.2119 16.1602 41.8245C12.6971 39.4372 7.8274 39.6818 5.88658 41.8196C5.37398 42.3841 4.50662 43.7116 4.5827 45.1828C4.65381 46.5632 5.92516 48.2351 7.47873 48.9334C9.0323 49.6316 10.4581 49.3612 11.1722 49.3002L11.1709 49.3004Z" fill="#40322D"/>
<path d="M24.097 41.7756C31.4279 45.1361 30.1018 47.7752 30.1218 47.7079C30.8629 45.2296 31.4943 41.5686 30.1126 38.7323C28.7309 35.8959 25.4599 34.26 23.4039 34.9407C22.8609 35.1204 21.8049 35.6676 21.3121 36.6566C20.8495 37.5845 21.0634 39.1454 21.8207 40.1744C22.578 41.2033 23.609 41.5524 24.0979 41.7759L24.097 41.7756Z" fill="#40322D"/>
<path d="M71.5515 41.7756C64.2206 45.1361 65.5466 47.7752 65.5266 47.7078C64.7855 45.2296 64.1541 41.5686 65.5358 38.7323C66.9175 35.8959 70.1885 34.26 72.2446 34.9407C72.7875 35.1204 73.8436 35.6676 74.3364 36.6566C74.7989 37.5845 74.5851 39.1454 73.8278 40.1744C73.0705 41.2033 72.0395 41.5524 71.5505 41.7759L71.5515 41.7756Z" fill="#40322D"/>
</svg>
