<svg width="31" height="26" viewBox="0 0 31 26" fill="none" xmlns="http://www.w3.org/2000/svg">
<rect y="5" width="31" height="18" rx="5" fill="#EB7F4C"/>
<path d="M6.684 10.836H7.62V17.292C7.62 17.856 7.764 17.964 8.436 17.964C8.772 17.964 10.332 17.964 10.764 17.964C11.46 17.964 11.568 17.568 11.664 15.66C11.892 15.828 12.276 15.996 12.54 16.056C12.396 18.216 12.12 18.864 10.812 18.864C10.5 18.864 8.664 18.864 8.364 18.864C7.056 18.864 6.684 18.528 6.684 17.268V10.836ZM6.708 8.592L7.296 7.956C8.328 8.628 9.636 9.612 10.332 10.176L9.732 10.908C9.036 10.296 7.716 9.288 6.708 8.592ZM4.764 11.556L5.604 11.772C5.34 13.104 4.896 14.832 4.224 15.888L3.372 15.54C4.056 14.496 4.524 12.864 4.764 11.556ZM11.856 12.336L12.66 11.964C13.5 13.164 14.304 14.736 14.64 15.792L13.776 16.224C13.476 15.156 12.66 13.536 11.856 12.336ZM12.492 8.64L13.38 9.012C11.412 12.756 8.244 16.212 3.972 18.252C3.84 18.048 3.576 17.724 3.384 17.544C7.524 15.66 10.752 12.192 12.492 8.64ZM18.492 8.124L19.332 8.484C18.504 9.48 17.22 10.464 16.128 11.088C15.972 10.884 15.696 10.608 15.456 10.44C16.5 9.9 17.772 8.988 18.492 8.124ZM18.708 11.496L19.536 11.844C18.72 12.936 17.424 13.98 16.272 14.652C16.116 14.436 15.852 14.148 15.612 13.956C16.716 13.404 18.012 12.444 18.708 11.496ZM18.972 14.868L19.812 15.192C18.972 16.632 17.556 17.904 16.068 18.696C15.924 18.48 15.66 18.168 15.42 17.976C16.824 17.316 18.228 16.14 18.972 14.868ZM19.692 8.52H26.448V9.288H19.692V8.52ZM21.096 12.924V14.088H25.14V12.924H21.096ZM21.096 14.76V15.948H25.14V14.76H21.096ZM21.096 11.1V12.252H25.14V11.1H21.096ZM20.244 10.404H26.028V16.644H20.244V10.404ZM22.584 8.88L23.616 9.024C23.412 9.708 23.16 10.464 22.956 10.968L22.14 10.812C22.308 10.272 22.5 9.444 22.584 8.88ZM21.588 16.896L22.368 17.4C21.6 18.012 20.376 18.624 19.308 18.972C19.188 18.78 18.924 18.516 18.744 18.336C19.776 18.012 21 17.412 21.588 16.896ZM23.616 17.436L24.3 16.944C25.104 17.352 26.172 17.988 26.724 18.444L26.016 18.984C25.5 18.54 24.444 17.868 23.616 17.436Z" fill="white"/>
</svg>
